<svg width="256" height="170" viewBox="0 0 256 170" fill="none" xmlns="http://www.w3.org/2000/svg">
<g clip-path="url(#clip0_997_10259)">
<g style="mix-blend-mode:multiply">
<path d="M232.223 2.43262H173.59C172.033 2.43262 170.771 3.69752 170.771 5.25786V62.4098C170.771 63.9701 172.033 65.235 173.59 65.235H232.223C233.78 65.235 235.043 63.9701 235.043 62.4098V5.25786C235.043 3.69752 233.78 2.43262 232.223 2.43262Z" fill="#DBDFFF"/>
</g>
<path d="M234.348 -0.00012207H175.715C174.158 -0.00012207 172.896 1.26478 172.896 2.82512V59.9771C172.896 61.5374 174.158 62.8023 175.715 62.8023H234.348C235.905 62.8023 237.168 61.5374 237.168 59.9771V2.82512C237.168 1.26478 235.905 -0.00012207 234.348 -0.00012207Z" fill="#5353BD"/>
<path d="M200.57 13.0592C198.556 17.5291 200.767 21.7226 201.951 24.7696C203.135 27.8155 203.175 29.517 202.859 30.585C202.544 31.653 203.096 32.4446 203.372 33.9869C203.648 35.5303 202.859 36.2025 203.214 36.9543C203.57 37.7061 204.518 38.5762 205.031 38.5762C205.544 38.5762 206.531 37.904 206.886 36.7166C207.242 35.5303 206.571 31.297 206.452 30.1892C206.334 29.0814 206.017 27.4993 206.372 24.7298C206.727 21.9603 207.36 13.3367 207.32 13.099C207.28 12.8613 200.569 13.0592 200.569 13.0592H200.57Z" fill="#7F7FEB"/>
<path d="M218.27 35.6873C214.2 35.9545 215.428 41.5425 216.454 42.4922C217.48 43.4419 218.902 42.4922 220.323 43.6C221.744 44.7078 222.219 45.8941 221.192 47.3977C220.165 48.9013 221.112 50.4037 222.139 51.0373C223.165 51.6708 223.482 55.3104 222.929 58.0003C222.376 60.6902 221.193 60.374 222.771 60.374H228.14C228.14 60.374 229.166 47.8731 229.798 46.8438C230.431 45.8144 230.588 42.8084 230.431 41.8586C230.273 40.9089 228.694 38.4568 226.956 38.2987C225.22 38.1406 224.272 39.9604 223.245 39.4065C222.219 38.8526 223.087 35.3711 218.27 35.6873Z" fill="#9B9BEB"/>
<path d="M217.639 14.7209C206.743 18.6767 207.69 28.1715 210.77 29.0416C213.849 29.9116 213.612 37.4286 210.849 39.6442C208.085 41.8598 205.322 39.4065 204.848 41.2263C204.375 43.0461 204.295 46.6856 205.322 46.9234C206.348 47.1611 205.874 48.9013 207.69 49.7714C209.506 50.6414 213.928 50.7995 215.744 47.7138C217.561 44.6281 216.218 42.7287 216.218 42.7287C212.743 40.4346 214.007 35.4495 217.402 35.1333C220.797 34.8171 221.191 36.2411 221.824 34.9752C222.456 33.7093 221.903 32.1273 223.482 29.9901C225.061 27.8541 227.667 23.8187 227.982 20.8115C228.298 17.8054 222.692 13.058 217.639 14.7186V14.7209ZM210.454 47.003C208.796 47.3192 208.48 45.579 207.295 45.4994C206.112 45.4198 206.663 43.9958 206.9 42.4137C208.006 42.5718 211.48 41.464 212.428 40.9897C213.376 40.5154 212.112 46.6868 210.454 47.003Z" fill="#9B9BEB"/>
<path d="M190.093 35.6873C194.163 35.9545 192.935 41.5425 191.909 42.4922C190.883 43.4419 189.46 42.4922 188.039 43.6C186.618 44.7078 186.144 45.8941 187.171 47.3977C188.197 48.9013 187.25 50.4037 186.223 51.0373C185.196 51.6708 184.881 55.3104 185.433 58.0003C185.986 60.6902 187.17 60.374 185.591 60.374H180.222C180.222 60.374 179.196 47.8731 178.564 46.8438C177.932 45.8156 177.774 42.8084 177.932 41.8586C178.09 40.9089 179.668 38.4568 181.406 38.2987C183.144 38.1406 184.091 39.9604 185.118 39.4065C186.144 38.8526 185.276 35.3711 190.093 35.6873Z" fill="#9B9BEB"/>
<path d="M180.382 20.8127C180.697 23.8188 183.303 27.8542 184.882 29.9913C186.461 32.1273 185.908 33.7105 186.541 34.9764C187.173 36.2423 187.567 34.8183 190.963 35.1345C194.357 35.4507 195.621 40.4358 192.146 42.7299C192.146 42.7299 190.804 44.6293 192.62 47.715C194.436 50.8007 198.858 50.6426 200.674 49.7725C202.49 48.9025 202.017 47.1611 203.043 46.9246C204.069 46.6868 203.99 43.0472 203.516 41.2274C203.042 39.4076 200.279 41.861 197.515 39.6454C194.751 37.4298 194.515 29.9128 197.595 29.0428C200.674 28.1727 201.622 18.6779 190.725 14.7221C185.672 13.0604 180.066 17.8078 180.382 20.815V20.8127ZM195.936 40.9886C196.884 41.4629 200.358 42.5707 201.464 42.4126C201.701 43.9947 202.254 45.4187 201.069 45.4983C199.884 45.5779 199.568 47.3181 197.91 47.0019C196.252 46.6857 194.989 40.5143 195.936 40.9886Z" fill="#9B9BEB"/>
<path d="M204.004 16.5406C201.006 16.345 198.083 15.2747 198.398 16.6202C198.714 17.9658 200.135 18.3604 199.267 20.2598C198.398 22.1593 199.82 23.3455 202.109 22.1593C204.398 20.973 205.661 22.7928 207.478 22.1593C209.294 21.5257 208.741 20.1814 208.425 19.3113C208.11 18.4412 209.531 15.7513 209.215 15.5136C208.9 15.2759 205.82 16.6612 204.004 16.5418V16.5406Z" fill="#9B9BEB"/>
<path d="M203.966 9.45823C200.968 9.2626 198.045 8.19233 198.36 9.53784C198.676 10.8834 200.097 11.278 199.229 13.1774C198.36 15.0769 199.781 16.2631 202.071 15.0769C204.36 13.8906 205.623 15.7104 207.439 15.0769C209.255 14.4433 208.703 13.099 208.387 12.2289C208.072 11.3588 209.493 8.66889 209.177 8.43118C208.862 8.19347 205.782 9.57879 203.966 9.45937V9.45823Z" fill="#9B9BEB"/>
<path d="M204.22 23.1408C202.204 23.0088 200.238 22.29 200.45 23.1942C200.663 24.0984 201.618 24.3646 201.035 25.6419C200.45 26.9191 201.406 27.7164 202.946 26.9191C204.486 26.1207 205.335 27.3445 206.557 26.9191C207.778 26.4937 207.406 25.5895 207.194 25.0038C206.981 24.418 207.937 22.6096 207.725 22.4504C207.512 22.2911 205.442 23.2215 204.221 23.1419L204.22 23.1408Z" fill="#9B9BEB"/>
<path d="M204.467 28.449C202.929 28.3489 201.43 27.7996 201.592 28.4899C201.754 29.1803 202.483 29.3828 202.037 30.3564C201.592 31.33 202.321 31.9385 203.494 31.33C204.669 30.7215 205.316 31.6541 206.248 31.33C207.18 31.0058 206.896 30.3154 206.734 29.8696C206.572 29.4237 207.3 28.0441 207.139 27.9224C206.978 27.8007 205.398 28.5104 204.466 28.4501L204.467 28.449Z" fill="#9B9BEB"/>
<path d="M160.38 49.2926H154.334V70.4557H160.38V49.2926Z" fill="#9696FE"/>
<path d="M169.713 74.8732C171.301 74.8732 172.587 73.5834 172.587 71.9934C172.587 70.4033 171.3 69.1135 169.713 69.1135H146.861V74.8743H169.713V74.8732Z" fill="#BABAFE"/>
<path d="M149.703 72.4589C149.958 70.8889 148.894 69.4097 147.327 69.1548C145.76 68.9 144.284 69.9661 144.03 71.536C143.775 73.106 144.839 74.5852 146.406 74.8401C147.973 75.0949 149.449 74.0288 149.703 72.4589Z" fill="#9696FE"/>
<path d="M179.386 86.0594V81.0117C179.386 79.3967 180.697 78.083 182.307 78.083H187.441C189.053 78.083 190.364 79.3967 190.364 81.0117V86.0594C190.364 87.6745 189.053 88.9882 187.441 88.9882H182.307C180.697 88.9882 179.386 87.6745 179.386 86.0594ZM182.307 79.5718C181.515 79.5718 180.87 80.2179 180.87 81.0117V86.0594C180.87 86.8533 181.515 87.4993 182.307 87.4993H187.441C188.233 87.4993 188.878 86.8533 188.878 86.0594V81.0117C188.878 80.2179 188.233 79.5718 187.441 79.5718H182.307Z" fill="white"/>
<path d="M178.955 74.0703H153.568C152.848 74.0703 152.264 74.6554 152.264 75.3772V90.6237C152.264 91.3454 152.848 91.9305 153.568 91.9305H178.955C179.675 91.9305 180.259 91.3454 180.259 90.6237V75.3772C180.259 74.6554 179.675 74.0703 178.955 74.0703Z" fill="#9696FE"/>
<path d="M185.294 91.9316H158.12C157.893 91.9316 157.71 91.7474 157.71 91.5199V74.4832C157.71 74.2557 157.893 74.0714 158.12 74.0714H185.294C185.521 74.0714 185.705 74.2557 185.705 74.4832V91.5199C185.705 91.7474 185.521 91.9316 185.294 91.9316Z" fill="white"/>
<path d="M180.043 77.1776H163.373C162.653 77.1776 162.069 77.7627 162.069 78.4845V87.5186C162.069 88.2404 162.653 88.8255 163.373 88.8255H180.043C180.763 88.8255 181.347 88.2404 181.347 87.5186V78.4845C181.347 77.7627 180.763 77.1776 180.043 77.1776Z" fill="#5353BD"/>
<path d="M152.602 78.083H156.251V79.5718H152.602C151.81 79.5718 151.165 80.2179 151.165 81.0117V86.0594C151.165 86.8533 151.81 87.4993 152.602 87.4993H156.251V88.9882H152.602C150.992 88.9882 149.681 87.6745 149.681 86.0594V81.0117C149.681 79.3967 150.992 78.0841 152.602 78.0841V78.083Z" fill="white"/>
<path d="M169.068 45.8793H146.671V51.2556H169.068V45.8793Z" fill="#BABAFE"/>
<path d="M175.54 26.1664H127.509V45.8794H175.54V26.1664Z" fill="#BABAFE"/>
<path d="M127.509 26.1664H108.603V70.7117H127.509V26.1664Z" fill="#BABAFE"/>
<path d="M128.903 52.9052H22.9307V134.006H128.903V52.9052Z" fill="#5353BD"/>
<path d="M96.364 52.9038C94.5945 61.0906 89.412 84.2726 86.9183 86.9284C83.8832 90.1596 52.7744 114.49 46.8938 117.531C41.0132 120.572 30.3916 125.704 30.3916 127.985C30.3916 130.267 44.4285 129.696 51.4475 127.795C58.4654 125.895 71.1743 122.853 82.3668 124.184C93.5582 125.515 93.9373 127.795 100.577 127.605C107.216 127.416 113.476 122.474 111.39 111.068C109.337 99.8524 115.725 68.2299 124.056 52.9038H96.3663H96.364Z" fill="#7F7FEB"/>
<path d="M102.409 52.9038C100.516 63.0139 97.9362 75.7093 95.3245 82.1992L97.6672 81.0993L99.4378 82.3038L101.271 81.0368L105.002 73.9407L107.658 74.1306L105.382 74.7642L104.054 78.1217L105.635 78.629L103.611 78.8189L101.904 81.9239C101.904 81.9239 100.576 82.6211 100.387 82.7474C100.197 82.8736 99.0587 84.0781 99.0587 84.0781L99.5014 86.7396C99.5014 86.7396 98.1734 85.029 98.1098 84.7753C98.0463 84.5217 98.1734 82.4937 98.1734 82.4937L96.6559 82.5574L94.6945 83.6379C94.505 84.0326 94.3154 84.3932 94.1259 84.7116C90.5846 90.6669 85.6529 96.877 87.9298 98.7775C90.2055 100.678 95.3903 101.312 97.161 104.099C98.9316 106.887 100.828 108.534 104.116 107.014C107.405 105.494 107.531 98.3977 106.772 91.1742C106.215 85.8695 113.297 64.0967 117.097 52.9049H102.41L102.409 52.9038Z" fill="#9B9BEB"/>
<path d="M98.7747 107.171C90.9021 105.746 87.2042 113.254 88.9113 117.721C90.6184 122.187 97.2572 125.324 103.612 122.758C109.967 120.192 108.733 110.878 98.7747 107.171Z" fill="#9B9BEB"/>
<path d="M85.4011 98.3328C82.3512 98.5023 77.8134 101.85 80.8485 103.18C83.8835 104.511 84.5475 109.357 86.729 109.833C88.9106 110.308 90.2385 107.837 92.0398 106.316C93.8423 104.795 87.1081 98.2373 85.4011 98.3328Z" fill="#9B9BEB"/>
<path d="M79.1417 104.701C75.3053 104.701 74.6844 106.697 76.0124 108.502C77.3404 110.308 77.7195 113.539 79.4266 110.498C81.1336 107.457 79.6161 104.701 79.1417 104.701Z" fill="#9B9BEB"/>
<path d="M82.2707 109.453C80.1845 110.308 79.2356 111.164 79.331 113.445C79.4263 115.726 78.7623 117.817 81.323 118.958C83.8836 120.099 83.8836 122.569 85.686 120.099C87.4884 117.627 86.9186 108.884 82.2718 109.454L82.2707 109.453Z" fill="#9B9BEB"/>
<path d="M48.223 120.192C43.1347 120.838 33.9966 125.514 34.3757 126.75C34.7548 127.985 37.8852 127.891 44.6193 125.325C51.3534 122.759 55.7165 119.242 48.223 120.193V120.192Z" fill="#9B9BEB"/>
<path d="M71.9334 107.077C66.3684 105.918 51.1624 117.056 52.3009 118.861C53.4393 120.668 53.1544 120.762 57.043 118.957C60.9316 117.151 79.2362 108.598 71.9334 107.077Z" fill="#9B9BEB"/>
<path d="M75.6322 114.015C69.8436 112.04 55.0508 121.904 55.9997 123.519C56.9485 125.135 57.1381 125.135 63.3978 123.233C69.6575 121.333 80.0906 115.536 75.6322 114.015Z" fill="#9B9BEB"/>
<g style="mix-blend-mode:multiply">
<path d="M64.3924 43.2098H21.9979C20.5574 43.2098 19.3896 44.38 19.3896 45.8235V72.719C19.3896 74.1625 20.5574 75.3327 21.9979 75.3327H64.3924C65.8329 75.3327 67.0007 74.1625 67.0007 72.719V45.8235C67.0007 44.38 65.8329 43.2098 64.3924 43.2098Z" fill="#DBDFFF"/>
</g>
<path d="M62.116 40.1685H19.7216C18.2811 40.1685 17.1133 41.3386 17.1133 42.7821V69.6776C17.1133 71.1211 18.2811 72.2913 19.7216 72.2913H62.116C63.5565 72.2913 64.7243 71.1211 64.7243 69.6776V42.7821C64.7243 41.3386 63.5565 40.1685 62.116 40.1685Z" fill="#F57BA9"/>
<path d="M27.1974 56.9163C29.8402 56.9163 31.9827 54.3351 31.9827 51.151C31.9827 47.9669 29.8402 45.3856 27.1974 45.3856C24.5546 45.3856 22.4121 47.9669 22.4121 51.151C22.4121 54.3351 24.5546 56.9163 27.1974 56.9163Z" fill="white"/>
<path d="M27.3253 58.8805C23.2574 58.8805 19.959 61.8308 19.959 65.4704H34.6917C34.6917 61.8308 31.3933 58.8805 27.3253 58.8805Z" fill="white"/>
<path d="M59.1378 43.907H37.5586C36.8477 43.907 36.2715 44.4844 36.2715 45.1968V46.4183C36.2715 47.1306 36.8477 47.7081 37.5586 47.7081H59.1378C59.8486 47.7081 60.4249 47.1306 60.4249 46.4183V45.1968C60.4249 44.4844 59.8486 43.907 59.1378 43.907Z" fill="#7F7FEB"/>
<path d="M59.1378 53.1368H37.5586C36.8477 53.1368 36.2715 53.7143 36.2715 54.4266V55.6482C36.2715 56.3605 36.8477 56.9379 37.5586 56.9379H59.1378C59.8486 56.9379 60.4249 56.3605 60.4249 55.6482V54.4266C60.4249 53.7143 59.8486 53.1368 59.1378 53.1368Z" fill="white"/>
<path d="M59.1378 62.3655H37.5586C36.8477 62.3655 36.2715 62.9429 36.2715 63.6553V64.8768C36.2715 65.5891 36.8477 66.1666 37.5586 66.1666H59.1378C59.8486 66.1666 60.4249 65.5891 60.4249 64.8768V63.6553C60.4249 62.9429 59.8486 62.3655 59.1378 62.3655Z" fill="white"/>
<path d="M22.7834 158.409C22.3407 159.517 22.1035 161.903 22.1035 161.903L32.5696 161.936C31.8421 160.824 30.278 159.877 28.2951 159.285C26.3122 158.692 26.0432 157.749 26.0432 157.749L22.7823 158.409H22.7834Z" fill="#EEA886"/>
<path d="M22.404 159.846C23.3722 160.125 25.1246 160.447 26.9373 159.867C27.1166 159.633 27.3856 159.381 28.0076 159.193C28.0996 159.224 28.196 159.255 28.297 159.286C30.2799 159.878 31.844 160.825 32.5716 161.937L22.1055 161.904C22.1055 161.904 22.2088 160.87 22.4051 159.848L22.404 159.846Z" fill="#2B1710"/>
<path d="M31.3977 158.436C30.955 159.544 30.7178 161.93 30.7178 161.93L41.1839 161.963C40.4563 160.851 38.8922 159.905 36.9094 159.312C34.9265 158.719 34.6575 157.776 34.6575 157.776L31.3965 158.436H31.3977Z" fill="#EEA886"/>
<path d="M31.0182 159.874C31.9864 160.152 33.7389 160.474 35.5515 159.894C35.7309 159.66 35.9999 159.409 36.6219 159.22C36.7138 159.252 36.8103 159.282 36.9113 159.313C38.8942 159.906 40.4583 160.852 41.1858 161.964L30.7197 161.931C30.7197 161.931 30.823 160.897 31.0194 159.875L31.0182 159.874Z" fill="#2B1710"/>
<path d="M39.3142 131.04L36.715 158.642C35.2065 159.057 29.9309 158.705 29.9309 158.705L29.2726 155.093L28.0888 158.782C25.0719 159.36 21.8098 158.09 21.8098 158.09L21.4795 129.807L32.5472 125.563L39.3142 131.039V131.04Z" fill="#292C47"/>
<path d="M47.5547 93.5739C47.7056 92.316 48.1687 91.331 48.4218 90.9545C48.6738 90.5781 49.3299 88.524 49.4559 88.5035C49.8951 88.6934 49.9144 89.1347 49.6397 90.0572C49.3651 90.9796 49.1971 91.1672 51.0835 90.3131C52.971 89.4589 54.6917 88.1634 54.8586 88.3738C55.0254 88.5843 54.5635 88.9186 54.5839 89.0028C54.7712 89.3599 54.6032 89.443 54.6032 89.443C54.7065 89.9889 54.4954 90.5758 54.4954 90.5758C54.6815 91.3526 54.3013 92.5059 53.6282 93.384C52.9552 94.2632 51.592 94.9092 50.9359 97.1521C48.5705 96.9349 47.5558 93.5751 47.5558 93.5751L47.5547 93.5739Z" fill="#EEA886"/>
<path d="M26.8922 86.0616C26.8922 86.0616 26.3259 86.5428 26.1999 86.5632C23.0763 87.9383 20.796 89.3293 19.4135 94.1927C18.0299 99.0562 17.3705 104.704 18.3727 105.519C19.3749 106.333 22.7812 106.4 22.7812 106.4C22.4123 108.134 21.0434 121.837 19.8789 132.659C24.276 132.546 25.5359 131.544 30.1781 133.321C34.8204 135.097 40.7316 132.85 40.9847 132.473C41.2696 121.648 39.1233 105.025 39.1233 105.025C39.1233 105.025 42.1924 107.93 44.5828 106.49C46.9743 105.05 51.6461 97.5742 51.6461 97.5742C50.5224 95.2414 47.3886 93.3431 47.3886 93.3431C47.3886 93.3431 42.8519 97.7982 42.1629 97.4183C41.4728 97.0385 38.6046 90.5463 36.0349 88.6503C33.4652 86.7543 31.6809 86.0912 31.6809 86.0912L26.8934 86.0616H26.8922Z" fill="#EBE9FB"/>
<path d="M32.3237 79.8469C32.3237 79.8469 33.3135 81.5496 33.2601 81.6337C33.2079 81.7179 32.2852 82.1342 32.2852 82.1342L32.3237 79.8469Z" fill="#EEA886"/>
<path d="M32.4315 81.3768C31.8322 81.3745 31.3464 80.8854 31.3486 80.2849C31.3509 79.6844 31.839 79.1976 32.4383 79.1998C33.0376 79.2021 33.5234 79.6912 33.5211 80.2917C33.5188 80.8922 33.0308 81.379 32.4315 81.3768ZM32.4383 79.3068C31.898 79.3056 31.4576 79.7435 31.4553 80.2849C31.4542 80.8263 31.8912 81.2676 32.4315 81.2699C32.9717 81.271 33.4121 80.8331 33.4144 80.2917C33.4167 79.7503 32.9785 79.309 32.4383 79.3068Z" fill="#2B1710"/>
<path d="M32.1957 77.2378C32.5271 78.4423 32.8529 81.3381 32.7768 83.1567C32.7019 84.9743 31.7247 84.9856 31.7247 84.9856C31.4863 85.2927 31.6793 85.9922 31.6793 86.09C29.9313 87.0352 27.8111 86.7213 26.8917 86.0604C27.2061 83.6412 26.835 82.0455 26.835 81.9477C26.835 81.8499 28.3968 77.91 28.6351 77.7713C28.8723 77.6325 32.1957 77.2367 32.1957 77.2367V77.2378Z" fill="#EEA886"/>
<path d="M32.1671 77.5177C31.9832 78.2445 30.7415 78.0864 30.712 78.6596C30.6825 79.2328 31.0423 80.3395 30.9844 80.6887C30.9276 81.0379 30.5088 81.1209 30.1762 80.3361C29.8437 79.5513 28.7257 79.8698 28.8608 81.3529C28.9958 82.836 27.8494 83.4343 27.1798 83.25C25.349 83.8881 24.7542 82.2628 24.9381 81.3973C24.1186 80.2201 24.7917 79.2283 24.7497 79.0611C24.3059 78.2206 24.7883 75.8025 26.98 75.7115C28.9958 73.8019 31.5326 75.0962 31.8516 75.6706C32.1705 76.245 32.8141 75.8412 32.923 76.6385C33.032 77.4358 32.3896 77.7281 32.1671 77.5177Z" fill="#2B1710"/>
<g style="mix-blend-mode:multiply">
<path d="M29.6116 80.2792C28.2678 81.3665 29.6457 82.6085 30.1712 81.9807C29.7353 80.8888 29.6116 80.2792 29.6116 80.2792Z" fill="#E0B3A8"/>
</g>
<g style="mix-blend-mode:multiply">
<path d="M31.6063 84.9595C31.6063 84.9595 31.604 84.9595 31.6029 84.9595C31.3112 84.9288 30.4929 84.4079 30.217 82.3845C30.2148 82.364 30.2284 82.3447 30.2488 82.3424C30.2693 82.339 30.2885 82.3538 30.2908 82.3743C30.5587 84.3396 31.3532 84.8583 31.6109 84.8844C31.6313 84.8867 31.646 84.9049 31.6438 84.9254C31.6415 84.9447 31.6256 84.9595 31.6063 84.9595Z" fill="#E0B3A8"/>
</g>
<g style="mix-blend-mode:multiply">
<path d="M29.3027 87.2638C28.4616 87.2616 27.4878 87.1467 26.4594 86.8089C26.4401 86.8021 26.4288 86.7816 26.4356 86.7611C26.4424 86.7418 26.4628 86.7304 26.4833 86.7372C29.5308 87.7381 32.0858 86.7657 32.1107 86.7554C32.13 86.7475 32.1516 86.7577 32.1595 86.777C32.1675 86.7964 32.1573 86.818 32.138 86.8259C32.1209 86.8328 30.9734 87.2695 29.3038 87.2638H29.3027Z" fill="#C9C9C9"/>
</g>
<g style="mix-blend-mode:multiply">
<path d="M33.4413 94.1336C33.4209 94.1336 33.405 94.1177 33.4039 94.0972C33.3732 93.185 33.7841 89.4556 36.2585 89.2418C36.2789 89.2406 36.2971 89.2554 36.2993 89.2759C36.3016 89.2964 36.2857 89.3145 36.2653 89.3168C33.8488 89.525 33.4481 93.1975 33.4788 94.0949C33.4788 94.1154 33.4629 94.1325 33.4425 94.1336C33.4425 94.1336 33.4425 94.1336 33.4413 94.1336Z" fill="#C9C9C9"/>
</g>
<g style="mix-blend-mode:multiply">
<path d="M38.5174 104.514C38.506 104.514 38.4947 104.509 38.4867 104.498C38.0123 103.848 33.8535 98.1371 33.8115 97.9665C33.807 97.9461 33.8184 97.9256 33.8388 97.921C33.8581 97.9165 33.8785 97.9279 33.8842 97.9472C33.9523 98.128 37.2734 102.705 38.548 104.454C38.5605 104.471 38.5571 104.494 38.5401 104.506C38.5333 104.511 38.5253 104.513 38.5174 104.513V104.514Z" fill="#C9C9C9"/>
</g>
<g style="mix-blend-mode:multiply">
<path d="M43.3861 101.046C43.3657 101.046 43.3486 101.028 43.3498 101.008C43.3952 99.5668 42.6585 98.1428 42.6517 98.1291C42.6438 98.1143 42.6472 98.095 42.6597 98.0836C42.6722 98.0723 42.6915 98.0711 42.7062 98.0814L43.4996 98.6296C43.5166 98.6409 43.5212 98.6648 43.5087 98.6819C43.4973 98.699 43.4735 98.7035 43.4565 98.691L42.78 98.2235C42.9605 98.6102 43.4621 99.8033 43.4247 101.01C43.4247 101.031 43.4077 101.046 43.3872 101.046H43.3861Z" fill="#C9C9C9"/>
</g>
<g style="mix-blend-mode:multiply">
<path d="M50.3028 98.467C50.2903 98.467 50.279 98.4614 50.2721 98.45C50.2551 98.425 48.5878 95.9159 46.8171 94.5454C46.8012 94.5329 46.7978 94.509 46.8103 94.4931C46.8228 94.4771 46.8466 94.4737 46.8625 94.4862C48.6434 95.8647 50.3175 98.3829 50.3346 98.409C50.3459 98.4261 50.3414 98.45 50.3244 98.4614C50.3175 98.4659 50.3107 98.4682 50.3039 98.467H50.3028Z" fill="#C9C9C9"/>
</g>
<g style="mix-blend-mode:multiply">
<path d="M22.9363 106.018C22.9158 106.018 22.8988 106.001 22.8988 105.98C22.8988 105.955 22.9011 103.428 22.3733 100.237C22.3245 99.9398 22.2768 99.6623 22.2325 99.3984C21.7899 96.8007 21.5879 95.6155 22.4005 91.9145C22.4051 91.894 22.4244 91.8815 22.4448 91.8861C22.4652 91.8906 22.4777 91.9111 22.4732 91.9304C21.665 95.6178 21.8659 96.7984 22.3063 99.3859C22.3506 99.6498 22.3983 99.9273 22.4471 100.224C22.976 103.422 22.9737 105.955 22.9737 105.98C22.9737 106.001 22.9567 106.018 22.9363 106.018Z" fill="#C9C9C9"/>
</g>
<g style="mix-blend-mode:multiply">
<path d="M21.7492 96.6141C21.7413 96.6141 21.7333 96.6118 21.7265 96.6061C21.7175 96.5993 21.5041 96.4139 21.2158 95.115C21.2112 95.0945 21.2237 95.0752 21.2442 95.0706C21.2646 95.0661 21.2839 95.0786 21.2884 95.0991C21.5665 96.3525 21.7719 96.5469 21.7742 96.5492C21.789 96.5629 21.7912 96.5868 21.7787 96.6015C21.7708 96.6106 21.7606 96.6152 21.7504 96.6152L21.7492 96.6141Z" fill="#C9C9C9"/>
</g>
<g style="mix-blend-mode:multiply">
<path d="M29.4425 154.377C29.4221 154.377 29.4062 154.361 29.4051 154.341C29.4017 154.255 29.3642 141.748 29.7195 134.281C29.7195 134.26 29.7376 134.244 29.7592 134.245C29.7796 134.245 29.7955 134.264 29.7944 134.285C29.4402 141.749 29.4777 154.254 29.48 154.338C29.48 154.359 29.4641 154.377 29.4436 154.377C29.4436 154.377 29.4436 154.377 29.4425 154.377Z" fill="#ABABAB"/>
</g>
<g style="mix-blend-mode:multiply">
<path d="M52.5877 90.9217C52.5729 90.9217 52.5593 90.9126 52.5525 90.8978C52.5446 90.8785 52.5548 90.8568 52.5741 90.8489C52.5786 90.8466 53.1098 90.6203 54.3652 89.1656C54.3788 89.1496 54.4026 89.1485 54.4185 89.1622C54.4344 89.1758 54.4355 89.1997 54.4219 89.2156C53.1484 90.6908 52.6229 90.9114 52.6013 90.9194C52.5968 90.9217 52.5922 90.9217 52.5877 90.9217Z" fill="#E0B3A8"/>
</g>
<g style="mix-blend-mode:multiply">
<path d="M53.3593 91.993C53.3513 91.993 53.3434 91.9907 53.3377 91.9862C53.3207 91.9737 53.3173 91.9509 53.3298 91.9339C53.3343 91.9271 53.8383 91.2264 54.4001 89.5352C54.4069 89.5158 54.4273 89.5044 54.4478 89.5113C54.4671 89.5181 54.4784 89.5386 54.4716 89.559C53.9052 91.264 53.3956 91.9714 53.3911 91.9782C53.3842 91.9885 53.3718 91.9942 53.3604 91.9942L53.3593 91.993Z" fill="#E0B3A8"/>
</g>
<g style="mix-blend-mode:multiply">
<path d="M53.7764 92.6448C53.7764 92.6448 53.7662 92.6437 53.7605 92.6414C53.7423 92.6323 53.7344 92.6107 53.7423 92.5914C53.7435 92.588 53.916 92.2172 54.3325 90.7522C54.3382 90.7318 54.3587 90.7204 54.3791 90.7261C54.3995 90.7318 54.4109 90.7522 54.4052 90.7727C53.9852 92.2467 53.8184 92.6084 53.8104 92.6232C53.8036 92.6369 53.79 92.6448 53.7764 92.6448Z" fill="#E0B3A8"/>
</g>
<path d="M28.5553 81.2369C28.5553 81.2369 28.553 81.2369 28.5507 81.2369C28.5303 81.2347 28.5155 81.2165 28.5178 81.196C28.6211 80.2736 29.6562 80.2986 29.9706 80.3282C30.2726 80.3566 33.4382 80.3668 33.4711 80.3668C33.4915 80.3668 33.5085 80.3839 33.5085 80.4044C33.5085 80.4248 33.4915 80.4419 33.4711 80.4419C33.3405 80.4419 30.2692 80.4317 29.9638 80.4032C29.5825 80.3668 28.6858 80.3737 28.5927 81.2051C28.5905 81.2244 28.5746 81.2381 28.5553 81.2381V81.2369Z" fill="#2B1710"/>
<path d="M29.4924 80.3485C29.6763 79.566 30.5695 79.6661 30.3857 80.2951C30.2018 80.924 30.0338 81.3426 30.3811 81.7634C30.7284 82.1843 29.0804 82.5425 29.4924 80.3474V80.3485Z" fill="#EEA886"/>
</g>
<defs>
<clipPath id="clip0_997_10259">
<rect width="256" height="170" fill="white"/>
</clipPath>
</defs>
</svg>
