<svg width="256" height="184" viewBox="0 0 256 184" fill="none" xmlns="http://www.w3.org/2000/svg">
<g clip-path="url(#clip0_997_9009)">
<path d="M151.766 35.5316C152.455 37.1859 153.368 38.7107 154.459 40.0761L152.858 43.434L156.091 45.8599L159.324 48.2858L162.099 45.8083C163.716 46.4744 165.434 46.9238 167.216 47.1221L168.457 50.6268L172.458 50.0559L176.459 49.4849L176.67 45.7728C178.325 45.0837 179.849 44.1712 181.215 43.0798L184.573 44.6813L186.999 41.4484L189.425 38.2143L186.947 35.4388C187.613 33.8223 188.063 32.1038 188.261 30.3222L191.766 29.0806L191.195 25.0795L190.624 21.0785L186.912 20.8675C186.223 19.2132 185.31 17.6884 184.219 16.323L185.82 12.9651L182.586 10.5392L179.353 8.11337L176.578 10.5908C174.961 9.92474 173.243 9.47534 171.461 9.277L170.219 5.77234L166.218 6.34327L162.217 6.91419L162.006 10.6264C160.352 11.3154 158.827 12.2268 157.462 13.3194L154.104 11.7178L151.678 14.9507L149.252 18.1837L151.73 20.9592C151.064 22.5757 150.614 24.2942 150.416 26.0758L146.911 27.3174L147.482 31.3184L148.053 35.3195L151.764 35.5305L151.766 35.5316ZM167.337 14.1769C175.081 13.0717 182.255 18.452 183.361 26.1962C184.466 33.9404 179.086 41.1136 171.342 42.2199C163.598 43.3251 156.424 37.9449 155.318 30.2007C154.213 22.4565 159.593 15.2832 167.337 14.1769Z" fill="url(#paint0_linear_997_9009)"/>
<path d="M189.319 11.1457C189.577 11.7648 189.919 12.3357 190.328 12.847L189.729 14.1046L190.939 15.0126L192.15 15.9206L193.19 14.9931C193.795 15.2431 194.439 15.4104 195.105 15.485L195.57 16.7976L197.068 16.5832L198.566 16.3689L198.646 14.9794C199.265 14.7214 199.836 14.3798 200.347 13.9705L201.604 14.5701L202.512 13.3595L203.42 12.1488L202.493 11.109C202.743 10.5037 202.91 9.85938 202.985 9.1933L204.297 8.72784L204.083 7.22945L203.869 5.73105L202.479 5.65195C202.221 5.03287 201.88 4.46194 201.47 3.95063L202.07 2.69299L200.859 1.78501L199.649 0.877026L198.609 1.8045C198.003 1.55457 197.359 1.38719 196.693 1.31267L196.229 0L194.73 0.214384L193.232 0.428768L193.153 1.81825C192.534 2.0762 191.963 2.41784 191.452 2.82712L190.194 2.22753L189.286 3.43817L188.378 4.64881L189.305 5.68863C189.056 6.29395 188.888 6.93825 188.814 7.60433L187.501 8.06864L187.715 9.56704L187.93 11.0654L189.319 11.1445V11.1457ZM195.15 3.14812C198.051 2.73426 200.737 4.7497 201.15 7.64904C201.564 10.5495 199.549 13.2356 196.65 13.6495C193.749 14.0634 191.063 12.0479 190.649 9.14859C190.235 6.2481 192.251 3.56199 195.15 3.14812Z" fill="url(#paint1_linear_997_9009)"/>
<path d="M121.681 70.3489H120.916V150.618H121.681V70.3489Z" fill="#F3F3F3"/>
<path d="M129.546 60.4575H121.299V62.5497H129.546V60.4575Z" fill="white"/>
<path d="M127.898 64.3256H121.299V66.4178H127.898V64.3256Z" fill="white"/>
<path d="M130.335 155.372H121.681V158.162H130.335V155.372Z" fill="white"/>
<path d="M153.07 42.3621C153.07 42.3621 169.81 62.2104 159.191 75.0632C148.571 87.9159 145.65 75.3142 145.65 75.3142C145.65 75.3142 139.295 76.4939 150.303 60.4185C155.492 52.8417 153.07 42.3621 153.07 42.3621Z" fill="url(#paint2_linear_997_9009)"/>
<path d="M45.6592 70.3489H44.8945V150.618H45.6592V70.3489Z" fill="url(#paint3_linear_997_9009)"/>
<path d="M100.059 70.3489H99.2939V150.618H100.059V70.3489Z" fill="#F3F3F3"/>
<path d="M154.458 70.3489H153.693V150.618H154.458V70.3489Z" fill="#F3F3F3"/>
<path d="M58.3066 60.4575H45.2773V62.5497H58.3066V60.4575Z" fill="#E0E0E0"/>
<path d="M63.7591 64.3256H45.2773V66.4178H63.7591V64.3256Z" fill="#E0E0E0"/>
<path d="M114.387 60.4575H99.0898V62.5497H114.387V60.4575Z" fill="white"/>
<path d="M108.871 64.3256H99.0898V66.4178H108.871V64.3256Z" fill="white"/>
<path d="M163.938 60.4575H154.458V62.5497H163.938V60.4575Z" fill="white"/>
<path d="M165.506 64.3256H154.458V66.4178H165.506V64.3256Z" fill="white"/>
<path d="M108.33 155.372H99.6758V158.162H108.33V155.372Z" fill="white"/>
<path d="M163.112 155.372H154.458V158.162H163.112V155.372Z" fill="white"/>
<path d="M256 90.3853V95.1797C251.974 91.9719 248.01 89.5449 244.087 87.8115C218.624 76.5546 194.86 94.4081 166.612 116.008C164.538 117.595 162.529 118.961 160.58 120.13C153.798 124.199 147.732 125.86 142.176 125.86C136.619 125.86 131.996 124.337 127.427 121.954C121.244 118.729 115.583 113.93 109.992 109.191C102.619 102.94 94.9709 96.5462 86.141 93.3947C59.1905 83.7714 45.4023 101.341 45.2773 101.495V96.1541C45.4241 95.9684 47.8809 92.7779 54.9991 89.7261C61.4754 86.9494 72.3436 84.7379 87.3345 89.9508C96.8327 93.2536 104.723 99.9443 112.349 106.411C120.588 113.395 128.223 119.867 137.066 121.725H137.07C141.037 122.558 145.249 122.458 149.867 121.053C154.29 119.712 159.089 117.176 164.4 113.111C181.978 99.6726 198.546 86.8588 214.852 82.1813C225.342 79.1673 236.124 79.5904 246.704 84.6599C249.826 86.1515 252.93 88.0534 256 90.3853Z" fill="url(#paint4_linear_997_9009)"/>
<path d="M16.3815 100.209H13.7676V111.497H16.3815V100.209Z" fill="#E0E0E0"/>
<path d="M22.8727 95.6234H20.2588V111.496H22.8727V95.6234Z" fill="#E0E0E0"/>
<path d="M29.3629 93.2307H26.749V111.496H29.3629V93.2307Z" fill="#E0E0E0"/>
<path d="M35.8541 92.2345H33.2402V111.497H35.8541V92.2345Z" fill="#E0E0E0"/>
<path d="M16.3815 104.415H13.7676V111.497H16.3815V104.415Z" fill="url(#paint5_linear_997_9009)"/>
<path d="M22.8727 101.538H20.2588V111.496H22.8727V101.538Z" fill="url(#paint6_linear_997_9009)"/>
<path d="M29.3629 100.037H26.749V111.497H29.3629V100.037Z" fill="url(#paint7_linear_997_9009)"/>
<path d="M35.8541 99.4112H33.2402V111.496H35.8541V99.4112Z" fill="url(#paint8_linear_997_9009)"/>
<path d="M83.5719 162.274H165.402C169.198 162.274 172.275 159.197 172.275 155.401L172.275 42.6957C172.275 38.8999 169.198 35.8228 165.402 35.8228L83.5719 35.8228C79.7761 35.8228 76.699 38.8999 76.699 42.6957L76.699 155.401C76.699 159.197 79.7761 162.274 83.5719 162.274Z" fill="url(#paint9_linear_997_9009)"/>
<path d="M86.9701 21.9073H166.62V156.93H82.3545V26.5217C82.3545 23.9743 84.4227 21.9073 86.9689 21.9073H86.9701Z" fill="#F5F5F5"/>
<path d="M158.767 47.1863H133.921V50.3287H158.767V47.1863Z" fill="url(#paint10_linear_997_9009)"/>
<path d="M156.728 60.3589H133.921V63.5013H156.728V60.3589Z" fill="url(#paint11_linear_997_9009)"/>
<path d="M153.655 53.7726H133.921V56.915H153.655V53.7726Z" fill="url(#paint12_linear_997_9009)"/>
<path d="M107.264 67.3396C104.442 67.3396 101.72 66.7526 99.1759 65.5958C92.201 62.4259 87.6943 55.4292 87.6943 47.7698C87.6943 36.9784 96.4738 28.199 107.265 28.199C118.057 28.199 126.836 36.9784 126.836 47.7698C126.836 55.4292 122.329 62.4259 115.353 65.5958C112.808 66.7537 110.088 67.3396 107.265 67.3396H107.264ZM107.264 29.2319C97.0424 29.2319 88.7261 37.5482 88.7261 47.7698C88.7261 55.0245 92.9955 61.6521 99.6024 64.6557C102.012 65.7517 104.589 66.3078 107.263 66.3078C109.936 66.3078 112.514 65.7517 114.923 64.6557C121.53 61.6532 125.8 55.0245 125.8 47.7698C125.8 37.5482 117.483 29.2319 107.262 29.2319H107.264Z" fill="url(#paint13_linear_997_9009)"/>
<path d="M116.242 75.2167H87.6934V78.0186H116.242V75.2167Z" fill="#E0E0E0"/>
<path d="M116.242 82.7557H87.6934V85.5576H116.242V82.7557Z" fill="#E0E0E0"/>
<path d="M116.242 90.2947H87.6934V93.0966H116.242V90.2947Z" fill="#E0E0E0"/>
<path d="M126.835 75.2167H122.069V78.0186H126.835V75.2167Z" fill="#4E7ED6"/>
<path d="M126.835 82.7557H122.069V85.5576H126.835V82.7557Z" fill="#4E7ED6"/>
<path d="M126.835 90.2947H122.069V93.0966H126.835V90.2947Z" fill="#4E7ED6"/>
<path d="M256 121.777V125.661C251.904 126.502 248.106 126.77 244.023 126.77C227.92 126.77 213.818 120.161 199.28 112.956C198.499 112.569 197.715 112.18 196.93 111.788C177.947 102.346 158.318 92.5853 132.164 95.2588C115.461 96.9658 104.981 103.77 95.7323 109.767C87.3553 115.203 79.4391 119.981 68.7176 120.385C51.3903 121.045 45.3761 113.656 45.2764 113.203V108.46C45.2981 108.541 49.0401 116.742 68.368 116.742H68.7004C78.3626 116.69 85.4889 112.064 93.7455 106.709C103.342 100.484 114.216 93.4302 131.794 91.6326C158.994 88.8514 179.103 98.8494 198.551 108.524C200.495 109.49 202.431 110.451 204.367 111.391C220.737 119.359 236.874 125.844 256 121.777Z" fill="url(#paint14_radial_997_9009)"/>
<g style="mix-blend-mode:hard-light">
<path d="M182.105 72.3942H142.202C137.471 72.3942 133.635 76.23 133.635 80.9616V150.44C133.635 155.172 137.471 159.008 142.202 159.008H182.105C186.837 159.008 190.672 155.172 190.672 150.44V80.9616C190.672 76.23 186.837 72.3942 182.105 72.3942Z" fill="#F5F5F5"/>
</g>
<path d="M184.006 85.2767C182.608 81.3685 178.872 78.9679 174.935 79.086C173.983 79.1146 173.017 79.2912 172.07 79.6294C169.203 80.6554 167.146 82.9391 166.301 85.6378C165.716 87.5077 165.712 89.577 166.423 91.5649C166.494 91.7621 166.571 91.957 166.652 92.1473C167.026 93.0083 167.517 93.7867 168.099 94.4712C170.542 97.343 174.596 98.5571 178.357 97.2123C183.213 95.4754 185.741 90.1319 184.005 85.2767H184.006ZM177.572 95.0123C174.752 96.0212 171.713 95.1109 169.881 92.9579C169.444 92.4443 169.076 91.8607 168.796 91.2153C168.734 91.0731 168.677 90.9275 168.623 90.7785C168.09 89.2881 168.093 87.737 168.532 86.3349C169.165 84.3114 170.707 82.5986 172.858 81.8305C173.568 81.5772 174.291 81.4442 175.006 81.4224C177.957 81.333 180.759 83.1329 181.807 86.0643C183.109 89.7043 181.213 93.7111 177.573 95.0134L177.572 95.0123Z" fill="#E0E0E0"/>
<path d="M168.533 86.3349L166.302 85.6378C167.147 82.9391 169.203 80.6554 172.071 79.6293C173.018 79.2911 173.983 79.1146 174.936 79.0859L175.006 81.4224C174.291 81.4442 173.568 81.576 172.857 81.8305C170.708 82.5998 169.166 84.3114 168.532 86.3349H168.533Z" fill="#537FFD"/>
<path d="M168.796 91.2141L166.653 92.1473C166.571 91.957 166.494 91.7632 166.424 91.5649C165.713 89.577 165.717 87.5077 166.302 85.6378L168.533 86.3349C168.094 87.7369 168.092 89.2881 168.624 90.7785C168.677 90.9263 168.735 91.0719 168.797 91.2152L168.796 91.2141Z" fill="#4BA6F3"/>
<path d="M168.1 94.4711C167.518 93.7867 167.027 93.0083 166.653 92.1473L168.796 91.2141C169.076 91.8596 169.444 92.4442 169.881 92.9567L168.1 94.4711Z" fill="#46BBED"/>
<path d="M175.132 139.455H170.099V155.957H175.132V139.455Z" fill="#46BBED"/>
<path d="M167.65 144.083H162.617V155.957H167.65V144.083Z" fill="#46BBED"/>
<path d="M182.39 131.806H177.357V155.956H182.39V131.806Z" fill="#46BBED"/>
<path d="M141.255 137.754L140.818 137.418L149.019 126.747L159.141 127.296L166.774 115.141L174.996 114.293L179.937 104.52L180.43 104.768L175.353 114.811L167.098 115.662L159.435 127.865L149.279 127.313L141.255 137.754Z" fill="#46BBED"/>
<path d="M156.766 84.6909H142.454C141.551 84.6909 140.818 83.9583 140.818 83.0549C140.818 82.1515 141.551 81.4189 142.454 81.4189H156.766C157.67 81.4189 158.402 82.1515 158.402 83.0549C158.402 83.9583 157.67 84.6909 156.766 84.6909Z" fill="#4E7ED6"/>
<path d="M156.766 90.399H142.454C141.551 90.399 140.818 89.6664 140.818 88.763C140.818 87.8597 141.551 87.1271 142.454 87.1271H156.766C157.67 87.1271 158.402 87.8597 158.402 88.763C158.402 89.6664 157.67 90.399 156.766 90.399Z" fill="#E0E0E0"/>
<path d="M156.766 96.1071H142.454C141.551 96.1071 140.818 95.3746 140.818 94.4712C140.818 93.5678 141.551 92.8352 142.454 92.8352H156.766C157.67 92.8352 158.402 93.5678 158.402 94.4712C158.402 95.3746 157.67 96.1071 156.766 96.1071Z" fill="#E0E0E0"/>
<path d="M25.5818 130.426H31.3426L29.5794 126.768H23.8174L25.5818 130.426Z" fill="url(#paint15_linear_997_9009)"/>
<path d="M22.8855 130.426H24.2578L22.4945 126.768H21.1211L22.8855 130.426Z" fill="url(#paint16_linear_997_9009)"/>
<path d="M123.382 12.8046L134.789 12.8046V10.7387L123.382 10.7387V12.8046Z" fill="url(#paint17_linear_997_9009)"/>
<path d="M123.382 10.1632L134.789 10.1632V9.77457L123.382 9.77457V10.1632Z" fill="url(#paint18_linear_997_9009)"/>
<path d="M109.814 37.0449H104.714V58.4913H109.814V37.0449Z" fill="url(#paint19_linear_997_9009)"/>
<path d="M117.988 50.3183V45.2178H96.5418V50.3183H117.988Z" fill="url(#paint20_linear_997_9009)"/>
<path d="M32.6074 57.4045C27.7167 55.091 22.0613 56.3211 18.5429 60.0585C17.6911 60.963 16.9642 62.0155 16.4036 63.1998C14.7057 66.7881 14.9155 70.788 16.6249 74.0542C17.8092 76.3173 19.7122 78.2284 22.2 79.4047C22.4476 79.5216 22.6976 79.6305 22.9486 79.7291C24.0871 80.1774 25.2564 80.4433 26.4246 80.5374C31.3234 80.9329 36.1786 78.3156 38.4049 73.6094C41.2791 67.5344 38.6847 60.2798 32.6085 57.4045H32.6074ZM35.65 72.3059C33.9808 75.8347 30.3409 77.7962 26.6677 77.5004C25.7918 77.4294 24.9148 77.231 24.0618 76.894C23.8738 76.8195 23.6858 76.7381 23.5001 76.6509C21.636 75.7682 20.2087 74.3363 19.3213 72.6395C18.0396 70.1907 17.8825 67.1917 19.1551 64.5021C19.5747 63.6136 20.1204 62.826 20.7589 62.1473C23.3969 59.3454 27.6376 58.4225 31.3039 60.1571C35.8587 62.3124 37.8042 67.7511 35.6489 72.3071L35.65 72.3059Z" fill="#E0E0E0"/>
<path d="M19.3216 72.6395L16.624 74.0531C14.9158 70.7869 14.706 66.787 16.4028 63.1986C16.9634 62.0143 17.6902 60.9619 18.542 60.0574L20.7592 62.1462C20.1207 62.8249 19.5761 63.6136 19.1554 64.501C17.8828 67.1905 18.0399 70.1896 19.3216 72.6384V72.6395Z" fill="#2D5BAD"/>
<path d="M24.0623 76.894L22.9468 79.728C22.6957 79.6294 22.4458 79.5205 22.1982 79.4035C19.7116 78.2273 17.8073 76.3162 16.623 74.0531L19.3206 72.6395C20.208 74.3363 21.6353 75.7682 23.4994 76.6509C23.6851 76.738 23.872 76.8194 24.0611 76.894H24.0623Z" fill="#5D96FF"/>
<path d="M26.4223 80.5362C25.2541 80.4422 24.0847 80.1774 22.9463 79.728L24.0618 76.894C24.9147 77.231 25.7929 77.4294 26.6676 77.5005L26.4223 80.5362Z" fill="#5D96FF"/>
<path d="M23.665 88.5578H0.941406V88.1061H23.2133V78.4795H23.665V88.5578Z" fill="#5D96FF"/>
<path d="M12.9022 83.4046H0.941406V86.1148H12.9022V83.4046Z" fill="#E0E0E0"/>
<path d="M86.1906 127.861H67.6172V128.964H86.1906V127.861Z" fill="#E2D2CA"/>
<path d="M70.1055 181.973H71.7334V131.833H70.1055V181.973Z" fill="#706865"/>
<path d="M96.1942 127.548H83.2842V129.122H96.1942V127.548Z" fill="#CCBDB7"/>
<path d="M92.1824 114.115H87.2939V128.964H92.1824V114.115Z" fill="#998E89"/>
<path d="M132.484 128.982H60.9541V131.834H132.484V128.982Z" fill="#B59074"/>
<g style="mix-blend-mode:hard-light">
<path d="M47.2262 111.726C47.2262 111.726 46.4444 122.698 48.5871 124.01C49.9295 124.832 55.2846 127.607 55.1252 128.127C54.9658 128.648 52.102 132.757 52.102 132.757C52.102 132.757 41.8173 125.983 41.486 123.85C41.1616 121.765 41.9927 107.786 43.4052 107.142C44.4645 106.659 45.0228 107.058 46.3572 108.049C48.2305 109.439 47.2251 111.725 47.2251 111.725L47.2262 111.726Z" fill="#F5F5F5"/>
</g>
<path d="M59.8804 175.128C59.8804 175.128 59.5606 177.347 59.5204 177.681C59.4803 178.015 55.963 177.485 55.963 177.485L55.6787 174.842C55.6787 174.842 59.4413 174.815 59.8816 175.128H59.8804Z" fill="#424773"/>
<path d="M59.5582 177.399C59.5582 177.399 60.6725 178.737 61.7502 179.319C62.8278 179.902 64.5223 180.133 65.1597 180.736C65.6194 181.172 66.8358 183.047 62.3589 183.01C57.8821 182.972 55.7233 183.274 55.243 182.556C54.7638 181.837 55.9366 177.248 55.9366 177.248C55.9366 177.248 56.997 177.629 59.557 177.398L59.5582 177.399Z" fill="#292C47"/>
<path d="M82.4175 175.148C82.4175 175.148 82.0977 177.368 82.0575 177.702C82.0174 178.035 78.5001 177.506 78.5001 177.506L78.2158 174.863C78.2158 174.863 81.9784 174.835 82.4187 175.148H82.4175Z" fill="#424773"/>
<path d="M82.0945 177.42C82.0945 177.42 83.2088 178.757 84.2865 179.34C85.3641 179.923 89.3308 180.401 89.9682 181.006C90.4279 181.441 91.1938 183.195 84.8941 183.031C80.4184 182.914 78.2585 183.296 77.7781 182.577C77.2989 181.859 78.4717 177.269 78.4717 177.269C78.4717 177.269 79.4703 177.676 82.0922 177.42H82.0945Z" fill="#292C47"/>
<path d="M48.5336 136.782C48.5336 136.782 61.3222 138.946 64.2112 139.399C67.1002 139.853 82.7617 143.75 84.721 144.937C86.2801 145.883 83.9036 168.586 83.3475 177.248H77.1786L76.7315 151.265C69.3289 151.449 64.0461 149.532 58.6555 150.352C53.265 151.171 48.7709 152.334 45.3454 147.739C45.3454 147.739 45.2181 137.785 48.5336 136.781V136.782Z" fill="#292C47"/>
<path d="M61.1389 177.269L55.127 176.898L54.5411 151.266C51.354 151.345 50.2615 151.143 47.6831 150.83L42.8291 139.548C47.0835 140.399 60.7124 143.836 62.5295 144.939C64.0887 145.884 61.6938 168.608 61.1389 177.271V177.269Z" fill="#292C47"/>
<path d="M54.421 88.8433C54.421 88.8433 59.1088 87.5479 60.8984 91.1867C62.6869 94.8266 61.8763 101.726 59.5135 102.375C57.1507 103.024 53.7527 102.276 52.7725 100.011C51.7911 97.7454 51.0092 94.5262 51.2442 92.442C51.4793 90.3578 53.1771 89.3398 54.4222 88.8422L54.421 88.8433Z" fill="#EEA886"/>
<path d="M58.2872 101.649C58.2872 101.649 58.2356 104.417 58.5405 105.007C58.8455 105.597 52.0127 105.45 52.0127 105.45C52.0127 105.45 53.0892 102.126 52.4781 99.2943C51.874 96.4912 58.2872 101.65 58.2872 101.65V101.649Z" fill="#EEA886"/>
<path d="M52.1106 98.2453C52.1106 98.2453 52.4763 98.9882 54.2441 98.8679C56.0131 98.7475 58.3461 96.614 59.097 96.4236C59.8479 96.2333 59.8927 95.8057 59.8927 95.8057L60.2905 96.5119L61.0597 96.6289C61.0597 96.6289 60.537 94.4908 61.6765 93.7375C62.8161 92.9843 61.164 86.9197 55.3963 88.3825C55.3963 88.3825 50.994 89.1885 50.9355 91.6464C50.877 94.1044 51.2577 96.943 52.1118 98.2453H52.1106Z" fill="#3A3F47"/>
<path d="M58.9019 104.936C58.9019 104.936 58.8824 103.809 58.3722 103.7C57.8609 103.592 53.0012 102.924 52.3729 103.17L52.1035 104.659C52.1035 104.659 53.3119 105.403 58.9019 104.936Z" fill="#E2D2CA"/>
<path d="M60.307 95.3024C60.1763 94.3784 59.1251 93.3168 58.5232 94.7567C57.9213 96.1955 58.929 98.2924 59.6043 98.18C60.2795 98.0677 60.4847 96.5566 60.3059 95.3036L60.307 95.3024Z" fill="#EEA886"/>
<path d="M79.258 118.256C79.258 118.256 79.2534 118.255 79.25 118.256C79.2853 118.271 79.2898 118.273 79.258 118.256Z" fill="#323657"/>
<path d="M53.0534 89.5037C53.0534 89.5037 47.3373 89.2343 52.056 98.1582L53.0534 89.5037Z" fill="#3A3F47"/>
<path d="M40.3174 180.31L40.7427 181.507L58.7097 175.94L57.8487 173.517L40.3174 180.31Z" fill="#918783"/>
<path d="M59.325 155.554H57.2832V175.088H59.325V155.554Z" fill="#918783"/>
<path d="M64.3277 154.515H52.2832V155.666H64.3277V154.515Z" fill="#5E5854"/>
<path d="M76.4499 180.31L76.0258 181.507L58.0576 175.94L58.8475 173.365L76.4499 180.31Z" fill="#918783"/>
<path d="M63.791 181.378V182.77L58.0576 175.94L58.8475 173.365L63.791 181.378Z" fill="#918783"/>
<path d="M76.4491 183.653C77.3766 183.653 78.1286 182.901 78.1286 181.973C78.1286 181.046 77.3766 180.294 76.4491 180.294C75.5215 180.294 74.7695 181.046 74.7695 181.973C74.7695 182.901 75.5215 183.653 76.4491 183.653Z" fill="#BFB2AC"/>
<path d="M62.2547 183.653C63.1823 183.653 63.9343 182.901 63.9343 181.973C63.9343 181.046 63.1823 180.294 62.2547 180.294C61.3272 180.294 60.5752 181.046 60.5752 181.973C60.5752 182.901 61.3272 183.653 62.2547 183.653Z" fill="#BFB2AC"/>
<path d="M40.3172 183.653C41.2448 183.653 41.9968 182.901 41.9968 181.973C41.9968 181.046 41.2448 180.294 40.3172 180.294C39.3896 180.294 38.6377 181.046 38.6377 181.973C38.6377 182.901 39.3896 183.653 40.3172 183.653Z" fill="#BFB2AC"/>
<path d="M46.0809 150.155H70.6869C71.7714 150.155 72.6519 151.035 72.6519 152.12V152.551C72.6519 153.636 71.7714 154.515 70.688 154.515H46.082C44.9975 154.515 44.1182 153.634 44.1182 152.551V152.12C44.1182 151.035 44.9986 150.155 46.0832 150.155H46.0809Z" fill="#E2D2CA"/>
<path d="M123.333 131.834H121.705V181.974H123.333V131.834Z" fill="#706865"/>
<path d="M108.886 91.4882H70.5901C69.5081 91.4882 68.6309 92.3654 68.6309 93.4475V119.309C68.6309 120.391 69.5081 121.268 70.5901 121.268H108.886C109.968 121.268 110.845 120.391 110.845 119.309V93.4475C110.845 92.3654 109.968 91.4882 108.886 91.4882Z" fill="#B8ABA5"/>
<path d="M109.192 93.0978H70.2842V116.601H109.192V93.0978Z" fill="#F5F7FF"/>
<path d="M107.464 118.818C107.464 119.487 106.762 120.028 105.895 120.028C105.029 120.028 104.327 119.485 104.327 118.818C104.327 118.151 105.029 117.609 105.895 117.609C106.762 117.609 107.464 118.151 107.464 118.818Z" fill="#918681"/>
<path d="M98.4779 129.02V128.491C98.4779 128.491 97.7327 125.195 92.4626 125.195C87.1924 125.195 87.299 129.02 87.299 129.02H98.4768H98.4779Z" fill="#998E89"/>
<path d="M87.235 125.684C87.235 125.684 88.3803 125.595 88.7988 125.343C89.2184 125.089 91.7279 123.402 92.3172 123.672C92.9065 123.943 96.8296 125.144 96.6932 125.717C96.5567 126.291 96.1945 126.236 95.917 126.135C95.6407 126.033 92.7918 125.435 92.5408 125.536C92.5408 125.536 95.3392 126.557 95.3495 127.302C95.361 128.047 94.7637 128.228 94.4989 128.51C94.234 128.792 93.9153 129.492 93.1942 129.544C92.4731 129.598 88.9547 128.374 88.2313 128.318C87.5067 128.261 86.1665 128.362 86.076 128.244C85.9854 128.126 87.2362 125.684 87.2362 125.684H87.235Z" fill="#EEA886"/>
<path d="M66.3931 106.499C62.7428 105.857 58.9011 104.936 58.9011 104.936L52.1027 104.659C52.1027 104.659 45.8638 106.032 43.4058 107.142C43.1731 107.247 43.1719 112.708 42.5322 114.14L44.5694 118.438C44.5694 118.438 45.7468 126.951 45.9899 130.738C46.1022 132.476 45.6735 147.536 45.6735 147.536C45.6735 147.536 46.2845 147.838 50.9242 148.349C55.5638 148.861 67.1566 148.165 67.23 147.617C67.3033 147.069 64.9852 127.211 64.8821 126.183C64.725 124.604 65.3384 117.312 65.3384 117.312C66.2119 118.486 68.4406 123.789 70.7644 126.311C72.131 127.796 78.8973 128.705 80.1721 128.747C82.9477 128.84 88.0126 129.393 88.1605 129.122C88.2786 128.96 88.6019 124.627 88.2843 124.522C88.0069 124.429 78.6027 123.888 76.1928 122.609C75.3112 122.142 72.6767 116.396 72.6767 116.396C72.6767 116.396 68.4074 107.402 66.3942 106.497L66.3931 106.499Z" fill="#DBDFF0"/>
<path d="M53.357 119.848H41.222C39.1389 119.848 37.4502 121.536 37.4502 123.62V143.33C37.4502 145.413 39.1389 147.102 41.222 147.102H53.357C55.4401 147.102 57.1288 145.413 57.1288 143.33V123.62C57.1288 121.536 55.4401 119.848 53.357 119.848Z" fill="#E2D2CA"/>
<path d="M53.6413 153.43C50.7408 153.43 48.3871 152.456 46.6469 150.534C42.7134 146.192 43.4196 138.556 43.4517 138.234C43.5113 137.632 44.049 137.192 44.6498 137.253C45.2516 137.313 45.6907 137.848 45.6311 138.45C45.6231 138.537 44.996 145.457 48.2736 149.069C49.6001 150.531 51.3553 151.241 53.6413 151.241C54.2455 151.241 54.7361 151.731 54.7361 152.335C54.7361 152.94 54.2455 153.43 53.6413 153.43Z" fill="#E2D2CA"/>
<path d="M73.3238 94.97H84.1588C84.3136 94.97 84.4397 95.0961 84.4397 95.2508V95.9307C84.4397 96.0855 84.3136 96.2116 84.1588 96.2116H73.3238C73.1691 96.2116 73.043 96.0855 73.043 95.9307V95.2508C73.043 95.0961 73.1691 94.97 73.3238 94.97Z" fill="#DFE1E8"/>
<path d="M84.1588 97.6331H73.3238C73.1687 97.6331 73.043 97.7589 73.043 97.914V98.5938C73.043 98.749 73.1687 98.8747 73.3238 98.8747H84.1588C84.314 98.8747 84.4397 98.749 84.4397 98.5938V97.914C84.4397 97.7589 84.314 97.6331 84.1588 97.6331Z" fill="#DFE1E8"/>
<path d="M73.9876 100.687H83.4951C84.0167 100.687 84.4397 101.11 84.4397 101.632V113.784C84.4397 114.306 84.0167 114.729 83.4951 114.729H73.9876C73.466 114.729 73.043 114.306 73.043 113.784V101.632C73.043 101.11 73.466 100.687 73.9876 100.687Z" fill="#DFE1E8"/>
<path d="M105.543 94.97H88.2362C87.4105 94.97 86.7412 95.6393 86.7412 96.4649V113.234C86.7412 114.06 87.4105 114.729 88.2362 114.729H105.543C106.368 114.729 107.038 114.06 107.038 113.234V96.4649C107.038 95.6393 106.368 94.97 105.543 94.97Z" fill="#DFE1E8"/>
<path d="M156.894 106.759C156.894 106.759 157.65 105.122 157.774 104.875C157.898 104.629 158.621 104.238 159.481 104.021C160.316 103.811 161.452 103.389 161.581 103.47C161.711 103.551 161.863 103.563 162.017 103.923C162.172 104.284 162.104 104.673 162.104 104.673C162.104 104.673 162.503 105.029 162.384 105.502C162.384 105.502 162.744 105.853 162.52 106.37C162.52 106.37 162.863 106.722 162.668 107.083C162.668 107.083 161.998 107.464 161.79 107.676C161.583 107.888 160.133 108.584 158.642 109.038C158.642 109.038 157.087 108.99 156.894 106.758V106.759Z" fill="#8E4F3A"/>
<path d="M158.642 109.039C158.642 109.039 156.791 109.362 156.163 109.001C155.536 108.64 156.267 106.754 156.267 106.754L157.438 106.046L158.642 109.039Z" fill="#8E4F3A"/>
<path d="M159.33 105.965C159.33 105.965 159.301 106.871 159.164 107.121C159.028 107.371 160.871 107.761 160.871 107.761C160.871 107.761 160.429 106.029 159.33 105.965Z" fill="#5E3527"/>
<path d="M161.349 103.548C161.349 103.548 159.328 104.53 159.445 104.875C159.563 105.22 159.815 105.275 159.815 105.275L159.166 106.057C159.166 106.057 159.029 106.817 159.896 106.745C159.896 106.745 159.695 107.442 160.525 107.271C160.525 107.271 160.597 107.791 160.995 107.779C161.393 107.769 162.667 107.082 162.667 107.082C162.667 107.082 162.898 106.805 162.546 106.356C162.546 106.356 162.796 105.873 162.416 105.486C162.416 105.486 162.532 104.861 162.118 104.449C162.118 104.449 162.161 103.753 161.563 103.457C161.563 103.457 161.433 103.503 161.348 103.545L161.349 103.548Z" fill="#7A4432"/>
<path d="M157.834 104.837C157.834 104.837 159.376 104.871 160.211 105.258C160.4 105.346 160.566 105.466 160.556 105.673C160.545 105.882 160.231 106.131 159.562 106.151C158.893 106.171 158.038 106.503 158.038 106.503C158.038 106.503 157.345 106.322 157.834 104.838V104.837Z" fill="#8E4F3A"/>
<path d="M162.119 104.451C162.119 104.451 159.811 105.241 159.654 105.431C159.497 105.622 159.2 104.78 159.346 104.626C159.491 104.473 161.288 103.514 161.486 103.462C161.684 103.409 162.362 103.872 162.119 104.451Z" fill="#8E4F3A"/>
<path d="M161.055 103.558C161.055 103.558 164.65 102.822 164.723 103.26C164.796 103.698 164.448 103.771 161.503 104.631C158.639 105.467 161.055 103.558 161.055 103.558Z" fill="#8E4F3A"/>
<path d="M136.359 177.268C136.359 177.268 137.504 178.982 139.11 179.352C140.716 179.723 142.3 180.312 142.311 181.326C142.324 182.339 137.666 182.944 135.828 181.922C133.085 180.396 132.805 180.857 132.501 180.093C132.197 179.331 132.867 177.291 132.846 177.049C132.822 176.75 136.358 177.268 136.358 177.268H136.359Z" fill="#353A3D"/>
<path d="M136.181 176.423C136.181 176.423 136.39 177.251 136.359 177.268C136.328 177.285 132.738 177.713 132.847 177.049C132.935 176.51 133.06 175.925 133.06 175.925L136.181 176.422V176.423Z" fill="#81807E"/>
<path d="M124.279 177.155C124.279 177.155 125.096 178.794 126.492 179.352C127.983 179.95 129.18 180.635 129.153 181.624C129.125 182.612 125.505 183.613 122.871 181.716C121.208 180.518 120.679 180.513 120.413 179.758C120.146 179.004 120.876 177.044 120.867 176.806C120.855 176.514 124.279 177.155 124.279 177.155Z" fill="#353A3D"/>
<path d="M124.32 176.304C124.32 176.304 124.31 177.14 124.279 177.156C124.248 177.172 120.779 177.457 120.867 176.807C120.937 176.292 121.204 175.668 121.204 175.668L124.32 176.305V176.304Z" fill="#81807E"/>
<path d="M137.04 126.231C137.04 126.231 140.263 140.447 140.999 144.778C141.626 148.464 142.125 152.301 141.824 154.962C141.453 158.256 136.789 175.328 136.984 176.294C137.179 177.259 131.425 176.672 131.425 176.672C131.425 176.672 135.651 157.405 134.942 153.86C134.417 151.235 129.82 133.798 129.116 134.692C128.411 135.586 127.537 151.149 127.016 153.733C126.494 156.316 124.892 176.729 124.892 176.729C124.892 176.729 121.311 177.258 120.355 176.449C120.355 176.449 119.919 159.018 120.252 154.174C120.379 152.329 118.088 132.042 121.024 123.875C122.576 119.559 137.039 126.231 137.039 126.231H137.04Z" fill="#2D3133"/>
<path d="M158.088 109.74C158.088 109.74 146.922 112.215 144.701 111.669C143.673 111.417 142.321 109.999 141.035 108.332C140.611 107.783 140.196 107.207 139.801 106.636V106.634C138.223 104.357 136.987 102.174 136.987 102.174C136.987 102.174 132.326 96.7114 136.067 94.2752C136.067 94.2752 137.424 93.7662 138.671 95.1029C139.919 96.4397 141.383 99.2347 141.709 99.9478C142.036 100.66 146.615 107.264 146.852 107.413C147.09 107.562 149.09 107.036 150.695 106.902C153.311 106.684 157.231 105.665 157.231 105.665L158.089 109.74H158.088Z" fill="#DBDFF0"/>
<path d="M132.566 93.0554C132.566 93.0554 137.365 94.0482 137.935 94.5515C138.553 95.088 139.643 100.344 139.708 101.808C139.774 103.272 139.13 109.389 138.512 111.667C137.894 113.945 138.007 125.163 138.397 128.319C138.397 128.319 128.734 131.063 119.233 129.826C119.233 129.826 120.825 118.024 120.446 114.903C119.959 110.904 118.787 101.693 118.787 101.693C118.787 101.693 119.629 95.2761 120.475 94.5607C121.321 93.8453 127.149 93.0543 127.149 93.0543H132.566V93.0554Z" fill="#BCC0CF"/>
<path d="M130.582 78.2159C130.582 78.2159 136.355 76.0801 135.995 83.7509C135.633 91.4229 134.281 92.2024 130.484 91.1305C126.687 90.0586 126.368 85.2172 125.874 82.8876C125.38 80.5581 128.695 78.5495 130.583 78.2147L130.582 78.2159Z" fill="#8E4F3A"/>
<path d="M133.321 94.0941C133.321 94.0941 132.133 94.8794 127.628 92.8949C127.628 92.8949 127.755 89.8064 126.871 86.922C125.987 84.0375 132.916 90.7683 132.916 90.7683C132.844 90.8198 132.83 91.1076 132.871 91.51C132.907 91.8505 132.981 92.2735 133.094 92.7023C133.347 93.6665 133.321 93.2526 133.321 94.0941Z" fill="#8E4F3A"/>
<path d="M126.675 86.6938C126.675 86.6938 126.659 84.644 127.511 84.4559C128.362 84.2668 128.476 83.5858 128.476 83.5858L128.964 83.6993C128.964 83.6993 128.875 83.3382 129.688 82.8624C130.501 82.3866 135.36 82.8051 135.97 82.1057C136.58 81.4064 135.695 77.254 134.37 76.8459C133.043 76.4378 129.963 76.4756 127.15 77.2666C127.15 77.2666 125.013 77.8055 124.851 80.3207C124.747 81.9487 125.982 85.5829 126.676 86.6949L126.675 86.6938Z" fill="#2D3133"/>
<path d="M133.094 92.7023C128.619 91.9502 127.951 89.4051 127.94 89.3661C129.68 91.6097 132.871 91.5111 132.871 91.5111C132.907 91.8516 132.981 92.2747 133.094 92.7034V92.7023Z" fill="#633029"/>
<path d="M132.897 95.1018C132.897 95.1018 133.712 96.3044 134.204 99.3895C134.695 102.475 134.612 107.791 134.612 107.791L133.479 107.928C133.479 107.928 131.764 97.0874 132.06 95.1981L132.898 95.1018H132.897Z" fill="#434343"/>
<path d="M128.476 83.5858C128.222 82.9094 126.782 82.9954 126.928 84.0661C127.076 85.1381 128.266 86.7889 128.743 86.4794C129.221 86.1699 128.827 84.5178 128.475 83.5858H128.476Z" fill="#8E4F3A"/>
<path d="M137.996 94.5469C137.996 94.5469 140.723 98.1548 139.712 107.593C137.887 124.65 142.668 152.031 142.668 152.031L137.736 153.574C137.736 153.574 133.023 118.572 134.223 105.868C134.77 100.08 136.393 98.1536 133.832 93.3306C133.832 93.3306 136.326 93.4567 137.996 94.5458V94.5469Z" fill="#DBDFF0"/>
<path d="M125.823 93.2526C125.823 93.2526 133.629 101.138 134.24 107.115C134.851 113.093 135.847 153.575 135.847 153.575L117.264 152.493C117.264 152.493 118.972 131.123 119.388 128.449C119.805 125.776 120.667 110.427 118.786 103.305C117.776 99.4777 118.978 94.6237 121.287 94.0941C123.595 93.5644 125.823 93.2526 125.823 93.2526Z" fill="#DBDFF0"/>
<path d="M123.185 94.274C123.185 94.274 126.191 95.1018 124.537 100.62C123.241 104.942 123.066 105.869 123.066 105.869L116.129 104.137C116.129 104.137 118.163 94.6432 121.482 94.133C121.482 94.133 122.539 93.9828 123.184 94.274H123.185Z" fill="#DBDFF0"/>
<path d="M145.925 123.478L132.329 137.55L123.297 128.822L136.542 114.41L145.925 123.478Z" fill="#616161"/>
<path d="M144.641 123.758L132.564 136.256L124.544 128.504L136.306 115.704L144.641 123.758Z" fill="#E0CEC7"/>
<path d="M141.859 121.669L142.706 120.792L139.464 117.659L138.489 118.413L141.859 121.669Z" fill="#616161"/>
<path d="M127.629 92.0419C127.629 92.0419 129.984 93.4624 132.313 93.7822L131.074 95.7598L127.147 93.0565L127.629 92.0431V92.0419Z" fill="#A7AAB8"/>
<path d="M133.094 92.7023C133.094 92.7023 132.846 93.5162 132.314 93.7822L133.478 95.4056L133.436 93.2526L133.094 92.7023Z" fill="#A7AAB8"/>
<path d="M132.315 93.7822L133.237 95.0674C133.237 95.0674 132.653 95.8045 131.396 95.2462L132.315 93.7822Z" fill="#434343"/>
<path d="M141.035 108.329C140.611 107.781 140.196 107.206 139.801 106.635V106.633C139.801 106.633 139.95 102.473 139.819 101.279C139.819 101.279 141.178 105.759 141.037 108.329H141.035Z" fill="#A7AAB8"/>
<path d="M121.879 105.573C121.879 105.573 120.973 111.472 121.037 111.85C121.1 112.228 116.934 110.666 121.879 105.573Z" fill="#A7AAB8"/>
<path d="M138.25 103.463H136.06V106.807H138.25V103.463Z" fill="#C6CAD9"/>
<path d="M128.512 119.498C128.512 119.498 128.712 119.895 129.046 120.029C129.622 120.26 130.542 119.894 130.898 120.717C131.254 121.54 128.958 123.474 128.382 123.575C127.807 123.676 126.992 122.733 126.461 120.917C125.929 119.101 128.512 119.498 128.512 119.498Z" fill="#8E4F3A"/>
<path d="M130.737 120.458C130.737 120.458 131.725 121.341 132.702 122.464C133.56 123.45 134.384 124.773 134.236 125.023C133.908 125.578 133.111 124.338 132.194 123.421C131.351 122.576 131.49 122.724 131.49 122.724C131.49 122.724 131.489 122.634 132.225 123.741C133.017 124.931 133.708 126.237 133.52 126.527C133.429 126.668 133.06 127.013 132.883 126.444C133.042 126.71 133.069 126.645 132.964 126.726C132.416 127.144 130.977 125.587 130.405 124.969C130.84 125.447 131.109 125.847 130.615 125.887C130.049 125.933 128.115 123.636 127.343 122.882C126.499 122.06 130.735 120.458 130.735 120.458H130.737Z" fill="#8E4F3A"/>
<path d="M123.544 94.6432C124.173 94.8862 124.412 96.004 124.153 99.2416C123.893 102.479 122.754 103.968 122.329 104.717C121.903 105.466 119.564 110.082 119.985 110.689C120.406 111.296 124.376 115.213 124.605 115.531C124.835 115.85 129.268 119.863 129.268 119.863L127.012 123.016C127.012 123.016 117.44 115.54 116.694 114.794C115.947 114.048 113.715 112.48 114.541 109.872C115.38 107.222 116.888 101.019 117.156 100.532C117.424 100.048 119.383 93.0324 123.545 94.6432H123.544Z" fill="#DBDFF0"/>
<path d="M206.149 170.956C206.149 170.956 205.815 171.746 205.185 172.568C204.723 173.171 203.284 175.648 202.651 175.821C202.017 175.994 200.06 176.34 199.887 177.433C199.714 178.527 199.628 179.304 201.558 179.391C203.487 179.477 204.754 179.593 205.674 178.239C206.596 176.886 208.065 175.907 208.065 175.907V179.438H208.813C208.813 179.438 209.158 175.764 209.36 175.505C209.562 175.246 210.08 172.424 208.295 170.956C206.51 169.487 206.15 170.956 206.15 170.956H206.149Z" fill="#163342"/>
<path d="M202.65 175.823C202.65 175.823 204.378 176.255 205.041 175.823C205.703 175.39 207.954 171.585 208.7 171.357C208.7 171.357 207.978 169.891 206.149 170.956C206.149 170.956 203.14 175.189 202.652 175.821L202.65 175.823Z" fill="#EEA886"/>
<path d="M206.604 85.7983C206.604 85.7983 202.879 93.6514 205.444 94.1215C208.965 94.7658 210.389 88.262 210.389 88.262L206.604 85.7983Z" fill="#163342"/>
<path d="M186.263 105.308C186.263 105.308 185.098 104.943 185.004 104.253C184.924 103.666 184.398 102.965 184.236 102.748C184.02 102.46 183.686 101.325 183.319 101.594C182.952 101.863 183.78 103.491 183.885 103.866C183.991 104.242 182.399 103.527 182.004 103.625C181.61 103.724 180.575 106.43 181.724 106.793C182.874 107.158 184.343 106.789 184.533 106.892C184.722 106.996 185.36 107.19 185.36 107.19L186.264 105.306L186.263 105.308Z" fill="#EEA886"/>
<path d="M182.292 103.65C182.292 103.65 178.698 102.768 178.409 102.909C178.12 103.051 178.085 103.248 178.417 103.345C178.75 103.441 181.866 104.297 181.866 104.297C181.866 104.297 177.436 103.968 177.175 104.032C177.021 104.07 176.928 104.449 177.101 104.516C177.274 104.584 181.646 105.162 181.646 105.162C181.646 105.162 177.509 104.861 177.306 104.981C177.129 105.085 177.131 105.454 177.436 105.496C177.741 105.54 181.564 106.035 181.564 106.035C181.564 106.035 178.54 106.007 178.428 106.208C178.359 106.332 178.264 106.656 179.044 106.638C179.825 106.621 181.671 106.775 181.671 106.775L182.293 103.647L182.292 103.65Z" fill="#EEA886"/>
<path d="M215.806 173.245C215.806 173.245 213.877 176.11 213.099 176.802C213.099 176.802 211.372 177.436 211.198 178.644C211.025 179.853 211.054 180.661 213.099 180.718C215.143 180.775 216.484 180.408 216.858 179.17C217.232 177.932 218.052 177.089 218.052 177.089V179.68H218.513C218.513 179.68 218.627 177.175 218.657 176.714C218.686 176.254 218.989 174.482 218.016 173.698C217.045 172.914 215.807 173.245 215.807 173.245H215.806Z" fill="#163342"/>
<path d="M217.103 117.949C217.103 117.949 219.539 121.117 220.199 124.874C220.86 128.632 219.81 141.242 219.838 143.1C219.867 144.957 221.595 149.578 221.249 153.076C220.904 156.574 219.54 173.986 219.54 173.986L215.807 173.245C215.807 173.245 216.023 155.495 215.807 154.026C215.592 152.558 215.158 147.205 215.071 146.601C214.985 145.997 209.588 130.12 209.588 127.411C209.588 124.702 211.23 113.53 217.103 117.95V117.949Z" fill="#2D3133"/>
<path d="M204.866 119.187C204.866 119.187 200.864 134.461 200.389 136.578C199.915 138.694 199.226 140.439 199.226 141.338C199.226 143.422 200.001 146.771 200.001 146.771L205.083 171.077H209.923C209.923 171.077 207.227 156.495 207.153 153.643C207.081 150.785 204.881 146.727 205.312 145.519C205.744 144.309 212.265 130.359 212.265 130.359C212.265 130.359 217.203 114.754 204.866 119.187Z" fill="#2D3133"/>
<path d="M213.101 176.802C213.101 176.802 215.076 177.906 216.348 176.487C217.423 175.291 218.018 173.698 218.018 173.698L215.808 173.245L213.102 176.802H213.101Z" fill="#EEA886"/>
<path d="M206.519 93.2295C206.519 93.2295 204.869 93.3855 203.622 94.7211C202.376 96.0567 201.205 98.1867 200.879 98.8998C200.552 99.6118 195.974 106.215 195.737 106.363C195.5 106.511 193.499 105.986 191.896 105.852C189.281 105.634 185.367 104.301 185.367 104.301L184.786 107.256C184.786 107.256 194.409 110.362 196.631 109.815C199.347 109.146 205.599 101.125 205.599 101.125C205.599 101.125 210.259 95.6634 206.519 93.2284V93.2295Z" fill="#DBDFF0"/>
<path d="M209.398 92.0716C209.398 92.0716 207.261 93.0805 206.518 93.2296C205.776 93.3774 202.896 97.1183 202.392 98.4837C201.887 99.8491 202.392 101.898 203.43 104.302C204.469 106.706 203.49 107.507 203.965 109.913C204.439 112.317 204.287 121.313 204.197 122.648C204.108 123.984 218.092 126.009 220.853 123.575C220.853 123.575 218.984 115.467 216.771 113.154C216.293 112.653 216.344 109.319 216.671 108.488C216.997 107.656 220.679 101.452 220.679 101.452C220.679 101.452 220.949 95.159 219.343 93.9117C217.948 92.8283 214.145 92.4419 213.463 92.2046C212.781 91.9673 210.794 91.8641 209.399 92.0716H209.398Z" fill="#2F4563"/>
<path d="M208.378 89.6057C208.378 89.6057 208.804 93.5265 208.715 94.8036C208.715 94.8036 210.936 97.0289 213.462 92.2058C213.462 92.2058 212.4 90.2179 213.2 87.5088C214 84.7998 208.379 89.6068 208.379 89.6068L208.378 89.6057Z" fill="#EEA886"/>
<path d="M202.161 105.189C202.161 105.189 201.627 101.633 202.195 99.4708C202.195 99.4708 202.195 101.33 203.214 103.971L202.16 105.188L202.161 105.189Z" fill="#AAADBA"/>
<path d="M214.94 82.249C214.94 82.249 215.429 81.6609 215.613 82.2536C215.795 82.8463 215.197 84.6084 215.131 84.8629C215.131 84.8629 214.834 85.8511 214.716 85.725C214.598 85.5989 214.941 82.249 214.941 82.249H214.94Z" fill="#EEA987"/>
<path d="M206.379 82.3224C206.379 82.3224 205.89 81.7342 205.706 82.3269C205.524 82.9196 206.122 84.6817 206.188 84.9362C206.188 84.9362 206.485 85.9245 206.603 85.7984C206.722 85.6723 206.378 82.3224 206.378 82.3224H206.379Z" fill="#EEA987"/>
<path d="M209.891 76.6154C209.891 76.6154 205.393 77.3078 206.051 84.3928C206.709 91.4778 210.679 90.9149 210.944 90.9092C211.209 90.9034 214.927 91.0571 215.248 82.4118C215.248 82.4118 215.398 76.0181 209.889 76.6154H209.891Z" fill="#EEA987"/>
<path d="M214.386 81.9887C214.386 81.9887 209.394 83.4734 207.004 82.9987C207.004 82.9987 206.851 83.8804 206.509 83.9342C206.166 83.9881 205.99 82.249 205.99 82.249C205.99 82.249 205.874 76.487 211.085 76.4331C216.297 76.3792 215.239 82.6732 215.239 82.6732L215.168 83.7485C215.168 83.7485 214.421 84.0431 214.387 81.9876L214.386 81.9887Z" fill="#163342"/>
<path d="M212.712 90.2339C212.712 90.2339 211.137 91.7266 208.715 90.3566C208.715 90.3566 209.43 91.5524 210.789 91.5225C212.146 91.4927 212.712 90.2339 212.712 90.2339Z" fill="#A77860"/>
<path d="M215.168 92.5474C215.168 92.5474 213.64 97.0598 209.447 96.7273C205.252 96.396 207.457 92.9177 207.457 92.9177C207.457 92.9177 208.503 92.3181 208.798 92.262C209.092 92.2058 213.435 92.1508 213.435 92.1508L215.168 92.5486V92.5474Z" fill="#EEA886"/>
<path d="M207.458 92.9177C207.458 92.9177 205.261 98.995 205.261 105.189C205.261 111.383 205.085 121.473 204.317 124.659C203.55 127.845 201.367 137.699 201.367 137.699L199.656 136.814C199.656 136.814 203.771 121.088 204.082 119.954C204.392 118.82 203.845 106.84 203.551 105.837C203.256 104.834 202.001 100.368 202.196 99.1303C202.442 97.5688 203.903 95.2576 206.263 93.2708L207.459 92.9177H207.458Z" fill="#DBDFF0"/>
<path d="M214.34 92.3571C214.34 92.3571 212.974 96.7296 212.282 102.329C211.59 107.929 214.406 133.921 216.295 139.822L223.611 138.642C223.611 138.642 222.036 120.269 219.898 116.925C217.76 113.581 217.08 110.623 219.388 103.645C221.695 96.6666 218.375 93.2101 218.375 93.2101C218.375 93.2101 214.981 92.4293 214.339 92.3571H214.34Z" fill="#DBDFF0"/>
<path d="M206.445 110.9L215.318 126.264L225.179 120.571L216.693 104.983L206.445 110.9Z" fill="#616161"/>
<path d="M207.515 111.428L215.394 125.074L224.153 120.017L216.616 106.173L207.515 111.428Z" fill="#E0CEC7"/>
<path d="M210.423 110.201L209.869 109.244L213.41 107.2L214.102 108.077L210.423 110.201Z" fill="#616161"/>
<path d="M210.845 121.104C210.845 121.104 211.248 121.106 211.425 121.02C211.425 121.02 211.734 120.84 211.962 120.726C212.035 120.69 212.099 120.659 212.142 120.644C212.324 120.581 212.74 120.499 213.132 120.226C213.524 119.954 214.913 118.346 214.913 118.346L214.258 117.348L213.776 116.327C213.776 116.327 210.86 116.515 210.465 116.727C210.426 116.748 210.39 116.769 210.356 116.794C210.04 117.004 209.893 117.295 209.738 117.425C209.682 117.473 209.156 117.988 209.174 118.207C209.2 118.511 209.341 118.711 209.524 118.812C209.524 118.812 209.6 119.406 209.892 119.683C209.892 119.683 209.944 120.232 210.406 120.472C210.406 120.472 210.52 121.024 210.845 121.104Z" fill="#EEA886"/>
<path d="M216.857 93.2296C216.857 93.2296 219.551 92.458 221.094 95.4261C222.637 98.3943 222.63 99.6611 222.836 101.111C223.031 102.48 223.911 106.218 224 106.603C224.089 106.989 226.081 111.591 225.167 113.199C224.249 114.816 214.925 119.575 214.984 119.931C215.044 120.288 213.369 116.334 213.369 116.334C213.369 116.334 217.142 114.231 217.76 113.583C218.763 112.532 220.881 111.398 220.446 110.094C219.935 108.561 218.4 103.39 218.044 102.633C217.688 101.876 214.586 94.1949 216.857 93.2307V93.2296Z" fill="#DBDFF0"/>
</g>
<defs>
<linearGradient id="paint0_linear_997_9009" x1="146.911" y1="28.1978" x2="191.766" y2="28.1978" gradientUnits="userSpaceOnUse">
<stop stop-color="#FF9F55"/>
<stop offset="1" stop-color="#FFD255"/>
</linearGradient>
<linearGradient id="paint1_linear_997_9009" x1="187.501" y1="8.39882" x2="204.3" y2="8.39882" gradientUnits="userSpaceOnUse">
<stop stop-color="#FF9F55"/>
<stop offset="1" stop-color="#FFD255"/>
</linearGradient>
<linearGradient id="paint2_linear_997_9009" x1="146.162" y1="44.4018" x2="156.733" y2="79.2169" gradientUnits="userSpaceOnUse">
<stop stop-color="#40D5E6"/>
<stop offset="1" stop-color="#5577FF"/>
</linearGradient>
<linearGradient id="paint3_linear_997_9009" x1="45.2774" y1="147.163" x2="45.2774" y2="105.1" gradientUnits="userSpaceOnUse">
<stop stop-color="#602F80"/>
<stop offset="1" stop-color="#5770FF"/>
</linearGradient>
<linearGradient id="paint4_linear_997_9009" x1="45.2762" y1="103.075" x2="256" y2="103.075" gradientUnits="userSpaceOnUse">
<stop stop-color="#FF9F55"/>
<stop offset="1" stop-color="#FFD255"/>
</linearGradient>
<linearGradient id="paint5_linear_997_9009" x1="15.0745" y1="121.259" x2="15.0745" y2="94.9252" gradientUnits="userSpaceOnUse">
<stop stop-color="#FF9F55"/>
<stop offset="1" stop-color="#FFD255"/>
</linearGradient>
<linearGradient id="paint6_linear_997_9009" x1="21.5657" y1="121.259" x2="21.5657" y2="94.9252" gradientUnits="userSpaceOnUse">
<stop stop-color="#FF9F55"/>
<stop offset="1" stop-color="#FFD255"/>
</linearGradient>
<linearGradient id="paint7_linear_997_9009" x1="28.0571" y1="121.259" x2="28.0571" y2="94.9252" gradientUnits="userSpaceOnUse">
<stop stop-color="#FF9F55"/>
<stop offset="1" stop-color="#FFD255"/>
</linearGradient>
<linearGradient id="paint8_linear_997_9009" x1="34.5472" y1="121.259" x2="34.5472" y2="94.9252" gradientUnits="userSpaceOnUse">
<stop stop-color="#FF9F55"/>
<stop offset="1" stop-color="#FFD255"/>
</linearGradient>
<linearGradient id="paint9_linear_997_9009" x1="122.56" y1="208.524" x2="125.897" y2="18.9335" gradientUnits="userSpaceOnUse">
<stop stop-color="#40D5E6"/>
<stop offset="1" stop-color="#5577FF"/>
</linearGradient>
<linearGradient id="paint10_linear_997_9009" x1="133.921" y1="48.7569" x2="158.768" y2="48.7569" gradientUnits="userSpaceOnUse">
<stop stop-color="#40D5E6"/>
<stop offset="1" stop-color="#5577FF"/>
</linearGradient>
<linearGradient id="paint11_linear_997_9009" x1="133.921" y1="61.9307" x2="156.729" y2="61.9307" gradientUnits="userSpaceOnUse">
<stop stop-color="#40D5E6"/>
<stop offset="1" stop-color="#5577FF"/>
</linearGradient>
<linearGradient id="paint12_linear_997_9009" x1="133.921" y1="55.3444" x2="153.655" y2="55.3444" gradientUnits="userSpaceOnUse">
<stop stop-color="#40D5E6"/>
<stop offset="1" stop-color="#5577FF"/>
</linearGradient>
<linearGradient id="paint13_linear_997_9009" x1="107.264" y1="74.4326" x2="107.264" y2="47.1473" gradientUnits="userSpaceOnUse">
<stop stop-color="#7DB3E0"/>
<stop offset="1" stop-color="white"/>
</linearGradient>
<radialGradient id="paint14_radial_997_9009" cx="0" cy="0" r="1" gradientUnits="userSpaceOnUse" gradientTransform="translate(150.639 108.964) scale(75.5584 75.5584)">
<stop offset="0.16" stop-color="#90C2E8"/>
<stop offset="0.58" stop-color="#47AFFF"/>
<stop offset="1" stop-color="#6783F5"/>
</radialGradient>
<linearGradient id="paint15_linear_997_9009" x1="28.0111" y1="145.907" x2="27.0102" y2="105.687" gradientUnits="userSpaceOnUse">
<stop stop-color="#FF9F55"/>
<stop offset="1" stop-color="#FFD255"/>
</linearGradient>
<linearGradient id="paint16_linear_997_9009" x1="23.1239" y1="146.029" x2="22.1231" y2="105.808" gradientUnits="userSpaceOnUse">
<stop stop-color="#FF9F55"/>
<stop offset="1" stop-color="#FFD255"/>
</linearGradient>
<linearGradient id="paint17_linear_997_9009" x1="133.398" y1="-4.36221" x2="124.386" y2="29.35" gradientUnits="userSpaceOnUse">
<stop stop-color="#FF9F55"/>
<stop offset="1" stop-color="#FFD255"/>
</linearGradient>
<linearGradient id="paint18_linear_997_9009" x1="132.949" y1="-4.48255" x2="123.936" y2="29.2296" gradientUnits="userSpaceOnUse">
<stop stop-color="#FF9F55"/>
<stop offset="1" stop-color="#FFD255"/>
</linearGradient>
<linearGradient id="paint19_linear_997_9009" x1="106.359" y1="33.9071" x2="108.528" y2="67.1183" gradientUnits="userSpaceOnUse">
<stop stop-color="#40D5E6"/>
<stop offset="1" stop-color="#5577FF"/>
</linearGradient>
<linearGradient id="paint20_linear_997_9009" x1="106.359" y1="33.9071" x2="108.528" y2="67.1183" gradientUnits="userSpaceOnUse">
<stop stop-color="#40D5E6"/>
<stop offset="1" stop-color="#5577FF"/>
</linearGradient>
<clipPath id="clip0_997_9009">
<rect width="255.059" height="183.653" fill="white" transform="translate(0.941406)"/>
</clipPath>
</defs>
</svg>
