<svg width="237" height="136" viewBox="0 0 237 136" fill="none" xmlns="http://www.w3.org/2000/svg">
<path d="M54.4906 116.832H43.0928V124.836H54.4906V116.832Z" fill="#363636"/>
<path d="M175.654 116.832H164.256V124.836H175.654V116.832Z" fill="#363636"/>
<path d="M201.294 -0.000183105H17.451C15.6147 -0.000183105 14.126 1.4885 14.126 3.32489V115.873C14.126 117.709 15.6147 119.198 17.451 119.198H201.294C203.13 119.198 204.619 117.709 204.619 115.873V3.32489C204.619 1.4885 203.13 -0.000183105 201.294 -0.000183105Z" fill="#404040"/>
<path d="M208.495 122.607H11.2258C9.71444 122.607 8.48926 123.832 8.48926 125.343V128.054C8.48926 129.566 9.71444 130.791 11.2258 130.791H208.495C210.006 130.791 211.231 129.566 211.231 128.054V125.343C211.231 123.832 210.006 122.607 208.495 122.607Z" fill="#404040"/>
<path d="M199.88 1.83954H18.8691C17.2667 1.83954 15.9678 3.1385 15.9678 4.74085V108.325C15.9678 109.927 17.2667 111.226 18.8691 111.226H199.88C201.483 111.226 202.781 109.927 202.781 108.325V4.74085C202.781 3.1385 201.483 1.83954 199.88 1.83954Z" fill="#737373"/>
<path d="M199.92 4.7016H18.8301V108.364H199.92V4.7016Z" fill="#E1F5FF"/>
<path d="M194.324 102.77V10.2968L24.424 10.2968V102.77L194.324 102.77Z" fill="white"/>
<g style="mix-blend-mode:multiply">
<path d="M160.74 23.6431H97.4023C96.8209 23.6431 96.3496 24.1144 96.3496 24.6958V64.2166C96.3496 64.798 96.8209 65.2693 97.4023 65.2693H160.74C161.321 65.2693 161.793 64.798 161.793 64.2166V24.6958C161.793 24.1144 161.321 23.6431 160.74 23.6431Z" fill="#D4E8FF"/>
</g>
<path d="M163.87 26.8618H102.319C101.244 26.8618 100.373 27.7331 100.373 28.808V66.5418C100.373 67.6166 101.244 68.488 102.319 68.488H163.87C164.945 68.488 165.816 67.6166 165.816 66.5418V28.808C165.816 27.7331 164.945 26.8618 163.87 26.8618Z" fill="#E1F5FF"/>
<g style="mix-blend-mode:multiply">
<path d="M116.184 37.0532C110.58 37.0532 106.037 41.5958 106.037 47.2C106.037 52.8041 110.58 57.3467 116.184 57.3467C121.788 57.3467 126.331 52.8041 126.331 47.2H116.184V37.0532Z" fill="#D4E8FF"/>
</g>
<path d="M114.659 36.2405C109.055 36.2405 104.513 40.783 104.513 46.3872C104.513 51.9914 109.055 56.5339 114.659 56.5339C120.264 56.5339 124.806 51.9914 124.806 46.3872H114.659V36.2405Z" fill="#618BD1"/>
<path d="M121.878 36.514L116.863 45.3368H127.01C127.01 41.5566 124.943 38.2607 121.878 36.514Z" fill="white"/>
<path d="M117.657 32.6016V42.7483L122.672 33.9255C121.193 33.0825 119.481 32.6016 117.657 32.6016Z" fill="#F1395B"/>
<path d="M134.757 38.5028C136.002 38.5028 137.011 37.4939 137.011 36.2494C137.011 35.0049 136.002 33.9961 134.757 33.9961C133.513 33.9961 132.504 35.0049 132.504 36.2494C132.504 37.4939 133.513 38.5028 134.757 38.5028Z" fill="#B0CAF5"/>
<path d="M161.442 34.9087H139.239C139.045 34.9087 138.888 35.0658 138.888 35.2596V37.1329C138.888 37.3267 139.045 37.4838 139.239 37.4838H161.442C161.636 37.4838 161.793 37.3267 161.793 37.1329V35.2596C161.793 35.0658 161.636 34.9087 161.442 34.9087Z" fill="#B0CAF5"/>
<path d="M136.987 49.3625C137.187 48.1341 136.352 46.9766 135.124 46.7772C133.896 46.5778 132.738 47.412 132.539 48.6404C132.339 49.8688 133.174 51.0263 134.402 51.2257C135.63 51.4251 136.788 50.5909 136.987 49.3625Z" fill="#F1395B"/>
<path d="M161.442 47.6573H139.239C139.045 47.6573 138.888 47.8144 138.888 48.0082V49.8815C138.888 50.0753 139.045 50.2324 139.239 50.2324H161.442C161.636 50.2324 161.793 50.0753 161.793 49.8815V48.0082C161.793 47.8144 161.636 47.6573 161.442 47.6573Z" fill="#B0CAF5"/>
<path d="M161.443 60.4061H121.324C121.13 60.4061 120.973 60.5632 120.973 60.757V62.6303C120.973 62.8241 121.13 62.9812 121.324 62.9812H161.443C161.637 62.9812 161.794 62.8241 161.794 62.6303V60.757C161.794 60.5632 161.637 60.4061 161.443 60.4061Z" fill="#B0CAF5"/>
<path d="M196.065 10.0436H23.1118C22.185 10.0436 21.4336 10.7949 21.4336 11.7218V16.15C21.4336 17.0769 22.185 17.8282 23.1118 17.8282H196.065C196.992 17.8282 197.743 17.0769 197.743 16.15V11.7218C197.743 10.7949 196.992 10.0436 196.065 10.0436Z" fill="#618BD1"/>
<path d="M192.552 15.6657H174.172C173.217 15.6657 172.442 14.8911 172.442 13.9359C172.442 12.9808 173.217 12.2061 174.172 12.2061H192.552C193.507 12.2061 194.282 12.9808 194.282 13.9359C194.282 14.8911 193.507 15.6657 192.552 15.6657Z" fill="white"/>
<path d="M26.8799 15.4627C27.7083 15.4627 28.3798 14.7912 28.3798 13.9627C28.3798 13.1343 27.7083 12.4628 26.8799 12.4628C26.0514 12.4628 25.3799 13.1343 25.3799 13.9627C25.3799 14.7912 26.0514 15.4627 26.8799 15.4627Z" fill="white"/>
<path d="M31.2314 15.4627C32.0598 15.4627 32.7314 14.7912 32.7314 13.9627C32.7314 13.1343 32.0598 12.4628 31.2314 12.4628C30.403 12.4628 29.7314 13.1343 29.7314 13.9627C29.7314 14.7912 30.403 15.4627 31.2314 15.4627Z" fill="white"/>
<path d="M35.583 15.4627C36.4114 15.4627 37.083 14.7912 37.083 13.9627C37.083 13.1343 36.4114 12.4628 35.583 12.4628C34.7546 12.4628 34.083 13.1343 34.083 13.9627C34.083 14.7912 34.7546 15.4627 35.583 15.4627Z" fill="white"/>
<g style="mix-blend-mode:multiply">
<path d="M114.375 78.694H100.838C99.6144 78.694 98.6221 79.6863 98.6221 80.9103V94.4471C98.6221 95.6712 99.6144 96.6635 100.838 96.6635H114.375C115.599 96.6635 116.592 95.6712 116.592 94.4471V80.9103C116.592 79.6863 115.599 78.694 114.375 78.694Z" fill="#D4D4D4"/>
</g>
<path d="M114.317 77.5549H98.7464C98.0839 77.5549 97.5469 78.092 97.5469 78.7545V94.3249C97.5469 94.9874 98.0839 95.5244 98.7464 95.5244H114.317C114.979 95.5244 115.516 94.9874 115.516 94.3249V78.7545C115.516 78.092 114.979 77.5549 114.317 77.5549Z" fill="#618BD1"/>
<path d="M136.234 78.2512H122.449C121.626 78.2512 120.958 78.9188 120.958 79.7422V80.8734C120.958 81.6968 121.626 82.3644 122.449 82.3644H136.234C137.057 82.3644 137.725 81.6968 137.725 80.8734V79.7422C137.725 78.9188 137.057 78.2512 136.234 78.2512Z" fill="#E1F5FF"/>
<path d="M145.282 85.769H122.449C121.626 85.769 120.958 86.4366 120.958 87.2601V88.3912C120.958 89.2147 121.626 89.8822 122.449 89.8822H145.282C146.105 89.8822 146.773 89.2147 146.773 88.3912V87.2601C146.773 86.4366 146.105 85.769 145.282 85.769Z" fill="#E1F5FF"/>
<path d="M145.282 93.2878H122.449C121.626 93.2878 120.958 93.9554 120.958 94.7789V95.91C120.958 96.7335 121.626 97.401 122.449 97.401H145.282C146.105 97.401 146.773 96.7335 146.773 95.91V94.7789C146.773 93.9554 146.105 93.2878 145.282 93.2878Z" fill="#E1F5FF"/>
<path d="M41.1433 28.2563C27.649 27.9861 29.8194 40.8043 31.6557 47.6899C33.492 54.5754 29.0549 62.8388 35.1747 64.6751C41.2957 66.5114 50.9122 58.4667 52.3135 47.8423C54.1498 33.9176 48.7945 28.4087 41.1433 28.2563Z" fill="#FFA68A"/>
<g style="mix-blend-mode:multiply">
<path d="M40.914 58.4307C40.7336 58.4307 40.5598 58.3299 40.4746 58.1572C40.3558 57.9151 40.4555 57.6225 40.6977 57.5025C43.3333 56.2066 44.701 54.1539 44.4499 51.8703C44.2447 49.997 42.9477 48.3603 41.3658 47.9757C39.9141 47.6237 38.4847 48.3782 37.3412 50.1013C37.2392 50.256 37.0576 50.34 36.8715 50.3154C36.6865 50.2918 36.5318 50.1652 36.4713 49.988C33.6798 41.8088 35.8143 36.2606 38.978 34.5667C41.1696 33.3941 43.6427 34.1149 45.4319 36.449C45.5956 36.6631 45.5552 36.9703 45.3411 37.1339C45.127 37.2987 44.8198 37.2573 44.6561 37.0431C43.1562 35.0858 41.2066 34.4826 39.4398 35.4277C36.6574 36.9165 35.0419 41.9343 37.1103 48.7806C38.3961 47.2706 39.9948 46.6338 41.5956 47.0228C43.5631 47.5004 45.1718 49.4925 45.4207 51.7604C45.562 53.0463 45.4263 56.2649 41.1282 58.3769C41.0587 58.4106 40.9858 58.4274 40.9129 58.4274L40.914 58.4307Z" fill="#E0B3A8"/>
</g>
<path d="M59.429 38.5171C59.8879 38.4426 60.1996 38.0101 60.1251 37.5511C60.0506 37.0921 59.6181 36.7805 59.1592 36.855C58.7002 36.9295 58.3885 37.3619 58.463 37.8209C58.5375 38.2799 58.97 38.5916 59.429 38.5171Z" fill="#B0CAF5"/>
<path d="M79.855 26.2249H66.9078C66.1729 26.2249 65.5771 26.8206 65.5771 27.5556V28.0567C65.5771 28.7916 66.1729 29.3874 66.9078 29.3874H79.855C80.5899 29.3874 81.1857 28.7916 81.1857 28.0567V27.5556C81.1857 26.8206 80.5899 26.2249 79.855 26.2249Z" fill="#618BD1"/>
<path d="M80.0414 32.4479H73.5583C73.25 32.4479 73 32.6978 73 33.0062V33.2158C73 33.5241 73.25 33.7741 73.5583 33.7741H80.0414C80.3497 33.7741 80.5997 33.5241 80.5997 33.2158V33.0062C80.5997 32.6978 80.3497 32.4479 80.0414 32.4479Z" fill="#B0CAF5"/>
<path d="M80.0414 34.598H73.5583C73.25 34.598 73 34.848 73 35.1563V35.366C73 35.6743 73.25 35.9242 73.5583 35.9242H80.0414C80.3497 35.9242 80.5997 35.6743 80.5997 35.366V35.1563C80.5997 34.848 80.3497 34.598 80.0414 34.598Z" fill="#B0CAF5"/>
<path d="M59.291 37.8839C59.3583 37.8839 59.4233 37.8491 59.4603 37.7875L63.2753 31.394H80.5228C80.6304 31.394 80.7179 31.3066 80.7179 31.199C80.7179 31.0913 80.6304 31.0039 80.5228 31.0039H63.1632C63.0937 31.0039 63.0298 31.0409 62.9939 31.1003L59.1218 37.5913C59.0668 37.6843 59.0982 37.8043 59.1924 37.8592C59.2238 37.8771 59.2574 37.8861 59.291 37.8861V37.8839Z" fill="#B0CAF5"/>
<path d="M60.0693 55.8033C60.2472 55.3737 60.0432 54.8812 59.6136 54.7033C59.184 54.5254 58.6915 54.7294 58.5136 55.1589C58.3357 55.5885 58.5397 56.081 58.9692 56.259C59.3988 56.4369 59.8913 56.2329 60.0693 55.8033Z" fill="#B0CAF5"/>
<path d="M79.856 44.0172H66.9088C66.1739 44.0172 65.5781 44.613 65.5781 45.3479V45.849C65.5781 46.584 66.1739 47.1797 66.9088 47.1797H79.856C80.5909 47.1797 81.1867 46.584 81.1867 45.849V45.3479C81.1867 44.613 80.5909 44.0172 79.856 44.0172Z" fill="#618BD1"/>
<path d="M80.0404 50.2402H73.5573C73.249 50.2402 72.999 50.4902 72.999 50.7985V51.0082C72.999 51.3165 73.249 51.5665 73.5573 51.5665H80.0404C80.3487 51.5665 80.5987 51.3165 80.5987 51.0082V50.7985C80.5987 50.4902 80.3487 50.2402 80.0404 50.2402Z" fill="#B0CAF5"/>
<path d="M80.0404 52.3915H73.5573C73.249 52.3915 72.999 52.6414 72.999 52.9498V53.1594C72.999 53.4677 73.249 53.7177 73.5573 53.7177H80.0404C80.3487 53.7177 80.5987 53.4677 80.5987 53.1594V52.9498C80.5987 52.6414 80.3487 52.3915 80.0404 52.3915Z" fill="#B0CAF5"/>
<path d="M59.291 55.6773C59.3583 55.6773 59.4233 55.6426 59.4603 55.5809L63.2753 49.1875H80.5228C80.6304 49.1875 80.7179 49.1 80.7179 48.9924C80.7179 48.8848 80.6304 48.7974 80.5228 48.7974H63.1632C63.0937 48.7974 63.0298 48.8344 62.9939 48.8938L59.1218 55.3847C59.0668 55.4778 59.0982 55.5977 59.1924 55.6527C59.2238 55.6706 59.2574 55.6796 59.291 55.6796V55.6773Z" fill="#B0CAF5"/>
<path d="M60.8111 67.6157H30.7363V74.1964H67.3906L60.8111 67.6157Z" fill="#FB606E"/>
<path d="M64.166 67.6157L70.7455 74.1964H84.6007V67.6157H64.166Z" fill="#F1395B"/>
<path d="M45.1689 79.5426H30.7363V86.1232H51.7484L45.1689 79.5426Z" fill="#FB606E"/>
<path d="M48.5225 79.5426L55.102 86.1232H84.5993V79.5426H48.5225Z" fill="#F1395B"/>
<path d="M36.5536 99.512C39.2017 99.512 41.3484 97.3654 41.3484 94.7173C41.3484 92.0692 39.2017 89.9225 36.5536 89.9225C33.9055 89.9225 31.7588 92.0692 31.7588 94.7173C31.7588 97.3654 33.9055 99.512 36.5536 99.512Z" fill="#618BD1"/>
<path d="M60.9165 91.7083H45.0378C44.7462 91.7083 44.5098 91.9447 44.5098 92.2363V93.6286C44.5098 93.9202 44.7462 94.1567 45.0378 94.1567H60.9165C61.2081 94.1567 61.4445 93.9202 61.4445 93.6286V92.2363C61.4445 91.9447 61.2081 91.7083 60.9165 91.7083Z" fill="#B0CAF5"/>
<path d="M78.7167 96.0098H45.0378C44.7462 96.0098 44.5098 96.2462 44.5098 96.5378V97.9301C44.5098 98.2218 44.7462 98.4582 45.0378 98.4582H78.7167C79.0083 98.4582 79.2447 98.2218 79.2447 97.9301V96.5378C79.2447 96.2462 79.0083 96.0098 78.7167 96.0098Z" fill="#B0CAF5"/>
<path d="M9.95525 50.9926C12.1749 49.8671 14.6043 52.3625 14.5325 54.015C14.4608 55.6663 15.1345 56.2392 16.1222 56.7044C16.1323 56.7089 16.1424 56.7134 16.1514 56.719C17.1928 57.2212 17.1446 58.7313 16.0987 59.2235L9.62117 62.2727C8.53374 62.7851 7.19519 62.5765 6.41942 61.6573C5.49902 60.5665 6.00799 59.2582 6.54161 58.2616C7.29496 56.8558 3.5921 52.1675 9.95412 50.9926H9.95525Z" fill="#2B1710"/>
<path d="M1.73654 123.524C1.82398 125.348 1.46524 126.612 1.13228 127.271C0.799329 127.93 1.28475 128.585 1.34641 129.013C1.40807 129.441 1.56838 130.862 1.56838 130.862H3.00334C3.00334 130.862 3.01006 129.263 3.07172 129.252C4.05826 129.456 4.93605 130.348 5.306 130.707C5.67595 131.066 8.99093 130.819 9.16469 130.725C9.45168 130.29 7.55261 129.982 7.47413 129.794C6.64006 128.253 4.80712 126.461 4.55489 125.945C4.30265 125.428 4.13112 123.264 4.13112 123.264L1.73429 123.525L1.73654 123.524Z" fill="#FF8762"/>
<path d="M7.48841 129.811C6.88865 129.878 6.22946 130.007 5.99964 129.905C5.69023 129.768 3.65326 127.219 1.40666 126.583C1.32033 126.858 1.22616 127.088 1.13424 127.271C0.801282 127.93 1.2867 128.585 1.34836 129.013C1.41002 129.441 1.57033 130.861 1.57033 130.861H3.00529C3.00529 130.861 3.01202 129.263 3.07367 129.252C4.06021 129.456 4.938 130.348 5.30795 130.707C5.6779 131.066 8.99288 130.819 9.16664 130.725C9.44579 130.302 7.66218 130.013 7.48841 129.811Z" fill="#2B1710"/>
<path d="M15.4943 123.524C15.5818 125.348 15.2231 126.612 14.8901 127.271C14.5571 127.93 15.0426 128.585 15.1042 129.013C15.1659 129.441 15.3262 130.861 15.3262 130.861H16.7611C16.7611 130.861 16.7679 129.263 16.8295 129.252C17.8161 129.456 18.6939 130.348 19.0638 130.707C19.4338 131.066 22.7487 130.819 22.9225 130.725C23.2095 130.29 21.3104 129.981 21.2319 129.794C20.3979 128.253 18.5649 126.461 18.3127 125.944C18.0605 125.428 17.8889 123.264 17.8889 123.264L15.4921 123.525L15.4943 123.524Z" fill="#FF8762"/>
<path d="M21.2443 129.811C20.6445 129.878 19.9853 130.007 19.7555 129.905C19.4461 129.768 17.4091 127.219 15.1625 126.583C15.0762 126.858 14.982 127.088 14.8901 127.271C14.5571 127.93 15.0426 128.585 15.1042 129.013C15.1659 129.441 15.3262 130.861 15.3262 130.861H16.7611C16.7611 130.861 16.7679 129.263 16.8295 129.252C17.8161 129.456 18.6939 130.348 19.0638 130.707C19.4338 131.066 22.7487 130.819 22.9225 130.725C23.2016 130.302 21.418 130.013 21.2443 129.811Z" fill="#2B1710"/>
<path d="M30.0352 70.8466C30.534 70.2154 32.6596 66.0843 33.0923 65.5854C33.5239 65.0866 34.5542 64.6437 34.7761 64.6C34.9981 64.5552 37.3456 64.5552 37.3456 64.5552C37.479 64.8209 37.0799 65.1751 36.3714 65.2637C35.6629 65.3522 34.9981 65.5294 34.9981 65.5294L34.599 66.0608C34.599 66.0608 35.7066 66.4599 35.8837 67.035C36.0609 67.6101 35.9286 69.2939 35.6618 69.6482C35.3961 70.0024 34.1113 69.6482 34.1113 69.6482C33.8008 70.3129 33.4914 70.7995 33.1371 70.9766C32.7829 71.1537 31.8087 72.6156 31.8087 72.6156L30.0363 70.8432L30.0352 70.8466Z" fill="#FF8762"/>
<path d="M17.8515 63.1392C20.2875 65.5315 24.3189 72.9742 24.3189 72.9742C24.3189 72.9742 29.015 69.6077 30.6977 69.9619C32.3804 70.3162 33.2672 73.1076 31.5396 75.1895C29.8121 77.2713 27.6417 80.195 23.2561 79.7522C18.8705 79.3094 16.0353 73.3285 15.7248 72.7971C15.4143 72.2657 13.643 64.6907 17.8515 63.1403V63.1392Z" fill="#D0E3FF"/>
<path d="M7.81582 77.5807C3.78448 80.1054 3.31924 87.8138 3.18695 92.0671C3.05354 96.3204 0.395508 126.222 0.395508 126.222H5.84387L11.6028 99.6421L14.3494 125.69H19.0006C19.0006 125.69 21.6587 84.491 17.8706 77.5807C14.0826 70.6694 7.81469 77.5807 7.81469 77.5807H7.81582Z" fill="#25467C"/>
<g style="mix-blend-mode:multiply">
<path d="M12.023 98.4427C12.023 98.4427 12.0151 98.4427 12.0106 98.4415C11.9759 98.4348 11.9534 98.4012 11.9602 98.3664L14.4848 85.4092C14.4882 85.3901 14.5016 85.3733 14.5184 85.3644L15.4142 84.9159L15.5465 78.907C15.5465 78.8723 15.5734 78.8431 15.6115 78.8443C15.6462 78.8443 15.6743 78.8745 15.6743 78.9093L15.5408 84.9563C15.5408 84.9798 15.5263 85.0011 15.5061 85.0124L14.6036 85.463L12.0846 98.39C12.079 98.4202 12.0521 98.4415 12.0218 98.4415L12.023 98.4427Z" fill="#E3E3E3"/>
</g>
<g style="mix-blend-mode:multiply">
<path d="M7.14118 81.9305C7.10755 81.9305 7.07953 81.9047 7.07728 81.8711C7.07504 81.8364 7.10083 81.8061 7.1367 81.8027C9.18152 81.6615 10.3945 80.5897 11.0671 78.3263C11.0772 78.2927 11.1131 78.2736 11.1467 78.2837C11.1804 78.2938 11.1994 78.3297 11.1893 78.3633C10.4988 80.685 9.25214 81.7848 7.14567 81.9305C7.14455 81.9305 7.14231 81.9305 7.14118 81.9305Z" fill="#E3E3E3"/>
</g>
<g style="mix-blend-mode:multiply">
<path d="M1.7281 124.757C1.7281 124.757 1.72474 124.757 1.72249 124.757C1.68774 124.754 1.66196 124.724 1.6642 124.689C1.8133 122.894 5.35249 80.712 8.1316 78.3308C8.15851 78.3084 8.19887 78.3107 8.22129 78.3376C8.24371 78.3645 8.24147 78.4048 8.21456 78.4273C5.47469 80.7748 1.82787 124.261 1.79088 124.7C1.78864 124.734 1.76061 124.758 1.72698 124.758L1.7281 124.757Z" fill="#E3E3E3"/>
</g>
<path d="M7.26182 63.8478C9.29991 62.2088 11.1441 61.7828 11.1441 61.7828L14.1833 62.1315L17.8491 63.1393C17.8491 63.1393 19.9758 70.3164 19.7538 71.424C19.5318 72.5316 18.4422 73.5674 18.07 74.8354C17.7707 75.8544 17.8626 76.3275 17.8626 76.3275L7.83693 76.3409C7.83693 75.6762 7.48267 72.5316 7.2607 71.4677C7.03873 70.4049 5.84256 66.7278 7.2607 63.8478H7.26182Z" fill="#648AC7"/>
<path d="M17.8723 76.3398H7.81641V77.5797H17.8723V76.3398Z" fill="#2B1710"/>
<path d="M9.63299 76.1849H9.12402V77.6468H9.63299V76.1849Z" fill="#6694FF"/>
<g style="mix-blend-mode:multiply">
<path d="M24.0952 74.3532C24.0795 74.3532 24.0638 74.3465 24.0537 74.3319C24.0369 74.3095 24.0425 74.277 24.0649 74.2613C24.1838 74.175 24.2006 73.7781 24.2129 73.5146C24.2252 73.2445 24.232 73.1335 24.2936 73.1021C24.3172 73.0909 24.3441 73.0931 24.3676 73.1088C24.5122 73.2052 24.5773 73.6167 24.5896 73.6974C24.5941 73.7254 24.5739 73.7512 24.5459 73.7546C24.5178 73.759 24.4921 73.7389 24.4887 73.7108C24.4674 73.5584 24.4091 73.3095 24.3385 73.2187C24.3261 73.2815 24.3205 73.4104 24.3161 73.5191C24.3015 73.8521 24.2847 74.2288 24.1266 74.3431C24.1176 74.3498 24.1075 74.3532 24.0963 74.3532H24.0952Z" fill="#E0E0E0"/>
</g>
<g style="mix-blend-mode:multiply">
<path d="M35.5036 69.5383C35.4958 69.5383 35.4879 69.536 35.4812 69.5315C35.461 69.5192 35.4554 69.4934 35.4677 69.4732C35.5799 69.2939 35.6079 69.1235 35.5541 68.9542C35.3859 68.4273 34.4386 68.0304 33.8131 67.7692L33.6931 67.7188C33.5978 67.6818 33.5541 67.5955 33.5709 67.4744C33.6236 67.0921 34.2402 66.4161 34.4364 66.3971C34.4599 66.3948 34.4801 66.4116 34.4823 66.4352C34.4846 66.4587 34.4678 66.4789 34.4442 66.4811C34.303 66.4957 33.7021 67.1347 33.6539 67.4856C33.6393 67.5932 33.6864 67.6246 33.7245 67.6392L33.8456 67.6896C34.5249 67.9733 35.4554 68.3623 35.6348 68.9273C35.6964 69.119 35.6639 69.3185 35.5395 69.517C35.5316 69.5293 35.5171 69.5371 35.5036 69.5371V69.5383Z" fill="#E0B3A8"/>
</g>
<g style="mix-blend-mode:multiply">
<path d="M34.6167 67.8331C34.6167 67.8331 34.6055 67.8331 34.5999 67.8297C34.5786 67.8208 34.5685 67.7961 34.5775 67.7737C34.5797 67.7692 34.7468 67.3589 34.5977 66.8275C34.5909 66.8051 34.6044 66.7815 34.6268 66.7748C34.6492 66.7681 34.6728 66.7815 34.6795 66.804C34.8365 67.3656 34.6627 67.7882 34.656 67.8062C34.6492 67.8219 34.6335 67.832 34.6167 67.832V67.8331Z" fill="#E0B3A8"/>
</g>
<g style="mix-blend-mode:multiply">
<path d="M35.5463 68.2985C35.5385 68.2985 35.5306 68.2963 35.5228 68.2918C35.5037 68.2784 35.4981 68.2526 35.5105 68.2335C35.5127 68.2302 35.7223 67.9073 35.6584 67.4432C35.6551 67.4196 35.6719 67.3983 35.6943 67.395C35.7179 67.3916 35.7392 67.4084 35.7425 67.4308C35.8109 67.9286 35.5901 68.266 35.5811 68.2795C35.5732 68.2918 35.5598 68.2985 35.5452 68.2985H35.5463Z" fill="#E0B3A8"/>
</g>
<path d="M8.79384 58.2784C9.05953 58.6091 9.54383 58.6629 9.87566 58.3961C10.2064 58.1304 10.2602 57.6461 9.99338 57.3143C9.72768 56.9835 9.24339 56.9297 8.91155 57.1966C8.58084 57.4622 8.52703 57.9465 8.79384 58.2784Z" fill="#FF8762"/>
<path d="M10.3688 62.0273C11.3979 59.2358 9.1255 56.7415 9.07617 56.6798C9.07617 56.6798 11.8317 54.6036 10.4102 52.2404C12.6681 51.959 13.4763 53.5375 13.8082 54.6496C14.14 55.7617 14.8575 56.3592 14.7745 57.293C14.6916 58.2269 14.0503 59.0823 13.3867 59.3771C13.399 61.6114 14.9035 62.3042 14.9035 62.3042C15.8732 63.8479 15.9528 66.4017 15.8138 66.5205C12.3295 66.5799 10.3699 62.0273 10.3699 62.0273H10.3688Z" fill="#FF8762"/>
<g style="mix-blend-mode:multiply">
<path d="M13.5852 57.1584C13.148 56.8468 11.5886 57.6898 11.6166 57.7358C12.343 58.386 13.3643 58.3658 13.5852 57.1584Z" fill="#E0B3A8"/>
</g>
<g style="mix-blend-mode:multiply">
<path d="M13.0821 59.4253C13.0922 59.4174 13.0967 59.4051 13.0944 59.3917C13.0911 59.3737 13.0731 59.3614 13.0541 59.3648C11.9218 59.5935 10.9969 59.2101 10.6169 58.7571C10.6045 58.7426 10.5821 58.7414 10.5687 58.7527C10.5541 58.765 10.553 58.7863 10.5642 58.8009C10.9577 59.2683 11.9083 59.6652 13.0675 59.4309C13.0731 59.4309 13.0776 59.4275 13.0821 59.4242V59.4253Z" fill="#E0B3A8"/>
</g>
<path d="M13.5263 54.1024C13.5263 54.1024 13.5319 54.0968 13.5341 54.0934C13.5442 54.0777 13.5386 54.0564 13.5229 54.0475C13.1709 53.8378 12.7494 53.8625 12.5801 53.96C12.5644 53.969 12.5588 53.9903 12.5678 54.006C12.5767 54.0217 12.598 54.0273 12.6137 54.0183C12.7684 53.9286 13.1586 53.9085 13.4881 54.1046C13.5005 54.1125 13.5162 54.1102 13.5263 54.1024Z" fill="#2B1710"/>
<path d="M11.2909 54.5812C11.301 54.5733 11.3055 54.5599 11.3021 54.5464C11.2977 54.5285 11.2797 54.5173 11.2607 54.5217C10.6665 54.6664 10.3537 55.1036 10.3403 55.1226C10.3291 55.1383 10.3335 55.1585 10.3481 55.1697C10.3638 55.1809 10.384 55.1764 10.3952 55.1619C10.3986 55.1574 10.708 54.7269 11.2764 54.5879C11.2808 54.5868 11.2853 54.5845 11.2898 54.5812H11.2909Z" fill="#2B1710"/>
<path d="M13.0654 56.8188C13.0654 56.8188 13.0654 56.8188 13.0665 56.8177C13.0777 56.8076 13.3289 56.58 13.3176 56.3266C13.3154 56.2751 13.3008 56.2392 13.2739 56.2145C13.228 56.1742 13.1573 56.1798 13.0755 56.1865C12.9679 56.1955 12.8356 56.2056 12.7055 56.1215C12.4499 55.9533 12.3008 55.7908 12.4499 54.6024C12.4522 54.5834 12.4387 54.5666 12.4208 54.5643C12.4017 54.5621 12.3849 54.5755 12.3827 54.5935C12.2369 55.7571 12.3636 55.978 12.6686 56.1775C12.8177 56.2751 12.9701 56.2627 13.0811 56.2538C13.1472 56.2482 13.2044 56.2437 13.2291 56.265C13.2414 56.2762 13.2493 56.2975 13.2504 56.3289C13.2605 56.5509 13.025 56.7639 13.0217 56.7661C13.0082 56.7784 13.006 56.7997 13.0194 56.8143C13.0318 56.8278 13.052 56.8289 13.0654 56.8177V56.8188Z" fill="#2B1710"/>
<path d="M13.4741 57.3198C13.5413 57.266 13.6019 57.2089 13.6557 57.1494C13.668 57.136 13.6669 57.1136 13.6534 57.1012C13.64 57.0889 13.6187 57.09 13.6052 57.1035C13.131 57.6326 12.0615 57.9342 11.5626 57.6797C11.5458 57.6707 11.5256 57.6775 11.5167 57.6943C11.5077 57.7111 11.5144 57.7313 11.5313 57.7402C11.9954 57.9768 12.9281 57.7571 13.4729 57.3187L13.4741 57.3198Z" fill="#2B1710"/>
<g style="mix-blend-mode:multiply">
<path d="M13.3746 58.4063C13.3869 58.3962 13.3914 58.3771 13.3825 58.3626C13.3735 58.3469 13.3522 58.3413 13.3365 58.3502C12.8903 58.6103 12.5854 58.5823 12.5831 58.5823C12.5641 58.58 12.5484 58.5935 12.5461 58.6126C12.5439 58.6316 12.5574 58.6473 12.5764 58.6495C12.5899 58.6507 12.9038 58.6821 13.3712 58.4085C13.3724 58.4085 13.3746 58.4063 13.3757 58.4052L13.3746 58.4063Z" fill="#E0B3A8"/>
</g>
<g style="mix-blend-mode:multiply">
<path d="M11.324 56.7168C11.3352 56.7079 11.3397 56.6933 11.3352 56.6798C11.3296 56.6619 11.3105 56.6529 11.2926 56.6585C10.9585 56.7718 10.7735 56.4612 10.7657 56.4478C10.7567 56.4321 10.7354 56.4265 10.7197 56.4354C10.704 56.4444 10.6984 56.4657 10.7074 56.4814C10.7096 56.4848 10.9271 56.8525 11.3139 56.7224C11.3173 56.7213 11.3217 56.7191 11.324 56.7168Z" fill="#E0B3A8"/>
</g>
<g style="mix-blend-mode:multiply">
<path d="M9.75974 58.2257C9.76983 58.2179 9.77544 58.2033 9.77095 58.1899C9.76535 58.1719 9.74629 58.1618 9.72835 58.1674C9.60952 58.2033 9.50638 58.1786 9.44585 58.1002C9.39091 58.0284 9.38195 57.9298 9.42567 57.858C9.47051 57.784 9.56132 57.7538 9.68127 57.7751C9.6936 57.7773 9.70593 57.7728 9.71378 57.7627C9.72163 57.7526 9.72275 57.7392 9.71826 57.728C9.651 57.5811 9.48284 57.4724 9.29002 57.4522C9.09944 57.432 8.92792 57.5038 8.81917 57.6495C8.80796 57.6641 8.81133 57.6854 8.8259 57.6966C8.84047 57.7078 8.86177 57.7044 8.87298 57.6899C8.96715 57.5643 9.11625 57.5027 9.28329 57.5195C9.42455 57.534 9.55347 57.6047 9.6241 57.7011C9.50863 57.6977 9.41782 57.7403 9.36737 57.8233C9.3102 57.9186 9.32029 58.0497 9.39204 58.1428C9.47051 58.2448 9.60055 58.2773 9.74741 58.2336C9.7519 58.2325 9.75526 58.2302 9.75862 58.228L9.75974 58.2257Z" fill="#E0B3A8"/>
</g>
<path d="M10.8288 56.1035C10.8949 56.3658 11.062 56.5508 11.201 56.516C11.3411 56.4813 11.4005 56.2391 11.3344 55.9768C11.2682 55.7145 11.1012 55.5295 10.9622 55.5643C10.822 55.599 10.7626 55.8412 10.8288 56.1035Z" fill="#2B1710"/>
<path d="M12.7712 55.3603C12.8373 55.6226 13.0043 55.8076 13.1433 55.7729C13.2835 55.7381 13.3429 55.496 13.2768 55.2336C13.2106 54.9713 13.0436 54.7863 12.9046 54.8211C12.7644 54.8558 12.705 55.098 12.7712 55.3603Z" fill="#2B1710"/>
<g style="mix-blend-mode:multiply">
<path d="M11.1395 57.0296C11.2852 57.1384 11.3884 57.246 11.3693 57.2718C11.3502 57.2976 11.2168 57.2303 11.07 57.1216C10.9242 57.0128 10.8211 56.9052 10.8402 56.8794C10.8592 56.8536 10.9926 56.9209 11.1395 57.0296Z" fill="#E0B3A8"/>
</g>
<g style="mix-blend-mode:multiply">
<path d="M10.8083 57.0565C10.954 57.1652 11.0572 57.2728 11.0392 57.2986C11.0202 57.3244 10.8868 57.2572 10.7399 57.1484C10.5931 57.0397 10.491 56.932 10.5101 56.9063C10.5292 56.8805 10.6626 56.9477 10.8094 57.0565H10.8083Z" fill="#E0B3A8"/>
</g>
<g style="mix-blend-mode:multiply">
<path d="M10.5524 57.0922C10.6982 57.201 10.8013 57.3086 10.7834 57.3344C10.7654 57.3602 10.6309 57.2929 10.484 57.1842C10.3383 57.0754 10.2352 56.9678 10.2542 56.942C10.2733 56.9162 10.4067 56.9835 10.5535 57.0922H10.5524Z" fill="#E0B3A8"/>
</g>
<path d="M7.2625 63.8478C7.48559 62.7794 10.3667 62.0283 10.3667 62.0283C10.0214 64.9352 10.656 73.1784 11.2266 80.5976C11.7972 88.0168 9.57749 106.404 9.57749 106.404H0.00362774C-0.123052 102.156 3.11009 83.7052 3.11009 83.7052L7.2625 63.8489V63.8478Z" fill="white"/>
<path d="M7.23207 84.5562C7.38565 85.0304 7.56839 86.7579 8.22309 86.934C8.87779 87.1088 9.6928 87.481 10.0605 88.222C10.4282 88.9631 11.4943 89.2456 11.5123 89.4306C11.5302 89.6155 10.4518 89.648 10.0157 89.3924C9.57957 89.1368 9.53809 88.8723 9.42262 89.1301C9.30603 89.388 10.3071 91.9182 10.7208 92.6984C11.1345 93.4787 10.1457 92.8632 10.1457 92.8632C9.8901 93.1783 9.42038 92.8632 9.42038 92.8632C8.96186 93.2534 7.91143 91.8778 7.83632 92.0381C7.33184 92.5112 6.26347 90.9507 6.08298 89.8958C5.90249 88.842 5.93164 87.9171 5.50003 87.073C5.06842 86.2288 4.52246 85.1066 4.52246 85.1066L7.23319 84.5551L7.23207 84.5562Z" fill="#FF8762"/>
<g style="mix-blend-mode:multiply">
<path d="M10.0583 92.7345C10.0403 92.7401 10.019 92.7345 10.0056 92.7188C9.95402 92.6583 8.72646 91.2255 8.50001 90.0125C8.4944 89.9845 8.51346 89.9587 8.54036 89.9531C8.56839 89.9475 8.59417 89.9666 8.59978 89.9935C8.82063 91.1796 10.0695 92.6381 10.0818 92.6526C10.0998 92.6739 10.0975 92.7065 10.0762 92.7244C10.0706 92.7289 10.0639 92.7334 10.0572 92.7345H10.0583Z" fill="#E0B3A8"/>
</g>
<g style="mix-blend-mode:multiply">
<path d="M9.19964 92.7433C9.18394 92.7478 9.16489 92.7444 9.15143 92.7321C9.10098 92.6872 7.9149 91.6211 7.60661 90.6245C7.59876 90.5976 7.61334 90.5696 7.64024 90.5606C7.66603 90.5527 7.69517 90.5673 7.70414 90.5942C8.00459 91.5639 9.20749 92.6458 9.2187 92.6559C9.24 92.6749 9.24112 92.7063 9.22318 92.7276C9.21645 92.7355 9.20861 92.7399 9.19964 92.7422V92.7433Z" fill="#E0B3A8"/>
</g>
<g style="mix-blend-mode:multiply">
<path d="M7.75448 91.8319C7.73542 91.8375 7.71524 91.8319 7.70179 91.8162C7.24776 91.2769 7.12556 90.9417 7.11995 90.9272C7.11099 90.9003 7.12444 90.8711 7.15134 90.8622C7.17825 90.8532 7.2074 90.8666 7.21637 90.8924C7.21749 90.8958 7.33856 91.2265 7.78026 91.75C7.7982 91.7713 7.79595 91.8038 7.77465 91.8218C7.76905 91.8263 7.76232 91.8296 7.7556 91.8319H7.75448Z" fill="#E0B3A8"/>
</g>
<path d="M7.26187 63.8478C9.25511 65.3993 9.34368 69.6179 7.74953 73.5573C6.15426 77.4967 7.1733 80.6794 8.01522 82.63C8.85714 84.5796 9.12283 87.0863 5.57915 87.4046C2.03548 87.723 0.396484 81.0774 0.396484 76.7803C0.396484 72.4833 4.20585 64.4453 7.26299 63.8478H7.26187Z" fill="#D0E3FF"/>
<path d="M14.9004 62.3053C17.1874 65.6752 18.3712 68.6337 17.8634 72.5227C17.3555 76.4116 18.6246 106.425 18.6246 106.425C18.6246 106.425 23.1895 106.678 23.1895 106.425C23.2736 102.705 21.8364 88.8397 20.6537 83.5976C19.4698 78.3555 18.5405 76.3264 18.9631 74.7211C19.3858 73.1157 20.4844 72.9453 20.3162 71.0014C20.147 69.0563 17.851 63.1394 17.851 63.1394C16.4273 62.293 14.9015 62.3053 14.9015 62.3053H14.9004Z" fill="white"/>
<path d="M207.411 50.2527L217.647 59.7929V72.7288L188.647 72.0114L176.558 76.008V66.4789L207.411 50.2527Z" fill="#6791D6"/>
<path d="M190.487 112.032L196.442 110.458V103.145C196.442 102.603 196.881 102.163 197.424 102.163C197.967 102.163 198.406 102.603 198.406 103.145V111.215C198.406 111.661 198.106 112.05 197.675 112.164L191.72 113.738V122.434C191.72 122.977 191.281 123.416 190.738 123.416C190.195 123.416 189.756 122.977 189.756 122.434V112.983C189.756 112.537 190.056 112.148 190.487 112.033V112.032Z" fill="#244B8A"/>
<path d="M213.442 131.03H203.299V135.23H213.442V131.03Z" fill="#244B8A"/>
<path d="M158.258 131.03H148.114V135.23H158.258V131.03Z" fill="#244B8A"/>
<path d="M217.439 83.1804H210.729V89.2768H217.439V83.1804Z" fill="#3F69AD"/>
<path d="M218.182 89.2769H209.984V91.1726H218.182V89.2769Z" fill="#6791D6"/>
<path d="M208.509 83.1411H204.095V87.1512H208.509V83.1411Z" fill="#3F69AD"/>
<path d="M209 87.1523H203.607V88.399H209V87.1523Z" fill="#6791D6"/>
<path d="M219.488 77.1345H202.224V84.1535H219.488V77.1345Z" fill="#6791D6"/>
<path d="M228.299 67.8107H192.438V77.852H228.299V67.8107Z" fill="#8BB1F0"/>
<path d="M192.439 77.852L176.66 100.086L154.426 85.0246L192.439 67.8107V77.852Z" fill="#8BB1F0"/>
<path d="M176.66 121.706V100.086L154.426 85.0245V121.501L176.66 121.706Z" fill="#6791D6"/>
<path d="M217.233 125.906H143.257L147.184 121.09H213.306L217.233 125.906Z" fill="#8BB1F0"/>
<path d="M217.233 125.906H143.257V133.284H217.233V125.906Z" fill="#6791D6"/>
<path d="M161.754 106.39C165.235 102.908 165.235 97.2637 161.754 93.7823C158.272 90.3009 152.628 90.3009 149.146 93.7823C145.665 97.2637 145.665 102.908 149.146 106.39C152.628 109.871 158.272 109.871 161.754 106.39Z" fill="#3F69AD"/>
<path d="M155.45 103.98C157.6 103.98 159.344 102.236 159.344 100.086C159.344 97.9358 157.6 96.1926 155.45 96.1926C153.3 96.1926 151.557 97.9358 151.557 100.086C151.557 102.236 153.3 103.98 155.45 103.98Z" fill="#244B8A"/>
<path d="M228.094 99.2666H188.031V105.311H228.094V99.2666Z" fill="#3F69AD"/>
<path d="M215.914 41.1488L207.418 50.2626L217.654 59.8041L226.149 50.6903L215.914 41.1488Z" fill="#3F69AD"/>
<path d="M223.548 36.4731L217.667 42.7823L224.397 49.0559L230.278 42.7467L223.548 36.4731Z" fill="#3F69AD"/>
<path d="M223.886 33.5112L222.253 35.2635L231.577 43.955L233.21 42.2026L223.886 33.5112Z" fill="#8BB1F0"/>
<path d="M230.539 31.7868L226.585 36.028L230.51 39.6872L234.464 35.446L230.539 31.7868Z" fill="#6791D6"/>
<path d="M230.55 29.242L229.275 30.609L235.725 36.6212L236.999 35.2542L230.55 29.242Z" fill="#8BB1F0"/>
<path d="M215.907 41.1384L226.143 50.6786L226.498 47.6035L218.95 40.5677L215.907 41.1384Z" fill="#6791D6"/>
<path d="M141.213 132.196V107.678C141.213 107.23 140.849 106.866 140.401 106.866H102.915C102.467 106.866 102.104 107.23 102.104 107.678V132.196C102.104 132.644 102.467 133.007 102.915 133.007H140.401C140.849 133.007 141.213 132.644 141.213 132.196Z" fill="#6995DB"/>
<path d="M141.213 130.808V106.29C141.213 105.842 140.85 105.478 140.401 105.478H102.915C102.467 105.478 102.104 105.842 102.104 106.29V130.808C102.104 131.256 102.467 131.619 102.915 131.619H140.401C140.85 131.619 141.213 131.256 141.213 130.808Z" fill="#9ABFFA"/>
<path d="M138.086 111.639C138.087 110.367 137.058 109.335 135.786 109.333C134.514 109.332 133.482 110.362 133.48 111.633C133.479 112.905 134.508 113.937 135.78 113.939C137.052 113.94 138.084 112.911 138.086 111.639Z" fill="#E6EFFF"/>
<path d="M134.164 109.994C134.095 110.061 134.034 110.132 133.977 110.206L137.183 113.457C137.257 113.4 137.329 113.339 137.397 113.272C137.456 113.214 137.511 113.152 137.563 113.089L134.349 109.83C134.285 109.881 134.223 109.936 134.164 109.994Z" fill="#CCDFFF"/>
<path d="M135.78 127.298C137.052 127.298 138.083 126.267 138.083 124.995C138.083 123.723 137.052 122.692 135.78 122.692C134.508 122.692 133.478 123.723 133.478 124.995C133.478 126.267 134.508 127.298 135.78 127.298Z" fill="#E6EFFF"/>
<path d="M134.165 123.355C134.096 123.422 134.035 123.493 133.978 123.567L137.184 126.818C137.258 126.761 137.33 126.7 137.398 126.633C137.457 126.575 137.512 126.513 137.564 126.45L134.35 123.191C134.286 123.242 134.224 123.297 134.165 123.355Z" fill="#CCDFFF"/>
<path d="M121.726 113.937C122.997 113.937 124.028 112.906 124.028 111.634C124.028 110.363 122.997 109.332 121.726 109.332C120.454 109.332 119.423 110.363 119.423 111.634C119.423 112.906 120.454 113.937 121.726 113.937Z" fill="#E6EFFF"/>
<path d="M120.108 109.994C120.04 110.062 119.978 110.132 119.921 110.206L123.127 113.457C123.201 113.4 123.273 113.339 123.341 113.272C123.401 113.214 123.456 113.152 123.507 113.089L120.293 109.831C120.229 109.881 120.168 109.936 120.108 109.994Z" fill="#CCDFFF"/>
<path d="M121.74 127.287C123.012 127.284 124.041 126.252 124.038 124.98C124.036 123.708 123.003 122.679 121.731 122.682C120.46 122.684 119.431 123.717 119.433 124.989C119.436 126.26 120.468 127.289 121.74 127.287Z" fill="#E6EFFF"/>
<path d="M120.107 123.355C120.039 123.422 119.977 123.493 119.92 123.567L123.126 126.818C123.2 126.761 123.272 126.7 123.34 126.633C123.4 126.575 123.455 126.513 123.506 126.45L120.292 123.191C120.228 123.242 120.167 123.297 120.107 123.355Z" fill="#CCDFFF"/>
<path d="M130.965 118.572C130.98 117.3 129.962 116.257 128.69 116.242C127.419 116.227 126.375 117.246 126.36 118.517C126.345 119.789 127.364 120.832 128.635 120.847C129.907 120.862 130.95 119.844 130.965 118.572Z" fill="#E6EFFF"/>
<path d="M127.052 116.909C126.984 116.976 126.922 117.047 126.865 117.121L130.071 120.372C130.145 120.315 130.217 120.254 130.286 120.187C130.345 120.128 130.4 120.067 130.452 120.004L127.237 116.745C127.174 116.796 127.112 116.85 127.052 116.909Z" fill="#CCDFFF"/>
<path d="M107.671 113.937C108.943 113.937 109.973 112.906 109.973 111.634C109.973 110.362 108.943 109.332 107.671 109.332C106.399 109.332 105.368 110.362 105.368 111.634C105.368 112.906 106.399 113.937 107.671 113.937Z" fill="#E6EFFF"/>
<path d="M106.053 109.994C105.985 110.062 105.923 110.132 105.866 110.206L109.072 113.457C109.146 113.4 109.218 113.339 109.287 113.272C109.346 113.214 109.401 113.152 109.452 113.089L106.238 109.831C106.174 109.881 106.113 109.936 106.053 109.994Z" fill="#CCDFFF"/>
<path d="M107.685 127.288C108.956 127.286 109.985 126.253 109.983 124.981C109.98 123.709 108.947 122.68 107.676 122.683C106.404 122.685 105.375 123.718 105.377 124.99C105.38 126.262 106.413 127.29 107.685 127.288Z" fill="#E6EFFF"/>
<path d="M106.052 123.355C105.984 123.422 105.922 123.493 105.865 123.567L109.071 126.818C109.145 126.761 109.217 126.7 109.286 126.633C109.345 126.575 109.4 126.513 109.452 126.45L106.237 123.191C106.174 123.242 106.112 123.297 106.052 123.355Z" fill="#CCDFFF"/>
<path d="M114.625 120.841C115.897 120.838 116.926 119.805 116.923 118.534C116.921 117.262 115.888 116.233 114.616 116.235C113.344 116.238 112.315 117.271 112.318 118.543C112.32 119.814 113.353 120.843 114.625 120.841Z" fill="#E6EFFF"/>
<path d="M112.994 116.909C112.925 116.976 112.864 117.047 112.807 117.121L116.013 120.372C116.087 120.315 116.159 120.254 116.227 120.187C116.286 120.128 116.341 120.067 116.393 120.004L113.179 116.745C113.115 116.796 113.053 116.85 112.994 116.909Z" fill="#CCDFFF"/>
</svg>
