<svg width="217" height="203" viewBox="0 0 217 203" fill="none" xmlns="http://www.w3.org/2000/svg">
<g style="mix-blend-mode:multiply">
<path d="M171.696 41.8231L105.357 42.3553C103.173 42.3727 101.137 44.639 100.802 47.4136L93.661 106.592C93.3285 109.348 94.8048 111.654 96.9649 111.76L162.573 114.939C164.979 115.055 167.244 112.764 167.61 109.842L175.442 47.1011C175.809 44.1576 174.13 41.8035 171.696 41.8231H171.696Z" fill="url(#paint0_linear_997_9372)"/>
<path d="M160.705 130.395L95.2257 126.434C93.0692 126.304 91.0611 128.347 90.7293 131.097L89.371 142.294C89.0399 145.04 90.5016 147.582 92.6509 147.75L157.911 152.843C160.304 153.03 162.557 150.581 162.919 147.671L164.412 135.776C164.776 132.861 163.106 130.541 160.705 130.396V130.395Z" fill="url(#paint1_linear_997_9372)"/>
<path d="M156.75 161.811L91.5838 156.267C89.4375 156.085 87.4345 158.188 87.1034 160.929L85.7458 172.2C85.4155 174.936 86.8765 177.331 89.0155 177.551L153.965 184.222C156.346 184.466 158.577 182.315 158.938 179.416L160.424 167.482C160.786 164.577 159.138 162.016 156.749 161.812L156.75 161.811Z" fill="url(#paint2_linear_997_9372)"/>
</g>
<path d="M100.911 32.8331L82.9251 181.802C82.6552 184.035 84.2006 186.037 86.3644 186.252L161.278 194.447C165.868 194.731 168.38 192.395 168.663 190.02L187.546 31.6419C187.828 29.2799 185.577 27.1411 180.968 27.1411L105.372 28.7274C103.184 28.7637 101.179 30.6117 100.911 32.8331H100.911Z" fill="url(#paint3_linear_997_9372)"/>
<path d="M97.5401 32.5771L79.4556 182.29C79.1843 184.535 80.7347 186.548 82.9065 186.764L160.571 194.469C163.007 194.71 165.238 192.955 165.523 190.568L184.512 31.3707C184.795 28.9963 183.007 27.0881 180.545 27.1294L102.02 28.4497C99.8232 28.4866 97.8107 30.3434 97.5408 32.5764L97.5401 32.5771Z" fill="url(#paint4_linear_997_9372)"/>
<path d="M99.0138 40.8349L82.2513 179.649C81.9981 181.747 83.4496 183.623 85.4832 183.82L158.524 190.895C160.788 191.114 162.862 189.477 163.128 187.254L180.677 40.1933C180.941 37.9828 179.281 36.1942 176.994 36.2181L103.203 37.0011C101.149 37.0229 99.2662 38.7484 99.0145 40.8349H99.0138Z" fill="url(#paint5_linear_997_9372)"/>
<path d="M138.182 32.4742C138.086 33.271 138.66 33.909 139.465 33.8989C140.27 33.8887 141.002 33.2333 141.098 32.4344C141.194 31.6361 140.618 30.9981 139.812 31.0097C139.007 31.0213 138.278 31.6767 138.182 32.4742Z" fill="url(#paint6_linear_997_9372)"/>
<g style="mix-blend-mode:soft-light" opacity="0.2">
<path d="M111.642 134.016C126.595 106.467 148.933 98.2209 155.659 69.8292C159.294 54.4824 156.817 39.7931 152.646 27.5986L180.546 27.1296C183.007 27.0882 184.795 28.9964 184.512 31.3708L165.523 190.568C165.238 192.955 163.007 194.71 160.572 194.469L99.5194 188.412C99.0683 163.728 104.977 146.296 111.642 134.016V134.016Z" fill="white"/>
</g>
<path d="M167.604 108.638C167.239 111.559 164.974 113.85 162.569 113.734L96.9749 110.563C94.8148 110.459 93.3393 108.153 93.6718 105.399L100.811 46.2448C101.146 43.471 103.183 41.2061 105.366 41.188L171.69 40.6486C174.123 40.629 175.802 42.9823 175.435 45.9237L167.604 108.638H167.604Z" fill="white"/>
<path d="M162.914 146.451C162.551 149.361 160.3 151.808 157.907 151.622L92.6599 146.538C90.5114 146.371 89.0497 143.83 89.3807 141.086L90.7384 129.892C91.0702 127.144 93.0782 125.102 95.234 125.232L160.7 129.184C163.101 129.329 164.77 131.647 164.406 134.561L162.913 146.451H162.914Z" fill="white"/>
<path d="M158.936 178.182C158.574 181.081 156.344 183.231 153.963 182.987L89.0275 176.326C86.8892 176.107 85.4282 173.713 85.7585 170.978L87.1154 159.712C87.4457 156.973 89.4487 154.87 91.5943 155.053L156.747 160.587C159.136 160.79 160.783 163.35 160.421 166.254L158.935 178.183L158.936 178.182Z" fill="white"/>
<path d="M107.155 53.7037L106.675 49.7191H106.65C106.586 50.5296 106.538 51.0697 106.506 51.3409L106.22 53.7015L105.464 53.7L106.078 48.6265L107.231 48.6243L107.708 52.5089H107.724L109.201 48.62L110.36 48.6178L109.743 53.7087L108.95 53.7073L109.242 51.2996C109.256 51.1857 109.273 51.0545 109.294 50.9066C109.315 50.758 109.375 50.3636 109.474 49.7234H109.449L107.933 53.7058L107.156 53.7044L107.155 53.7037Z" fill="url(#paint7_linear_997_9372)"/>
<path d="M114.869 51.156C114.766 52.0021 114.521 52.6517 114.134 53.1055C113.747 53.5594 113.244 53.7848 112.625 53.7841C112.008 53.7827 111.561 53.555 111.285 53.1012C111.01 52.6473 110.924 51.997 111.026 51.1487C111.129 50.3005 111.373 49.6531 111.759 49.205C112.144 48.757 112.648 48.5322 113.268 48.5308C113.888 48.5293 114.337 48.7541 114.611 49.2057C114.885 49.6574 114.971 50.3077 114.869 51.156ZM111.92 51.156C111.851 51.7258 111.885 52.1543 112.021 52.4429C112.157 52.7314 112.395 52.8757 112.735 52.8764C113.418 52.8771 113.83 52.3037 113.969 51.156C114.109 50.0054 113.839 49.4305 113.159 49.4312C112.818 49.4312 112.544 49.5769 112.336 49.8669C112.128 50.1569 111.99 50.5861 111.92 51.156Z" fill="url(#paint8_linear_997_9372)"/>
<path d="M119.145 53.7276L118.047 53.7254L116.75 49.8503H116.725C116.677 50.534 116.636 51.0219 116.6 51.3133L116.307 53.7218L115.539 53.7203L116.16 48.6055L117.247 48.6033L118.547 52.44H118.566C118.62 51.7737 118.663 51.3025 118.697 51.027L118.992 48.6004L119.771 48.5989L119.146 53.729L119.145 53.7276Z" fill="url(#paint9_linear_997_9372)"/>
<path d="M124.033 51.1132C123.93 51.9608 123.658 52.6096 123.218 53.0599C122.779 53.5094 122.197 53.7334 121.472 53.7319L120.314 53.7298L120.94 48.5953L122.225 48.5924C122.894 48.591 123.387 48.8114 123.703 49.2543C124.02 49.6973 124.13 50.3172 124.033 51.1132ZM123.125 51.1415C123.26 50.0366 122.938 49.4842 122.16 49.4856H121.698L121.291 52.8322H121.663C122.5 52.8337 122.988 52.2703 123.125 51.1415Z" fill="url(#paint10_linear_997_9372)"/>
<path d="M127.233 53.7435L127.084 52.5146L125.581 52.5132L125.132 53.7399L124.192 53.7377L126.277 48.5627L127.346 48.5605L128.177 53.7457L127.233 53.7435ZM126.987 51.5968C126.847 50.4839 126.767 49.8546 126.751 49.7089C126.734 49.5632 126.723 49.4479 126.718 49.3631C126.619 49.6647 126.35 50.4092 125.912 51.5968H126.987Z" fill="url(#paint11_linear_997_9372)"/>
<path d="M130.505 50.7057L131.633 48.5728L132.584 48.5706L130.816 51.736L130.57 53.75L129.696 53.7486L129.938 51.7708L128.953 48.5779L129.906 48.5757L130.505 50.705V50.7057Z" fill="url(#paint12_linear_997_9372)"/>
<path d="M162.627 107.571L97.751 104.745L98.0456 102.326L162.956 105.026L162.627 107.571Z" fill="url(#paint13_linear_997_9372)"/>
<path d="M107.252 99.5338L100.719 99.2786L103.111 79.3846L109.663 79.5339L107.252 99.5338Z" fill="url(#paint14_linear_997_9372)"/>
<path d="M115.81 99.868L109.187 99.6092L112.966 68.6053L119.621 68.6988L115.81 99.868Z" fill="url(#paint15_linear_997_9372)"/>
<path d="M124.686 100.214L117.968 99.9521L119.676 85.8233L126.406 86.0096L124.686 100.214Z" fill="url(#paint16_linear_997_9372)"/>
<path d="M133.488 100.558L126.676 100.291L129.772 75.1296L136.61 75.2594L133.488 100.558Z" fill="url(#paint17_linear_997_9372)"/>
<path d="M142.415 100.906L135.506 100.637L138.001 80.1799L144.929 80.3387L142.415 100.906Z" fill="url(#paint18_linear_997_9372)"/>
<path d="M151.675 101.267L144.666 100.993L146.422 86.5628L153.443 86.7571L151.675 101.267Z" fill="url(#paint19_linear_997_9372)"/>
<path d="M160.861 101.625L153.751 101.348L157.74 69.231L164.883 69.3303L160.861 101.625Z" fill="url(#paint20_linear_997_9372)"/>
<path d="M169.499 52.6067L148.373 52.5842L148.694 49.9358L169.83 49.9148L169.499 52.6067Z" fill="url(#paint21_linear_997_9372)"/>
<path d="M140.261 143.267L142.92 138.042L140.299 137.864L140.442 136.702L144.26 136.959L144.153 137.828L141.437 143.353L140.261 143.267Z" fill="url(#paint22_linear_997_9372)"/>
<path d="M149.97 143.971L149.773 142.376L147.813 142.237L147.231 143.772L146.007 143.683L148.717 137.222L150.112 137.316L151.202 144.059L149.97 143.97V143.971ZM149.646 141.187C149.461 139.743 149.358 138.927 149.335 138.738C149.313 138.549 149.299 138.4 149.293 138.291C149.164 138.669 148.815 139.602 148.245 141.089L149.646 141.187Z" fill="url(#paint23_linear_997_9372)"/>
<path d="M154.362 144.289L153.701 139.019L153.667 139.017C153.584 140.073 153.52 140.777 153.476 141.129L153.095 144.197L152.07 144.123L152.889 137.531L154.452 137.636L155.109 142.776L155.131 142.777L157.125 137.816L158.698 137.922L157.874 144.544L156.797 144.466L157.187 141.334C157.205 141.187 157.228 141.016 157.256 140.823C157.283 140.63 157.364 140.119 157.497 139.288L157.464 139.286L155.416 144.366L154.362 144.29V144.289Z" fill="url(#paint24_linear_997_9372)"/>
<path d="M132.958 174.227L131.849 174.119L132.312 170.366L132.399 169.751L132.5 169.078C132.287 169.288 132.141 169.426 132.06 169.49L131.384 170.032L130.952 169.158L132.845 167.651L133.758 167.735L132.957 174.227H132.958Z" fill="url(#paint25_linear_997_9372)"/>
<path d="M138.664 171.484C138.523 172.622 138.267 173.451 137.897 173.968C137.527 174.485 137.027 174.713 136.398 174.652C135.789 174.592 135.366 174.266 135.126 173.673C134.887 173.08 134.835 172.234 134.971 171.134C135.113 169.987 135.367 169.155 135.735 168.639C136.104 168.122 136.6 167.893 137.226 167.951C137.836 168.006 138.262 168.335 138.504 168.934C138.747 169.534 138.8 170.384 138.664 171.483V171.484ZM136.078 171.239C135.98 172.037 135.965 172.614 136.034 172.97C136.104 173.327 136.271 173.518 136.536 173.543C136.796 173.569 137.006 173.411 137.164 173.072C137.323 172.733 137.452 172.168 137.549 171.378C137.648 170.579 137.661 170 137.586 169.64C137.512 169.28 137.346 169.088 137.089 169.064C136.826 169.039 136.616 169.197 136.461 169.535C136.304 169.873 136.177 170.441 136.079 171.239H136.078Z" fill="url(#paint26_linear_997_9372)"/>
<path d="M144.764 175.377L144.57 173.78L142.623 173.593L142.044 175.112L140.828 174.994L143.521 168.608L144.906 168.736L145.987 175.496L144.764 175.377H144.764ZM144.443 172.59C144.26 171.143 144.157 170.326 144.135 170.137C144.112 169.948 144.099 169.799 144.093 169.689C143.965 170.064 143.618 170.987 143.052 172.458L144.443 172.591V172.59Z" fill="url(#paint27_linear_997_9372)"/>
<path d="M149.127 175.801L148.471 170.522L148.437 170.519C148.353 171.572 148.29 172.274 148.247 172.624L147.867 175.678L146.85 175.579L147.664 169.016L149.216 169.159L149.868 174.307L149.889 174.309L151.871 169.403L153.433 169.548L152.613 176.14L151.544 176.036L151.932 172.919C151.95 172.772 151.973 172.602 152.001 172.411C152.028 172.219 152.108 171.71 152.242 170.883L152.208 170.88L150.174 175.903L149.127 175.801Z" fill="url(#paint28_linear_997_9372)"/>
<path d="M119.638 136.343L94.3154 134.619L94.8058 130.665L120.138 132.307L119.638 136.343Z" fill="url(#paint29_linear_997_9372)"/>
<path d="M107.407 141.582L93.6289 140.576L94.1367 136.106L107.92 137.061L107.407 141.582Z" fill="url(#paint30_linear_997_9372)"/>
<path d="M115.862 167.519L90.6523 165.167L91.1449 161.122L116.366 163.391L115.862 167.519Z" fill="url(#paint31_linear_997_9372)"/>
<path d="M103.697 172.093L89.9805 170.75L90.4745 166.688L104.198 167.985L103.697 172.093Z" fill="url(#paint32_linear_997_9372)"/>
<g style="mix-blend-mode:soft-light" opacity="0.3">
<path d="M111.884 134.011C126.837 106.463 149.175 98.2165 155.901 69.8248C159.536 54.478 157.059 39.7887 152.888 27.5942L180.788 27.1252C183.249 27.0838 185.038 28.992 184.755 31.3664L165.765 190.563C165.481 192.951 163.249 194.706 160.814 194.465L99.7616 188.408C99.3098 163.723 105.219 146.292 111.884 134.012V134.011Z" fill="white"/>
</g>
<path d="M75.8481 21.0511C75.8481 19.3916 74.4876 17.9873 72.8098 17.9148L29.2823 16.0283C27.3958 15.9464 25.8242 17.3159 25.8242 19.0864V53.7066C25.8242 55.4778 27.3914 56.9009 29.2773 56.8857L30.2966 56.8748L30.3446 56.7987L72.7778 55.9628C74.4548 55.949 75.8474 55.158 75.8474 53.4985V21.0511H75.8481ZM37.776 23.8663C36.155 23.8112 34.8359 22.52 34.8359 20.9823C34.8359 19.4445 36.155 18.2519 37.776 18.3179C39.3904 18.3839 40.6943 19.6751 40.6943 21.2012C40.6943 22.7273 39.3904 23.9207 37.776 23.8663ZM51.65 24.3361C50.0857 24.2832 48.8132 23.0152 48.8132 21.505C48.8132 19.9948 50.0857 18.8218 51.65 18.8863C53.2077 18.9501 54.4664 20.2174 54.4664 21.7167C54.4664 23.216 53.2077 24.389 51.65 24.3361ZM65.0416 24.7892C63.5312 24.7378 62.3023 23.4929 62.3023 22.0089C62.3023 20.5248 63.5312 19.372 65.0416 19.4337C66.5455 19.4953 67.7612 20.7394 67.7612 22.2133C67.7612 23.6872 66.5462 24.84 65.0416 24.7892Z" fill="url(#paint33_linear_997_9372)"/>
<path d="M76.7571 27.0592V21.0504C76.7571 19.393 75.4351 18.0264 73.7625 17.9539L30.3885 16.0733C29.5962 16.0392 28.8563 16.2465 28.2742 16.6511C27.4797 17.2021 26.9609 18.0743 26.9609 19.0943V27.0592H76.7571ZM66.0029 19.4735C67.5032 19.5351 68.716 20.7771 68.716 22.2503C68.716 23.7235 67.5032 24.8733 66.0029 24.8226C64.4969 24.7718 63.2702 23.5292 63.2702 22.0473C63.2702 20.5654 64.4969 19.4126 66.0029 19.4742V19.4735ZM52.6455 18.9269C54.1989 18.9907 55.4547 20.2551 55.4547 21.7544C55.4547 23.2537 54.1989 24.4224 52.6455 24.3702C51.0856 24.3172 49.8153 23.0521 49.8153 21.5434C49.8153 20.0347 51.0856 18.8631 52.6455 18.9269ZM38.8079 18.3606C40.418 18.4266 41.7189 19.7149 41.7189 21.2403C41.7189 22.7657 40.4173 23.9555 38.8079 23.9011C37.1913 23.8467 35.8751 22.5577 35.8751 21.0221C35.8751 19.4866 37.192 18.2947 38.8079 18.3606Z" fill="url(#paint34_linear_997_9372)"/>
<path d="M26.9609 25.2496V53.6964C26.9609 55.4647 28.4379 56.8893 30.3187 56.8741L73.7377 56.5232C75.4111 56.5094 76.7571 55.1565 76.7571 53.4985V26.8228L26.9609 25.2503V25.2496Z" fill="white"/>
<path d="M59.2494 30.9365C59.2494 30.5421 58.9598 30.2158 58.5546 30.205L54.259 30.094C53.8486 30.0832 53.3379 30.3942 53.3379 30.7915V34.8007C53.3379 35.198 53.869 35.5294 54.2794 35.5373L58.4563 35.6171C58.8616 35.6251 59.2501 35.3119 59.2501 34.9175V30.9372L59.2494 30.9365Z" fill="#BFC8D6"/>
<path d="M66.7524 31.1272C66.7524 30.7364 66.4192 30.4123 66.0212 30.4022L62.0036 30.2978C61.6012 30.2869 61.2949 30.6001 61.2949 30.993V34.9631C61.2949 35.3561 61.5961 35.6794 61.9978 35.6874L66.0336 35.7643C66.4316 35.7722 66.7524 35.4605 66.7524 35.0697V31.1279V31.1272Z" fill="#BFC8D6"/>
<path d="M74.2563 31.32C74.2563 30.9336 73.9107 30.6117 73.5207 30.6015L69.538 30.4949C69.1437 30.4848 68.7988 30.7893 68.7988 31.1793V35.1096C68.7988 35.4989 69.1284 35.823 69.5228 35.8302L73.5149 35.9085C73.9049 35.9158 74.2556 35.6098 74.2556 35.2234V31.3207L74.2563 31.32Z" fill="#BFC8D6"/>
<path d="M59.2494 38.2169C59.2494 37.8225 58.9598 37.4992 58.5546 37.4919L54.259 37.4202C53.8486 37.4129 53.3379 37.7276 53.3379 38.1241V42.1334C53.3379 42.5307 53.869 42.8591 54.2794 42.8627L58.4563 42.9033C58.8616 42.9077 59.2501 42.5909 59.2501 42.1972V38.2169H59.2494Z" fill="#BFC8D6"/>
<path d="M66.7524 38.3373C66.7524 37.9465 66.4192 37.6253 66.0212 37.6181L62.0036 37.5514C61.6012 37.5448 61.2949 37.8595 61.2949 38.2532V42.2233C61.2949 42.6162 61.5961 42.9367 61.9978 42.941L66.0336 42.9802C66.4316 42.9838 66.7524 42.6699 66.7524 42.2791V38.3373Z" fill="#BFC8D6"/>
<path d="M74.2563 38.4583C74.2563 38.0719 73.9107 37.7529 73.5207 37.7457L69.538 37.6761C69.1437 37.6695 68.7988 37.9769 68.7988 38.367V42.2972C68.7988 42.6865 69.1284 43.0077 69.5228 43.0113L73.5149 43.0519C73.9049 43.0556 74.2556 42.7474 74.2556 42.3603V38.4576L74.2563 38.4583Z" fill="#BFC8D6"/>
<path d="M35.8285 37.8472C35.8285 37.4404 35.4494 37.1026 35.0187 37.0953L30.6751 37.0185C30.2393 37.0112 29.917 37.3346 29.917 37.7442V41.8782C29.917 42.2878 30.224 42.6249 30.6598 42.6285L35.0427 42.6749C35.4734 42.6793 35.8292 42.3559 35.8292 41.9499V37.8472H35.8285Z" fill="#BFC8D6"/>
<path d="M43.7875 37.969C43.7875 37.5666 43.4797 37.236 43.0577 37.2287L38.7105 37.1548C38.2834 37.1475 37.876 37.4694 37.876 37.8747V41.9659C37.876 42.3712 38.3009 42.7047 38.728 42.709L43.0192 42.7511C43.4411 42.7554 43.7882 42.4321 43.7882 42.0297V37.9682L43.7875 37.969Z" fill="#BFC8D6"/>
<path d="M51.5177 38.1009C51.5177 37.7029 51.2034 37.3709 50.7894 37.3643L46.4756 37.2897C46.0566 37.2824 45.6055 37.5985 45.6055 37.9994V42.05C45.6055 42.4509 46.0675 42.7823 46.4866 42.7859L50.7283 42.8316C51.1423 42.8359 51.5177 42.5198 51.5177 42.1218V38.1009Z" fill="#BFC8D6"/>
<path d="M59.2494 45.4974C59.2494 45.103 58.9598 44.7818 58.5546 44.7789L54.259 44.7456C53.8486 44.7427 53.3379 45.0595 53.3379 45.4568V49.466C53.3379 49.8633 53.869 50.1881 54.2794 50.1889L58.4563 50.191C58.8616 50.191 59.2501 49.872 59.2501 49.4776V45.4974H59.2494Z" fill="#BFC8D6"/>
<path d="M66.7524 45.5474C66.7524 45.1567 66.4192 44.8376 66.0212 44.8347L62.0036 44.8065C61.6012 44.8036 61.2949 45.1211 61.2949 45.5148V49.4849C61.2949 49.8779 61.5961 50.1961 61.9978 50.1961H66.0336C66.4316 50.1976 66.7524 49.8808 66.7524 49.49V45.5482V45.5474Z" fill="#BFC8D6"/>
<path d="M35.8285 45.3509C35.8285 44.9442 35.4494 44.6107 35.0187 44.6071L30.6751 44.5723C30.2393 44.5694 29.917 44.8956 29.917 45.3053V49.4392C29.917 49.8488 30.224 50.1823 30.6598 50.1823L35.0427 50.1867C35.4734 50.1867 35.8292 49.8597 35.8292 49.4537V45.3509H35.8285Z" fill="#BFC8D6"/>
<path d="M43.7875 45.3973C43.7875 44.995 43.4797 44.6673 43.0577 44.6644L38.7105 44.6317C38.2834 44.6288 37.876 44.9536 37.876 45.3589V49.4501C37.876 49.8554 38.3009 50.186 38.728 50.186L43.0192 50.1874C43.4411 50.1874 43.7882 49.8612 43.7882 49.4588V45.3973H43.7875Z" fill="#BFC8D6"/>
<path d="M51.5177 45.4553C51.5177 45.0573 51.2034 44.7289 50.7894 44.7253L46.4756 44.6904C46.0566 44.6875 45.6055 45.0066 45.6055 45.4075V49.4581C45.6055 49.859 46.0675 50.1867 46.4866 50.1867L50.7283 50.1925C51.1423 50.1925 51.5177 49.8742 51.5177 49.4754V45.4546V45.4553Z" fill="#BFC8D6"/>
<path d="M38.5364 10.9185C35.8175 10.7815 33.5672 12.9869 33.3496 16.203L35.6465 16.3024C35.8335 14.3811 37.0828 12.9587 38.5372 13.0283C40.1087 13.1029 41.4307 14.9227 41.4307 17.0121C41.4307 19.1016 40.108 20.8119 38.5372 20.7524C37.7187 20.7212 36.9656 20.2116 36.4294 19.4365C36.1187 19.8628 35.5825 20.8445 36.0904 22.0625C36.8216 22.5417 37.6546 22.8281 38.5379 22.8593C41.379 22.9593 43.6753 20.3841 43.6753 17.1093C43.6753 13.8345 41.379 11.0628 38.5379 10.9192L38.5364 10.9185Z" fill="#BFC8D6"/>
<path d="M52.3597 11.608C49.7346 11.4753 47.5628 13.6445 47.3525 16.8041L49.5694 16.9005C49.7506 15.0126 50.9562 13.6141 52.3597 13.6815C53.8766 13.754 55.1535 15.5404 55.1535 17.5936C55.1535 19.6468 53.8766 21.3281 52.3597 21.2708C51.5695 21.2411 50.8427 20.7408 50.3247 19.9796C50.0249 20.3986 49.5076 21.3636 49.9972 22.5599C50.703 23.0304 51.5077 23.311 52.3597 23.3407C55.1026 23.4371 57.3202 20.9054 57.3202 17.6871C57.3202 14.4689 55.1026 11.7472 52.3597 11.6087V11.608Z" fill="#BFC8D6"/>
<path d="M65.7497 12.2902C63.2164 12.1626 61.1202 14.2948 60.918 17.3993L63.057 17.4921C63.2316 15.6375 64.395 14.2629 65.7497 14.3275C67.2136 14.3971 68.4461 16.1516 68.4461 18.1685C68.4461 20.1855 67.2136 21.8385 65.7497 21.7834C64.9873 21.7544 64.2859 21.2635 63.786 20.5161C63.4965 20.9279 62.9974 21.8762 63.4695 23.0507C64.1506 23.5125 64.9269 23.7873 65.7497 23.8163C68.3974 23.9091 70.5379 21.4201 70.5379 18.2584C70.5379 15.0967 68.3974 12.4243 65.7497 12.2909V12.2902Z" fill="#BFC8D6"/>
<g style="mix-blend-mode:multiply" opacity="0.3">
<path d="M76.7571 52.4073V53.4992C76.7571 55.1565 75.4351 56.5116 73.7625 56.5246L30.3449 56.8741C28.4641 56.8893 26.9609 55.4647 26.9609 53.6971V19.0943C26.9609 18.0742 27.4666 17.1847 28.2611 16.6337C29.9876 17.2521 32.2118 18.9798 33.3504 23.6604C35.3585 31.9094 37.0872 35.4329 44.8307 35.2575C49.7804 35.1451 53.5761 35.372 55.9414 37.5463C57.2118 38.7114 58.0754 40.4427 58.4857 42.9889C58.7258 44.4787 59.7997 45.4292 61.332 46.1259C62.8329 46.8103 64.7835 47.2511 66.8127 47.726C70.5386 48.596 74.7105 49.5835 76.7564 52.4066L76.7571 52.4073Z" fill="#BFC8D6"/>
</g>
<path d="M113.736 46.1187C113.542 46.1187 113.353 45.9919 113.254 45.8099L103.243 27.5885H80.4868C80.1834 27.5885 79.9375 27.3913 79.9375 27.0889C79.9375 26.7866 80.1834 26.5894 80.4868 26.5894H103.568C103.769 26.5894 103.954 26.675 104.05 26.8497L114.217 45.3198C114.363 45.5844 114.265 45.9114 113.999 46.0571C113.916 46.1028 113.825 46.1187 113.736 46.1187Z" fill="#BFC8D6"/>
<path d="M118.271 94.7386C118.271 94.7386 119.294 93.1719 119.928 92.0206C120.562 90.8686 123.716 87.4995 123.716 87.4995C123.716 87.4995 124.026 87.9555 123.359 88.798C122.691 89.6404 121.257 91.1129 121.671 91.6364C122.085 92.1598 123.145 92.5542 122.518 93.6794C121.891 94.8053 120.55 94.2087 119.984 95.1178C119.417 96.027 118.843 97.0144 118.843 97.0144L118.271 94.7394V94.7386Z" fill="url(#paint35_linear_997_9372)"/>
<path d="M120.431 97.1594C119.844 99.6215 118.758 103.066 116.63 106.797C115.69 108.443 112.752 113.286 107.389 117.474C103.024 120.88 96.3661 124.387 90.7173 125.627C86.9085 126.464 83.5558 126.266 81.6773 124.311C77.5105 119.977 82.4732 108.991 83.3914 107.015C85.724 107.842 89.5226 108.866 94.2656 108.736C95.8205 108.692 99.8621 108.544 104.25 106.719C112.377 103.342 116.392 96.4156 117.722 93.8339C118.325 94.5748 118.928 95.3158 119.53 96.0538C119.83 96.4228 120.131 96.7897 120.43 97.1587L120.431 97.1594Z" fill="#EBE9FB"/>
<path style="mix-blend-mode:multiply" opacity="0.1" d="M120.432 97.1594C119.844 99.6215 118.759 103.066 116.63 106.797C115.691 108.443 112.753 113.286 107.389 117.474C103.025 120.88 96.3666 124.387 90.7177 125.627C88.383 122.486 86.0715 119.369 86.0686 119.366C85.9616 119.223 89.857 116.985 90.0862 116.871C92.6167 115.636 95.3378 114.918 98.1738 115.199C102.127 115.594 104.287 112.81 106.645 110.21C109.379 107.2 112.99 105.184 115.627 102.06C117.151 100.253 118.464 98.178 119.53 96.0545C119.83 96.4235 120.13 96.7904 120.43 97.1594H120.432Z" fill="url(#paint36_linear_997_9372)"/>
<path d="M74.3964 194.619C74.0858 194.903 74.0661 195.567 74.0537 196.002C74.0479 196.196 74.045 196.292 74.0712 196.359C74.2596 196.846 75.2295 196.84 76.7552 196.902C79.1664 197.001 79.891 197.145 80.0569 196.778C80.2126 196.434 79.7535 195.915 79.7018 195.857C79.4246 195.55 79.1016 195.451 78.4781 195.288C77.3249 194.986 76.5486 194.829 76.3136 194.782C74.8461 194.486 74.6001 194.432 74.3964 194.618V194.619Z" fill="url(#paint37_linear_997_9372)"/>
<path d="M76.0871 192.223L76.1809 194.958C76.106 195.086 75.2729 195.438 74.6458 195.065L74.1729 192.356L76.0871 192.224V192.223Z" fill="url(#paint38_linear_997_9372)"/>
<path d="M94.7086 194.241C94.2939 194.651 94.1622 195.439 94.4816 195.848C94.7959 196.25 95.3147 195.989 96.7393 196.107C98.2657 196.234 98.6455 196.615 99.6998 196.384C100.125 196.291 100.882 196.05 100.884 195.751C100.886 195.54 100.514 195.411 99.2763 194.924C97.5192 194.231 97.5287 194.198 97.1525 194.116C96.2067 193.908 95.2572 193.698 94.7094 194.24L94.7086 194.241Z" fill="url(#paint39_linear_997_9372)"/>
<path d="M95.822 191.808L96.4529 194.391C96.3874 194.524 95.5834 194.937 94.9301 194.613L93.9238 192.086L95.8228 191.808H95.822Z" fill="url(#paint40_linear_997_9372)"/>
<path d="M91.992 135.782C91.6443 144.329 91.7141 153.965 92.5588 164.474C93.3933 174.86 94.8376 184.281 96.519 192.588C95.5266 192.798 94.5342 193.008 93.5418 193.218C91.1837 190.78 88.2472 186.983 87.0111 181.773C86.2443 178.538 86.6444 176.92 86.2595 172.971C85.6469 166.685 83.9037 163.316 82.1902 158.183C80.6507 153.57 78.9002 146.826 78.2461 137.902C82.8276 137.196 87.4098 136.489 91.9913 135.783L91.992 135.782Z" fill="url(#paint41_linear_997_9372)"/>
<path style="mix-blend-mode:multiply" opacity="0.3" d="M90.6213 175.728C89.5285 171.415 87.4236 170.276 87.3487 166.205C87.2956 163.327 88.3338 163.091 88.2647 160.335C88.1599 156.156 85.7029 153.964 84.4683 151.334C83.1645 148.558 82.6646 144.097 86.1788 136.678C83.5348 137.086 80.8901 137.494 78.2461 137.901C78.9002 146.826 80.6507 153.569 82.1902 158.182C83.9037 163.316 85.6462 166.685 86.2595 172.97C86.6444 176.918 86.2443 178.538 87.0111 181.772C88.2472 186.983 91.183 190.779 93.5418 193.218C93.7942 193.164 94.0467 193.111 94.2992 193.057C91.7498 190.025 90.8505 187.317 90.6213 185.119C90.2488 181.544 91.7228 180.075 90.6213 175.727V175.728Z" fill="url(#paint42_linear_997_9372)"/>
<path d="M82.0734 135.248C80.8926 146.079 79.807 157.118 78.8306 168.36C78.098 176.796 77.4446 185.129 76.8669 193.355C75.8614 193.424 74.8552 193.494 73.849 193.564C72.9795 191.721 71.8438 188.914 71.1533 185.357C70.3145 181.037 70.6972 178.518 70.4665 174.075C70.2068 169.091 69.5025 167.97 68.4861 161.647C66.4242 148.813 65.3932 142.396 68.6629 138.613C69.7244 137.385 73.0094 134.337 82.0734 135.249V135.248Z" fill="url(#paint43_linear_997_9372)"/>
<path d="M65.7076 109.015C62.5601 111.842 62.0545 115.764 61.5496 119.676C60.707 126.21 62.1825 132.611 62.6904 134.816C63.4347 138.044 64.0975 139.426 63.8108 142.074C63.4551 145.36 62.0043 147.193 62.9858 148.579C63.6566 149.525 65.0208 149.64 67.4414 149.648C72.709 149.666 74.3627 149.07 78.24 148.974C80.7872 148.912 83.664 148.841 87.3418 149.612C90.2979 150.232 92.4705 151.123 94.4349 149.997C95.8107 149.209 96.3913 147.83 96.5412 147.466C97.4812 145.184 96.5936 142.845 96.2349 141.836C95.7474 140.464 94.934 135.207 93.3072 124.692C92.8299 121.608 92.5279 119.125 91.4046 115.556C90.6079 113.025 90.2099 111.759 89.4649 110.737C86.1581 106.2 79.2622 106.12 76.7899 106.091C73.4024 106.052 69.0631 106.001 65.7054 109.017L65.7076 109.015Z" fill="#EBE9FB"/>
<path style="mix-blend-mode:multiply" opacity="0.1" d="M95.9048 140.553C94.0939 139.562 92.7304 138.469 91.6908 137.451C86.525 132.391 86.5403 128.896 82.415 126.115C78.7037 123.613 76.8797 125.526 73.1363 123.474C70.3148 121.928 66.9105 118.408 65.3077 109.397C62.5175 112.189 62.0322 115.937 61.5505 119.675C60.708 126.209 62.1835 132.61 62.6914 134.815C63.4357 138.044 64.0985 139.425 63.8118 142.073C63.456 145.36 62.0053 147.192 62.9868 148.578C63.6576 149.525 65.0218 149.639 67.4424 149.647C72.71 149.665 74.3637 149.069 78.2409 148.974C80.7882 148.911 83.665 148.84 87.3428 149.612C90.2989 150.232 92.4714 151.123 94.4359 149.997C95.8117 149.208 96.3923 147.83 96.5422 147.466C97.4822 145.183 96.5946 142.844 96.2359 141.835C96.1398 141.564 96.03 141.139 95.9041 140.553H95.9048Z" fill="url(#paint44_linear_997_9372)"/>
<path d="M75.0049 103.558C74.5618 104.205 74.8586 104.486 74.4985 105.071C74.2613 105.458 73.8437 105.804 70.9552 106.584C69.4506 106.991 69.1814 107 69.1836 107.089C69.1923 107.439 73.3955 107.634 77.5346 107.089C77.5346 107.089 80.0731 106.754 80.0651 106.333C80.0586 105.991 78.2848 106.168 77.5346 105.072C76.8551 104.08 77.5987 102.894 77.0282 102.551C76.5444 102.259 75.5142 102.814 75.0034 103.559L75.0049 103.558Z" fill="url(#paint45_linear_997_9372)"/>
<path d="M73.0224 99.9985C72.377 99.1938 72.2621 97.635 73.1075 96.8759C73.6081 96.4264 74.4353 96.2655 75.0494 96.5185C75.7297 96.7991 75.6831 97.3958 76.3969 97.6321C76.9738 97.8235 77.1674 97.4871 77.9153 97.6321C78.1117 97.6698 78.9361 97.83 79.3202 98.4615C79.8572 99.3453 79.0496 100.507 78.7411 101.169C78.5883 101.498 78.3045 101.6 78.0448 101.842C77.6839 102.178 77.1201 102.711 76.1997 103.604C76.124 103.326 76.0091 102.98 75.8301 102.603C75.761 102.458 75.4838 101.892 75.069 101.415C74.22 100.438 73.5826 100.697 73.0224 99.9985Z" fill="url(#paint46_linear_997_9372)"/>
<path d="M77.5196 102.876C77.5196 102.876 76.9797 103.687 75.8877 104.041C75.4788 104.174 74.9651 104.364 74.4471 104.184C73.4336 103.831 73.1833 102.36 73.1083 101.918C72.8202 100.228 73.4983 98.4296 74.1204 98.3876C74.4092 98.3687 74.4885 98.7407 75.1324 98.8922C75.6476 99.0125 76.1219 98.898 76.1445 98.8922C76.5548 98.7885 76.632 98.6254 76.9033 98.6399C77.3137 98.6624 77.6003 99.0582 77.6622 99.1445C78.0805 99.7216 77.9321 100.71 77.3406 101.657C77.6884 101.343 78.1096 101.235 78.4109 101.378C78.4589 101.401 78.5869 101.485 78.6597 101.609C78.9238 102.055 78.4989 102.595 77.5196 102.875V102.876Z" fill="url(#paint47_linear_997_9372)"/>
<path d="M73.0392 101.478C73.0392 101.478 73.1076 102.676 73.6133 102.424C74.1197 102.171 74.6253 101.919 75.1317 102.424C75.6381 102.928 77.8048 100.826 77.8048 100.826L78.1686 101.163C78.1686 101.163 77.1566 101.667 77.1566 102.171C77.1566 102.675 76.2151 104.309 75.8913 104.945C75.497 105.72 73.6366 106.82 72.6013 104.441C72.2382 103.606 73.0392 101.478 73.0392 101.478V101.478Z" fill="url(#paint48_linear_997_9372)"/>
<path d="M54.3711 149.303C53.4427 148.361 42.5706 136.998 46.4064 124.576C50.1221 112.544 65.8579 105.277 69.797 107.975C70.9785 108.784 71.0047 110.425 71.0244 111.617C71.1517 119.531 61.6737 122.39 57.5447 130.151C55.6218 133.765 54.2459 139.594 57.4814 149.009C56.4446 149.107 55.4078 149.205 54.3711 149.304V149.303Z" fill="#EBE9FB"/>
<path d="M73.4434 102.898C73.4434 102.898 74.4139 103.416 75.2455 103.123C75.2455 103.123 73.9636 104.107 73.4434 102.898Z" fill="url(#paint49_linear_997_9372)"/>
<path d="M57.4815 149.008C57.4815 149.008 58.0621 150.516 57.0363 153.494C56.0111 156.472 54.823 154.942 54.6658 154.269C54.5087 153.596 55.2341 149.221 55.2341 149.221L57.4808 149.008H57.4815Z" fill="url(#paint50_linear_997_9372)"/>
<path d="M50.5369 193.264C50.5369 193.264 50.3681 194.603 50.4816 195.052C50.5951 195.501 54.5022 195.825 55.8285 195.669C57.1549 195.513 55.0384 194.163 54.1937 193.909C53.349 193.656 50.5376 193.264 50.5376 193.264H50.5369Z" fill="url(#paint51_linear_997_9372)"/>
<path d="M52.5034 191.03L52.0915 193.717C52.0915 193.717 51.0417 194.188 50.5367 193.723L50.4814 190.911L52.5041 191.031L52.5034 191.03Z" fill="url(#paint52_linear_997_9372)"/>
<path d="M30.4777 190.91C30.4777 190.91 31.3064 191.523 31.0859 192.257C30.8647 192.991 28.9309 195.933 27.5521 196.768C26.1734 197.603 26.6055 195.863 27.0072 194.78C27.4081 193.697 28.4332 191.31 28.8334 190.91C29.2335 190.51 30.4784 190.91 30.4784 190.91H30.4777Z" fill="url(#paint53_linear_997_9372)"/>
<path d="M31.9697 187.958C31.5688 189.071 31.1832 189.987 30.882 190.662C30.2148 192.155 29.8503 192.716 29.4378 193.202C29.0776 193.625 28.2256 194.528 27.9964 194.378C27.7636 194.225 28.3871 193.128 29.5891 189.912C29.7637 189.445 30.3152 187.959 30.3152 187.959H31.9704L31.9697 187.958Z" fill="url(#paint54_linear_997_9372)"/>
<path d="M60.6865 141.447C60.9724 144.245 61.2467 148.587 60.8364 153.857C60.3016 160.724 58.9236 165.069 57.1956 172.39C56.1399 176.865 54.7168 183.45 53.429 191.686C53.13 191.857 52.2511 192.305 51.1197 192.137C50.486 192.044 50.0124 191.792 49.7322 191.612C46.3534 181.325 47.3516 174.95 48.9821 170.978C49.6769 169.285 50.5195 167.949 50.9698 165.347C51.5657 161.904 50.8287 159.979 49.7781 152.003C49.0287 146.319 49.1589 145.44 49.6573 144.587C51.6494 141.178 57.7428 141.245 60.6865 141.447V141.447Z" fill="url(#paint55_linear_997_9372)"/>
<path d="M49.0563 142.643C46.9864 153.294 44.955 158.888 43.4177 162.052C43.0386 162.832 41.7734 165.35 40.578 168.959C39.5194 172.154 39.0785 174.504 38.8522 175.538C38.1385 178.803 36.3748 183.57 31.6296 189.823C31.5707 189.858 30.7609 190.314 29.9875 189.907C29.5961 189.701 29.4011 189.373 29.3232 189.22C29.9439 183.242 30.6554 178.219 31.2739 174.342C31.4034 173.529 31.9745 169.972 32.8701 165.272C33.2208 163.432 33.7345 160.738 34.3493 157.969C35.1154 154.522 36.2904 149.833 38.1006 144.213C41.7516 143.69 45.4032 143.167 49.0549 142.643H49.0563Z" fill="url(#paint56_linear_997_9372)"/>
<path d="M56.0996 111.154C63.0974 114.081 67.246 118.095 69.452 120.658C71.8864 123.487 74.3492 126.437 73.6908 129.95C73.2848 132.115 71.7736 134.073 69.8761 135.019C65.5726 137.165 59.2406 134.126 56.948 129.95C56.2808 128.735 56.1302 127.741 56.1004 117.49C56.0931 114.934 56.0953 112.77 56.1004 111.154H56.0996Z" fill="url(#paint57_linear_997_9372)"/>
<path d="M51.4281 107.902C48.9172 108.775 49.2032 110.175 47.134 110.755C45.1484 111.311 42.3829 110.722 41.2137 108.881C40.1573 107.218 40.7328 105.052 40.783 104.874C41.2028 103.385 42.0293 103.061 41.8642 102.137C41.6321 100.838 39.8874 100.837 39.6153 99.5751C39.3621 98.4035 40.5131 96.7556 41.8474 96.4163C43.2858 96.0509 44.0134 97.44 45.7465 97.0731C46.8153 96.8469 46.7563 96.2713 47.9641 96.0016C49.679 95.6188 51.1283 96.4801 51.3182 96.5968C51.6689 96.8121 52.8003 97.5081 53.1684 98.7834C53.5351 100.054 52.8308 100.81 53.3226 101.33C53.8858 101.924 54.9298 101.058 56.0474 101.635C56.9852 102.118 57.5651 103.405 57.3759 104.533C57.1773 105.715 56.1762 106.364 55.581 106.751C54.0546 107.743 53.2099 107.283 51.4302 107.902H51.4281Z" fill="url(#paint58_linear_997_9372)"/>
<path d="M64.895 128.155C64.5385 127.137 62.9887 122.714 64.4708 121.609C65.3264 120.971 67.4313 121.266 73.0656 125.713C72.2434 123.934 70.8436 122.276 69.4517 120.658C67.2457 118.095 63.0971 114.081 56.0994 111.154C56.0943 112.77 56.0921 114.934 56.0994 117.49C56.13 127.741 56.2798 128.735 56.947 129.95C59.1719 134.002 65.2013 136.984 69.4896 135.194C67.8533 133.623 66.0023 131.316 64.895 128.155V128.155Z" fill="url(#paint59_linear_997_9372)"/>
<path d="M62.4694 140.519C62.4047 139.593 62.2773 138.008 61.3977 131.851C60.1208 122.907 60.1732 124.89 59.9142 122.136C59.6705 119.547 59.5257 117.196 58.4307 114.111C58.0473 113.03 57.6551 112.163 57.3714 111.577C56.3113 111.225 52.0587 110.188 49.9531 110.099C47.5339 109.996 45.269 109.901 43.4843 110.009C43.3176 109.951 41.3387 110.11 39.5678 110.732C38.1206 111.24 36.9682 111.794 36.1766 112.21C37.4833 113.22 39.2324 114.918 39.5678 117.279C39.941 119.91 38.2189 120.966 36.6007 125.938C35.4526 129.465 35.0598 132.805 34.9055 134.174C34.4049 138.606 34.9281 139.903 33.6337 141.777C32.1655 143.902 30.3677 143.86 30.0308 145.579C29.6583 147.479 31.4743 149.482 32.7861 150.436C35.521 152.425 38.6685 151.346 43.3831 150.647C55.4338 148.861 60.1696 151.729 62.2955 148.5C62.9554 147.497 62.7939 145.17 62.4694 140.518V140.519Z" fill="url(#paint60_linear_997_9372)"/>
<path style="mix-blend-mode:multiply" opacity="0.3" d="M37.0247 150.437C38.7636 149.459 38.4347 147.726 40.2034 146.636C42.8467 145.007 45.252 147.845 48.2569 146.636C52.0722 145.101 52.6375 138.739 52.7074 137.765C52.8398 135.928 53.1105 132.165 50.7997 130.162C47.8836 127.634 43.4091 130.119 41.8979 127.839C41.0416 126.547 42.3294 125.524 42.1096 122.348C41.9503 120.048 40.9834 116.389 38.8902 115.253C39.2168 115.863 39.4613 116.539 39.5668 117.28C39.94 119.911 38.2179 120.966 36.5998 125.938C35.4517 129.466 35.0588 132.805 34.9045 134.175C34.404 138.606 34.9271 139.904 33.6327 141.778C32.1645 143.903 30.3667 143.861 30.0298 145.579C29.6573 147.479 31.4733 149.483 32.7851 150.437C32.8863 150.51 32.9881 150.58 33.0914 150.647C34.4644 151.023 35.8657 151.089 37.0239 150.437H37.0247Z" fill="url(#paint61_linear_997_9372)"/>
<path d="M51.5968 106.25C51.3851 106.461 50.5375 108.151 49.2657 109.207C48.5942 109.764 46.0862 110.051 45.4511 110.051C44.8159 110.051 45.2393 110.685 48.2064 111.108C51.1734 111.53 53.0811 111.53 53.717 110.897C53.717 110.897 51.5976 110.474 52.2334 108.996C52.8693 107.517 51.5976 106.25 51.5976 106.25H51.5968Z" fill="url(#paint62_linear_997_9372)"/>
<path d="M50.6896 107.541C50.6896 107.541 51.2403 108.815 52.5965 108.641C53.8108 108.486 53.7963 105.448 52.9814 104.918C52.7093 104.741 52.1534 104.668 51.7372 104.812C51.4448 104.913 50.5688 105.606 50.7456 106.644C50.4807 106.498 50.2144 106.516 50.1206 106.642C50.0013 106.801 50.1861 107.097 50.2283 107.164C50.3738 107.396 50.5891 107.5 50.6896 107.541V107.541Z" fill="url(#paint63_linear_997_9372)"/>
<path d="M67.5007 124.043C67.564 123.863 67.7241 123.728 67.9147 123.747C68.1279 123.769 68.3403 123.897 68.3316 124.322C68.3148 125.166 67.8696 126.214 67.4418 126.416C67.014 126.619 66.3824 126.395 66.6109 125.555C66.7942 124.883 67.3785 124.393 67.5007 124.043Z" fill="url(#paint64_linear_997_9372)"/>
<path d="M65.3004 131.211L58.7996 131.788C58.5486 131.811 58.2524 131.469 58.3165 131.227L61.6822 119.287C61.7382 119.078 61.9186 118.936 62.1144 118.947L68.6501 119.165C68.8596 119.178 68.7578 119.713 68.6858 119.962L65.8271 130.696C65.7769 130.87 65.4626 131.197 65.2997 131.211H65.3004Z" fill="url(#paint65_linear_997_9372)"/>
<path d="M65.5002 130.933L58.9666 131.597C58.7163 131.622 58.5519 131.419 58.6232 131.168L61.9998 119.241C62.0551 119.046 62.2268 118.909 62.4124 118.914L68.6221 119.06C68.8251 119.065 68.9532 119.291 68.8884 119.527L65.8741 130.586C65.8246 130.767 65.6653 130.916 65.5002 130.933Z" fill="url(#paint66_linear_997_9372)"/>
<path style="mix-blend-mode:multiply" opacity="0.3" d="M62.4861 124.054C62.6367 125.118 63.4618 124.849 64.0758 126.116C64.8558 127.725 63.9885 129.217 64.7394 129.784C64.9685 129.958 65.3636 130.05 66.0905 129.794L65.8751 130.585C65.8256 130.767 65.6663 130.915 65.5011 130.932L58.9676 131.596C58.7173 131.622 58.5529 131.418 58.6242 131.168L62.0008 119.241C62.0561 119.045 62.2278 118.909 62.4133 118.913L63.3461 118.935C63.4399 119.335 63.5003 119.799 63.4712 120.317C63.3715 122.097 62.31 122.808 62.4868 124.053L62.4861 124.054Z" fill="url(#paint67_linear_997_9372)"/>
<path d="M40.4159 117.913C40.4057 119.444 40.0209 119.658 39.3559 122.347C38.565 125.549 37.9917 127.868 38.9317 129.528C40.1191 131.624 43.276 131.881 45.5016 132.062C50.9249 132.504 55.5726 130.704 58.7455 128.955C58.8176 128.915 58.8983 128.898 58.9806 128.905C59.6936 128.967 59.8711 129.088 60.435 129.167C60.67 129.2 60.8315 129.42 60.7907 129.654C60.4306 131.716 58.8518 139.423 51.0122 142.834C49.8576 143.337 43.7613 145.842 37.024 143.045C35.0501 142.226 31.2318 140.208 28.7581 135.865C25.9795 130.986 26.0385 125.18 28.1222 120.659C29.6145 117.422 31.7921 115.609 33.8445 113.9C36.3386 111.825 37.2459 111.899 37.6592 111.999C39.5072 112.45 40.4305 115.606 40.4145 117.913H40.4159Z" fill="url(#paint68_linear_997_9372)"/>
<path style="mix-blend-mode:multiply" opacity="0.3" d="M50.3766 140.088C48.1168 139.874 47.6278 138.69 44.0184 137.976C38.5616 136.897 36.3127 138.937 34.6931 137.343C32.8276 135.507 35.5226 132.518 33.8455 127.628C32.6603 124.171 30.6915 123.847 30.0309 121.503C29.7027 120.338 29.7355 118.809 30.7075 116.78C29.7457 117.836 28.8522 119.076 28.1232 120.658C26.0394 125.179 25.9805 130.985 28.7591 135.864C31.2321 140.208 35.0511 142.225 37.025 143.045C43.7623 145.842 49.8586 143.336 51.0132 142.834C54.3251 141.392 56.5173 139.184 57.9738 136.959C54.7544 139.729 52.2362 140.264 50.3773 140.088H50.3766Z" fill="url(#paint69_linear_997_9372)"/>
<path d="M60.8311 125.608C60.8311 125.608 60.5502 124.671 59.7026 124.671C58.855 124.671 58.2191 125.516 58.855 127.206C59.4909 128.895 59.2792 129.107 59.2792 129.107C59.2792 129.107 60.3393 129.529 60.3393 129.107C60.3393 128.684 59.9551 127.219 60.0409 126.896C60.1268 126.573 60.2643 125.701 60.8318 125.608L60.8311 125.608Z" fill="url(#paint70_linear_997_9372)"/>
<path d="M181.736 194.552C181.736 194.552 181.89 195.778 181.787 196.189C181.683 196.6 178.105 196.896 176.891 196.753C175.677 196.611 177.614 195.375 178.389 195.143C179.162 194.911 181.736 194.552 181.736 194.552Z" fill="url(#paint71_linear_997_9372)"/>
<path d="M179.936 192.506L180.312 194.966C180.312 194.966 181.274 195.396 181.736 194.971L181.787 192.395L179.936 192.506Z" fill="url(#paint72_linear_997_9372)"/>
<path d="M200.104 192.396C200.104 192.396 199.345 192.957 199.547 193.629C199.749 194.301 201.521 196.995 202.783 197.76C204.046 198.524 203.65 196.932 203.282 195.939C202.915 194.947 201.976 192.762 201.61 192.395C201.243 192.029 200.104 192.395 200.104 192.395V192.396Z" fill="url(#paint73_linear_997_9372)"/>
<path d="M198.738 189.693C199.105 190.713 199.458 191.551 199.734 192.169C200.344 193.536 200.678 194.049 201.057 194.494C201.386 194.881 202.167 195.708 202.377 195.57C202.59 195.431 202.019 194.425 200.918 191.482C200.758 191.055 200.253 189.693 200.253 189.693H198.737H198.738Z" fill="url(#paint74_linear_997_9372)"/>
<path d="M172.443 147.105C172.181 149.668 171.93 153.643 172.306 158.469C172.796 164.756 174.057 168.735 175.639 175.438C176.606 179.535 177.909 185.565 179.088 193.106C179.361 193.262 180.166 193.672 181.203 193.519C181.782 193.433 182.217 193.204 182.473 193.039C185.567 183.619 184.653 177.782 183.16 174.145C182.523 172.595 181.752 171.372 181.339 168.989C180.794 165.836 181.468 164.073 182.431 156.77C183.117 151.565 182.997 150.761 182.541 149.98C180.717 146.859 175.138 146.92 172.443 147.105L172.443 147.105Z" fill="url(#paint75_linear_997_9372)"/>
<path d="M153.204 120.747C153.204 120.747 152.77 119.049 152.047 118.602C151.325 118.154 150.303 117.675 150.07 117.478C149.836 117.282 149.563 117.87 150.237 118.32L150.912 118.77C150.926 118.894 150.907 118.991 150.884 119.059C150.777 119.377 150.413 119.596 149.962 119.637C148.232 119.998 147.556 120.016 147.292 119.939C147.253 119.927 147.102 119.879 147.039 119.945C146.937 120.052 147.12 120.391 147.198 120.51C147.666 121.222 149.291 121.532 150.508 120.975C150.952 120.772 151.123 120.553 151.446 120.608C151.962 120.695 152.277 121.372 152.465 121.933L153.205 120.748L153.204 120.747Z" fill="url(#paint76_linear_997_9372)"/>
<path d="M183.092 148.201C184.987 157.954 186.847 163.076 188.255 165.973C188.602 166.687 189.76 168.992 190.855 172.297C191.824 175.222 192.228 177.374 192.435 178.321C193.089 181.31 194.703 185.675 199.048 191.4C199.102 191.432 199.843 191.85 200.551 191.477C200.91 191.288 201.088 190.988 201.159 190.848C200.591 185.374 199.939 180.774 199.373 177.225C199.255 176.48 198.732 173.223 197.912 168.919C197.591 167.235 197.12 164.767 196.557 162.233C195.856 159.076 194.78 154.782 193.122 149.637C189.779 149.158 186.436 148.679 183.093 148.199L183.092 148.201Z" fill="url(#paint77_linear_997_9372)"/>
<path d="M151.809 121.285C152.301 120.849 152.794 120.412 153.286 119.976C153.467 120.157 156.097 122.715 159.773 121.94C162.304 121.406 163.765 119.334 164.7 118.013C167.51 114.041 165.83 111.127 168.854 108.428C169.694 107.679 171.342 106.772 172.419 107.048C174.986 107.707 176.464 115.398 173.979 121.448C173.478 122.669 170.717 129.393 164.454 130.122C159.397 130.71 154.035 127.159 151.809 121.285V121.285Z" fill="white"/>
<path d="M181.477 109.627C180.403 108.637 178.347 107.496 177.315 104.842C177.004 104.044 175.905 101.214 177.527 99.0503C178.49 97.7656 180.279 96.8934 181.856 97.2022C183.203 97.4661 183.413 98.4014 185.702 100.283C186.594 101.015 188.025 102.192 189.619 102.847C192.351 103.969 193.991 102.913 196.733 103.033C200.102 103.181 204.014 105.055 205.9 107.779C209.246 112.613 204.399 117.517 208.063 123.181C209.265 125.036 209.856 124.621 212.7 128.213C215.549 131.809 216.972 133.607 216.719 135.811C216.368 138.87 213.062 141.791 209.948 141.99C206.907 142.184 204.974 139.8 203.426 140.843C202.324 141.585 202.954 143.029 201.784 144.763C200.275 147 197.31 147.445 196.831 147.517C192.386 148.186 186.393 142.992 183.847 136.838C179.257 125.742 187.32 115.009 181.477 109.627Z" fill="url(#paint78_linear_997_9372)"/>
<path style="mix-blend-mode:multiply" opacity="0.3" d="M183.16 174.146C182.524 172.596 181.753 171.373 181.34 168.99C180.794 165.837 181.469 164.074 182.431 156.771C183.117 151.566 182.998 150.762 182.542 149.981C181.551 148.285 179.45 147.532 177.306 147.225C177.335 147.335 177.364 147.444 177.387 147.551C178.512 152.669 174.219 155.792 176.155 161.419C177.11 164.193 178.633 164.829 178.988 168.047C179.32 171.062 178.115 171.689 178.372 174.429C178.757 178.525 181.677 179.516 182.436 182.652C182.93 184.69 182.514 187.67 178.908 191.984C178.968 192.356 179.028 192.728 179.087 193.107C179.361 193.263 180.166 193.674 181.203 193.521C181.782 193.434 182.217 193.205 182.473 193.04C185.566 183.62 184.653 177.783 183.16 174.146L183.16 174.146Z" fill="url(#paint79_linear_997_9372)"/>
<path style="mix-blend-mode:multiply" opacity="0.15" d="M171.844 114.412C167.216 118.055 167.731 125.042 164.885 125.396C164.016 125.504 164.064 124.84 161.991 124.169C158.959 123.186 157.535 124.179 155.401 123.432C154.518 123.123 153.369 122.463 152.237 120.905C152.095 121.032 151.951 121.158 151.809 121.284C154.035 127.159 159.397 130.709 164.454 130.121C170.717 129.392 173.478 122.669 173.979 121.448C175.145 118.609 175.438 115.409 175.156 112.743C174.087 113.054 172.926 113.559 171.844 114.411L171.844 114.412Z" fill="url(#paint80_linear_997_9372)"/>
<path d="M168.487 108.889C168.77 108.449 169.672 107.233 173.499 106.337C175.417 105.887 178.963 105.118 183.526 106.081C189.793 107.404 193.697 111.152 195.166 112.727C193.963 113.508 190.643 115.89 189 120.408C188.488 121.814 186.977 126.62 189.138 131.121C190.383 133.715 192.587 135.663 194.259 137.142C196.769 139.36 198.069 139.701 198.91 141.689C199.826 143.853 198.903 144.909 200.04 146.391C201.263 147.982 202.694 147.242 204.765 148.851C206.887 150.499 206.132 151.856 208.063 153.678C210.868 156.324 214.587 155.465 214.761 156.655C214.91 157.68 212.267 159.069 210.021 159.633C205.573 160.749 201.693 158.875 200.54 158.298C197.346 156.699 197.898 155.664 195.463 154.445C191.386 152.404 188.599 154.675 179.313 154.909C174.284 155.036 171.741 155.064 170.348 153.369C169.075 151.821 169.744 150.122 170.508 142.801C170.508 142.801 170.508 142.801 170.508 142.8C170.753 140.356 171.267 135.236 171.27 132.319C171.272 130.595 170.672 127.778 169.472 122.144C169.401 121.812 168.751 118.768 168.227 114.702C167.755 111.041 167.823 109.917 168.487 108.889V108.889Z" fill="white"/>
<g style="mix-blend-mode:multiply" opacity="0.15">
<path d="M208.064 153.678C206.133 151.856 206.889 150.499 204.767 148.851C202.696 147.242 201.264 147.982 200.042 146.391C198.904 144.909 199.828 143.854 198.912 141.689C198.071 139.702 196.77 139.36 194.261 137.142C192.588 135.663 190.384 133.715 189.14 131.121C186.978 126.62 188.489 121.814 189.001 120.408C190.646 115.89 193.966 113.507 195.168 112.727C195.053 112.603 194.916 112.461 194.77 112.312C186.843 113.397 182.222 117.961 181.651 119.313C180.329 122.437 182.421 123.584 182.475 132.593C182.501 136.9 182.035 138.6 183.437 140.397C185.041 142.452 186.889 141.817 189.207 144.504C190.989 146.569 190.704 147.878 192.367 148.748C194.156 149.684 195.296 148.593 197.313 149.022C200.684 149.739 201.405 153.612 203.634 155.731C205.319 157.333 208.435 158.453 214.579 157.251C214.721 157.045 214.79 156.844 214.762 156.655C214.589 155.464 210.87 156.324 208.064 153.678Z" fill="url(#paint81_linear_997_9372)"/>
</g>
<path d="M173.732 119.812C173.732 119.812 182.415 108.514 187.351 107.278C186.191 106.795 184.92 106.376 183.526 106.081C179.605 105.253 176.438 105.705 174.407 106.134C173.942 107.623 172.115 113.921 173.733 119.813L173.732 119.812Z" fill="url(#paint82_linear_997_9372)"/>
<path d="M184.053 121.743C183.21 123.526 187.082 127.678 191.385 129.65C192.262 130.052 198.558 132.937 201.364 130.163C203.683 127.87 202.187 123.13 201.653 121.438C199.029 113.129 190.973 108.902 187.596 107.378C185.076 113.656 186.56 116.454 187.144 117.328C187.755 118.24 189.457 120.157 191.266 121.846C192.538 123.033 193.331 123.612 193.224 123.797C193.091 124.027 191.6 123.592 185.808 120.782C185.136 120.89 184.341 121.134 184.053 121.743Z" fill="white"/>
<path d="M180.954 101.199C180.954 101.199 181.353 104.383 182.533 105.113C183.712 105.843 185.619 106.795 185.829 107.054C186.04 107.312 178.522 108.118 174.798 106.244C176.025 105.989 176.359 105.896 176.359 105.896C176.692 105.802 177.314 105.627 177.937 105.274C178.361 105.033 179.044 104.563 179.671 103.675L179.657 101.912L180.954 101.199Z" fill="url(#paint83_linear_997_9372)"/>
<path d="M181.133 102.327C181.133 102.327 180.364 103.379 179.158 102.94C178.078 102.548 178.723 99.768 179.579 99.4512C179.865 99.3454 180.39 99.3925 180.74 99.61C180.987 99.763 181.645 100.579 181.268 101.492C181.541 101.413 181.781 101.485 181.841 101.62C181.917 101.791 181.686 102.023 181.634 102.076C181.453 102.258 181.234 102.309 181.133 102.326V102.327Z" fill="url(#paint84_linear_997_9372)"/>
<path d="M169.728 111.322L179.981 112.279C180.196 112.299 180.377 112.448 180.436 112.655L184.262 125.968C184.363 126.32 184.079 126.664 183.712 126.632L173.375 125.723C173.157 125.704 172.975 125.553 172.916 125.343L169.174 111.982C169.075 111.629 169.362 111.288 169.728 111.322H169.728Z" fill="url(#paint85_linear_997_9372)"/>
<path d="M185.517 121.326C185.517 121.326 181.986 117.726 180.549 117.194C179.112 116.662 180.384 120.46 181.226 120.995C182.068 121.531 182.397 121.736 183.054 121.817L183.711 121.899L184.573 122.358C184.573 122.358 185.682 122.227 185.517 121.327L185.517 121.326Z" fill="url(#paint86_linear_997_9372)"/>
<path style="mix-blend-mode:multiply" opacity="0.3" d="M176.552 122.837C176.165 120.732 177.356 119.1 176.215 117.128C175.04 115.099 172.978 115.442 171.496 113.77C171.025 113.238 170.602 112.484 170.394 111.384L169.728 111.322C169.362 111.288 169.075 111.629 169.174 111.982L172.916 125.343C172.975 125.553 173.157 125.704 173.375 125.723L178.624 126.185C177.289 124.991 176.737 123.841 176.552 122.837H176.552Z" fill="url(#paint87_linear_997_9372)"/>
<path d="M215.419 42.5851C216.05 58.4256 203.616 71.6416 187.502 72.1085C171.225 72.5798 157.388 59.8879 156.746 43.7552C156.103 27.6232 168.909 14.3992 185.197 14.2216C201.322 14.0454 214.788 26.7453 215.418 42.5858L215.419 42.5851Z" fill="url(#paint88_linear_997_9372)"/>
<path d="M214.813 42.5973C215.43 58.1073 203.255 71.0456 187.478 71.4995C171.545 71.9577 158.003 59.5326 157.374 43.7428C156.746 27.9531 169.278 15.0075 185.222 14.8306C201.009 14.6551 214.195 27.0874 214.813 42.5973Z" fill="url(#paint89_linear_997_9372)"/>
<path opacity="0.5" d="M211.882 42.6554C212.436 56.5689 201.508 68.1645 187.361 68.5582C173.088 68.9555 160.968 57.8195 160.406 43.682C159.843 29.5438 171.058 17.9423 185.339 17.7705C199.495 17.6001 211.329 28.7419 211.882 42.6554Z" fill="white"/>
<g style="mix-blend-mode:soft-light" opacity="0.5">
<path d="M190.027 63.0257C188.349 59.9111 188.684 58.356 187.005 46.5842C184.507 29.0667 182.856 26.1377 181.52 24.3035C180.155 22.4301 177.735 19.8019 173.301 17.5479C163.492 22.1763 156.915 32.2081 157.374 43.7429C158.003 59.5327 171.545 71.9577 187.478 71.4995C190.556 71.4111 193.495 70.8477 196.228 69.8842C193.733 68.1 191.553 65.8576 190.027 63.0257Z" fill="white"/>
</g>
<path d="M184.966 25.8724L178.287 28.2685C180.334 30.5812 181.64 33.3718 182.292 36.3747L188.018 34.3201C190.349 33.4834 191.57 30.8981 190.731 28.5752C189.891 26.2523 187.297 25.0357 184.965 25.8724H184.966Z" fill="white"/>
<g style="mix-blend-mode:multiply" opacity="0.49">
<path d="M185.557 31.4563C184.841 32.5061 183.513 32.6852 182.561 32.5308C180.387 32.0218 177.589 31.4389 176.113 32.8614C174.354 34.5789 172.375 35.6867 169.899 35.6954C169.929 35.8019 169.961 35.9085 170 36.0136C170.839 38.3365 173.434 39.5531 175.765 38.7164L188.019 34.3193C190.351 33.4827 191.571 30.8973 190.732 28.5744C190.576 28.1438 190.36 27.7508 190.097 27.4021C188.324 28.346 186.778 29.6815 185.557 31.4556V31.4563Z" fill="#D8DEE8"/>
</g>
<path d="M178.287 28.2685L172.712 30.2688C170.381 31.1054 169.16 33.6908 170 36.0137C170.839 38.3366 173.434 39.5531 175.765 38.7165L182.292 36.3747C181.64 33.3718 180.334 30.5812 178.287 28.2685Z" fill="url(#paint90_linear_997_9372)"/>
<path style="mix-blend-mode:multiply" opacity="0.3" d="M180.864 32.1719C179.084 31.8565 177.224 31.7912 176.112 32.8621C174.353 34.5796 172.374 35.6874 169.898 35.6961C169.912 35.7454 169.927 35.794 169.942 35.8433C169.96 35.9005 169.978 35.9578 169.999 36.0144C170.838 38.3373 173.433 39.5538 175.764 38.7172L182.291 36.3754C181.974 34.9138 181.5 33.503 180.863 32.1726L180.864 32.1719Z" fill="url(#paint91_linear_997_9372)"/>
<path d="M201.74 39.7452L194.728 38.6418C195.405 41.6513 195.201 44.7231 194.322 47.668L200.335 48.6142C202.782 48.9991 205.101 47.3193 205.488 44.8804C205.874 42.4415 204.188 40.1309 201.741 39.746L201.74 39.7452Z" fill="white"/>
<g style="mix-blend-mode:multiply" opacity="0.49">
<path d="M199.558 44.9225C198.424 45.4996 197.173 45.0197 196.414 44.4273C194.754 42.9382 192.583 41.0851 190.602 41.6238C188.231 42.2857 185.961 42.3067 183.787 41.1271C183.762 41.2344 183.739 41.3432 183.721 41.4541C183.335 43.893 185.021 46.2036 187.468 46.5886L200.333 48.6135C202.781 48.9985 205.099 47.3186 205.486 44.8797C205.558 44.4273 205.558 43.9793 205.495 43.5479C203.486 43.5254 201.485 43.9532 199.557 44.9225H199.558Z" fill="#D8DEE8"/>
</g>
<path d="M194.728 38.6418L188.875 37.7203C186.427 37.3354 184.108 39.0152 183.722 41.4541C183.336 43.893 185.022 46.2036 187.469 46.5885L194.322 47.6673C195.201 44.7224 195.405 41.6506 194.728 38.6411V38.6418Z" fill="url(#paint92_linear_997_9372)"/>
<path style="mix-blend-mode:multiply" opacity="0.3" d="M195.1 43.2985C193.692 42.169 192.094 41.2185 190.602 41.6238C188.231 42.2857 185.961 42.3067 183.788 41.1271C183.776 41.1764 183.765 41.2265 183.755 41.2772C183.743 41.3359 183.732 41.3947 183.722 41.4548C183.336 43.8937 185.022 46.2043 187.469 46.5893L194.322 47.6681C194.75 46.2348 195.016 44.771 195.101 43.2992L195.1 43.2985Z" fill="url(#paint93_linear_997_9372)"/>
<path d="M188.192 54.3438C188.833 58.0457 185.638 61.1798 181.861 61.5344C178.017 61.8954 174.315 59.094 173.653 55.2718C172.991 51.4496 175.792 47.4686 179.657 47.2294C183.454 46.9938 187.551 50.642 188.192 54.3445L188.192 54.3438Z" fill="url(#paint94_linear_997_9372)"/>
<path d="M188.401 53.4202C189.042 57.122 186.547 60.4063 182.771 60.7608C178.927 61.1219 175.224 58.3205 174.562 54.4983C173.901 50.6761 176.549 47.3802 180.413 47.1402C184.211 46.9046 187.76 49.7183 188.401 53.4202Z" fill="white"/>
<g style="mix-blend-mode:multiply" opacity="0.3">
<path d="M182.101 60.1881C180.493 60.1881 178.896 59.5994 177.605 58.5307C176.303 57.4534 175.435 55.9853 175.16 54.3961C174.872 52.7286 175.261 51.1183 176.257 49.8634C177.257 48.6019 178.747 47.8493 180.452 47.7435C180.587 47.7355 180.724 47.7311 180.859 47.7311C184.192 47.7311 187.242 50.2752 187.804 53.5232C188.086 55.1537 187.713 56.7393 186.754 57.9884C185.798 59.234 184.363 60.0047 182.715 60.1598C182.512 60.1787 182.307 60.1881 182.102 60.1881H182.101Z" fill="#D8DEE8"/>
</g>
<path d="M180.61 48.2742C180.262 48.2967 180.027 48.5925 180.086 48.9339L181.806 58.8737C181.865 59.2159 182.195 59.4675 182.541 59.4363C182.887 59.4051 183.119 59.1028 183.06 58.762L181.344 48.8506C181.285 48.5098 180.957 48.251 180.609 48.2735L180.61 48.2742Z" fill="#D8DEE8"/>
<g style="mix-blend-mode:multiply" opacity="0.3">
<path d="M183.06 58.762L181.344 48.8506C181.285 48.5098 180.956 48.251 180.609 48.2735C180.489 48.2814 180.384 48.3213 180.298 48.3844C180.318 48.3808 180.339 48.3786 180.36 48.3771C180.707 48.3547 181.036 48.6128 181.095 48.9542L182.811 58.8657C182.85 59.0948 182.758 59.3058 182.59 59.429C182.908 59.3747 183.116 59.0861 183.06 58.762Z" fill="#D8DEE8"/>
</g>
<defs>
<linearGradient id="paint0_linear_997_9372" x1="93.6137" y1="78.3827" x2="175.491" y2="78.3827" gradientUnits="userSpaceOnUse">
<stop stop-color="#E38DDD"/>
<stop offset="1" stop-color="#9571F6"/>
</linearGradient>
<linearGradient id="paint1_linear_997_9372" x1="89.3237" y1="139.64" x2="164.462" y2="139.64" gradientUnits="userSpaceOnUse">
<stop stop-color="#E38DDD"/>
<stop offset="1" stop-color="#9571F6"/>
</linearGradient>
<linearGradient id="paint2_linear_997_9372" x1="85.7" y1="170.248" x2="160.475" y2="170.248" gradientUnits="userSpaceOnUse">
<stop stop-color="#E38DDD"/>
<stop offset="1" stop-color="#9571F6"/>
</linearGradient>
<linearGradient id="paint3_linear_997_9372" x1="136.163" y1="106.953" x2="165.684" y2="110.185" gradientUnits="userSpaceOnUse">
<stop stop-color="#444B8C"/>
<stop offset="1" stop-color="#26264F"/>
</linearGradient>
<linearGradient id="paint4_linear_997_9372" x1="110.151" y1="32.7968" x2="182.679" y2="280.588" gradientUnits="userSpaceOnUse">
<stop stop-color="#444B8C"/>
<stop offset="1" stop-color="#26264F"/>
</linearGradient>
<linearGradient id="paint5_linear_997_9372" x1="82.2222" y1="113.566" x2="180.704" y2="113.566" gradientUnits="userSpaceOnUse">
<stop stop-color="#E38DDD"/>
<stop offset="1" stop-color="#9571F6"/>
</linearGradient>
<linearGradient id="paint6_linear_997_9372" x1="137.507" y1="26.6967" x2="222.772" y2="258.44" gradientUnits="userSpaceOnUse">
<stop stop-color="#FFC444"/>
<stop offset="1" stop-color="#F36F56"/>
</linearGradient>
<linearGradient id="paint7_linear_997_9372" x1="103.059" y1="44.9768" x2="197.29" y2="165.895" gradientUnits="userSpaceOnUse">
<stop stop-color="#E38DDD"/>
<stop offset="1" stop-color="#9571F6"/>
</linearGradient>
<linearGradient id="paint8_linear_997_9372" x1="106.187" y1="42.5394" x2="200.418" y2="163.458" gradientUnits="userSpaceOnUse">
<stop stop-color="#E38DDD"/>
<stop offset="1" stop-color="#9571F6"/>
</linearGradient>
<linearGradient id="paint9_linear_997_9372" x1="109.104" y1="40.2651" x2="203.335" y2="161.183" gradientUnits="userSpaceOnUse">
<stop stop-color="#E38DDD"/>
<stop offset="1" stop-color="#9571F6"/>
</linearGradient>
<linearGradient id="paint10_linear_997_9372" x1="111.645" y1="38.2851" x2="205.876" y2="159.203" gradientUnits="userSpaceOnUse">
<stop stop-color="#E38DDD"/>
<stop offset="1" stop-color="#9571F6"/>
</linearGradient>
<linearGradient id="paint11_linear_997_9372" x1="114.145" y1="36.3377" x2="208.376" y2="157.256" gradientUnits="userSpaceOnUse">
<stop stop-color="#E38DDD"/>
<stop offset="1" stop-color="#9571F6"/>
</linearGradient>
<linearGradient id="paint12_linear_997_9372" x1="117.472" y1="33.7444" x2="211.703" y2="154.664" gradientUnits="userSpaceOnUse">
<stop stop-color="#E38DDD"/>
<stop offset="1" stop-color="#9571F6"/>
</linearGradient>
<linearGradient id="paint13_linear_997_9372" x1="90.8209" y1="54.5142" x2="185.052" y2="175.433" gradientUnits="userSpaceOnUse">
<stop stop-color="#E38DDD"/>
<stop offset="1" stop-color="#9571F6"/>
</linearGradient>
<linearGradient id="paint14_linear_997_9372" x1="82.7456" y1="60.8072" x2="176.976" y2="181.726" gradientUnits="userSpaceOnUse">
<stop stop-color="#E38DDD"/>
<stop offset="1" stop-color="#9571F6"/>
</linearGradient>
<linearGradient id="paint15_linear_997_9372" x1="91.0199" y1="54.359" x2="185.251" y2="175.277" gradientUnits="userSpaceOnUse">
<stop stop-color="#E38DDD"/>
<stop offset="1" stop-color="#9571F6"/>
</linearGradient>
<linearGradient id="paint16_linear_997_9372" x1="91.5512" y1="53.9451" x2="185.782" y2="174.864" gradientUnits="userSpaceOnUse">
<stop stop-color="#E38DDD"/>
<stop offset="1" stop-color="#9571F6"/>
</linearGradient>
<linearGradient id="paint17_linear_997_9372" x1="99.9529" y1="47.3969" x2="194.184" y2="168.316" gradientUnits="userSpaceOnUse">
<stop stop-color="#E38DDD"/>
<stop offset="1" stop-color="#9571F6"/>
</linearGradient>
<linearGradient id="paint18_linear_997_9372" x1="103.953" y1="44.2801" x2="198.184" y2="165.199" gradientUnits="userSpaceOnUse">
<stop stop-color="#E38DDD"/>
<stop offset="1" stop-color="#9571F6"/>
</linearGradient>
<linearGradient id="paint19_linear_997_9372" x1="107.786" y1="41.2923" x2="202.018" y2="162.211" gradientUnits="userSpaceOnUse">
<stop stop-color="#E38DDD"/>
<stop offset="1" stop-color="#9571F6"/>
</linearGradient>
<linearGradient id="paint20_linear_997_9372" x1="118.312" y1="33.0904" x2="212.543" y2="154.01" gradientUnits="userSpaceOnUse">
<stop stop-color="#E38DDD"/>
<stop offset="1" stop-color="#9571F6"/>
</linearGradient>
<linearGradient id="paint21_linear_997_9372" x1="134.778" y1="20.2579" x2="229.01" y2="141.177" gradientUnits="userSpaceOnUse">
<stop stop-color="#E38DDD"/>
<stop offset="1" stop-color="#9571F6"/>
</linearGradient>
<linearGradient id="paint22_linear_997_9372" x1="111.003" y1="97.7982" x2="179.924" y2="191.763" gradientUnits="userSpaceOnUse">
<stop stop-color="#E38DDD"/>
<stop offset="1" stop-color="#9571F6"/>
</linearGradient>
<linearGradient id="paint23_linear_997_9372" x1="114.578" y1="95.1758" x2="183.5" y2="189.14" gradientUnits="userSpaceOnUse">
<stop stop-color="#E38DDD"/>
<stop offset="1" stop-color="#9571F6"/>
</linearGradient>
<linearGradient id="paint24_linear_997_9372" x1="119.079" y1="91.8742" x2="188" y2="185.839" gradientUnits="userSpaceOnUse">
<stop stop-color="#E38DDD"/>
<stop offset="1" stop-color="#9571F6"/>
</linearGradient>
<linearGradient id="paint25_linear_997_9372" x1="103.167" y1="129.341" x2="141.002" y2="182.808" gradientUnits="userSpaceOnUse">
<stop stop-color="#E38DDD"/>
<stop offset="1" stop-color="#9571F6"/>
</linearGradient>
<linearGradient id="paint26_linear_997_9372" x1="105.656" y1="127.58" x2="143.49" y2="181.047" gradientUnits="userSpaceOnUse">
<stop stop-color="#E38DDD"/>
<stop offset="1" stop-color="#9571F6"/>
</linearGradient>
<linearGradient id="paint27_linear_997_9372" x1="109.413" y1="124.922" x2="147.248" y2="178.388" gradientUnits="userSpaceOnUse">
<stop stop-color="#E38DDD"/>
<stop offset="1" stop-color="#9571F6"/>
</linearGradient>
<linearGradient id="paint28_linear_997_9372" x1="113.918" y1="121.734" x2="151.753" y2="175.2" gradientUnits="userSpaceOnUse">
<stop stop-color="#E38DDD"/>
<stop offset="1" stop-color="#9571F6"/>
</linearGradient>
<linearGradient id="paint29_linear_997_9372" x1="91.467" y1="112.128" x2="160.388" y2="206.093" gradientUnits="userSpaceOnUse">
<stop stop-color="#E38DDD"/>
<stop offset="1" stop-color="#9571F6"/>
</linearGradient>
<linearGradient id="paint30_linear_997_9372" x1="84.7155" y1="117.08" x2="153.637" y2="211.044" gradientUnits="userSpaceOnUse">
<stop stop-color="#E38DDD"/>
<stop offset="1" stop-color="#9571F6"/>
</linearGradient>
<linearGradient id="paint31_linear_997_9372" x1="86.8428" y1="140.893" x2="124.678" y2="194.36" gradientUnits="userSpaceOnUse">
<stop stop-color="#E38DDD"/>
<stop offset="1" stop-color="#9571F6"/>
</linearGradient>
<linearGradient id="paint32_linear_997_9372" x1="80.1641" y1="145.619" x2="118" y2="199.086" gradientUnits="userSpaceOnUse">
<stop stop-color="#E38DDD"/>
<stop offset="1" stop-color="#9571F6"/>
</linearGradient>
<linearGradient id="paint33_linear_997_9372" x1="25.8242" y1="36.4552" x2="75.8481" y2="36.4552" gradientUnits="userSpaceOnUse">
<stop stop-color="#311944"/>
<stop offset="1" stop-color="#893976"/>
</linearGradient>
<linearGradient id="paint34_linear_997_9372" x1="26.9609" y1="21.5644" x2="76.7571" y2="21.5644" gradientUnits="userSpaceOnUse">
<stop stop-color="#FF9085"/>
<stop offset="1" stop-color="#FB6FBB"/>
</linearGradient>
<linearGradient id="paint35_linear_997_9372" x1="124.748" y1="82.1461" x2="116.897" y2="104.125" gradientUnits="userSpaceOnUse">
<stop stop-color="#FFC444"/>
<stop offset="1" stop-color="#F36F56"/>
</linearGradient>
<linearGradient id="paint36_linear_997_9372" x1="86.0664" y1="110.841" x2="120.432" y2="110.841" gradientUnits="userSpaceOnUse">
<stop stop-color="#AA80F9"/>
<stop offset="1" stop-color="#6165D7"/>
</linearGradient>
<linearGradient id="paint37_linear_997_9372" x1="80.0049" y1="195.499" x2="74.0473" y2="196.038" gradientUnits="userSpaceOnUse">
<stop stop-color="#444B8C"/>
<stop offset="1" stop-color="#26264F"/>
</linearGradient>
<linearGradient id="paint38_linear_997_9372" x1="76.5739" y1="195.741" x2="73.5941" y2="190.513" gradientUnits="userSpaceOnUse">
<stop stop-color="#FFC444"/>
<stop offset="1" stop-color="#F36F56"/>
</linearGradient>
<linearGradient id="paint39_linear_997_9372" x1="100.627" y1="194.482" x2="94.4189" y2="195.843" gradientUnits="userSpaceOnUse">
<stop stop-color="#444B8C"/>
<stop offset="1" stop-color="#26264F"/>
</linearGradient>
<linearGradient id="paint40_linear_997_9372" x1="96.7515" y1="195.253" x2="93.3106" y2="190.16" gradientUnits="userSpaceOnUse">
<stop stop-color="#FFC444"/>
<stop offset="1" stop-color="#F36F56"/>
</linearGradient>
<linearGradient id="paint41_linear_997_9372" x1="99.0609" y1="184.084" x2="84.2643" y2="145.123" gradientUnits="userSpaceOnUse">
<stop stop-color="#AA80F9"/>
<stop offset="1" stop-color="#6165D7"/>
</linearGradient>
<linearGradient id="paint42_linear_997_9372" x1="96.373" y1="185.104" x2="81.5771" y2="146.144" gradientUnits="userSpaceOnUse">
<stop stop-color="#AA80F9"/>
<stop offset="1" stop-color="#6165D7"/>
</linearGradient>
<linearGradient id="paint43_linear_997_9372" x1="89.5359" y1="186.185" x2="70.0806" y2="149.313" gradientUnits="userSpaceOnUse">
<stop stop-color="#AA80F9"/>
<stop offset="1" stop-color="#6165D7"/>
</linearGradient>
<linearGradient id="paint44_linear_997_9372" x1="87.785" y1="119.604" x2="61.9293" y2="153.532" gradientUnits="userSpaceOnUse">
<stop stop-color="#AA80F9"/>
<stop offset="1" stop-color="#6165D7"/>
</linearGradient>
<linearGradient id="paint45_linear_997_9372" x1="74.5982" y1="107.842" x2="74.7658" y2="100.782" gradientUnits="userSpaceOnUse">
<stop stop-color="#FFC444"/>
<stop offset="1" stop-color="#F36F56"/>
</linearGradient>
<linearGradient id="paint46_linear_997_9372" x1="76.7744" y1="101.317" x2="75.6433" y2="99.3532" gradientUnits="userSpaceOnUse">
<stop stop-color="#444B8C"/>
<stop offset="1" stop-color="#26264F"/>
</linearGradient>
<linearGradient id="paint47_linear_997_9372" x1="75.9894" y1="99.5025" x2="74.8356" y2="117.853" gradientUnits="userSpaceOnUse">
<stop stop-color="#FFC444"/>
<stop offset="1" stop-color="#F36F56"/>
</linearGradient>
<linearGradient id="paint48_linear_997_9372" x1="75.9622" y1="104.28" x2="75.228" y2="102.811" gradientUnits="userSpaceOnUse">
<stop stop-color="#444B8C"/>
<stop offset="1" stop-color="#26264F"/>
</linearGradient>
<linearGradient id="paint49_linear_997_9372" x1="74.3361" y1="102.922" x2="74.534" y2="105.108" gradientUnits="userSpaceOnUse">
<stop stop-color="#FFC444"/>
<stop offset="1" stop-color="#F36F56"/>
</linearGradient>
<linearGradient id="paint50_linear_997_9372" x1="55.3911" y1="148.752" x2="58.2921" y2="161.109" gradientUnits="userSpaceOnUse">
<stop stop-color="#FFC444"/>
<stop offset="1" stop-color="#F36F56"/>
</linearGradient>
<linearGradient id="paint51_linear_997_9372" x1="53.9201" y1="184.65" x2="52.5785" y2="208.874" gradientUnits="userSpaceOnUse">
<stop stop-color="#444B8C"/>
<stop offset="1" stop-color="#26264F"/>
</linearGradient>
<linearGradient id="paint52_linear_997_9372" x1="52.5034" y1="192.419" x2="50.4807" y2="192.419" gradientUnits="userSpaceOnUse">
<stop stop-color="#FFC444"/>
<stop offset="1" stop-color="#F36F56"/>
</linearGradient>
<linearGradient id="paint53_linear_997_9372" x1="29.4758" y1="183.297" x2="28.1349" y2="207.521" gradientUnits="userSpaceOnUse">
<stop stop-color="#444B8C"/>
<stop offset="1" stop-color="#26264F"/>
</linearGradient>
<linearGradient id="paint54_linear_997_9372" x1="31.9697" y1="191.176" x2="27.9477" y2="191.176" gradientUnits="userSpaceOnUse">
<stop stop-color="#FFC444"/>
<stop offset="1" stop-color="#F36F56"/>
</linearGradient>
<linearGradient id="paint55_linear_997_9372" x1="53.5898" y1="189.991" x2="54.2602" y2="163.974" gradientUnits="userSpaceOnUse">
<stop stop-color="#311944"/>
<stop offset="1" stop-color="#893976"/>
</linearGradient>
<linearGradient id="paint56_linear_997_9372" x1="38.5757" y1="189.604" x2="39.2469" y2="163.587" gradientUnits="userSpaceOnUse">
<stop stop-color="#311944"/>
<stop offset="1" stop-color="#893976"/>
</linearGradient>
<linearGradient id="paint57_linear_997_9372" x1="62.9322" y1="111.665" x2="66.5109" y2="139.334" gradientUnits="userSpaceOnUse">
<stop stop-color="#E38DDD"/>
<stop offset="1" stop-color="#9571F6"/>
</linearGradient>
<linearGradient id="paint58_linear_997_9372" x1="50.4628" y1="106.179" x2="48.3541" y2="101.71" gradientUnits="userSpaceOnUse">
<stop stop-color="#444B8C"/>
<stop offset="1" stop-color="#26264F"/>
</linearGradient>
<linearGradient id="paint59_linear_997_9372" x1="62.7428" y1="111.689" x2="66.3208" y2="139.358" gradientUnits="userSpaceOnUse">
<stop stop-color="#AA80F9"/>
<stop offset="1" stop-color="#6165D7"/>
</linearGradient>
<linearGradient id="paint60_linear_997_9372" x1="49.4612" y1="122.855" x2="43.0372" y2="171.903" gradientUnits="userSpaceOnUse">
<stop stop-color="#AA80F9"/>
<stop offset="1" stop-color="#6165D7"/>
</linearGradient>
<linearGradient id="paint61_linear_997_9372" x1="43.962" y1="122.107" x2="37.5077" y2="171.391" gradientUnits="userSpaceOnUse">
<stop stop-color="#E38DDD"/>
<stop offset="1" stop-color="#9571F6"/>
</linearGradient>
<linearGradient id="paint62_linear_997_9372" x1="46.2841" y1="113.329" x2="55.9131" y2="104.721" gradientUnits="userSpaceOnUse">
<stop stop-color="#FFC444"/>
<stop offset="1" stop-color="#F36F56"/>
</linearGradient>
<linearGradient id="paint63_linear_997_9372" x1="51.6802" y1="105.48" x2="53.1024" y2="117.836" gradientUnits="userSpaceOnUse">
<stop stop-color="#FFC444"/>
<stop offset="1" stop-color="#F36F56"/>
</linearGradient>
<linearGradient id="paint64_linear_997_9372" x1="57.431" y1="130.767" x2="55.0221" y2="132.121" gradientUnits="userSpaceOnUse">
<stop stop-color="#FFC444"/>
<stop offset="1" stop-color="#F36F56"/>
</linearGradient>
<linearGradient id="paint65_linear_997_9372" x1="61.6174" y1="123.48" x2="64.5374" y2="126.265" gradientUnits="userSpaceOnUse">
<stop stop-color="#444B8C"/>
<stop offset="1" stop-color="#26264F"/>
</linearGradient>
<linearGradient id="paint66_linear_997_9372" x1="55.452" y1="127.251" x2="67.2108" y2="125.385" gradientUnits="userSpaceOnUse">
<stop stop-color="#311944"/>
<stop offset="1" stop-color="#893976"/>
</linearGradient>
<linearGradient id="paint67_linear_997_9372" x1="61.3001" y1="132.182" x2="64.347" y2="119.186" gradientUnits="userSpaceOnUse">
<stop stop-color="#311944"/>
<stop offset="1" stop-color="#893976"/>
</linearGradient>
<linearGradient id="paint68_linear_997_9372" x1="44.2124" y1="126.794" x2="25.1315" y2="158.954" gradientUnits="userSpaceOnUse">
<stop stop-color="#AA80F9"/>
<stop offset="1" stop-color="#6165D7"/>
</linearGradient>
<linearGradient id="paint69_linear_997_9372" x1="44.2046" y1="126.789" x2="25.1237" y2="158.95" gradientUnits="userSpaceOnUse">
<stop stop-color="#E38DDD"/>
<stop offset="1" stop-color="#9571F6"/>
</linearGradient>
<linearGradient id="paint70_linear_997_9372" x1="61.9115" y1="122.89" x2="57.8361" y2="130.365" gradientUnits="userSpaceOnUse">
<stop stop-color="#FFC444"/>
<stop offset="1" stop-color="#F36F56"/>
</linearGradient>
<linearGradient id="paint71_linear_997_9372" x1="178.638" y1="186.664" x2="179.866" y2="208.846" gradientUnits="userSpaceOnUse">
<stop stop-color="#444B8C"/>
<stop offset="1" stop-color="#26264F"/>
</linearGradient>
<linearGradient id="paint72_linear_997_9372" x1="180.975" y1="197.595" x2="180.322" y2="167.648" gradientUnits="userSpaceOnUse">
<stop stop-color="#FFC444"/>
<stop offset="1" stop-color="#F36F56"/>
</linearGradient>
<linearGradient id="paint73_linear_997_9372" x1="201.021" y1="185.425" x2="202.248" y2="207.606" gradientUnits="userSpaceOnUse">
<stop stop-color="#444B8C"/>
<stop offset="1" stop-color="#26264F"/>
</linearGradient>
<linearGradient id="paint74_linear_997_9372" x1="200.68" y1="197.166" x2="200.028" y2="167.219" gradientUnits="userSpaceOnUse">
<stop stop-color="#FFC444"/>
<stop offset="1" stop-color="#F36F56"/>
</linearGradient>
<linearGradient id="paint75_linear_997_9372" x1="171.433" y1="178.131" x2="183.857" y2="161.397" gradientUnits="userSpaceOnUse">
<stop stop-color="#444B8C"/>
<stop offset="1" stop-color="#26264F"/>
</linearGradient>
<linearGradient id="paint76_linear_997_9372" x1="149.657" y1="119.151" x2="159.419" y2="145.388" gradientUnits="userSpaceOnUse">
<stop stop-color="#FFC444"/>
<stop offset="1" stop-color="#F36F56"/>
</linearGradient>
<linearGradient id="paint77_linear_997_9372" x1="180.705" y1="180.202" x2="209.841" y2="152.935" gradientUnits="userSpaceOnUse">
<stop stop-color="#444B8C"/>
<stop offset="1" stop-color="#26264F"/>
</linearGradient>
<linearGradient id="paint78_linear_997_9372" x1="201.127" y1="131.569" x2="192.512" y2="119.321" gradientUnits="userSpaceOnUse">
<stop stop-color="#444B8C"/>
<stop offset="1" stop-color="#26264F"/>
</linearGradient>
<linearGradient id="paint79_linear_997_9372" x1="173.025" y1="179.314" x2="185.449" y2="162.579" gradientUnits="userSpaceOnUse">
<stop stop-color="#444B8C"/>
<stop offset="1" stop-color="#26264F"/>
</linearGradient>
<linearGradient id="paint80_linear_997_9372" x1="151.809" y1="121.464" x2="175.256" y2="121.464" gradientUnits="userSpaceOnUse">
<stop stop-color="#AA80F9"/>
<stop offset="1" stop-color="#6165D7"/>
</linearGradient>
<linearGradient id="paint81_linear_997_9372" x1="191.787" y1="105.685" x2="198.881" y2="149.231" gradientUnits="userSpaceOnUse">
<stop stop-color="#AA80F9"/>
<stop offset="1" stop-color="#6165D7"/>
</linearGradient>
<linearGradient id="paint82_linear_997_9372" x1="179.79" y1="109.252" x2="191.67" y2="182.163" gradientUnits="userSpaceOnUse">
<stop stop-color="#AA80F9"/>
<stop offset="1" stop-color="#6165D7"/>
</linearGradient>
<linearGradient id="paint83_linear_997_9372" x1="179.91" y1="107.244" x2="187.51" y2="96.173" gradientUnits="userSpaceOnUse">
<stop stop-color="#FFC444"/>
<stop offset="1" stop-color="#F36F56"/>
</linearGradient>
<linearGradient id="paint84_linear_997_9372" x1="179.217" y1="101.641" x2="191.265" y2="94.3625" gradientUnits="userSpaceOnUse">
<stop stop-color="#FFC444"/>
<stop offset="1" stop-color="#F36F56"/>
</linearGradient>
<linearGradient id="paint85_linear_997_9372" x1="173.551" y1="146.688" x2="175.012" y2="133.814" gradientUnits="userSpaceOnUse">
<stop stop-color="#FF9085"/>
<stop offset="1" stop-color="#FB6FBB"/>
</linearGradient>
<linearGradient id="paint86_linear_997_9372" x1="182.521" y1="118.527" x2="187.689" y2="150.246" gradientUnits="userSpaceOnUse">
<stop stop-color="#FFC444"/>
<stop offset="1" stop-color="#F36F56"/>
</linearGradient>
<linearGradient id="paint87_linear_997_9372" x1="170.759" y1="146.371" x2="172.221" y2="133.497" gradientUnits="userSpaceOnUse">
<stop stop-color="#FF9085"/>
<stop offset="1" stop-color="#FB6FBB"/>
</linearGradient>
<linearGradient id="paint88_linear_997_9372" x1="190.942" y1="38.1733" x2="194.526" y2="34.4654" gradientUnits="userSpaceOnUse">
<stop stop-color="#FF9085"/>
<stop offset="1" stop-color="#FB6FBB"/>
</linearGradient>
<linearGradient id="paint89_linear_997_9372" x1="178.553" y1="15.6693" x2="193.537" y2="70.6958" gradientUnits="userSpaceOnUse">
<stop stop-color="#FF9085"/>
<stop offset="1" stop-color="#FB6FBB"/>
</linearGradient>
<linearGradient id="paint90_linear_997_9372" x1="166.191" y1="29.3059" x2="190.603" y2="40.4078" gradientUnits="userSpaceOnUse">
<stop stop-color="#AA80F9"/>
<stop offset="1" stop-color="#6165D7"/>
</linearGradient>
<linearGradient id="paint91_linear_997_9372" x1="170.563" y1="37.5957" x2="181.486" y2="33.6494" gradientUnits="userSpaceOnUse">
<stop stop-color="#FF9085"/>
<stop offset="1" stop-color="#FB6FBB"/>
</linearGradient>
<linearGradient id="paint92_linear_997_9372" x1="183.63" y1="33.7253" x2="199.65" y2="55.1771" gradientUnits="userSpaceOnUse">
<stop stop-color="#FF9085"/>
<stop offset="1" stop-color="#FB6FBB"/>
</linearGradient>
<linearGradient id="paint93_linear_997_9372" x1="183.457" y1="43.0887" x2="194.932" y2="44.9064" gradientUnits="userSpaceOnUse">
<stop stop-color="#FF9085"/>
<stop offset="1" stop-color="#FB6FBB"/>
</linearGradient>
<linearGradient id="paint94_linear_997_9372" x1="173.556" y1="54.3917" x2="188.275" y2="54.3917" gradientUnits="userSpaceOnUse">
<stop stop-color="#D8DEE8"/>
<stop offset="1" stop-color="#97A6B7"/>
</linearGradient>
</defs>
</svg>
