<svg width="211" height="203" viewBox="0 0 211 203" fill="none" xmlns="http://www.w3.org/2000/svg">
<g clip-path="url(#clip0_997_9731)">
<path opacity="0.3" d="M66.3191 85.0055C67.8493 85.8927 70.3635 85.8927 71.8997 85.0055L122.641 55.7392C124.171 54.852 124.171 53.4072 122.641 52.52L113.556 47.2806C112.02 46.3934 109.512 46.3934 107.981 47.2806L57.2342 76.5469C55.698 77.4282 55.698 78.8729 57.2342 79.7661L66.3251 85.0055H66.3191Z" fill="black"/>
<path d="M124.123 15.0888L112.043 8.05701C111.953 7.99107 111.857 7.94311 111.761 7.90115C111.197 7.64337 110.459 7.7213 109.649 8.18889L59.6579 37.0236C57.9057 38.0367 56.4775 40.5006 56.4775 42.5268V75.4499C56.4775 76.517 56.8796 77.2423 57.5036 77.5481L69.4089 84.412L87.8908 61.0026L109.655 48.4496C111.413 47.4365 112.835 44.9666 112.835 42.9404V29.3923L124.123 15.0888Z" fill="#D9391E"/>
<path d="M71.5389 84.1303L121.53 55.3016C123.288 54.2825 124.716 51.8187 124.716 49.7984V16.8753C124.716 14.8431 123.288 14.0278 121.53 15.0349L71.5389 43.8696C69.7807 44.8887 68.3525 47.3466 68.3525 49.3788V82.3019C68.3525 84.3282 69.7747 85.1434 71.5389 84.1303Z" fill="#EB5C44"/>
<path d="M94.4019 53.2393V60.8706L98.6143 58.4368V50.8115L105.227 46.9928V42.1371L98.6143 45.9557V38.3244L94.4019 40.7523V48.3836L87.7832 52.2022V57.058L94.4019 53.2393Z" fill="white"/>
<path d="M75.1225 35.6687L71.7441 33.7264L76.2326 31.1427L79.599 33.085L75.1225 35.6687Z" fill="#E6E7E8"/>
<path d="M75.1225 37.1494L71.7441 35.2131V33.7264L75.1225 35.6687V37.1494Z" fill="#A7A9AC"/>
<path d="M75.123 37.1494L79.5995 34.5657V33.085L75.123 35.6687V37.1494Z" fill="#D1D3D4"/>
<path d="M108.599 16.3657L105.221 14.4174L109.709 11.8337L113.082 13.776L108.599 16.3657Z" fill="#E6E7E8"/>
<path d="M108.599 17.8404L105.221 15.8981V14.4174L108.599 16.3657V17.8404Z" fill="#A7A9AC"/>
<path d="M108.6 17.8404L113.082 15.2507V13.776L108.6 16.3657V17.8404Z" fill="#D1D3D4"/>
<path d="M100.366 13.1046L98.6621 12.1215L100.366 11.1443L102.07 12.1215L100.366 13.1046Z" fill="#A7A9AC"/>
<path d="M100.366 21.4252L98.6621 20.4421V12.1214L100.366 13.1045V21.4252Z" fill="#575757"/>
<path d="M100.366 21.4252L102.07 20.4421V12.1214L100.366 13.1045V21.4252Z" fill="#808080"/>
<path d="M97.6904 11.7737C98.0445 11.5699 98.5305 11.5999 99.0646 11.9116C100.145 12.5291 101.021 14.0457 101.021 15.2866C101.021 15.9101 100.799 16.3477 100.445 16.5515L100.997 16.2398C101.351 16.036 101.567 15.5984 101.567 14.9689C101.567 13.728 100.697 12.2113 99.6166 11.5939C99.0706 11.2881 98.5905 11.2522 98.2365 11.462L97.6904 11.7797V11.7737Z" fill="#B4CAED"/>
<path d="M101.022 15.2866C101.022 14.0457 100.14 12.535 99.0654 11.9115C97.9913 11.2881 97.1152 11.7917 97.1152 13.0326C97.1152 14.2735 97.9913 15.7901 99.0654 16.4136C100.152 17.043 101.022 16.5335 101.022 15.2866Z" fill="#B4CAED"/>
<path d="M85.9107 24.9382L85.7487 24.8602C85.4847 24.8602 85.1967 24.7703 84.8906 24.5965C83.8165 23.973 82.9404 22.4563 82.9404 21.2154C82.9404 20.8557 83.0124 20.574 83.1385 20.3402L83.1565 20.1604L97.69 11.7737C98.044 11.5699 98.5301 11.5999 99.0641 11.9116C100.144 12.529 101.02 14.0457 101.02 15.2866C101.02 15.9101 100.798 16.3477 100.444 16.5515L85.9107 24.9382Z" fill="#B4CAED"/>
<path d="M83.1562 20.1544C83.5103 19.9506 83.9963 19.9806 84.5424 20.2863C85.6165 20.9098 86.4866 22.4205 86.4866 23.6674C86.4866 24.2848 86.2706 24.7224 85.9165 24.9263L86.4686 24.6085C86.8286 24.4047 87.0387 23.9671 87.0387 23.3436C87.0387 22.0967 86.1626 20.5861 85.0885 19.9626C84.5484 19.6509 84.0623 19.6209 83.7023 19.8247L83.1562 20.1484V20.1544Z" fill="#B4CAED"/>
<path d="M86.4873 23.6733C86.4873 22.4264 85.6172 20.9157 84.5431 20.2922C83.463 19.6688 82.5869 20.1723 82.5869 21.4132C82.5869 22.6542 83.457 24.1708 84.5431 24.7943C85.6172 25.4117 86.4873 24.9082 86.4873 23.6733Z" fill="#B4CAED"/>
<path d="M83.5705 22.7981L81.8604 21.8149L83.5705 20.8318L85.2687 21.8149L83.5705 22.7981Z" fill="#A7A9AC"/>
<path d="M83.5705 31.1127L81.8604 30.1356V21.8149L83.5705 22.798V31.1127Z" fill="#575757"/>
<path d="M83.5703 31.1127L85.2685 30.1356V21.8149L83.5703 22.798V31.1127Z" fill="#808080"/>
<path d="M57.2572 100.67L107.89 71.4333C108.737 70.9837 110.153 70.9837 111.023 71.4333L194.551 119.613L198.68 117.713L198.71 122.526C198.71 122.886 198.446 123.21 198.05 123.48L144.542 154.329C143.684 154.808 142.274 154.808 141.386 154.329L54.3589 104.099C53.9448 103.871 53.7168 103.559 53.7168 103.211V98.4036H57.2512V100.664L57.2572 100.67Z" fill="#B4CAED"/>
<path d="M107.89 66.6855C108.736 66.2059 110.153 66.2059 111.023 66.6855L198.05 116.873C198.926 117.371 198.926 118.168 198.05 118.708L144.542 149.557C143.684 150.054 142.274 150.054 141.386 149.557L54.3588 99.3269C53.5067 98.8473 53.5067 98.062 54.3588 97.5284L107.89 66.6855Z" fill="white"/>
<path d="M140.414 123.923L136.285 126.315L101.644 106.305L105.754 103.925L140.414 123.923Z" fill="#BCBEC0"/>
<path d="M109.252 75.8693L105.184 78.1833L101.079 75.8693L105.184 73.5194L109.252 75.8693Z" fill="#BCBEC0"/>
<path d="M116.933 80.2997L112.883 82.6497L108.772 80.2997L112.883 77.9678L116.933 80.2997Z" fill="#BCBEC0"/>
<path d="M103.354 79.2507L99.2851 81.6246L95.2227 79.2507L99.2851 76.9187L103.354 79.2507Z" fill="#BCBEC0"/>
<path d="M104.536 85.7308L100.437 88.0628L90.1943 82.17L94.2928 79.7841L104.536 85.7308Z" fill="#BCBEC0"/>
<path d="M99.4835 88.6323L95.4211 90.9462L85.208 85.0534L89.2704 82.7214L99.4835 88.6323Z" fill="#BCBEC0"/>
<path d="M94.3771 91.5758L90.3086 93.9377L80.0596 88.0149L84.176 85.635L94.3771 91.5758Z" fill="#BCBEC0"/>
<path d="M122.081 83.2849L117.977 85.5868L113.891 83.2849L117.977 80.887L122.081 83.2849Z" fill="#BCBEC0"/>
<path d="M127.17 86.1985L123.132 88.5604L119.021 86.1985L123.132 83.8425L127.17 86.1985Z" fill="#BCBEC0"/>
<path d="M132.283 89.1598L128.239 91.5277L124.158 89.1598L128.239 86.8398L132.283 89.1598Z" fill="#BCBEC0"/>
<path d="M109.547 82.7933L105.448 85.1912L101.38 82.7933L105.448 80.4374L109.547 82.7933Z" fill="#BCBEC0"/>
<path d="M114.654 85.7487L110.555 88.1166L106.499 85.7487L110.555 83.4347L114.654 85.7487Z" fill="#BCBEC0"/>
<path d="M119.807 88.7402L115.709 91.1201L111.641 88.7402L115.709 86.3903L119.807 88.7402Z" fill="#BCBEC0"/>
<path d="M124.902 91.6777L120.84 94.0456L116.724 91.6777L120.84 89.3337L124.902 91.6777Z" fill="#BCBEC0"/>
<path d="M130.033 94.6389L125.965 96.9829L121.854 94.6389L125.965 92.313L130.033 94.6389Z" fill="#BCBEC0"/>
<path d="M135.14 97.6244L131.059 99.9743L127.009 97.6244L131.059 95.2565L135.14 97.6244Z" fill="#BCBEC0"/>
<path d="M140.282 100.544L136.201 102.9L132.133 100.544L136.201 98.188L140.282 100.544Z" fill="#BCBEC0"/>
<path d="M145.407 103.493L141.338 105.849L137.264 103.493L141.338 101.155L145.407 103.493Z" fill="#BCBEC0"/>
<path d="M150.362 106.383L146.3 108.709L142.184 106.383L146.3 104.039L150.362 106.383Z" fill="#BCBEC0"/>
<path d="M155.505 109.314L151.419 111.67L147.32 109.314L151.419 106.982L155.505 109.314Z" fill="#BCBEC0"/>
<path d="M160.623 112.3L156.519 114.637L152.444 112.3L156.519 109.956L160.623 112.3Z" fill="#BCBEC0"/>
<path d="M165.754 115.273L161.673 117.611L157.587 115.273L161.673 112.899L165.754 115.273Z" fill="#BCBEC0"/>
<path d="M170.854 118.168L166.78 120.5L162.688 118.168L166.78 115.83L170.854 118.168Z" fill="#BCBEC0"/>
<path d="M175.986 121.112L171.911 123.486L167.837 121.112L171.911 118.798L175.986 121.112Z" fill="#BCBEC0"/>
<path d="M104.645 91.5756L100.535 93.9376L96.4541 91.5756L100.535 89.2257L104.645 91.5756Z" fill="#BCBEC0"/>
<path d="M109.781 94.5251L105.658 96.887L101.59 94.5251L105.658 92.1871L109.781 94.5251Z" fill="#BCBEC0"/>
<path d="M114.882 97.4624L110.777 99.8303L106.721 97.4624L110.777 95.1124L114.882 97.4624Z" fill="#BCBEC0"/>
<path d="M119.976 100.442L115.914 102.756L111.827 100.442L115.914 98.056L119.976 100.442Z" fill="#BCBEC0"/>
<path d="M125.124 103.373L121.032 105.729L116.981 103.373L121.032 101.011L125.124 103.373Z" fill="#BCBEC0"/>
<path d="M130.255 106.323L126.144 108.673L122.082 106.323L126.144 103.979L130.255 106.323Z" fill="#BCBEC0"/>
<path d="M135.356 109.278L131.299 111.646L127.213 109.278L131.299 106.91L135.356 109.278Z" fill="#BCBEC0"/>
<path d="M140.317 112.138L136.249 114.505L132.198 112.138L136.249 109.788L140.317 112.138Z" fill="#BCBEC0"/>
<path d="M145.466 115.129L141.362 117.461L137.27 115.129L141.362 112.755L145.466 115.129Z" fill="#BCBEC0"/>
<path d="M150.585 118.067L146.505 120.446L142.412 118.067L146.505 115.735L150.585 118.067Z" fill="#BCBEC0"/>
<path d="M155.709 121.01L151.617 123.378L147.536 121.01L151.617 118.66L155.709 121.01Z" fill="#BCBEC0"/>
<path d="M160.821 123.953L156.759 126.315L152.648 123.953L156.759 121.633L160.821 123.953Z" fill="#BCBEC0"/>
<path d="M99.483 94.5251L95.4206 96.887L91.3281 94.5251L95.4206 92.1871L99.483 94.5251Z" fill="#BCBEC0"/>
<path d="M104.645 97.4624L100.535 99.8303L96.4541 97.4624L100.535 95.1124L104.645 97.4624Z" fill="#BCBEC0"/>
<path d="M109.781 100.442L105.658 102.756L101.59 100.442L105.658 98.056L109.781 100.442Z" fill="#BCBEC0"/>
<path d="M114.882 103.373L110.777 105.729L106.721 103.373L110.777 101.011L114.882 103.373Z" fill="#BCBEC0"/>
<path d="M119.976 106.323L115.914 108.673L111.827 106.323L115.914 103.979L119.976 106.323Z" fill="#BCBEC0"/>
<path d="M125.124 109.278L121.032 111.646L116.981 109.278L121.032 106.91L125.124 109.278Z" fill="#BCBEC0"/>
<path d="M130.255 112.27L126.144 114.608L122.082 112.27L126.144 109.89L130.255 112.27Z" fill="#BCBEC0"/>
<path d="M135.212 115.129L131.131 117.461L127.051 115.129L131.131 112.755L135.212 115.129Z" fill="#BCBEC0"/>
<path d="M140.317 118.067L136.249 120.446L132.198 118.067L136.249 115.735L140.317 118.067Z" fill="#BCBEC0"/>
<path d="M145.466 121.01L141.362 123.378L137.27 121.01L141.362 118.66L145.466 121.01Z" fill="#BCBEC0"/>
<path d="M150.585 123.953L146.505 126.315L142.412 123.953L146.505 121.633L150.585 123.953Z" fill="#BCBEC0"/>
<path d="M155.709 126.945L151.617 129.313L147.536 126.945L151.617 124.601L155.709 126.945Z" fill="#BCBEC0"/>
<path d="M165.934 132.838L161.853 135.17L152.648 129.888L156.759 127.526L165.934 132.838Z" fill="#BCBEC0"/>
<path d="M84.1752 91.5278L80.1368 93.8778L74.9883 90.9104L79.0927 88.5604L84.1752 91.5278Z" fill="#BCBEC0"/>
<path d="M94.4794 97.4265L90.3749 99.8004L86.3125 97.4265L90.3749 95.0706L94.4794 97.4265Z" fill="#BCBEC0"/>
<path d="M89.3186 94.4352L85.2562 96.8631L81.1758 94.4352L85.2562 92.1093L89.3186 94.4352Z" fill="#BCBEC0"/>
<path d="M99.6097 100.418L95.4812 102.792L91.4248 100.418L95.4812 98.0439L99.6097 100.418Z" fill="#BCBEC0"/>
<path d="M104.741 103.391L100.612 105.771L96.5498 103.391L100.612 101.011L104.741 103.391Z" fill="#BCBEC0"/>
<path d="M145.527 126.897L141.459 129.241L137.36 126.897L141.459 124.547L145.527 126.897Z" fill="#BCBEC0"/>
<path d="M150.68 129.858L146.594 132.226L142.495 129.858L146.594 127.496L150.68 129.858Z" fill="#BCBEC0"/>
<path d="M160.913 135.763L156.832 138.113L147.609 132.808L151.708 130.422L160.913 135.763Z" fill="#BCBEC0"/>
<path d="M171.017 129.912L166.913 132.256L157.714 126.975L161.806 124.613L171.017 129.912Z" fill="#BCBEC0"/>
<path d="M176.064 127.005L171.977 129.342L162.778 124.061L166.865 121.711L176.064 127.005Z" fill="#BCBEC0"/>
<path d="M181.104 124.097L177.024 126.471L172.932 124.097L177.024 121.777L181.104 124.097Z" fill="#BCBEC0"/>
<path d="M109.636 88.6801L105.568 91.0001L101.476 88.6801L105.568 86.2942L109.636 88.6801Z" fill="#BCBEC0"/>
<path d="M114.791 91.5995L110.669 93.9794L106.612 91.5995L110.669 89.2795L114.791 91.5995Z" fill="#BCBEC0"/>
<path d="M119.874 94.5732L115.8 96.9471L111.701 94.5732L115.8 92.2412L119.874 94.5732Z" fill="#BCBEC0"/>
<path d="M125.034 97.5286L120.924 99.8966L116.861 97.5286L120.924 95.1907L125.034 97.5286Z" fill="#BCBEC0"/>
<path d="M130.14 100.454L126.054 102.858L121.979 100.454L126.054 98.1338L130.14 100.454Z" fill="#BCBEC0"/>
<path d="M135.295 103.415L131.209 105.813L127.104 103.415L131.209 101.077L135.295 103.415Z" fill="#BCBEC0"/>
<path d="M140.413 106.425L136.285 108.781L132.234 106.425L136.285 104.039L140.413 106.425Z" fill="#BCBEC0"/>
<path d="M145.371 109.254L141.261 111.646L137.204 109.254L141.261 106.91L145.371 109.254Z" fill="#BCBEC0"/>
<path d="M150.465 112.21L146.391 114.566L142.316 112.21L146.391 109.89L150.465 112.21Z" fill="#BCBEC0"/>
<path d="M155.625 115.171L151.509 117.521L147.44 115.171L151.509 112.785L155.625 115.171Z" fill="#BCBEC0"/>
<path d="M160.709 118.126L156.634 120.482L152.554 118.126L156.634 115.747L160.709 118.126Z" fill="#BCBEC0"/>
<path d="M165.868 121.1L161.752 123.438L157.689 121.1L161.752 118.726L165.868 121.1Z" fill="#BCBEC0"/>
<path d="M139.994 93.6018L135.914 95.9577L131.815 93.6018L135.914 91.2518L139.994 93.6018Z" fill="#BCBEC0"/>
<path d="M145.119 96.5452L141.044 98.9191L136.958 96.5452L141.044 94.2133L145.119 96.5452Z" fill="#BCBEC0"/>
<path d="M150.231 99.4888L146.169 101.869L142.059 99.4888L146.169 97.1688L150.231 99.4888Z" fill="#BCBEC0"/>
<path d="M155.368 102.468L151.293 104.836L147.177 102.468L151.293 100.118L155.368 102.468Z" fill="#BCBEC0"/>
<path d="M163.03 106.91L158.955 109.254L154.887 106.91L158.955 104.531L163.03 106.91Z" fill="#BCBEC0"/>
<path d="M168.162 109.86L164.093 112.21L160.013 109.86L164.093 107.48L168.162 109.86Z" fill="#BCBEC0"/>
<path d="M173.266 112.785L169.204 115.171L165.1 112.785L169.204 110.417L173.266 112.785Z" fill="#BCBEC0"/>
<path d="M178.421 115.746L174.299 118.126L170.23 115.746L174.299 113.42L178.421 115.746Z" fill="#BCBEC0"/>
<path d="M187.003 120.716L182.917 123.06L175.422 118.726L179.478 116.37L187.003 120.716Z" fill="#BCBEC0"/>
<path d="M127.146 123.438L114.623 130.625L88.124 115.327L100.635 108.121L127.146 123.438Z" fill="#BCBEC0"/>
<path d="M70.7167 101.803L67.0504 103.925L63.21 101.719L66.8583 99.5848L70.7167 101.803Z" fill="#FFEC7A"/>
<path d="M66.0959 99.153L62.4415 101.269L58.6191 99.0571L62.2555 96.9469L66.0959 99.153Z" fill="#8DD5FF"/>
<path d="M112.98 0.101953C113.202 -0.0419206 113.628 -0.0419206 114.102 0.18588L201.123 50.4158C202.029 50.9134 202.719 52.1183 202.719 53.1494V114.823C202.719 115.333 202.539 115.711 202.269 115.83V115.872L199.683 117.341L199.107 114.566L114.096 65.5705C113.196 65.037 112.542 63.8501 112.542 62.8429V3.70479L112.025 4.12443L110.321 1.65459L112.932 0.107948H112.974L112.98 0.101953Z" fill="#B4CAED"/>
<path d="M111.479 1.70258L198.536 51.8966C199.424 52.4301 200.114 53.635 200.114 54.6482V116.352C200.114 117.341 199.424 117.761 198.536 117.269L111.479 67.0513C110.615 66.5597 109.931 65.3188 109.931 64.3357L109.967 2.62577C109.967 1.59467 110.621 1.17504 111.479 1.70258Z" fill="#F5F5F5"/>
<path d="M115.3 58.8564L196.315 105.555V107.09L113.902 59.5638V7.5174L115.3 8.33268V58.8564Z" fill="#B4CAED"/>
<path d="M196.315 105.556L115.301 58.8565V8.33276L196.351 55.0498L196.315 105.556Z" fill="#8DD5FF"/>
<path d="M134.064 76.5409L113.902 64.8931V62.675L134.064 74.2749V76.5409Z" fill="#DAE5F8"/>
<path opacity="0.6" d="M167.086 65.4567L153.356 57.5377V56.9502L167.086 64.8693V65.4567Z" fill="white"/>
<path opacity="0.6" d="M162.597 65.3067L153.356 59.9714V59.3839L162.597 64.7132V65.3067Z" fill="white"/>
<path opacity="0.6" d="M159.015 62.0216L153.356 58.7545V58.167L159.015 61.4281V62.0216Z" fill="white"/>
<path opacity="0.6" d="M194.503 58.2928L172.253 45.4581V43.9354L194.503 56.7702V58.2928Z" fill="white"/>
<path opacity="0.6" d="M178.698 55.7091V57.5495L193.832 66.2778C194.198 66.4877 194.498 66.2539 194.498 65.7503V65.7383C194.498 65.2348 194.204 64.6533 193.832 64.4434L178.698 55.7091Z" fill="white"/>
<path d="M175.591 53.9167L178.699 55.7091V57.5495L175.585 55.7511C175.29 56.2366 174.702 56.3565 174.012 55.9609C173.034 55.3914 172.242 54.0246 172.242 52.8976C172.242 51.7706 173.034 51.309 174.018 51.8725C174.708 52.2741 175.309 53.0774 175.597 53.9167H175.591Z" fill="#EB5C44"/>
<path opacity="0.6" d="M191.42 59.5938V62.3094L192.278 62.8009V60.0913L191.42 59.5938Z" fill="white"/>
<path opacity="0.6" d="M185.785 56.3506V59.0542L186.637 59.5458V56.8362L185.785 56.3506Z" fill="white"/>
<path opacity="0.6" d="M180.145 53.0954V55.805L180.997 56.2966V53.587L180.145 53.0954Z" fill="white"/>
<path opacity="0.6" d="M183.073 56.1407V57.4956L183.931 57.9871V56.6323L183.073 56.1407Z" fill="white"/>
<path opacity="0.6" d="M188.617 59.3361V60.6909L189.475 61.1824V59.8276L188.617 59.3361Z" fill="white"/>
<path opacity="0.6" d="M194.503 73.8493L172.253 61.0266V60.1693L194.503 73.0041V73.8493Z" fill="white"/>
<path opacity="0.6" d="M180.048 66.6016L172.253 62.1056V62.9568L180.048 67.4469V66.6016Z" fill="white"/>
<path opacity="0.6" d="M194.503 77.7159L172.253 64.8931V64.0419L194.503 76.8706V77.7159Z" fill="white"/>
<path opacity="0.6" d="M194.503 79.6522L172.253 66.8234V65.9722L194.503 78.8069V79.6522Z" fill="white"/>
<path opacity="0.6" d="M194.503 81.5885L172.253 68.7597V67.9084L194.503 80.7372V81.5885Z" fill="white"/>
<path opacity="0.6" d="M187.02 78.3574L172.253 69.8389V70.6901L187.02 79.2087V78.3574Z" fill="white"/>
<path opacity="0.6" d="M172.253 72.5545V90.7905L194.503 103.619V85.3832L172.253 72.5485V72.5545ZM193.789 102.27L172.955 90.2449V76.535L193.789 88.5484V102.264V102.27Z" fill="white"/>
<path d="M179.555 90.2568C179.555 89.4415 178.733 88.6023 177.755 87.703C178.667 87.9069 179.393 87.9248 179.393 87.1096C179.393 86.2943 178.667 85.467 177.755 84.6098C178.733 84.8555 179.555 84.9575 179.555 84.1422C179.555 83.3269 178.733 82.4756 177.755 81.5944C178.667 81.7922 179.393 81.8102 179.393 80.9889L179.075 80.8091C179.075 80.8091 179.075 80.8211 179.075 80.8271L175.091 78.5311C175.091 78.5311 175.091 78.5191 175.091 78.5071L174.773 78.3273C174.773 79.1486 175.499 79.9638 176.411 80.8211C175.433 80.5753 174.604 80.4794 174.604 81.2887C174.604 82.098 175.433 82.9432 176.411 83.8364C175.499 83.6386 174.773 83.6206 174.773 84.4359C174.773 85.2512 175.499 86.0785 176.411 86.9357C175.433 86.6899 174.604 86.588 174.604 87.4033C174.604 88.2186 175.433 89.0698 176.411 89.9511C175.499 89.7532 174.773 89.7353 174.773 90.5506L175.091 90.7364C175.091 90.7364 175.091 90.7184 175.091 90.7124L179.075 93.0084V93.0324L179.393 93.2182C179.393 92.3969 178.667 91.5816 177.755 90.7244C178.733 90.9642 179.555 91.0661 179.555 90.2508V90.2568ZM175.115 78.6989L179.051 80.971C179.009 81.1028 178.895 81.1748 178.751 81.2167L175.421 79.2924C175.271 79.0826 175.163 78.8848 175.115 78.6989ZM175.643 79.5862L178.523 81.2407C178.133 81.2527 177.605 81.1268 177.083 80.9949C176.561 80.5273 176.027 80.0418 175.643 79.5862ZM176.975 81.3966C177.011 81.4086 177.047 81.4206 177.083 81.4206C177.119 81.4565 177.155 81.4865 177.197 81.5225C177.665 81.9421 178.169 82.3917 178.565 82.8173L175.601 81.1088C175.991 81.1328 176.495 81.2707 176.975 81.3966ZM175.331 81.1088L178.841 83.135C179.057 83.4048 179.207 83.6566 179.237 83.8724L174.941 81.3966C174.971 81.2167 175.115 81.1328 175.337 81.1088H175.331ZM174.935 81.5524L179.231 84.0343C179.201 84.2141 179.051 84.298 178.829 84.316L175.337 82.3018C175.109 82.026 174.965 81.7682 174.935 81.5524ZM175.613 82.6195L178.553 84.316C178.163 84.286 177.659 84.1542 177.197 84.0283C177.155 84.0163 177.119 84.0103 177.083 83.9983C177.047 83.9683 177.011 83.9324 176.975 83.9024C176.501 83.4828 176.003 83.0391 175.613 82.6195ZM177.083 84.4359C177.605 84.9095 178.139 85.3951 178.529 85.8507L175.643 84.1841C176.027 84.1721 176.561 84.298 177.089 84.4359H177.083ZM175.415 84.2201L178.751 86.1444C178.925 86.3962 179.039 86.63 179.069 86.8398L175.097 84.5438C175.121 84.358 175.241 84.2621 175.415 84.2201ZM175.091 84.6997L179.069 86.9897C179.045 87.1755 178.925 87.2774 178.751 87.3254L175.415 85.4011C175.235 85.1493 175.115 84.9095 175.091 84.6997ZM175.637 85.6888L178.523 87.3554C178.133 87.3673 177.599 87.2415 177.077 87.1036C176.555 86.63 176.015 86.1444 175.631 85.6828L175.637 85.6888ZM176.975 87.5112C177.011 87.5112 177.047 87.5292 177.083 87.5412C177.119 87.5772 177.155 87.6071 177.197 87.6371C177.665 88.0627 178.169 88.5123 178.565 88.938L175.601 87.2235C175.991 87.2474 176.495 87.3853 176.975 87.5112ZM179.045 92.8345L175.115 90.5685C175.163 90.4486 175.265 90.3767 175.415 90.3407L178.757 92.265C178.901 92.4689 179.003 92.6607 179.045 92.8345ZM178.529 91.9773L175.631 90.3048C176.015 90.2868 176.555 90.4187 177.083 90.5506C177.605 91.0241 178.145 91.5157 178.529 91.9773ZM177.191 90.1489C177.149 90.1429 177.113 90.1249 177.077 90.1249C177.041 90.089 177.005 90.053 176.969 90.017C176.495 89.6034 175.997 89.1598 175.607 88.7401L178.547 90.4307C178.157 90.4007 177.653 90.2688 177.191 90.1489ZM178.823 90.4366L175.331 88.4224C175.103 88.1467 174.959 87.8889 174.929 87.6731L179.225 90.1489C179.189 90.3347 179.045 90.4127 178.823 90.4366ZM174.929 87.5112C174.959 87.3374 175.103 87.2534 175.325 87.2295L178.835 89.2557C179.051 89.5254 179.201 89.7832 179.231 89.987L174.935 87.5052L174.929 87.5112Z" fill="#EB5C44"/>
<path opacity="0.6" d="M147.704 63.2087L132.145 54.2285V53.1675L147.704 62.1416V63.2087Z" fill="white"/>
<path opacity="0.6" d="M145.868 63.9701L132.145 56.051V55.4575L145.868 63.3706V63.9701Z" fill="white"/>
<path opacity="0.6" d="M147.704 66.176L132.145 57.1959V56.6024L147.704 65.5765V66.176Z" fill="white"/>
<path opacity="0.6" d="M145.868 66.254L132.145 58.3409V57.7534L145.868 65.6665V66.254Z" fill="white"/>
<path opacity="0.6" d="M141.385 64.8153L132.145 59.4859V58.8925L141.385 64.2278V64.8153Z" fill="white"/>
<path opacity="0.6" d="M137.797 63.898L132.145 60.6368V60.0374L137.797 63.2985V63.898Z" fill="white"/>
<path opacity="0.6" d="M145.868 69.6949L132.145 61.7759V61.1824L145.868 69.1074V69.6949Z" fill="white"/>
<path opacity="0.6" d="M193.04 90.8864L180.979 83.9385V84.9935L193.04 91.9475V90.8864Z" fill="white"/>
<path opacity="0.6" d="M193.04 93.1763L180.979 86.2284V86.8219L193.04 93.7758V93.1763Z" fill="white"/>
<path opacity="0.6" d="M193.04 94.3214L180.979 87.3735V87.961L193.04 94.9209V94.3214Z" fill="white"/>
<path opacity="0.6" d="M193.04 95.4604L180.979 88.5125V89.1059L193.04 96.0598V95.4604Z" fill="white"/>
<path opacity="0.6" d="M190.225 95.5863L180.979 90.2569V89.6575L190.225 94.9868V95.5863Z" fill="white"/>
<path opacity="0.6" d="M186.637 94.663L180.979 91.3959V90.8024L186.637 94.0635V94.663Z" fill="white"/>
<path opacity="0.6" d="M193.04 98.9073L180.979 91.9474V92.5409L193.04 99.4948V98.9073Z" fill="white"/>
<path opacity="0.6" d="M147.704 41.0281L132.145 32.048V31.4545L147.704 40.4287V41.0281Z" fill="white"/>
<path opacity="0.6" d="M147.704 38.6361L132.145 29.656V27.7916L147.704 36.7718V38.6361Z" fill="white"/>
<path opacity="0.6" d="M145.868 41.112L132.145 33.1929V32.5994L145.868 40.5185V41.112Z" fill="white"/>
<path opacity="0.6" d="M141.385 39.6672L132.145 34.3379V33.7444L141.385 39.0797V39.6672Z" fill="white"/>
<path opacity="0.6" d="M137.797 38.7501L132.145 35.4889V34.8895L137.797 38.1506V38.7501Z" fill="white"/>
<path opacity="0.6" d="M145.868 44.553L132.145 36.6219V36.0344L145.868 43.9535V44.553Z" fill="white"/>
<path opacity="0.6" d="M132.145 39.4514V49.4926L147.71 58.4727V48.4255L132.145 39.4514ZM133.567 49.6545L132.637 49.1149V47.94L133.567 48.4735V49.6545ZM133.567 48.3116L132.637 47.7721V46.759L133.567 47.3045V48.3116ZM133.567 47.1367L132.637 46.5912V45.578L133.567 46.1236V47.1367ZM133.567 45.9557L132.637 45.4162V44.4031L133.567 44.9366V45.9497V45.9557ZM133.567 44.7807L132.637 44.2412V43.2221L133.567 43.7676V44.7807ZM133.567 43.5998L132.637 43.0662V42.0531L133.567 42.5867V43.5998ZM133.567 42.4248L132.637 41.8853V40.4885L133.567 41.028V42.4248ZM134.947 50.4518L133.711 49.7444V48.5634L134.947 49.2768V50.4518ZM134.947 49.1089L133.711 48.3956V47.3825L134.947 48.0958V49.1089ZM134.947 47.928L133.711 47.2146V46.2015L134.947 46.9149V47.928ZM134.947 46.753L133.711 46.0396V45.0325L134.947 45.7339V46.753ZM134.947 45.572L133.711 44.8587V43.8456L134.947 44.5589V45.572ZM134.947 44.3911L133.711 43.6777V42.6706L134.947 43.384V44.3971V44.3911ZM134.947 43.2101L133.711 42.5027V41.106L134.947 41.8133V43.2161V43.2101ZM136.321 51.2431L135.091 50.5297V49.3547L136.321 50.0681V51.2491V51.2431ZM136.321 49.8943L135.091 49.1869V48.1738L136.321 48.8871V49.8943ZM136.321 48.7193L135.091 48.0059V46.9928L136.321 47.7062V48.7133V48.7193ZM136.321 47.5443L135.091 46.8369V45.8178L136.321 46.5312V47.5443ZM136.321 46.3693L135.091 45.656V44.6429L136.321 45.3562V46.3693ZM136.321 45.1884L135.091 44.475V43.4619L136.321 44.1753V45.1884ZM136.321 44.0134L135.091 43.3V41.8973L136.321 42.6106V44.0134ZM137.701 52.0344L136.471 51.327V50.146L137.701 50.8594V52.0344ZM137.701 50.6916L136.471 49.9782V48.9651L137.701 49.6785V50.6916ZM137.701 49.5166L136.471 48.8092V47.7961L137.701 48.5035V49.5166ZM137.701 48.3356L136.471 47.6282V46.6151L137.701 47.3225V48.3356ZM137.701 47.1607L136.471 46.4533V45.4402L137.701 46.1475V47.1607ZM137.701 45.9797L136.471 45.2663V44.2532L137.701 44.9726V45.9797ZM137.701 44.8107L136.471 44.0973V42.6946L137.701 43.408V44.8107ZM139.075 52.8377L137.839 52.1243V50.9493L139.075 51.6567V52.8377ZM139.075 51.4949L137.839 50.7755V49.7684L139.075 50.4817V51.4949ZM139.075 50.3199L137.839 49.6065V48.5934L139.075 49.3008V50.3199ZM139.075 49.1389L137.839 48.4255V47.4184L139.075 48.1318V49.1449V49.1389ZM139.075 47.958L137.839 47.2506V46.2375L139.075 46.9508V47.958ZM139.075 46.783L137.839 46.0696V45.0685L139.075 45.7759V46.789V46.783ZM139.075 45.602L137.839 44.8946V43.4919L139.075 44.2052V45.602ZM140.449 53.629L139.219 52.9216V51.7406L140.449 52.454V53.629ZM140.449 52.2862L139.219 51.5788V50.5657L140.449 51.2731V52.2862ZM140.449 51.1112L139.219 50.3978V49.3787L140.449 50.0921V51.1052V51.1112ZM140.449 49.9362L139.219 49.2228V48.2097L140.449 48.9231V49.9422V49.9362ZM140.449 48.7553L139.219 48.0359V47.0288L140.449 47.7421V48.7553ZM140.449 47.5743L139.219 46.8669V45.8538L140.449 46.5612V47.5743ZM140.449 46.3993L139.219 45.6859V44.2892L140.449 44.9966V46.3993ZM141.824 54.4263L140.593 53.7129V52.5319L141.824 53.2453V54.4263ZM141.824 53.0775L140.593 52.3641V51.357L141.824 52.0584V53.0775ZM141.824 51.8965L140.593 51.1891V50.176L141.824 50.8834V51.8965ZM141.824 50.7215L140.593 50.0082V48.9951L141.824 49.7144V50.7275V50.7215ZM141.824 49.5406L140.593 48.8272V47.8141L141.824 48.5215V49.5346V49.5406ZM141.824 48.3656L140.593 47.6522V46.6331L141.824 47.3465V48.3596V48.3656ZM141.824 47.1786L140.593 46.4713V45.0745L141.824 45.7879V47.1846V47.1786ZM143.204 55.2056L141.974 54.4922V53.3173L143.204 54.0246V55.2056ZM143.204 53.8628L141.974 53.1494V52.1363L143.204 52.8497V53.8628ZM143.204 52.6818L141.974 51.9684V50.9613L143.204 51.6687V52.6818ZM143.204 51.5009L141.974 50.7935V49.7804L143.204 50.4937V51.5068V51.5009ZM143.204 50.3319L141.974 49.6185V48.6054L143.204 49.3188V50.3319ZM143.204 49.1509L141.974 48.4375V47.4244L143.204 48.1378V49.1509ZM143.204 47.9699L141.974 47.2566V45.8658L143.204 46.5732V47.964V47.9699ZM144.578 56.0029L143.342 55.2895V54.1206L144.578 54.8279V56.0089V56.0029ZM144.578 54.6601L143.342 53.9467V52.9396L144.578 53.647V54.6661V54.6601ZM144.578 53.4791L143.342 52.7657V51.7526L144.578 52.46V53.4791ZM144.578 52.3041L143.342 51.5908V50.5777L144.578 51.285V52.3041ZM144.578 51.1232L143.342 50.4098V49.4027L144.578 50.1101V51.1232ZM144.578 49.9482L143.342 49.2348V48.2277L144.578 48.9351V49.9542V49.9482ZM144.578 48.7672L143.342 48.0599V46.6631L144.578 47.3765V48.7732V48.7672ZM145.958 56.8002L144.722 56.0868V54.9059L145.958 55.6132V56.8002ZM145.958 55.4514L144.722 54.738V53.7249L145.958 54.4323V55.4454V55.4514ZM145.958 54.2704L144.722 53.557V52.5439L145.958 53.2573V54.2704ZM145.958 53.1014L144.722 52.3881V51.375L145.958 52.0883V53.1014ZM145.958 51.9205L144.722 51.2071V50.194L145.958 50.9014V51.9205ZM145.958 50.7395L144.722 50.0321V49.019L145.958 49.7204V50.7395ZM145.958 49.5586L144.722 48.8452V47.4484L145.958 48.1618V49.5526V49.5586ZM147.206 57.5196L146.096 56.8781V55.6972L147.206 56.3326V57.5196ZM147.206 56.1708L146.096 55.5293V54.5162L147.206 55.1576V56.1708ZM147.206 54.9838L146.096 54.3484V53.3412L147.206 53.9767V54.9838ZM147.206 53.8088L146.096 53.1734V52.1603L147.206 52.8017V53.8088ZM147.206 52.6279L146.096 51.9924V50.9793L147.206 51.6207V52.6279ZM147.206 51.4529L146.096 50.8115V49.7983L147.206 50.4398V51.4469V51.4529ZM147.206 50.2779L146.096 49.6365V48.2397L147.206 48.8811V50.2779Z" fill="white"/>
<path d="M144.356 50.4518L141.344 51.9385L140.27 50.5298V49.2769L137.515 47.4545L136.015 49.2049L132.637 48.8452V49.139L136.135 49.5047L137.569 47.8321L139.975 49.4327V50.6257L141.26 52.2982L144.362 50.7696L147.206 51.9925V51.6868L144.356 50.4518Z" fill="#EB5C44"/>
<path d="M136.088 48.8212C135.836 48.6773 135.632 48.7972 135.632 49.091C135.632 49.3847 135.836 49.7324 136.088 49.8883C136.346 50.0321 136.55 49.9122 136.55 49.6185C136.55 49.3248 136.34 48.9771 136.088 48.8212Z" fill="#EB5C44"/>
<path d="M137.582 47.2985C137.324 47.1546 137.126 47.2745 137.126 47.5623C137.126 47.85 137.33 48.2157 137.582 48.3596C137.84 48.5035 138.044 48.3955 138.044 48.1018C138.044 47.8081 137.84 47.4484 137.582 47.2985Z" fill="#EB5C44"/>
<path d="M144.404 50.1282C144.152 49.9783 143.948 50.1042 143.948 50.3919C143.948 50.6797 144.152 51.0454 144.404 51.1892C144.656 51.3331 144.866 51.2132 144.866 50.9255C144.866 50.6257 144.662 50.266 144.404 50.1282Z" fill="#EB5C44"/>
<path opacity="0.6" d="M122.545 34.7516C122.545 34.7516 122.197 33.169 123.637 34.0023C124.843 34.6977 124.669 35.9805 124.663 36.1244C124.741 36.4841 124.627 37.5751 124.369 37.8629C124.327 37.9168 124.093 37.755 124.093 37.755V37.9228C124.567 38.4803 125.155 39.1637 125.155 39.1637C125.155 39.1637 126.019 39.5414 126.307 40.4166C126.595 41.2919 126.271 42.5508 126.607 44.7928C126.859 45.5721 126.799 46.5013 127.129 48.7793C127.201 48.9052 127.327 49.091 127.411 49.2709C127.489 49.4507 127.729 50.3739 127.759 50.4938C127.795 50.6197 127.711 51.1113 127.639 51.1712C127.555 51.2372 126.685 50.4758 126.625 50.326C126.565 50.1821 126.601 49.8404 126.601 49.8404C126.601 49.8404 126.373 48.8752 126.385 48.7913C126.391 48.7014 126.391 48.6594 126.415 48.5395C126.163 47.1487 125.545 45.6021 125.587 44.3972C125.443 43.7497 125.371 43.0903 125.371 43.0903L125.047 44.1514C125.047 44.1514 125.431 46.9509 125.509 47.5084C125.881 50.7516 125.425 53.4972 125.413 53.9468C125.395 54.3964 125.503 54.858 125.533 55.1637C125.569 55.4694 125.179 58.9044 125.263 60.2832C125.293 60.7688 126.499 62.0876 126.505 62.3035C126.505 62.5193 125.851 62.1356 125.641 61.9797C125.437 61.8239 125.137 61.4402 124.981 61.3203C124.819 61.2124 124.561 61.1585 124.441 61.0386C124.321 60.9187 124.183 60.517 124.195 60.3731C124.201 60.2413 124.279 60.0914 124.315 59.8636C124.477 58.5687 124.015 55.979 124.051 55.4694C124.081 54.9599 124.213 54.6182 124.207 54.1326C124.195 53.647 123.607 50.8715 123.661 47.8561C123.529 47.7782 123.301 47.6583 123.193 47.5864C123.439 50.8535 122.893 53.1795 122.911 53.6291C122.923 54.0727 123.031 54.4144 123.091 55.0858C123.139 55.6733 122.845 56.3147 122.821 58.9164C122.815 59.1142 122.977 59.8816 122.893 60.0135C122.821 60.1453 122.335 59.8756 122.335 59.8756C122.335 59.8756 121.891 59.9115 121.597 59.7137C121.309 59.5159 120.985 59.3301 120.955 59.1142C120.925 58.8984 121.813 58.8265 121.939 58.4968C122.065 58.1671 121.621 53.1555 121.621 52.8198C121.621 52.496 121.681 52.2503 121.711 52.0165C121.747 51.7827 121.117 48.6534 121.243 45.1465C121.267 44.553 121.741 42.251 121.741 42.251L121.387 40.6924C121.387 40.6924 121.291 41.5796 121.237 42.0352C121.165 43.432 120.739 43.7977 120.403 44.9187C120.403 44.9187 120.439 45.0865 120.427 45.2664C120.427 45.4402 120.289 46.3395 120.115 46.4054C119.941 46.4713 119.136 46.3454 119.022 46.1656C118.902 45.9977 118.938 45.4402 118.986 45.3323C119.04 45.2244 119.208 44.8587 119.286 44.6789C119.37 44.4871 119.556 44.4991 119.604 44.4451C119.989 43.2222 119.959 41.9993 120.133 41.142C120.439 39.8831 120.217 37.1675 120.595 36.8917C120.901 36.6819 121.885 37.1735 121.885 37.1735C121.885 37.1735 122.827 37.1735 122.677 35.7767C122.677 35.7767 122.569 35.6748 122.515 35.5309C122.467 35.3751 122.395 34.8955 122.419 34.8116C122.449 34.7336 122.545 34.7576 122.545 34.7576V34.7516Z" fill="white"/>
<path d="M123.348 40.5245C123.348 40.5245 123.624 40.2727 123.834 40.7163C124.098 41.2858 123.348 41.2918 123.348 41.2918C123.348 41.2918 122.604 40.4286 122.862 40.1588C123.066 39.949 123.348 40.5245 123.348 40.5245Z" fill="#EB5C44"/>
<path d="M160.084 82.08L161.278 75.7795L162.527 82.056L164.021 78.1774L164.855 80.8091L167.027 82.062V81.3246L165.263 80.3115L163.961 76.1632L162.635 79.6281L161.194 72.4164L159.922 79.0826L158.902 74.8683L157.852 76.6907L156.406 69.473L155.2 74.5206L153.184 73.3336V74.071L155.71 75.5517L156.43 72.5184L157.666 78.669L158.776 76.7327L160.084 82.08Z" fill="#EB5C44"/>
<path opacity="0.6" d="M150.561 29.8598V62.0995L169.889 73.2498V41.01L150.561 29.8598ZM169.27 72.0688L151.173 61.6259V36.6219L169.27 47.0587V72.0628V72.0688Z" fill="white"/>
<path opacity="0.6" d="M130.254 18.1461V64.4674L149.582 75.6177V29.2963L130.254 18.1521V18.1461ZM148.97 74.4367L130.872 63.9999V24.9201L148.97 35.357V74.4367Z" fill="white"/>
<path d="M128.772 34.7756L118.535 28.8708V17.7985L128.772 23.7033V34.7756Z" fill="white"/>
<path opacity="0.6" d="M117.918 11.0244V29.3443L129.391 35.9565V17.6425L117.918 11.0244ZM128.773 34.7755L118.536 28.8707V17.7984L128.773 23.7032V34.7755Z" fill="white"/>
<path d="M127.5 34.0442C127.38 32.9231 127.182 31.6103 126.882 31.2206C126.282 30.765 126.078 30.759 126.078 30.759V33.2349L127.5 34.0501V34.0442Z" fill="#383838"/>
<path d="M120.864 30.2135V27.7437C120.864 27.7437 120.648 27.5099 120.054 27.2761C119.754 27.324 119.556 28.4091 119.436 29.3922L120.864 30.2135Z" fill="#383838"/>
<path d="M124.11 29.668L122.802 28.9067V26.1491L124.11 26.8985V29.668Z" fill="#C7A496"/>
<path d="M126.066 33.2169L126.889 31.2146C126.889 31.2146 124.164 28.5589 124.134 28.5829L123.468 29.2184L122.808 27.8156C122.808 27.8156 120.09 27.2821 120.048 27.2701L120.87 30.2195L126.072 33.2229L126.066 33.2169Z" fill="#FFC654"/>
<path d="M121.541 23.3197C121.247 23.7873 121.901 26.377 122.351 26.6408C122.807 26.8985 124.085 27.6419 124.53 27.9056C124.986 28.1574 125.766 26.2451 125.364 25.5437C124.866 24.8543 123.611 23.6434 123.611 23.6434C123.611 23.6434 121.907 23.1638 121.535 23.3257L121.541 23.3197Z" fill="#85413A"/>
<path d="M121.782 24.7403C121.524 24.6564 121.26 24.2787 121.2 23.9131C121.14 23.5474 121.302 23.3196 121.566 23.4035C121.818 23.4874 122.04 24.8303 121.782 24.7403Z" fill="#F0C6B4"/>
<path d="M125.1 26.6527C125.352 26.8625 125.622 26.7966 125.676 26.4969C125.736 26.1971 125.58 25.7835 125.322 25.5677C125.064 25.3579 124.842 26.4489 125.106 26.6527H125.1Z" fill="#F0C6B4"/>
<path d="M123.45 27.9116C125.46 29.0686 125.244 24.7104 125.244 24.7104C125.244 24.7104 125.334 23.0019 123.45 21.9228C121.542 20.8258 121.686 22.6962 121.686 22.6962C121.686 22.6962 121.47 26.7666 123.45 27.9116Z" fill="#F0C6B4"/>
<path d="M121.457 23.3855C121.631 23.4395 121.823 23.931 121.823 23.931L121.895 22.5043C121.919 22.0427 122.117 21.9947 122.117 21.9947C122.652 22.3065 122.748 23.0798 123.45 23.4814C124.158 23.8831 124.14 23.0918 124.656 23.3915C124.656 23.3915 124.896 23.6073 124.98 24.2787C124.998 24.4466 125.13 25.9752 125.124 25.9093C125.214 25.5556 125.472 25.7414 125.472 25.7414C125.472 25.7414 126.012 23.1098 123.456 21.635C120.899 20.1603 121.445 23.2956 121.445 23.3855H121.457Z" fill="#85413A"/>
<path d="M122.598 27.6958L122.73 27.6538L123.462 29.2184L122.598 27.6958Z" fill="#383838"/>
<path d="M124.333 28.7028L124.195 28.499L123.463 29.2184L124.333 28.7028Z" fill="#383838"/>
<path opacity="0.6" d="M169.889 74.6345L150.561 63.4903V77.3981L116.987 58.0171V58.9523L169.889 89.4835V74.6405V74.6345ZM169.271 88.2066L151.173 77.7638V64.911L169.271 75.3479V88.2066Z" fill="white"/>
<g opacity="0.6">
<path d="M159.993 47.9819C159.993 47.9819 163.186 45.0684 165.568 50.2539C168.58 56.8241 159.993 56.8421 159.993 56.8421C159.993 56.8421 151.401 46.9028 154.413 43.8275C156.795 41.3877 159.993 47.9819 159.993 47.9819Z" fill="white"/>
</g>
<path d="M156.735 46.789C156.417 46.6092 156.159 46.753 156.159 47.1187C156.159 47.4844 156.417 47.928 156.735 48.1138C157.059 48.2997 157.317 48.1498 157.317 47.7721C157.317 47.3945 157.059 46.9688 156.735 46.783V46.789Z" fill="#EB5C44"/>
<path d="M156.736 45.8478C155.974 45.4042 155.35 45.7639 155.35 46.6511C155.35 47.5383 155.974 48.6114 156.736 49.055C157.504 49.4986 158.128 49.1389 158.128 48.2577C158.128 47.3765 157.51 46.2914 156.736 45.8478ZM156.736 48.6773C156.142 48.3416 155.668 47.5144 155.668 46.837C155.668 46.1596 156.142 45.8778 156.736 46.2195C157.33 46.5612 157.81 47.3885 157.81 48.0719C157.81 48.7553 157.33 49.025 156.736 48.6773Z" fill="#EB5C44"/>
<path opacity="0.3" d="M84.2549 144.06C78.8063 147.201 69.9674 147.201 64.5128 144.06C59.0582 140.918 59.0582 135.817 64.5128 132.676C69.9614 129.528 78.8063 129.528 84.2549 132.676C89.7034 135.823 89.7034 140.918 84.2549 144.06Z" fill="black"/>
<path d="M74.0055 59.252C74.0055 59.252 69.1449 56.7582 67.0507 60.4809C64.9505 64.1977 59.616 72.4704 59.5439 73.8072C60.222 78.669 70.7231 82.9612 70.7231 82.9612L71.0951 76.7626C71.0951 76.7626 68.3889 74.7244 66.7747 72.884C67.0447 72.2006 71.0951 69.8147 71.0951 69.8147L73.9994 59.252H74.0055Z" fill="white"/>
<path d="M74.0052 59.252C74.0052 59.252 63.2641 61.9736 68.6766 71.3613C70.0868 71.3134 71.1009 69.8147 71.1009 69.8147L74.0052 59.252Z" fill="#B4CAED"/>
<path d="M68.5269 131.183C68.5269 131.183 67.3747 134.528 67.7828 135.283C69.463 137.328 71.5512 135.493 71.5512 135.493L74.2094 133.191L68.5269 131.183Z" fill="#DAE5F8"/>
<path d="M77.7867 139.066C79.5388 140.756 82.4971 141.296 84.2073 142.069C85.9175 142.843 84.3393 144.485 84.3393 144.485C84.3393 144.485 84.3393 145.043 78.6627 145.408C75.5904 145.564 71.45 144.179 70.2739 143.664C69.0977 143.154 71.09 137.795 71.09 137.795C71.09 137.795 76.0345 137.387 77.7927 139.066H77.7867Z" fill="#DAE5F8"/>
<path d="M67.7829 130.775C67.7829 130.775 67.3749 134.001 67.7829 134.756C69.4631 136.794 71.5513 134.96 71.5513 134.96L74.2096 132.658L67.7889 130.769L67.7829 130.775Z" fill="#BF6E34"/>
<path d="M69.0369 95.4604C68.5868 101.947 68.7788 109.638 68.6048 110.16C64.9504 115.807 66.8406 128.521 66.9126 130.715C69.8649 133.887 73.8674 130.985 73.8674 130.985L75.8476 99.0932C75.8476 99.0932 69.6249 93.7159 69.0428 95.4604H69.0369Z" fill="#295E87"/>
<path d="M77.7867 138.539C79.5388 140.235 82.4971 140.775 84.2073 141.542C85.9175 142.321 84.3393 143.964 84.3393 143.964C84.3393 143.964 84.3393 144.521 78.6627 144.887C75.5904 145.037 71.45 143.652 70.2739 143.142C69.0977 142.633 71.09 137.274 71.09 137.274C71.09 137.274 76.0345 136.86 77.7927 138.545L77.7867 138.539Z" fill="#BF6E34"/>
<path d="M85.4546 102.372C84.2304 109.668 81.5722 117.911 81.0981 119.271C80.6181 120.632 79.664 137.945 79.664 137.945C79.664 137.945 74.0054 141.416 70.729 137.663C70.597 126.087 71.7491 120.362 73.3873 118.246C74.2034 112.659 73.5553 109.608 74.5454 101.425C75.0975 99.6566 85.3286 100.736 85.4546 102.372Z" fill="#517FA2"/>
<path d="M84.8313 51.6687C84.9933 52.8976 83.3552 58.3708 82.7491 58.8864C82.131 59.3959 81.567 59.0782 81.2069 58.9823C80.3849 60.3611 80.9549 63.0647 80.9549 63.0647C80.9549 63.0647 73.2921 60.7747 72.8721 60.3611C74.0002 59.0362 74.5642 57.3697 74.5642 57.3697L82.137 51.6687C82.137 51.6687 84.6693 50.4398 84.8313 51.6687Z" fill="#F0C6B4"/>
<path d="M73.291 59.9055C73.291 59.9055 74.1431 58.1071 74.1071 58.3229C74.0591 58.5327 74.5391 59.6837 78.2355 60.6848C80.4858 61.2963 81.3019 60.511 81.3019 60.511C81.3019 60.511 80.6898 62.2255 81.1638 63.4064C81.4039 63.7841 75.5112 63.4064 75.5112 63.4064L73.291 59.9055Z" fill="#517FA2"/>
<path d="M82.2919 45.9497C76.2553 43.9595 73.0809 49.1149 72.6189 50.6975C71.9648 53.3532 73.843 57.7054 74.1071 58.3169C75.4332 60.2052 79.0156 59.7976 80.0357 59.0782C81.0618 58.8264 82.4899 53.4611 83.054 55.0977C83.57 52.7957 84.8722 52.2802 84.9442 51.2071C85.0282 50.14 85.0702 45.3023 82.2919 45.9497Z" fill="#85413A"/>
<path d="M76.916 50.2419C77.5761 50.9013 81.6805 46.4053 81.6805 46.4053C81.6805 46.4053 76.256 49.5765 76.916 50.2419Z" fill="#572B26"/>
<path d="M70.729 59.6836C69.8469 59.9533 68.6108 61.6978 67.9987 65.2467C67.3806 68.7896 70.441 76.307 70.1889 79.694C69.9249 83.0691 67.2126 87.727 67.8907 97.8161C67.8907 97.8161 69.4749 99.5666 71.6231 101.257C71.3531 99.087 72.3192 97.1147 72.3192 97.1147C72.3192 97.1147 72.9372 102.228 73.2072 102.408C74.8574 103.499 76.6636 104.356 78.3078 104.356C88.3948 104.356 88.3948 100.058 88.3948 100.058V73.981C88.3948 69.407 80.882 62.597 80.882 62.597C80.882 62.597 76.7776 62.4891 74.8274 61.2662C72.8832 60.0432 73.6753 59.2579 73.6753 59.2579C73.6753 59.2579 71.6231 59.4138 70.735 59.6896L70.729 59.6836Z" fill="white"/>
<path d="M78.0807 74.6106C78.0807 74.6106 76.8146 90.101 79.6769 92.343C81.2371 93.5659 88.3898 91.9893 88.3898 91.9893C88.3898 91.9893 90.37 88.2966 88.3898 86.4022L86.2656 85.4431L85.5935 73.8013L78.0868 74.6106H78.0807Z" fill="#B4CAED"/>
<path d="M102.468 84.0343C103.086 83.6806 103.896 83.5007 104.706 83.4948L105.552 83.5607C106.074 83.6386 106.566 83.7945 106.986 84.0343C108.234 84.7536 108.234 85.9226 106.986 86.642C105.744 87.3554 103.716 87.3554 102.468 86.642C101.226 85.9226 101.226 84.7476 102.468 84.0343Z" fill="#FF8530"/>
<path d="M107.123 86.0904C107.003 85.9645 106.859 85.8506 106.685 85.7487C106.325 85.5509 105.893 85.413 105.437 85.3411L104.699 85.2811C103.997 85.2931 103.295 85.443 102.755 85.7487C102.581 85.8506 102.443 85.9645 102.317 86.0904C101.699 85.4849 101.843 84.6816 102.755 84.1481C103.295 83.8424 103.997 83.6865 104.699 83.6865L105.437 83.7345C105.893 83.8064 106.319 83.9443 106.685 84.1481C107.592 84.6697 107.742 85.4849 107.123 86.0904Z" fill="#F26716"/>
<path d="M107.124 86.0904C107.004 86.2103 106.86 86.3242 106.686 86.4201C105.6 87.0376 103.847 87.0376 102.761 86.4201C102.587 86.3242 102.449 86.2163 102.323 86.0904C102.443 85.9645 102.587 85.8506 102.761 85.7487C103.301 85.443 104.003 85.2931 104.705 85.2811L105.444 85.3411C105.9 85.413 106.326 85.5509 106.692 85.7487C106.86 85.8506 107.01 85.9645 107.13 86.0904H107.124Z" fill="#572B26"/>
<path d="M106.986 86.6419C105.744 87.3553 103.715 87.3553 102.467 86.6419C101.885 86.3002 101.567 85.8686 101.537 85.419V90.7123V90.7243C101.537 91.1919 101.843 91.6655 102.467 92.0132C103.715 92.7386 105.744 92.7386 106.986 92.0132C107.64 91.6415 107.958 91.138 107.916 90.6404V86.4321L107.928 85.347C107.916 85.8146 107.61 86.2762 106.992 86.6419H106.986Z" fill="#FF8530"/>
<path d="M101.537 90.8744H100.067C99.3891 90.8744 98.8311 90.3169 98.8311 89.6454V87.1037C98.8311 86.4323 99.3891 85.8748 100.067 85.8748H101.537V86.696H100.067C99.8392 86.696 99.6591 86.8759 99.6591 87.1037V89.6454C99.6591 89.8732 99.8392 90.0471 100.067 90.0471H101.537V90.8744Z" fill="#FF8530"/>
<path d="M94.9355 87.2174C94.9355 87.2174 96.1057 85.8146 96.6997 85.5868C98.3799 84.7835 99.76 85.9165 99.76 85.9165C99.76 85.9165 98.932 86.1143 98.878 86.9056C99.1 87.0075 99.364 87.0675 99.652 87.0915C99.652 87.0915 99.634 86.7078 100.06 86.6898H101.206C101.326 87.2174 101.872 91.1979 99.268 91.3537C97.1678 91.4736 95.0436 90.6284 95.0436 90.6284L94.9355 87.2174Z" fill="#F0C6B4"/>
<path d="M93.4358 87.0436C93.4358 87.0436 94.5279 87.4213 94.9359 87.2174C96.2021 88.6861 95.242 90.9042 95.242 90.9042L93.0938 91.0601L93.4298 87.0436H93.4358Z" fill="#517FA2"/>
<path d="M81.3147 68.1781C77.4443 68.1781 77.9604 73.4895 77.9604 73.4895C77.9604 73.4895 78.3624 90.7903 80.1326 91.6775C81.9148 92.5527 94.1201 91.6775 94.1201 91.6775C94.1201 91.6775 95.4822 88.6801 93.502 86.7678C90.5797 86.7678 85.5272 86.0185 85.5272 86.0185L85.5932 73.0758C85.5932 73.0758 85.9172 68.1721 81.3147 68.1721V68.1781Z" fill="white"/>
<path opacity="0.3" d="M171.204 168.362C166.457 165.665 158.771 165.665 154.018 168.362C149.23 171.132 149.23 175.568 154.018 178.32C158.771 181.041 166.457 181.041 171.204 178.32C175.956 175.562 175.956 171.132 171.204 168.362Z" fill="black"/>
<path d="M151.653 172.708C151.653 174.345 152.721 175.958 154.852 177.18C159.148 179.662 166.079 179.662 170.375 177.18C172.529 175.958 173.586 174.345 173.586 172.708V159.316H151.659V172.708H151.653Z" fill="#B4CAED"/>
<path d="M173.033 163.423C172.517 164.346 171.641 165.197 170.375 165.922C168.545 166.989 166.198 167.583 163.828 167.763V176.251C166.204 176.108 168.545 175.496 170.375 174.423C171.641 173.698 172.523 172.84 173.033 171.923V163.423Z" fill="#FFC654"/>
<path d="M173.01 157.308L171.029 153.298H166.091C163.823 152.884 161.368 152.884 159.118 153.298H154.18L152.211 157.248C150.921 159.478 151.779 162.014 154.84 163.782C159.136 166.276 166.067 166.276 170.363 163.782C173.4 162.038 174.276 159.514 172.986 157.302H172.998L173.01 157.308Z" fill="#DAE5F8"/>
<path d="M168.785 151.116C165.377 149.149 159.85 149.149 156.424 151.116C153.021 153.088 153.021 156.289 156.424 158.261C159.85 160.204 165.377 160.204 168.785 158.261C172.193 156.289 172.193 153.088 168.785 151.116Z" fill="white"/>
<path d="M157.301 154.281C157.301 155.048 157.841 155.828 158.891 156.427C160.943 157.626 164.279 157.626 166.344 156.427C167.376 155.828 167.886 155.054 167.886 154.281V150.69H157.301V154.281Z" fill="#B4CAED"/>
<path d="M166.343 148.55C164.279 147.345 160.943 147.345 158.89 148.55C156.802 149.737 156.802 151.679 158.89 152.854C160.943 154.047 164.279 154.047 166.343 152.854C168.395 151.679 168.395 149.737 166.343 148.55Z" fill="white"/>
<path d="M162.616 135.841C160.942 135.841 159.58 137.214 159.58 138.892V150.462C159.58 150.9 159.868 151.355 160.462 151.679C161.656 152.357 163.558 152.357 164.747 151.679C165.347 151.355 165.617 150.9 165.617 150.462V138.892C165.617 137.214 164.285 135.841 162.616 135.841Z" fill="#FFC654"/>
<path opacity="0.3" d="M190.255 151.026C187.255 149.269 182.346 149.269 179.31 151.026C176.328 152.752 176.328 155.576 179.31 157.332C182.346 159.059 187.255 159.059 190.255 157.332C193.279 155.576 193.279 152.758 190.255 151.026Z" fill="black"/>
<path d="M177.228 151.073V154.065C177.228 155.186 177.96 156.319 179.442 157.17C182.388 158.885 187.177 158.885 190.165 157.17C191.635 156.319 192.361 155.186 192.361 154.065V151.073H177.222H177.228Z" fill="#B4CAED"/>
<path d="M190.166 147.998C187.543 146.5 183.547 146.308 180.619 147.447V148.046L179.017 148.85L178.549 148.598C176.502 150.276 176.832 152.65 179.449 154.197C182.395 155.887 187.183 155.839 190.172 154.197C190.34 154.071 190.532 153.963 190.7 153.837L191.126 154.071V153.471C193.082 151.799 192.752 149.485 190.172 148.004L190.166 147.998Z" fill="white"/>
<path d="M180.619 148.04L179.017 148.844L189.692 154.982C189.692 154.982 190.634 154.533 191.12 154.065L190.694 153.831L180.619 148.04Z" fill="#B4CAED"/>
<path opacity="0.3" d="M208.869 137.106C206.055 135.457 201.44 135.457 198.584 137.106C195.782 138.73 195.782 141.38 198.584 143.029C201.44 144.647 206.055 144.647 208.869 143.029C211.707 141.38 211.707 138.73 208.869 137.106Z" fill="black"/>
<path d="M196.628 137.148V139.959C196.628 141.014 197.312 142.075 198.71 142.879C201.476 144.485 205.977 144.485 208.785 142.879C210.165 142.075 210.849 141.014 210.849 139.959V137.148H196.628Z" fill="#B4CAED"/>
<path d="M208.784 134.258C206.324 132.85 202.568 132.67 199.814 133.737V134.3L198.307 135.056L197.863 134.816C195.937 136.392 196.249 138.623 198.703 140.073C201.47 141.662 205.97 141.62 208.778 140.073C208.934 139.953 209.114 139.851 209.271 139.738L209.673 139.953V139.396C211.509 137.825 211.203 135.649 208.772 134.258H208.784Z" fill="white"/>
<path d="M199.815 134.294L198.309 135.05L208.336 140.817C208.336 140.817 209.224 140.391 209.68 139.953L209.278 139.738L199.815 134.294Z" fill="#B4CAED"/>
<path opacity="0.3" d="M206.379 147.219C203.565 145.57 198.95 145.57 196.094 147.219C193.292 148.844 193.292 151.493 196.094 153.142C198.95 154.76 203.565 154.76 206.379 153.142C209.223 151.493 209.223 148.844 206.379 147.219Z" fill="black"/>
<path d="M194.132 147.261V150.072C194.132 151.127 194.822 152.189 196.214 152.992C198.98 154.598 203.481 154.598 206.289 152.992C207.669 152.189 208.353 151.127 208.353 150.072V147.261H194.132Z" fill="#B4CAED"/>
<path d="M206.289 144.372C203.829 142.963 200.073 142.783 197.318 143.85V144.408L195.818 145.163L195.374 144.923C193.448 146.5 193.766 148.73 196.214 150.181C198.98 151.769 203.481 151.727 206.289 150.181C206.445 150.061 206.625 149.965 206.781 149.845L207.183 150.061V149.503C209.02 147.927 208.713 145.756 206.283 144.366L206.289 144.372Z" fill="white"/>
<path d="M197.324 144.407L195.824 145.163L205.851 150.93C205.851 150.93 206.739 150.504 207.195 150.067L206.793 149.851L197.33 144.407H197.324Z" fill="#B4CAED"/>
<path opacity="0.3" d="M201.003 178.026L197.049 175.73C195.254 174.723 192.8 174.771 191.552 175.844C190.256 176.929 190.634 178.607 192.404 179.627L196.365 181.916L200.289 184.188V184.218C202.071 185.22 204.537 185.184 205.822 184.105C207.1 183.026 206.734 181.347 204.975 180.304L201.003 178.038V178.026Z" fill="black"/>
<path d="M197.186 170.856V170.82C195.26 169.747 192.836 170.389 191.75 172.295C190.639 174.189 191.288 176.623 193.196 177.708L197.462 180.196C197.966 180.49 198.65 180.442 199.466 179.992C201.009 179.111 202.281 176.935 202.281 175.137C202.281 174.255 201.951 173.62 201.423 173.32L197.192 170.868L197.186 170.856Z" fill="white"/>
<path d="M201.417 173.308C200.961 173.014 200.223 173.074 199.461 173.494C197.906 174.411 196.616 176.563 196.616 178.362C196.616 179.261 196.94 179.89 197.45 180.19L201.717 182.666C203.607 183.775 206.079 183.103 207.183 181.203C208.245 179.303 207.591 176.893 205.725 175.778L201.411 173.308H201.417Z" fill="#FF8530"/>
<path d="M205.323 177.007C205.095 177.187 205.245 177.702 205.623 178.212C206.049 178.661 206.505 178.919 206.703 178.751C206.931 178.577 206.769 178.05 206.397 177.576C206.013 177.109 205.515 176.863 205.317 177.007H205.323Z" fill="#F5F5F5"/>
<path opacity="0.3" d="M130.573 196.508L134.288 194.344C135.962 193.403 138.272 193.445 139.454 194.452C140.673 195.471 140.324 197.053 138.65 198.001L134.93 200.159L131.246 202.293V202.317C129.571 203.258 127.243 203.222 126.043 202.209C124.843 201.196 125.179 199.613 126.847 198.636L130.573 196.502V196.508Z" fill="black"/>
<path d="M134.156 189.769V189.74C135.962 188.732 138.242 189.332 139.268 191.124C140.318 192.905 139.694 195.183 137.912 196.202L133.898 198.54C133.423 198.816 132.787 198.774 132.019 198.342C130.573 197.515 129.373 195.476 129.373 193.78C129.373 192.947 129.679 192.359 130.177 192.071L134.15 189.763L134.156 189.769Z" fill="#FF8530"/>
<path d="M130.183 192.078C130.615 191.796 131.306 191.856 132.02 192.246C133.484 193.103 134.69 195.129 134.69 196.826C134.69 197.677 134.39 198.258 133.898 198.54L129.895 200.866C128.119 201.909 125.797 201.274 124.759 199.493C123.757 197.707 124.375 195.447 126.121 194.398L130.183 192.078Z" fill="white"/>
<path opacity="0.3" d="M149.121 196.502L152.835 194.344C154.516 193.396 156.826 193.444 158.002 194.452C159.22 195.477 158.866 197.047 157.198 198.006L153.477 200.159L149.793 202.293V202.317C148.119 203.258 145.797 203.222 144.59 202.209C143.39 201.196 143.732 199.619 145.389 198.636L149.121 196.502Z" fill="black"/>
<path d="M152.709 189.77V189.734C154.516 188.726 156.796 189.332 157.816 191.118C158.86 192.899 158.248 195.183 156.46 196.202L152.451 198.54C151.977 198.816 151.335 198.768 150.567 198.348C149.115 197.515 147.921 195.477 147.921 193.786C147.921 192.959 148.233 192.365 148.731 192.078L152.703 189.776L152.709 189.77Z" fill="white"/>
<path d="M148.738 192.072C149.164 191.796 149.86 191.85 150.574 192.245C152.038 193.109 153.244 195.129 153.244 196.819C153.244 197.665 152.944 198.252 152.458 198.534L148.444 200.86C146.668 201.903 144.351 201.267 143.307 199.487C142.311 197.701 142.929 195.435 144.681 194.391L148.732 192.072H148.738Z" fill="#FF8530"/>
<path d="M145.064 195.548C145.275 195.716 145.137 196.202 144.782 196.681C144.386 197.101 143.954 197.347 143.762 197.185C143.546 197.023 143.696 196.526 144.05 196.082C144.416 195.644 144.878 195.417 145.064 195.548Z" fill="#F5F5F5"/>
<path opacity="0.3" d="M14.0537 106.413L53.2378 128.893L62.6228 123.474L23.4387 101L14.0537 106.413Z" fill="black"/>
<path d="M6.51704 67.5488C5.89897 67.1951 5.35892 67.1351 4.90287 67.3569V67.3329L4.87287 67.3689C4.87287 67.3689 4.82486 67.3869 4.78886 67.4049L4.05078 67.8425L4.2608 68.1362C4.2008 68.358 4.12279 68.6158 4.12279 68.9156V90.2988C4.12279 91.8215 5.2089 93.6379 6.51104 94.4112L35.176 110.921C36.4962 111.682 37.5343 111.065 37.5343 109.56V88.1827C37.5343 86.666 36.4962 84.8196 35.176 84.0703L6.51104 67.5428L6.51704 67.5488Z" fill="#808080"/>
<path d="M53.334 127.472L60.1807 123.534V97.3726L53.334 101.335V127.472Z" fill="#89C75B"/>
<path d="M53.334 127.472L60.1807 123.534V97.3726L53.334 101.335V127.472Z" fill="#89C75B"/>
<path d="M5.75501 67.9745C4.46488 67.2252 3.38477 67.8366 3.38477 69.3473V90.7246C3.38477 92.2412 4.46488 94.0696 5.75501 94.837L34.408 111.358C35.7281 112.108 36.7782 111.49 36.7782 109.998V88.6084C36.7782 87.0917 35.7281 85.2634 34.408 84.514L5.75501 67.9745Z" fill="#ADADAD"/>
<path d="M9.16426 72.2487C8.12615 71.6372 7.16005 71.5713 6.48198 71.9849L4.63379 73.04L10.0104 82.2899L11.8165 81.2348C12.5006 80.8332 12.9387 79.9879 12.9387 78.7889C12.9387 76.3731 11.2465 73.4656 9.16426 72.2547V72.2487Z" fill="#B4CAED"/>
<path d="M7.29769 73.2977C7.19568 73.2437 7.05766 73.1598 6.92565 73.0999V72.7642L6.55361 72.956C4.83143 72.3565 3.5293 73.3876 3.5293 75.4738C3.5293 77.56 4.83143 80.1077 6.55361 81.5105L6.92565 81.3007L7.99376 81.9841V82.3558C9.76995 82.9972 11.0841 81.9841 11.0841 79.8559C11.0841 77.4341 9.42791 74.5086 7.29769 73.3037V73.2977Z" fill="#F7F7F7"/>
<path d="M6.91992 73.1119V81.2947L7.98803 81.9781V73.2977C7.98803 73.2977 7.37597 72.8841 6.91992 72.7642V73.1119Z" fill="#B4CAED"/>
<path d="M17.587 77.0983C16.5489 76.4748 15.6008 76.4209 14.9107 76.8285L13.0625 77.9076L18.4211 87.1395L20.2452 86.0784C20.9233 85.6887 21.3554 84.8435 21.3554 83.6325C21.3554 81.2346 19.6632 78.2912 17.581 77.0983H17.587Z" fill="#B4CAED"/>
<path d="M15.7275 78.1534C15.5955 78.0875 15.4875 78.0096 15.3555 77.9616V77.6019L14.9834 77.7878C13.2553 77.2063 11.9531 78.2074 11.9531 80.3235C11.9531 82.4397 13.2553 84.9575 14.9834 86.3483L15.3555 86.1384L16.4176 86.8278V87.1935C18.1938 87.841 19.5139 86.8278 19.5139 84.6997C19.5139 82.2958 17.8097 79.3584 15.7335 78.1594L15.7275 78.1534Z" fill="#F7F7F7"/>
<path d="M15.3555 77.9675V86.1443L16.4176 86.8337V78.1413C16.4176 78.1413 15.7995 77.7277 15.3555 77.6078V77.9675Z" fill="#B4CAED"/>
<path d="M9.16426 85.8627C8.12615 85.2452 7.16005 85.1973 6.48198 85.5929L4.63379 86.648L10.0104 95.8919L11.8165 94.8368C12.5006 94.4592 12.9387 93.6139 12.9387 92.391C12.9387 89.9751 11.2465 87.0616 9.16426 85.8627Z" fill="#B4CAED"/>
<path d="M7.29769 86.9358C7.19568 86.8579 7.05766 86.768 6.92565 86.708V86.3723L6.55361 86.5701C4.83143 85.9946 3.5293 86.9898 3.5293 89.0879C3.5293 91.1861 4.83143 93.7219 6.55361 95.1186L6.92565 94.9088L7.99376 95.5982V95.9579C9.76995 96.6053 11.0841 95.5982 11.0841 93.4521C11.0841 91.0422 9.42791 88.1228 7.29769 86.9358Z" fill="#F7F7F7"/>
<path d="M6.91992 86.708V94.9028L7.98803 95.5922V86.8999C7.98803 86.8999 7.37597 86.5042 6.91992 86.3723V86.708Z" fill="#B4CAED"/>
<path d="M17.587 90.7124C16.5489 90.0889 15.6008 90.035 14.9107 90.4426L13.0625 91.4857L18.4211 100.754L20.2452 99.6925C20.9233 99.3029 21.3554 98.4516 21.3554 97.2347C21.3554 94.8368 19.6632 91.9054 17.581 90.7124H17.587Z" fill="#B4CAED"/>
<path d="M15.7275 91.7674C15.5955 91.6775 15.4875 91.6115 15.3555 91.5576V91.1979L14.9834 91.4017C13.2553 90.8202 11.9531 91.8333 11.9531 93.9615C11.9531 96.0896 13.2553 98.5534 14.9834 99.9622L15.3555 99.7524L16.4176 100.454V100.819C18.1938 101.449 19.5139 100.454 19.5139 98.2956C19.5139 95.8918 17.8097 92.9663 15.7335 91.7674H15.7275Z" fill="#F7F7F7"/>
<path d="M15.3555 91.5636V99.7524L16.4176 100.454V91.7554C16.4176 91.7554 15.7995 91.3417 15.3555 91.1979V91.5576V91.5636Z" fill="#B4CAED"/>
<path d="M17.4863 80.6292V106.772L53.3341 127.472V101.335L60.1808 97.3725L24.303 76.6907L17.4863 80.6292Z" fill="#9DE368"/>
<path d="M37.3301 104.47L48.6893 124.793L53.3337 127.472V101.335L48.7793 98.6794L37.3301 104.47Z" fill="#9DE368"/>
<path d="M17.4863 106.772L53.3341 127.472V119.907L17.4863 99.2251V106.772Z" fill="#89C75B"/>
<path d="M17.4863 87.9984L53.3341 108.698V101.133L17.4863 80.451V87.9984Z" fill="#89C75B"/>
<path d="M17.4863 98.0918L53.3341 118.768V117.299L17.4863 96.5991V98.0918Z" fill="#89C75B"/>
<path opacity="0.3" d="M10.3082 106.844C7.93792 105.483 4.12752 105.483 1.75128 106.862C-0.588967 108.211 -0.588967 110.393 1.75128 111.766C4.12152 113.127 7.93792 113.127 10.3082 111.766C12.6304 110.393 12.6424 108.211 10.3082 106.844Z" fill="black"/>
<path d="M0.682617 108.828C0.682617 109.596 1.21667 110.393 2.24878 110.992C4.349 112.203 7.71535 112.203 9.81557 110.992C10.8537 110.393 11.3577 109.596 11.3577 108.828V106.7H0.682617V108.828Z" fill="#B4CAED"/>
<path d="M9.81582 104.518C7.97962 103.451 5.16533 103.331 3.07711 104.129V104.548L1.955 105.136L1.64296 104.944C0.190812 106.137 0.400834 107.809 2.24903 108.882C4.34925 110.081 7.7336 110.081 9.81582 108.882C9.95983 108.798 10.0798 108.733 10.1879 108.643L10.4819 108.822L10.4999 108.391C11.874 107.204 11.628 105.585 9.81582 104.518Z" fill="#F7F7F7"/>
<path d="M3.07817 104.548L1.95605 105.136L9.49284 109.464C9.49284 109.464 10.1349 109.152 10.4829 108.822L10.1889 108.643L3.07817 104.548Z" fill="#B4CAED"/>
<path opacity="0.3" d="M14.3467 113.594C12.0065 112.221 8.17209 112.221 5.80185 113.594C3.4736 114.943 3.4736 117.143 5.80185 118.516C8.17209 119.865 12.0065 119.865 14.3467 118.516C16.705 117.143 16.705 114.943 14.3467 113.594Z" fill="black"/>
<path d="M4.74023 113.438V115.555C4.74023 116.352 5.25629 117.143 6.3004 117.743C8.37661 118.954 11.761 118.954 13.8672 117.743C14.9053 117.143 15.4213 116.346 15.4213 115.555V113.438H4.74023Z" fill="#B4CAED"/>
<path d="M13.8725 111.274C12.0243 110.213 9.19799 110.082 7.13378 110.885V111.304L6.00566 111.874L5.67563 111.7C4.23548 112.887 4.4635 114.56 6.31169 115.651C8.38791 116.844 11.7723 116.808 13.8785 115.651C13.9985 115.561 14.1305 115.483 14.2505 115.399L14.5506 115.561V115.141C15.9307 113.954 15.7027 112.324 13.8725 111.274Z" fill="#F7F7F7"/>
<path d="M7.13398 111.304L6.00586 111.874L13.5426 116.208C13.5426 116.208 14.2087 115.89 14.5507 115.561L14.2507 115.399L7.13998 111.304H7.13398Z" fill="#B4CAED"/>
<path opacity="0.3" d="M54.1854 134.198C51.8152 132.837 48.0108 132.855 45.6585 134.198C43.2883 135.553 43.2883 137.753 45.6585 139.12C48.0108 140.475 51.8152 140.475 54.1854 139.12C56.5377 137.753 56.5377 135.553 54.1854 134.198Z" fill="black"/>
<path d="M44.5723 136.165C44.5723 136.962 45.0943 137.759 46.1264 138.353C48.2266 139.564 51.605 139.564 53.6932 138.353C54.7433 137.759 55.2594 136.962 55.2594 136.165V134.048H44.5723V136.165Z" fill="#B4CAED"/>
<path d="M53.6937 131.884C51.8755 130.817 49.0553 130.685 46.985 131.489V131.908L45.8329 132.484L45.5209 132.298C44.0687 133.485 44.2728 135.163 46.1269 136.231C48.2272 137.447 51.6055 137.423 53.6937 136.231C53.8438 136.159 53.9638 136.081 54.0538 136.009L54.3658 136.165L54.3778 135.745C55.7399 134.552 55.5059 132.915 53.6937 131.884Z" fill="#F7F7F7"/>
<path d="M46.9842 131.908L45.832 132.484L53.3568 136.812C53.3568 136.812 54.0349 136.494 54.3649 136.165L54.0529 136.009L46.9782 131.908H46.9842Z" fill="#B4CAED"/>
<path opacity="0.3" d="M50.8675 140.241L47.4712 138.269C45.941 137.406 43.8348 137.448 42.7607 138.365C41.6506 139.3 41.9746 140.739 43.4927 141.602L46.8891 143.568L50.2555 145.517V145.541C51.7856 146.398 53.8978 146.368 55.0019 145.445C56.1001 144.521 55.788 143.077 54.2759 142.183L50.8735 140.241H50.8675Z" fill="black"/>
<path d="M47.5917 134.097V134.067C45.9415 133.143 43.8653 133.695 42.9292 135.326C41.9751 136.95 42.5331 139.036 44.1653 139.959L47.8197 142.094C48.2517 142.345 48.8398 142.303 49.5299 141.914C50.862 141.158 51.9481 139.294 51.9481 137.753C51.9481 136.998 51.6661 136.459 51.21 136.195L47.5857 134.091L47.5917 134.097Z" fill="#F7F7F7"/>
<path d="M51.2149 136.195C50.8249 135.943 50.1888 135.997 49.5347 136.351C48.2026 137.136 47.1045 138.988 47.1045 140.529C47.1045 141.302 47.3745 141.836 47.8186 142.094L51.4729 144.216C53.0931 145.169 55.2113 144.588 56.1534 142.963C57.0715 141.332 56.5075 139.27 54.9053 138.311L51.2089 136.195H51.2149Z" fill="#EB5C44"/>
<path d="M54.5639 139.366C54.3719 139.516 54.5039 139.96 54.822 140.397C55.188 140.787 55.578 141.009 55.7461 140.859C55.9381 140.715 55.8061 140.259 55.488 139.852C55.158 139.45 54.7319 139.246 54.5639 139.366Z" fill="#F5F5F5"/>
<path opacity="0.3" d="M41.7516 147.297C35.5769 143.73 25.5679 143.73 19.4052 147.297C13.2126 150.84 13.2126 156.637 19.4052 160.186C25.5679 163.752 35.5769 163.752 41.7756 160.186C47.9502 156.637 47.9502 150.84 41.7576 147.297H41.7516Z" fill="black"/>
<path d="M16.3086 152.908C16.3086 155.036 17.6947 157.122 20.497 158.741C26.0536 161.948 35.0665 161.948 40.6471 158.741C43.4434 157.122 44.8476 155.042 44.8476 152.908V130.553H16.3086V152.908Z" fill="#FFC654"/>
<path d="M40.6533 140.918C38.289 142.303 35.2527 143.106 32.1504 143.292V156.499C35.2527 156.307 38.283 155.51 40.6533 154.155C43.4496 152.524 44.8537 150.444 44.8537 148.31V135.085C44.8537 137.214 43.4556 139.336 40.6533 140.918Z" fill="#F7F7F7"/>
<path d="M14.5508 129.259C14.5508 131.627 16.1289 133.989 19.2673 135.829C25.5439 139.432 35.733 139.432 42.0096 135.829C45.142 133.989 46.6901 131.633 46.6901 129.259V123.162H14.5508V129.259Z" fill="#B4CAED"/>
<path d="M41.9736 116.616C35.7269 112.995 25.5379 112.995 19.2612 116.616C12.9845 120.237 12.9845 126.105 19.2612 129.732C25.5379 133.335 35.7269 133.335 42.0036 129.732C48.2562 126.105 48.2562 120.231 41.9736 116.616Z" fill="#F7F7F7"/>
<path opacity="0.3" d="M19.3104 163.872C17.6483 162.925 14.984 162.925 13.3218 163.872C11.6597 164.832 11.6597 166.378 13.3218 167.319C14.984 168.285 17.6543 168.285 19.3104 167.319C20.9726 166.378 20.9726 164.832 19.3104 163.872Z" fill="black"/>
<path d="M13.9038 156.349C13.2617 156.745 12.8896 157.248 12.8896 157.74V161.96C12.8896 163.854 14.4318 165.377 16.316 165.377C18.2002 165.377 19.7124 163.854 19.7124 161.96L19.7304 157.74C19.7304 157.248 19.3883 156.745 18.7343 156.349C17.4021 155.582 15.2419 155.582 13.9098 156.349H13.9038Z" fill="#F7F7F7"/>
<path d="M16.3101 150.115C14.426 150.115 12.8838 151.637 12.8838 153.526V157.734C12.8838 158.237 13.2558 158.735 13.8979 159.119C15.23 159.898 17.3903 159.898 18.7224 159.119C19.3765 158.735 19.7185 158.237 19.7185 157.734L19.7005 153.526H19.7185C19.7185 151.637 18.2003 150.115 16.3041 150.115H16.3101Z" fill="#EB5C44"/>
<path d="M13.9342 152.237C13.7722 152.746 13.7722 153.208 13.9942 153.298C14.2043 153.37 14.5463 153.034 14.7323 152.53C14.9123 152.039 14.8943 151.589 14.6843 151.499C14.4503 151.421 14.1503 151.751 13.9402 152.237H13.9342Z" fill="#F5F5F5"/>
<path opacity="0.3" d="M55.9618 174.921C54.3116 173.973 51.5993 173.973 49.9911 174.921C48.311 175.88 48.311 177.432 49.9791 178.38C51.5993 179.321 54.3116 179.321 55.9618 178.38C57.5939 177.432 57.5939 175.88 55.9618 174.921Z" fill="black"/>
<path d="M50.5481 167.391C49.8761 167.763 49.54 168.273 49.54 168.788V173.002C49.54 174.879 51.0642 176.413 52.9664 176.413C54.8686 176.413 56.3508 174.879 56.3508 173.002V168.788C56.3508 168.273 56.0207 167.763 55.3726 167.391C54.0465 166.624 51.8863 166.624 50.5481 167.391Z" fill="#F7F7F7"/>
<path d="M52.9664 161.163C51.0642 161.163 49.54 162.673 49.54 164.556V168.788C49.54 169.285 49.8761 169.795 50.5481 170.167C51.8863 170.952 54.0405 170.952 55.3606 170.167C56.0147 169.795 56.3448 169.291 56.3448 168.788V164.568C56.3448 162.673 54.8146 161.163 52.9604 161.163H52.9664Z" fill="#EB5C44"/>
<path d="M50.5913 163.297C50.3993 163.776 50.4113 164.256 50.6394 164.334C50.8554 164.406 51.1854 164.076 51.3774 163.584C51.5695 163.093 51.5274 162.625 51.3234 162.535C51.0834 162.445 50.7714 162.799 50.5913 163.297Z" fill="#F5F5F5"/>
<path opacity="0.3" d="M33.6628 165.683L30.2664 163.722C28.7663 162.871 26.6301 162.901 25.544 163.83C24.4458 164.742 24.7819 166.204 26.3 167.074L29.6964 169.034L33.0807 170.982C34.5809 171.845 36.7051 171.821 37.8272 170.892C38.9073 169.969 38.5653 168.512 37.0712 167.643L33.6688 165.683H33.6628Z" fill="black"/>
<path d="M30.4105 159.55C28.7664 158.603 26.6661 159.142 25.718 160.773C24.7999 162.404 25.358 164.49 26.9482 165.431L30.6265 167.559C31.0706 167.793 31.6767 167.769 32.3487 167.385C33.6689 166.606 34.773 164.76 34.773 163.207C34.773 162.44 34.491 161.9 34.0469 161.648L30.4105 159.544V159.55Z" fill="#F7F7F7"/>
<path d="M37.7068 163.77L34.0404 161.648C33.6084 161.396 33.0263 161.444 32.3362 161.822C31.0041 162.577 29.918 164.46 29.918 166C29.918 166.75 30.176 167.295 30.614 167.559L34.2684 169.657V169.669C35.9186 170.622 37.9828 170.047 38.9309 168.422C39.879 166.81 39.345 164.729 37.7008 163.776L37.7068 163.77Z" fill="#EB5C44"/>
<path d="M37.347 164.832C37.1669 164.975 37.305 165.431 37.641 165.833C37.977 166.246 38.4151 166.456 38.5591 166.318C38.7511 166.168 38.6191 165.719 38.2891 165.305C37.965 164.892 37.545 164.676 37.353 164.826L37.347 164.832Z" fill="#F5F5F5"/>
<path d="M96.1899 200.44L131.324 180.172C131.948 179.818 132.266 179.345 132.284 178.871V178.847C132.284 178.847 132.284 178.829 132.284 178.817V177.738L130.885 177.702L111.533 166.54C110.243 165.797 108.161 165.797 106.877 166.54L71.7433 186.802C71.6473 186.862 71.5573 186.916 71.4793 186.976L70.7832 186.736V187.653C70.7832 187.653 70.7832 187.689 70.7832 187.707V187.737C70.8072 188.205 71.1252 188.667 71.7433 189.02L91.5334 200.434C92.8235 201.178 94.9057 201.178 96.1899 200.434V200.44Z" fill="#B4CAED"/>
<path d="M71.7432 185.399L106.877 165.137C108.161 164.394 110.249 164.394 111.533 165.137L131.329 176.551C132.614 177.295 132.614 178.499 131.329 179.237L96.1958 199.505C94.9056 200.248 92.8234 200.242 91.5393 199.505L71.7492 188.091C70.4651 187.348 70.4651 186.143 71.7492 185.405L71.7432 185.399Z" fill="white"/>
<path d="M116.861 176.132L105.916 182.444C104.416 183.313 104.416 184.716 105.916 185.585C107.422 186.455 109.859 186.455 111.365 185.585L122.31 179.273C123.81 178.404 123.81 177.001 122.31 176.132C120.804 175.262 118.367 175.262 116.867 176.132H116.861Z" fill="#8DD5FF"/>
<path d="M101.278 177.84L95.1276 174.291L94.3955 174.717L100.54 178.266L101.278 177.84Z" fill="#383838"/>
<path d="M103.295 176.677L97.1382 173.134L95.9561 173.812L102.107 177.361L103.295 176.677Z" fill="#383838"/>
<path d="M99.8438 178.668L93.6932 175.119L93.3271 175.328L99.4778 178.877L99.8438 178.668Z" fill="#383838"/>
<path d="M98.1043 179.669L91.9536 176.12L91.6416 176.306L97.7922 179.854L98.1043 179.669Z" fill="#383838"/>
<path d="M98.6617 179.351L92.5111 175.802L92.2471 175.952L98.3977 179.501L98.6617 179.351Z" fill="#383838"/>
<path d="M104.536 175.958L98.3856 172.415L98.0195 172.625L104.17 176.174L104.536 175.958Z" fill="#383838"/>
<path d="M109.079 173.344L102.929 169.795L102.562 170.005L108.713 173.554L109.079 173.344Z" fill="#383838"/>
<path d="M108.497 173.68L102.346 170.131L101.62 170.544L107.771 174.093L108.497 173.68Z" fill="#383838"/>
<path d="M106.714 174.705L100.564 171.156L100.264 171.33L106.414 174.879L106.714 174.705Z" fill="#383838"/>
<path d="M105.664 175.31L99.513 171.762L98.6309 172.271L104.782 175.82L105.664 175.31Z" fill="#383838"/>
<path d="M97.4853 180.028L91.3346 176.479L91.0166 176.665L97.1672 180.214L97.4853 180.028Z" fill="#383838"/>
<path d="M110.963 172.253L104.812 168.704L103.63 169.388L109.787 172.931L110.963 172.253Z" fill="#383838"/>
<path d="M89.5953 184.578L83.4447 181.029L82.6826 181.473L88.8333 185.022L89.5953 184.578Z" fill="#383838"/>
<path d="M87.8007 185.615L81.6501 182.067L81.374 182.222L87.5247 185.771L87.8007 185.615Z" fill="#383838"/>
<path d="M87.2061 185.957L81.0555 182.408L80.3174 182.834L86.468 186.383L87.2061 185.957Z" fill="#383838"/>
<path d="M86.1384 186.575L79.9878 183.026L78.8057 183.709L84.9563 187.258L86.1384 186.575Z" fill="#383838"/>
<path d="M91.461 183.505L85.3103 179.956L84.5723 180.382L90.7229 183.931L91.461 183.505Z" fill="#383838"/>
<path d="M90.1464 184.26L83.9958 180.712L83.7197 180.873L89.8704 184.422L90.1464 184.26Z" fill="#383838"/>
<path d="M95.1814 181.359L89.0248 177.81L87.8486 178.494L93.9993 182.042L95.1814 181.359Z" fill="#383838"/>
<path d="M93.4052 182.378L87.2545 178.835L86.9785 178.991L93.1292 182.54L93.4052 182.378Z" fill="#383838"/>
<path d="M96.3876 180.664L90.231 177.115L89.9609 177.27L96.1116 180.819L96.3876 180.664Z" fill="#383838"/>
<path d="M92.8587 182.696L86.7081 179.147L86.4141 179.315L92.5647 182.864L92.8587 182.696Z" fill="#383838"/>
<path d="M91.3181 194.206C89.0919 192.923 89.0919 190.843 91.3181 189.56C93.5443 188.277 97.1507 188.277 99.377 189.56C101.603 190.843 101.603 192.923 99.377 194.206C97.1507 195.489 93.5443 195.489 91.3181 194.206Z" fill="#EB5C44"/>
<path d="M93.0757 194.164L95.3439 192.857L97.6182 194.164L99.2923 193.193L97.0241 191.886L99.2923 190.573L97.6182 189.608L95.3439 190.915L93.0757 189.608L91.3955 190.573L93.6698 191.886L91.3955 193.193L93.0757 194.164Z" fill="white"/>
<path d="M104.267 178.38L115.236 172.055L116.076 172.541L105.107 178.871L104.267 178.38Z" fill="#666666"/>
<path d="M83.1201 190.579L103.186 179.003L104.026 179.495L83.9662 191.065L83.1201 190.579Z" fill="#666666"/>
</g>
<defs>
<clipPath id="clip0_997_9731">
<rect width="211" height="203" fill="white"/>
</clipPath>
</defs>
</svg>
