<svg width="182" height="191" viewBox="0 0 182 191" fill="none" xmlns="http://www.w3.org/2000/svg">
<g clip-path="url(#clip0_997_9545)">
<path d="M179.361 68.1931H111.293V0.123962H68.8865V68.1931H0.817383V110.597H68.8865V178.666H111.293V110.597H179.361V68.1931Z" fill="url(#paint0_linear_997_9545)"/>
<path d="M92.1137 74.8485H17.647C15.3081 74.8485 13.4121 76.7445 13.4121 79.0834V136.93C13.4121 139.269 15.3081 141.165 17.647 141.165H92.1137C94.4526 141.165 96.3486 139.269 96.3486 136.93V79.0834C96.3486 76.7445 94.4526 74.8485 92.1137 74.8485Z" fill="url(#paint1_linear_997_9545)"/>
<path d="M62.263 98.6878C59.804 97.5243 56.9603 98.143 55.1907 100.022C54.7623 100.477 54.3963 101.005 54.1145 101.601C53.2609 103.405 53.3669 105.417 54.2258 107.059C54.8215 108.197 55.7781 109.158 57.0289 109.75C57.1537 109.809 57.2785 109.863 57.4053 109.913C57.9772 110.139 58.5657 110.272 59.1531 110.319C61.6163 110.518 64.0576 109.202 65.1774 106.836C66.6227 103.782 65.3178 100.133 62.263 98.6878ZM63.7925 106.181C62.9534 107.955 61.1224 108.942 59.2758 108.793C58.836 108.758 58.3941 108.658 57.9657 108.488C57.8711 108.451 57.7765 108.41 57.684 108.366C56.7461 107.922 56.0287 107.202 55.5826 106.349C54.938 105.118 54.859 103.609 55.4995 102.256C55.7105 101.81 55.985 101.413 56.3063 101.072C57.633 99.6631 59.7655 99.1994 61.609 100.072C63.8996 101.155 64.878 103.891 63.7935 106.181H63.7925Z" fill="#4AAFFF"/>
<path d="M55.5817 106.35L54.2248 107.061C53.366 105.419 53.2599 103.407 54.1135 101.603C54.3953 101.008 54.7613 100.478 55.1897 100.024L56.3043 101.074C55.983 101.415 55.7096 101.812 55.4974 102.258C54.857 103.611 54.937 105.119 55.5806 106.351L55.5817 106.35Z" fill="#1A598C"/>
<path d="M57.9656 108.488L57.4051 109.914C57.2793 109.864 57.1535 109.81 57.0287 109.751C55.7779 109.159 54.8214 108.198 54.2256 107.06L55.5825 106.349C56.0285 107.201 56.7459 107.922 57.6838 108.366C57.7774 108.409 57.8709 108.451 57.9656 108.488Z" fill="#2273B5"/>
<path d="M65.1787 88.202C66.3421 85.743 65.7235 82.8993 63.8447 81.1296C63.3892 80.7012 62.8611 80.3353 62.2653 80.0535C60.4613 79.1998 58.4494 79.3059 56.8076 80.1647C55.6691 80.7605 54.7084 81.7171 54.1168 82.9679C54.0575 83.0927 54.0035 83.2185 53.9535 83.3443C53.7279 83.9161 53.5948 84.5046 53.547 85.0921C53.3484 87.5553 54.6647 89.9966 57.0302 91.1164C60.0849 92.5616 63.7334 91.2568 65.1787 88.202ZM57.6852 89.7314C55.9114 88.8924 54.9247 87.0614 55.0734 85.2148C55.1087 84.775 55.2085 84.3331 55.378 83.9047C55.4154 83.8101 55.456 83.7155 55.5007 83.6229C55.9447 82.6851 56.6642 81.9677 57.5178 81.5216C58.7489 80.877 60.2575 80.7979 61.6102 81.4384C62.0563 81.6495 62.4535 81.924 62.7945 82.2453C64.2034 83.572 64.6671 85.7045 63.7948 87.548C62.7113 89.8385 59.9758 90.8169 57.6852 89.7335V89.7314Z" fill="#4AAFFF"/>
<path d="M57.5169 81.5216L56.8057 80.1647C58.4474 79.3059 60.4593 79.1998 62.2633 80.0535C62.8591 80.3353 63.3883 80.7012 63.8427 81.1296L62.7925 82.2442C62.4515 81.9229 62.0543 81.6495 61.6083 81.4374C60.2555 80.7969 58.7479 80.877 57.5158 81.5206L57.5169 81.5216Z" fill="#4AAFFF"/>
<path d="M55.3776 83.9048L53.9521 83.3443C54.0021 83.2185 54.0561 83.0927 54.1154 82.968C54.707 81.7171 55.6677 80.7606 56.8063 80.1648L57.5174 81.5217C56.6638 81.9677 55.9443 82.6851 55.5003 83.623C55.4567 83.7166 55.4151 83.8102 55.3776 83.9048Z" fill="#2273B5"/>
<path d="M53.5469 85.0921C53.5937 84.5046 53.7278 83.9161 53.9534 83.3442L55.3789 83.9047C55.2094 84.3341 55.1096 84.7749 55.0743 85.2147L53.5479 85.091L53.5469 85.0921Z" fill="#3788CC"/>
<path d="M72.2824 79.464H70.3516V110.339H72.2824V79.464Z" fill="url(#paint2_linear_997_9545)"/>
<path d="M77.424 79.464H75.4932V110.339H77.424V79.464Z" fill="url(#paint3_linear_997_9545)"/>
<path d="M82.5646 79.464H80.6338V110.339H82.5646V79.464Z" fill="url(#paint4_linear_997_9545)"/>
<path d="M87.7062 79.464H85.7754V110.339H87.7062V79.464Z" fill="url(#paint5_linear_997_9545)"/>
<path d="M57.7647 114.354H46.3389V114.126H57.538V109.809H57.7647V114.354Z" fill="#E2F3FE"/>
<path d="M36.2479 114.354H21.3857V114.126H36.0202V107.06H36.2479V114.354Z" fill="#E2F3FE"/>
<path d="M31.6117 111.763H21.3857V113.126H31.6117V111.763Z" fill="#4AAFFF"/>
<path d="M52.3538 111.763H46.3389V113.126H52.3538V111.763Z" fill="#4AAFFF"/>
<path d="M77.6188 122.116H19.1943V123.719H77.6188V122.116Z" fill="white"/>
<path d="M81.9587 125.855H19.1943V127.458H81.9587V125.855Z" fill="white"/>
<path d="M67.0913 129.593H19.1943V131.196H67.0913V129.593Z" fill="white"/>
<path d="M54.7662 122.116H19.1943V123.719H54.7662V122.116Z" fill="#2273B5"/>
<path d="M57.6296 125.855H19.1943V127.458H57.6296V125.855Z" fill="#2273B5"/>
<path d="M44.1337 129.593H19.1943V131.196H44.1337V129.593Z" fill="#2273B5"/>
<path d="M102.451 73.9189H142.352C144.189 73.9189 145.679 75.4099 145.679 77.2451V124.663C145.679 126.499 144.188 127.989 142.352 127.989H102.451C100.615 127.989 99.125 126.498 99.125 124.663V77.2451C99.125 75.4089 100.616 73.9189 102.451 73.9189Z" fill="url(#paint6_linear_997_9545)"/>
<path d="M127.387 96.3453C125.606 91.3649 120.846 88.306 115.829 88.4567C114.615 88.4931 113.385 88.7177 112.179 89.1492C108.525 90.4562 105.904 93.3675 104.828 96.8059C104.081 99.189 104.077 101.826 104.982 104.359C105.073 104.61 105.171 104.859 105.276 105.1C105.752 106.197 106.378 107.189 107.12 108.061C110.233 111.721 115.4 113.268 120.192 111.555C126.378 109.342 129.601 102.533 127.388 96.3453H127.387ZM119.189 108.751C115.595 110.036 111.723 108.876 109.388 106.132C108.832 105.478 108.363 104.734 108.005 103.912C107.926 103.73 107.853 103.545 107.785 103.355C107.106 101.457 107.109 99.4801 107.668 97.6928C108.475 95.1142 110.439 92.9318 113.179 91.9524C114.083 91.629 115.005 91.4606 115.915 91.4325C119.676 91.3192 123.246 93.6128 124.581 97.3466C126.239 101.986 123.824 107.09 119.185 108.749L119.189 108.751Z" fill="#4AAFFF"/>
<path d="M107.671 97.6939L104.828 96.806C105.904 93.3675 108.525 90.4562 112.179 89.1493C113.385 88.7178 114.615 88.4932 115.83 88.4568L115.918 91.4336C115.007 91.4617 114.086 91.6301 113.181 91.9535C110.442 92.9329 108.478 95.1153 107.671 97.6939Z" fill="#1A598C"/>
<path d="M108.006 103.912L105.276 105.1C105.171 104.858 105.073 104.61 104.982 104.359C104.077 101.826 104.081 99.189 104.828 96.8059L107.67 97.6939C107.111 99.4801 107.108 101.457 107.787 103.356C107.854 103.546 107.928 103.731 108.007 103.913L108.006 103.912Z" fill="#2273B5"/>
<path d="M107.119 108.061C106.377 107.189 105.752 106.197 105.274 105.1L108.005 103.911C108.361 104.734 108.83 105.478 109.388 106.132L107.119 108.061Z" fill="#3788CC"/>
<path d="M137.702 103.613C135.725 102.677 133.437 103.174 132.014 104.686C131.67 105.052 131.375 105.477 131.149 105.957C130.463 107.408 130.547 109.026 131.238 110.347C131.718 111.261 132.487 112.034 133.492 112.51C133.592 112.558 133.693 112.602 133.795 112.641C134.256 112.823 134.729 112.93 135.201 112.968C137.181 113.128 139.145 112.069 140.046 110.166C141.208 107.709 140.159 104.775 137.702 103.612V103.613ZM138.932 109.64C138.258 111.066 136.785 111.86 135.299 111.74C134.946 111.711 134.59 111.631 134.245 111.494C134.169 111.464 134.093 111.432 134.018 111.396C133.265 111.039 132.688 110.46 132.329 109.774C131.811 108.784 131.747 107.57 132.261 106.483C132.431 106.124 132.651 105.805 132.91 105.53C133.977 104.397 135.691 104.024 137.175 104.726C139.018 105.597 139.804 107.797 138.932 109.64Z" fill="#4AAFFF"/>
<path d="M132.33 109.775L131.239 110.347C130.548 109.026 130.464 107.408 131.15 105.957C131.376 105.477 131.671 105.052 132.015 104.686L132.911 105.53C132.653 105.805 132.433 106.124 132.262 106.483C131.748 107.57 131.811 108.784 132.33 109.774V109.775Z" fill="#1A598C"/>
<path d="M134.246 111.495L133.795 112.641C133.693 112.602 133.592 112.557 133.492 112.51C132.487 112.034 131.717 111.261 131.238 110.347L132.329 109.775C132.688 110.461 133.265 111.04 134.019 111.397C134.093 111.432 134.169 111.465 134.245 111.495H134.246Z" fill="#2273B5"/>
<path d="M140.045 95.1797C140.981 93.2021 140.483 90.9147 138.972 89.4913C138.606 89.1471 138.181 88.8528 137.702 88.6262C136.25 87.94 134.632 88.0242 133.312 88.7156C132.397 89.1949 131.624 89.9643 131.148 90.9698C131.1 91.0696 131.057 91.1704 131.017 91.2723C130.835 91.7329 130.728 92.206 130.691 92.6781C130.531 94.6588 131.589 96.6229 133.493 97.5233C135.95 98.6857 138.884 97.6366 140.046 95.1797H140.045ZM134.019 96.4097C132.592 95.7349 131.798 94.2627 131.919 92.7769C131.948 92.4223 132.028 92.0677 132.164 91.7225C132.194 91.6466 132.226 91.5707 132.263 91.4959C132.619 90.7421 133.199 90.165 133.885 89.8063C134.875 89.2885 136.088 89.224 137.176 89.7398C137.534 89.9092 137.854 90.1297 138.128 90.3886C139.261 91.4553 139.635 93.1699 138.933 94.6536C138.061 96.496 135.861 97.2821 134.02 96.4108L134.019 96.4097Z" fill="#4AAFFF"/>
<path d="M133.883 89.8073L133.312 88.7166C134.632 88.0251 136.25 87.9409 137.701 88.6272C138.181 88.8538 138.606 89.1481 138.972 89.4922L138.128 90.3885C137.853 90.1306 137.534 89.9102 137.175 89.7397C136.088 89.225 134.874 89.2884 133.884 89.8062L133.883 89.8073Z" fill="#4AAFFF"/>
<path d="M132.163 91.7236L131.017 91.2723C131.057 91.1704 131.101 91.0696 131.148 90.9697C131.624 89.9643 132.396 89.1939 133.311 88.7156L133.883 89.8063C133.197 90.165 132.618 90.742 132.261 91.4959C132.226 91.5707 132.193 91.6466 132.162 91.7225L132.163 91.7236Z" fill="#2273B5"/>
<path d="M130.69 92.679C130.729 92.207 130.836 91.7339 131.017 91.2733L132.164 91.7246C132.028 92.0698 131.947 92.4243 131.918 92.7789L130.69 92.679Z" fill="#3788CC"/>
<path d="M134.085 116.212H124.896V116.029H133.903V112.557H134.085V116.212Z" fill="#E2F3FE"/>
<path d="M116.779 116.212H104.827V116.029H116.597V110.347H116.779V116.212Z" fill="#E2F3FE"/>
<path d="M113.052 114.128H104.827V115.224H113.052V114.128Z" fill="#4AAFFF"/>
<path d="M129.732 114.128H124.896V115.224H129.732V114.128Z" fill="#4AAFFF"/>
<path d="M106.9 78.5604H102.964V79.4016H106.9V78.5604Z" fill="#4AAFFF"/>
<path d="M125.479 81.7274H119.373V82.5686H125.479V81.7274Z" fill="#4AAFFF"/>
<path d="M115.204 81.7274H111.476V82.5686H115.204V81.7274Z" fill="#4AAFFF"/>
<path d="M110.35 81.7274H102.964V82.5686H110.35V81.7274Z" fill="#4AAFFF"/>
<path d="M113.931 78.5604H108.099V79.4016H113.931V78.5604Z" fill="#4AAFFF"/>
<path d="M117.973 81.7274H116.371V82.5686H117.973V81.7274Z" fill="#4AAFFF"/>
<path d="M125.48 78.6062H121.123V79.4474H125.48V78.6062Z" fill="#4AAFFF"/>
<path d="M130.747 81.7274H127.032V82.5686H130.747V81.7274Z" fill="#4AAFFF"/>
<path d="M119.984 78.6062H115.365V79.4474H119.984V78.6062Z" fill="#4AAFFF"/>
<path d="M48.5444 27.1771H155.643C159.045 27.1771 161.805 29.9377 161.805 33.3387V65.3546C161.805 68.7556 159.045 71.5161 155.643 71.5161H48.5444C45.1433 71.5161 42.3828 68.7556 42.3828 65.3546V33.3387C42.3828 29.9377 45.1433 27.1771 48.5444 27.1771Z" fill="url(#paint7_linear_997_9545)"/>
<path d="M151.62 39.9047H137.025V41.3697H151.62V39.9047Z" fill="#B8D6FF"/>
<path d="M153.801 44.438H137.025V45.902H153.801V44.438Z" fill="#B8D6FF"/>
<path d="M145.679 48.9463H137V50.4113H145.679V48.9463Z" fill="#B8D6FF"/>
<path d="M150.372 53.4536H137V54.9186H150.372V53.4536Z" fill="#B8D6FF"/>
<path d="M70.9741 67.4424H57.9658V69.0446H70.9741V67.4424Z" fill="#D6D6D6"/>
<path d="M74.1311 64.5883H54.8105V66.1905H74.1311V64.5883Z" fill="#D6D6D6"/>
<path d="M64.499 45.9477C66.3538 45.9477 67.8574 44.4441 67.8574 42.5893C67.8574 40.7345 66.3538 39.2309 64.499 39.2309C62.6442 39.2309 61.1406 40.7345 61.1406 42.5893C61.1406 44.4441 62.6442 45.9477 64.499 45.9477Z" fill="url(#paint8_linear_997_9545)"/>
<path d="M70.5584 53.539V59.9272C68.7035 60.7704 66.6406 61.2404 64.4696 61.2404C62.2986 61.2404 60.2368 60.7714 58.3809 59.9272V53.539C58.3809 50.1774 61.106 47.4502 64.4696 47.4502C67.8332 47.4502 70.5584 50.1774 70.5584 53.539Z" fill="url(#paint9_linear_997_9545)"/>
<path d="M116.777 37.6214H85.4902V39.6385H116.777V37.6214Z" fill="white"/>
<path d="M132.297 37.6214H120.139V39.6385H132.297V37.6214Z" fill="white"/>
<path d="M100.182 33.0289H85.4902V35.046H100.182V33.0289Z" fill="white"/>
<path d="M64.4703 61.6385C62.2879 61.6385 60.1845 61.1852 58.2162 60.2899C52.8231 57.8392 49.3389 52.4294 49.3389 46.507C49.3389 38.1641 56.1263 31.3756 64.4703 31.3756C72.8143 31.3756 79.6017 38.1631 79.6017 46.507C79.6017 52.4284 76.1175 57.8382 70.7244 60.2899C68.7572 61.1852 66.6527 61.6385 64.4703 61.6385ZM64.4703 32.1752C56.5672 32.1752 50.1374 38.605 50.1374 46.5081C50.1374 52.1175 53.4386 57.2414 58.5469 59.5632C60.4101 60.4105 62.4022 60.84 64.4703 60.84C66.5384 60.84 68.5305 60.4105 70.3937 59.5632C75.502 57.2414 78.8032 52.1165 78.8032 46.5081C78.8032 38.605 72.3734 32.1752 64.4703 32.1752Z" fill="url(#paint10_linear_997_9545)"/>
<path d="M88.5114 43.4606H87.7129V62.8322H88.5114V43.4606Z" fill="#C9E0FF"/>
<path d="M92.1823 43.4606H91.3838V62.8322H92.1823V43.4606Z" fill="#C9E0FF"/>
<path d="M95.8532 43.4606H95.0547V62.8322H95.8532V43.4606Z" fill="#C9E0FF"/>
<path d="M99.5241 43.4606H98.7256V62.8322H99.5241V43.4606Z" fill="#C9E0FF"/>
<path d="M103.193 43.4606H102.395V62.8322H103.193V43.4606Z" fill="#C9E0FF"/>
<path d="M106.866 43.4606H106.067V62.8322H106.866V43.4606Z" fill="#C9E0FF"/>
<path d="M110.535 43.4606H109.736V62.8322H110.535V43.4606Z" fill="#C9E0FF"/>
<path d="M114.205 43.4606H113.406V62.8322H114.205V43.4606Z" fill="#C9E0FF"/>
<path d="M117.877 43.4606H117.078V62.8322H117.877V43.4606Z" fill="#C9E0FF"/>
<path d="M121.548 43.4606H120.749V62.8322H121.548V43.4606Z" fill="#C9E0FF"/>
<path d="M125.217 43.4606H124.419V62.8322H125.217V43.4606Z" fill="#C9E0FF"/>
<path d="M128.888 43.4606H128.09V62.8322H128.888V43.4606Z" fill="#C9E0FF"/>
<path d="M88.5114 49.252H87.7129V62.8321H88.5114V49.252Z" fill="#FF6559"/>
<path d="M92.1823 53.9443H91.3838V62.8311H92.1823V53.9443Z" fill="#FF6559"/>
<path d="M95.8532 46.2565H95.0547V62.8321H95.8532V46.2565Z" fill="#FF6559"/>
<path d="M99.5241 58.0056H98.7256V62.8321H99.5241V58.0056Z" fill="#FF6559"/>
<path d="M103.193 53.1459H102.395V62.8311H103.193V53.1459Z" fill="#FF6559"/>
<path d="M106.866 49.5182H106.067V62.8321H106.866V49.5182Z" fill="#FF6559"/>
<path d="M110.535 54.2438H109.736V62.831H110.535V54.2438Z" fill="#FF6559"/>
<path d="M114.205 48.286H113.406V62.831H114.205V48.286Z" fill="#FF6559"/>
<path d="M117.877 54.8427H117.078V62.831H117.877V54.8427Z" fill="#FF6559"/>
<path d="M121.548 50.0505H120.749V62.8311H121.548V50.0505Z" fill="#FF6559"/>
<path d="M125.217 56.4408H124.419V62.8311H125.217V56.4408Z" fill="#FF6559"/>
<path d="M128.888 50.0505H128.09V62.8311H128.888V50.0505Z" fill="#FF6559"/>
<path d="M122.617 20.1245L117.553 15.0599C117.051 14.5588 117.051 13.7446 117.553 13.2435L126.528 4.26839C127.029 3.76723 127.843 3.76723 128.344 4.26839L133.409 9.33299C133.909 9.83415 133.909 10.6483 133.409 11.1494L124.434 20.1245C123.933 20.6257 123.118 20.6257 122.617 20.1245ZM128.141 4.4701C127.753 4.08123 127.119 4.08123 126.73 4.4701L117.755 13.4452C117.367 13.8341 117.367 14.4673 117.755 14.8561L122.82 19.9207C123.209 20.3096 123.842 20.3096 124.231 19.9207L133.206 10.9456C133.595 10.5568 133.595 9.92357 133.206 9.5347L128.141 4.4701Z" fill="#4AAFFF"/>
<path d="M119.904 14.7709C119.345 14.2115 119.345 13.3028 119.904 12.7434C120.463 12.184 121.373 12.184 121.931 12.7434C122.49 13.3028 122.491 14.2126 121.931 14.7709C121.372 15.3303 120.463 15.3303 119.904 14.7709ZM121.729 12.9461C121.282 12.499 120.554 12.499 120.107 12.9461C119.66 13.3932 119.66 14.1211 120.107 14.5681C120.554 15.0152 121.282 15.0152 121.729 14.5681C122.176 14.1211 122.176 13.3932 121.729 12.9461Z" fill="#4AAFFF"/>
<path d="M122.964 11.7088C122.405 11.1494 122.405 10.2397 122.964 9.68132C123.524 9.12193 124.433 9.12193 124.992 9.68132C125.551 10.2407 125.551 11.1494 124.992 11.7088C124.433 12.2682 123.523 12.2682 122.964 11.7088ZM124.789 9.88407C124.342 9.43698 123.614 9.43698 123.167 9.88407C122.72 10.3312 122.72 11.059 123.167 11.5061C123.614 11.9532 124.342 11.9532 124.789 11.5061C125.236 11.059 125.236 10.3312 124.789 9.88407Z" fill="#4AAFFF"/>
<path d="M126.026 8.64779C125.467 8.08841 125.467 7.17863 126.026 6.62028C126.585 6.0609 127.494 6.0609 128.053 6.62028C128.613 7.17967 128.613 8.08841 128.053 8.64779C127.494 9.20717 126.585 9.20717 126.026 8.64779ZM127.851 6.82303C127.404 6.37594 126.676 6.37594 126.229 6.82303C125.782 7.27012 125.782 7.99795 126.229 8.44504C126.676 8.89213 127.404 8.89213 127.851 8.44504C128.298 7.99795 128.298 7.27012 127.851 6.82303Z" fill="#4AAFFF"/>
<path d="M126.006 14.7511C125.447 14.1917 125.447 13.283 126.006 12.7236C126.566 12.1642 127.475 12.1642 128.034 12.7236C128.593 13.283 128.593 14.1917 128.034 14.7511C127.475 15.3105 126.566 15.3105 126.006 14.7511ZM127.831 12.9264C127.384 12.4793 126.656 12.4793 126.209 12.9264C125.762 13.3735 125.762 14.1013 126.209 14.5484C126.656 14.9955 127.384 14.9955 127.831 14.5484C128.278 14.1013 128.278 13.3735 127.831 12.9264Z" fill="#4AAFFF"/>
<path d="M122.945 17.8121C122.386 17.2527 122.386 16.344 122.945 15.7846C123.504 15.2252 124.413 15.2252 124.972 15.7846C125.532 16.344 125.532 17.2538 124.972 17.8121C124.413 18.3715 123.504 18.3715 122.945 17.8121ZM124.77 15.9873C124.323 15.5402 123.595 15.5402 123.148 15.9873C122.701 16.4344 122.701 17.1623 123.148 17.6093C123.595 18.0564 124.323 18.0564 124.77 17.6093C125.217 17.1623 125.217 16.4344 124.77 15.9873Z" fill="#4AAFFF"/>
<path d="M129.068 11.6901C128.509 11.1307 128.509 10.2209 129.068 9.66258C129.627 9.1032 130.536 9.1032 131.095 9.66258C131.655 10.222 131.655 11.1317 131.095 11.6901C130.536 12.2495 129.626 12.2495 129.068 11.6901ZM130.893 9.86533C130.446 9.41824 129.718 9.41824 129.271 9.86533C128.824 10.3124 128.824 11.0402 129.271 11.4873C129.718 11.9344 130.446 11.9344 130.893 11.4873C131.34 11.0402 131.34 10.3124 130.893 9.86533Z" fill="#4AAFFF"/>
<path d="M36.7601 23.9092C36.6946 23.9092 36.6291 23.8884 36.5729 23.8469L34.0058 21.9514L33.3019 22.6106L24.3351 13.0356L24.0897 13.2653L23.3265 12.4502L24.4786 11.3709L21.952 8.67279L21.3198 9.26544L20.5566 8.45028L22.712 6.43109L23.4752 7.24625L22.843 7.83891L25.3696 10.5371L26.5217 9.45779L27.2848 10.273L27.0395 10.5027L36.0062 20.0778L35.3023 20.737L37.0252 23.4226C37.1084 23.5526 37.0876 23.7169 36.9753 23.8219C36.9139 23.8791 36.838 23.9082 36.7611 23.9082L36.7601 23.9092ZM33.9756 21.4419L36.4679 23.2823L34.7949 20.6746L35.451 20.0601L26.4842 10.4851L26.7296 10.2553L26.503 10.013L25.3509 11.0923L22.2889 7.82227L22.921 7.22962L22.6944 6.98736L21.1108 8.47004L21.3385 8.7123L21.9707 8.11964L25.0338 11.3896L23.8818 12.4689L24.1095 12.7112L24.3548 12.4814L33.3216 22.0564L33.9777 21.4419H33.9756Z" fill="#4AAFFF"/>
<path d="M56.0879 167.309H48.0142C47.1138 167.309 46.3818 166.577 46.3818 165.677V154.012H57.7203V165.677C57.7203 166.577 56.9883 167.309 56.0879 167.309ZM46.6553 154.285V165.677C46.6553 166.426 47.2646 167.036 48.0142 167.036H56.0879C56.8375 167.036 57.4468 166.426 57.4468 165.677V154.285H46.6553Z" fill="#4AAFFF"/>
<path d="M58.515 154.286H45.5889V151.918H58.515V154.286ZM45.8623 154.013H58.2416V152.191H45.8623V154.013Z" fill="#4AAFFF"/>
<path d="M57.7203 165.298H46.3818V156.589H57.7203V165.298ZM46.6553 165.025H57.4468V156.863H46.6553V165.025Z" fill="#4AAFFF"/>
<path d="M23.6708 62.4193H21.9926C19.6314 62.4193 17.7109 60.4989 17.7109 58.1376V50.8417C17.7109 48.4805 19.6314 46.5601 21.9926 46.5601H23.6708C26.032 46.5601 27.9524 48.4805 27.9524 50.8417V58.1376C27.9524 60.4989 26.032 62.4193 23.6708 62.4193ZM21.9926 46.7753C19.7509 46.7753 17.9262 48.599 17.9262 50.8417V58.1376C17.9262 60.3793 19.7499 62.2041 21.9926 62.2041H23.6708C25.9125 62.2041 27.7372 60.3804 27.7372 58.1376V50.8417C27.7372 48.6 25.9135 46.7753 23.6708 46.7753H21.9926Z" fill="#4AAFFF"/>
<path d="M24.9165 46.7753H20.7461V43.8724H24.9165V46.7753ZM20.9624 46.5591H24.7013V44.0876H20.9624V46.5591Z" fill="#4AAFFF"/>
<path d="M27.9534 58.2458H17.7119V50.7336H27.9534V58.2458ZM17.9282 58.0295H27.7382V50.9489H17.9282V58.0295Z" fill="#4AAFFF"/>
<path d="M105.329 117.145C105.329 117.145 106.544 116.765 106.641 116.045C106.724 115.434 107.273 114.703 107.443 114.477C107.669 114.176 108.017 112.994 108.399 113.274C108.782 113.555 107.919 115.252 107.81 115.644C107.7 116.036 109.36 115.291 109.772 115.392C110.183 115.495 111.262 118.315 110.063 118.696C108.864 119.075 107.333 118.69 107.135 118.799C106.938 118.908 106.273 119.11 106.273 119.11L105.33 117.145H105.329Z" fill="#EEA886"/>
<path d="M109.47 115.415C109.47 115.415 113.217 114.496 113.519 114.644C113.82 114.792 113.858 114.997 113.51 115.098C113.163 115.199 109.915 116.091 109.915 116.091C109.915 116.091 114.533 115.748 114.807 115.815C114.967 115.854 115.064 116.248 114.883 116.32C114.702 116.391 110.144 116.993 110.144 116.993C110.144 116.993 114.456 116.68 114.669 116.804C114.854 116.914 114.852 117.297 114.533 117.343C114.215 117.388 110.229 117.905 110.229 117.905C110.229 117.905 113.382 117.874 113.499 118.085C113.571 118.214 113.67 118.551 112.856 118.534C112.042 118.516 110.118 118.676 110.118 118.676L109.469 115.415H109.47Z" fill="#EEA886"/>
<path d="M107.342 120.21C107.342 120.21 96.858 122.534 94.7722 122.021C93.8074 121.784 92.5378 120.452 91.3307 118.887C90.9324 118.371 90.5425 117.831 90.1714 117.295C90.1703 117.294 90.1703 117.293 90.1703 117.293C88.6897 115.155 87.5294 113.105 87.5294 113.105C87.5294 113.105 83.152 107.975 86.6643 105.689C86.6643 105.689 87.939 105.211 89.1098 106.465C90.2816 107.72 91.6561 110.345 91.9628 111.014C92.2696 111.683 96.57 117.885 96.7925 118.024C97.015 118.163 98.8938 117.67 100.4 117.544C102.856 117.339 106.533 116.087 106.533 116.087L107.343 120.209L107.342 120.21Z" fill="#DBDFF0"/>
<path d="M92.2659 182.927C92.2659 182.927 93.8869 184.629 95.5328 184.986C97.1787 185.342 98.3297 185.798 98.3422 186.774C98.3547 187.752 93.6051 188.395 91.7221 187.41C88.9107 185.94 88.6247 186.383 88.3138 185.649C88.0019 184.914 88.6882 182.95 88.6684 182.716C88.6434 182.427 92.2659 182.927 92.2659 182.927Z" fill="#202338"/>
<path d="M92.0831 182.112C92.0831 182.112 92.2973 182.909 92.265 182.926C92.2328 182.943 88.5563 183.354 88.6675 182.715C88.758 182.196 88.8869 181.632 88.8869 181.632L92.0841 182.111L92.0831 182.112Z" fill="#2F6B8C"/>
<path d="M73.9505 183.371C73.9505 183.371 75.1431 185.029 76.7381 185.412C78.3112 185.79 79.3302 186.507 79.4071 187.456C79.484 188.406 75.6983 189.649 73.0387 187.981C71.2908 186.885 70.6389 186.948 70.2875 186.251C69.935 185.555 70.4715 183.603 70.4362 183.377C70.3925 183.098 73.9495 183.371 73.9495 183.371H73.9505Z" fill="#202338"/>
<path d="M73.901 182.551C73.901 182.551 73.9801 183.352 73.9499 183.371C73.9198 183.39 70.4158 184.01 70.4366 183.377C70.4533 182.875 70.6591 182.251 70.6591 182.251L73.9021 182.551H73.901Z" fill="#2F6B8C"/>
<path d="M88.3744 134.211C88.3744 134.211 90.0775 146.581 90.7731 150.763C91.5862 155.651 91.8617 159.692 92.0884 162.223C92.3733 165.405 92.7518 181.695 92.9514 182.626C93.151 183.556 87.9908 183.073 87.9908 183.073C87.9908 183.073 85.2874 161.837 84.438 158.447C83.6467 155.291 81.3437 141.657 80.6221 142.519C79.9005 143.381 77.69 158.826 77.1556 161.315C76.6211 163.804 75.1884 183.401 75.1884 183.401C75.1884 183.401 70.3213 184.181 69.3408 183.401C69.3408 183.401 70.1092 165.927 70.4492 161.26C70.5792 159.481 69.3242 139.967 72.3322 132.097C73.9219 127.938 88.3734 134.212 88.3734 134.212L88.3744 134.211Z" fill="#2F4563"/>
<path d="M83.3781 104.544C83.3781 104.544 87.8843 105.475 88.4188 105.949C88.9989 106.454 90.0231 111.389 90.0844 112.764C90.1458 114.138 89.5417 119.882 88.9605 122.021C88.3803 124.16 88.4863 134.693 88.8534 137.657C88.8534 137.657 79.7805 140.233 70.8595 139.073C70.8595 139.073 72.3547 127.991 71.998 125.06C71.5405 121.305 70.4395 112.656 70.4395 112.656C70.4395 112.656 71.2297 106.63 72.024 105.959C72.8184 105.287 78.2916 104.545 78.2916 104.545H83.3781V104.544Z" fill="#BCC0CF"/>
<path d="M81.5137 90.61C81.5137 90.61 86.9339 88.6043 86.5949 95.8077C86.256 103.011 84.9854 103.743 81.4201 102.738C77.8548 101.731 77.5554 97.1854 77.0916 94.9977C76.6269 92.8111 79.7409 90.924 81.5137 90.61Z" fill="#EEA886"/>
<path d="M84.0856 105.519C84.0856 105.519 82.97 106.256 78.7403 104.393C78.7403 104.393 78.8599 101.493 78.0301 98.7846C77.2004 96.076 83.7061 102.396 83.7061 102.396C83.6375 102.443 83.625 102.715 83.6635 103.092C83.6968 103.412 83.7664 103.809 83.8725 104.211C84.1106 105.117 84.0856 104.728 84.0856 105.518V105.519Z" fill="#EEA886"/>
<path d="M77.8464 98.5704C77.8464 98.5704 77.8308 96.6458 78.6314 96.469C79.432 96.2923 79.8438 97.4048 79.8438 97.4048L80.4884 97.3705C80.4884 97.3705 79.9124 95.421 80.6756 94.9739C81.4387 94.5268 86.0022 94.9198 86.5751 94.2627C87.148 93.6066 86.3172 89.7065 85.0716 89.3239C83.826 88.9413 80.425 88.1646 78.2654 90.0881C78.2654 90.0881 76.3866 90.1235 76.3117 91.654C76.2369 93.1845 77.1966 97.5275 77.8474 98.5704H77.8464Z" fill="#E2D2CA"/>
<path d="M83.8732 104.212C79.6715 103.506 79.0435 101.117 79.0342 101.079C80.6676 103.186 83.6642 103.093 83.6642 103.093C83.6974 103.413 83.7671 103.81 83.8732 104.212Z" fill="#A77860"/>
<path d="M83.6883 106.465C83.6883 106.465 84.4536 107.594 84.9152 110.491C85.3769 113.388 85.2989 118.38 85.2989 118.38L84.2352 118.509C84.2352 118.509 82.6247 108.329 82.9023 106.556L83.6894 106.465H83.6883Z" fill="#434343"/>
<path d="M79.5368 95.6528C79.2976 95.0186 77.9449 95.0986 78.0843 96.1041C78.2225 97.1105 79.3403 98.6608 79.7884 98.3697C80.2376 98.0786 79.8674 96.5283 79.5368 95.6528Z" fill="#EEA886"/>
<path d="M88.4186 105.95C88.4186 105.95 91.0367 109.332 90.0884 118.196C88.3739 134.212 92.8635 159.922 92.8635 159.922L88.2325 161.371C88.2325 161.371 83.8073 128.505 84.9344 116.577C85.4481 111.141 86.9723 109.333 84.5674 104.804C84.5674 104.804 86.8507 104.927 88.4186 105.95Z" fill="#DBDFF0"/>
<path d="M77.0451 104.729C77.0451 104.729 84.3742 112.133 84.9492 117.745C85.5232 123.358 86.4579 161.37 86.4579 161.37L69.0078 160.354C69.0078 160.354 70.6121 140.288 71.0031 137.778C71.394 135.268 72.204 120.855 70.4385 114.168C69.4892 110.575 70.6184 106.017 72.7863 105.519C74.9541 105.021 77.0451 104.729 77.0451 104.729Z" fill="#DBDFF0"/>
<path d="M74.5686 105.688C74.5686 105.688 77.3915 106.466 75.8382 111.647C74.6217 115.705 74.4574 116.577 74.4574 116.577L67.9434 114.95C67.9434 114.95 69.8534 106.036 72.9695 105.556C72.9695 105.556 73.9614 105.415 74.5676 105.688H74.5686Z" fill="#DBDFF0"/>
<path d="M87.6092 124.792L77.0444 139.823L67.3955 133.042L77.584 117.745L87.6092 124.792Z" fill="#616161"/>
<path d="M86.4581 125.239L77.0755 138.589L68.5059 132.566L77.5548 118.981L86.4581 125.239Z" fill="#E0CEC7"/>
<path d="M83.5732 123.706L84.2324 122.769L80.7679 120.334L79.9746 121.177L83.5732 123.706Z" fill="#616161"/>
<path d="M82.5744 134.913C82.5744 134.913 82.1585 134.877 81.9839 134.773C81.9839 134.773 81.6813 134.559 81.4567 134.42C81.385 134.376 81.3226 134.339 81.2789 134.32C81.098 134.239 80.6769 134.114 80.2974 133.797C79.9179 133.481 78.6338 131.694 78.6338 131.694L79.4022 130.726L79.9927 129.716C79.9927 129.716 82.9841 130.179 83.3719 130.433C83.4093 130.458 83.4457 130.484 83.478 130.511C83.7857 130.759 83.9105 131.072 84.0571 131.219C84.1101 131.275 84.6061 131.854 84.5666 132.078C84.5125 132.39 84.3493 132.584 84.1507 132.67C84.1507 132.67 84.0186 133.275 83.6911 133.534C83.6911 133.534 83.5871 134.096 83.0881 134.302C83.0881 134.302 82.9186 134.861 82.5765 134.914L82.5744 134.913Z" fill="#EEA886"/>
<path d="M78.7432 103.592C78.7432 103.592 80.9548 104.926 83.1424 105.227L81.9789 107.084L78.292 104.545L78.7443 103.592H78.7432Z" fill="#A7AAB8"/>
<path d="M83.8736 104.212C83.8736 104.212 83.6407 104.976 83.1416 105.226L84.2344 106.75L84.1938 104.729L83.8725 104.212H83.8736Z" fill="#A7AAB8"/>
<path d="M83.1413 105.226L84.0063 106.433C84.0063 106.433 83.4584 107.125 82.2793 106.6L83.1413 105.226Z" fill="#434343"/>
<path d="M91.3303 118.886C90.9321 118.371 90.5422 117.831 90.171 117.295C90.1699 117.294 90.1699 117.293 90.1699 117.293C90.1699 117.293 90.3092 113.388 90.1876 112.266C90.1876 112.266 91.4634 116.473 91.3303 118.886Z" fill="#A7AAB8"/>
<path d="M73.3432 116.298C73.3432 116.298 72.4916 121.836 72.552 122.191C72.6112 122.547 68.6986 121.079 73.3432 116.298Z" fill="#A7AAB8"/>
<path d="M74.9067 106.035C75.4973 106.263 75.7208 107.313 75.4785 110.352C75.2352 113.392 74.1653 114.789 73.7661 115.493C73.3668 116.196 71.1709 120.531 71.566 121.101C71.9611 121.67 75.6886 125.349 75.9038 125.649C76.1201 125.948 80.2811 129.716 80.2811 129.716L78.1621 132.677C78.1621 132.677 69.1746 125.657 68.4738 124.956C67.773 124.255 65.6768 122.783 66.4515 120.334C67.2396 117.846 68.6557 112.021 68.9073 111.565C69.159 111.11 70.9993 104.523 74.9056 106.036L74.9067 106.035Z" fill="#DBDFF0"/>
<path d="M88.7148 114.315H86.6582V117.456H88.7148V114.315Z" fill="#C6CAD9"/>
<path d="M45.0389 92.1197H36.5733V83.6531H31.2986V92.1197H22.833V97.3933H31.2986V105.86H36.5733V97.3933H45.0389V92.1197Z" fill="url(#paint11_linear_997_9545)"/>
<path d="M153.429 120.592C153.429 120.592 152.99 119.511 153.593 119.365L153.819 120.336L153.429 120.592Z" fill="#EEA886"/>
<path d="M155.084 188.519C155.084 188.519 152.75 189.611 152.766 189.972C152.781 190.334 153.121 190.841 153.393 190.829C153.664 190.817 157.409 190.901 157.76 190.636C158.111 190.371 159.491 187.747 160.367 187.573C161.244 187.398 162.443 186.03 161.43 184.533C160.416 183.035 156.663 188.298 155.083 188.518L155.084 188.519Z" fill="#3B3B40"/>
<path d="M159.69 183.862C159.69 183.862 158.016 185.138 157.452 186.25C156.889 187.364 154.657 188.686 154.734 188.887C154.811 189.088 156.879 189.2 157.523 188.379C158.167 187.556 160.425 185.303 161.09 184.956C161.755 184.608 161.204 184.584 161.204 184.584L159.689 183.861L159.69 183.862Z" fill="#EEA886"/>
<path d="M159.69 183.862C159.69 183.862 160.756 181.653 160.84 180.916C160.925 180.179 162.987 181.7 161.399 184.74L159.69 183.862Z" fill="#EEA886"/>
<path d="M161.311 186.982L160.768 190.457L160.407 190.473L160.369 187.572C160.369 187.572 161.141 186.825 161.312 186.981L161.311 186.982Z" fill="#3B3B40"/>
<path d="M161.881 139.053C161.881 139.053 159.446 150.842 158.677 153.747C157.909 156.652 157.182 160.966 157.097 162.674C157.012 164.382 157.567 166.09 157.609 166.988C157.652 167.885 158.89 183.988 158.89 183.988C158.89 183.988 161.655 184.358 161.997 184.101C162.339 183.845 164.229 170.917 163.589 165.834C162.948 160.751 164.187 159.299 165.895 156.906C167.603 154.514 170.466 145.459 170.38 144.391C170.294 143.323 168.97 131.235 168.97 131.235C168.97 131.235 163.706 124.422 161.88 139.052L161.881 139.053Z" fill="#353A3D"/>
<path d="M174.88 185.851C174.88 185.851 173.047 188.958 172.274 189.465C171.224 190.153 171.882 190.85 172.381 190.851C172.88 190.851 175.427 191.034 175.989 190.397C176.55 189.759 176.829 187.85 177.351 187.351C177.873 186.852 178.351 185.01 177.096 184.385C175.721 183.7 174.88 185.851 174.88 185.851Z" fill="#3B3B40"/>
<path d="M175.567 184.223C175.567 184.223 173.574 188.123 173.213 188.66C172.851 189.198 173.894 189.197 174.541 188.942C175.187 188.687 176.864 186.099 177.046 185.602C177.227 185.105 177.095 184.386 177.095 184.386L175.568 184.224L175.567 184.223Z" fill="#EEA886"/>
<path d="M177.801 186.443L177.316 190.172L177.06 190.184L177.139 187.5L177.801 186.443Z" fill="#3B3B40"/>
<path d="M175.567 184.223C175.567 184.223 175.795 182.626 175.474 181.297C175.153 179.967 177.652 180.929 177.652 180.929C177.652 180.929 177.755 183.005 177.095 184.386C176.434 185.767 175.567 184.224 175.567 184.224V184.223Z" fill="#EEA886"/>
<path d="M179.417 134.701C179.417 134.701 179.692 145.034 178.966 148.707C178.241 152.38 177.086 159 177.215 160.667C177.343 162.333 177.405 163.61 177.941 164.981C178.256 165.787 179.468 171.986 177.536 183.854L175.037 183.967C175.037 183.967 173.328 171.729 172.986 168.312C172.644 164.896 171.875 162.674 171.875 161.606C171.875 160.538 168.971 151.44 169.099 147.468C169.227 143.495 168.027 135.234 169.095 133.159C171.573 128.344 179.417 134.7 179.417 134.7V134.701Z" fill="#353A3D"/>
<path d="M171.713 110.719L174.77 134.441L162.371 134.208L163.085 113.34L166.377 111.076L166.432 113.953L167.723 111.109L169.901 114.12L171.713 110.719Z" fill="#EAD8CF"/>
<path d="M159.97 108.065C159.97 108.065 161.988 108.353 162.725 108.995C163.462 109.635 166.024 110.308 166.024 110.308L161.891 112.519L159.969 108.065H159.97Z" fill="#EDDCC5"/>
<path d="M174.333 99.9761C174.333 99.9761 177.686 100.05 176.693 103.161C175.7 106.271 172.047 107.456 170.606 105.662C169.165 103.869 174.333 99.9771 174.333 99.9771V99.9761Z" fill="#3D3E52"/>
<path d="M162.544 135.743C162.544 135.743 173.233 136.224 174.482 136.096C175.732 135.968 172.773 134.441 172.773 134.441L163.304 134.225L162.544 135.743Z" fill="#4B5257"/>
<path d="M167.433 93.8197C167.433 93.8197 164.358 95.9127 164.443 100.824C164.528 105.736 166.749 106.164 170.124 104.968C173.498 103.772 174.823 97.0668 174.097 95.764C173.371 94.4612 171.662 92.4535 167.433 93.8197Z" fill="#EEA886"/>
<path d="M171.406 107.318C171.406 107.318 173.115 108.685 173.927 108.898C174.738 109.111 177.771 110.393 177.985 111.076C178.198 111.76 182.043 122.822 182 123.463C181.958 124.103 168.93 133.756 168.631 133.8C168.332 133.843 166.666 131.451 166.666 131.451L171.108 127.65C171.108 127.65 170.04 121.798 169.827 119.448C169.614 117.1 169.699 111.248 170.212 109.923C170.724 108.6 171.407 107.318 171.407 107.318H171.406Z" fill="#FFA455"/>
<path d="M178.471 126.504C178.471 126.504 178.326 129.955 178.668 131.108C179.01 132.261 180.761 141.957 180.932 142.299C181.102 142.641 175.678 141.957 174.012 138.07C172.347 134.184 171.492 128.631 171.577 128.161C171.662 127.691 178.471 126.503 178.471 126.503V126.504Z" fill="#FFA455"/>
<path d="M166.665 107.788C166.665 107.788 163.419 113.255 163.419 117.185C163.419 121.115 164.526 123.891 164.442 125.343C164.359 126.795 163.247 136.747 162.094 139.182C160.941 141.617 158.421 142.855 158.421 142.855C158.421 142.855 160.684 137.346 161.154 132.775C161.624 128.204 160.3 116.288 160.3 116.288C160.3 116.288 160.385 112.144 161.24 111.546C162.094 110.949 163.931 110.051 164.7 109.453C165.468 108.856 166.665 107.788 166.665 107.788Z" fill="#FFA455"/>
<path d="M171.572 127.382C171.572 127.382 176.597 122.768 176.789 122.608C176.981 122.448 176.404 120.878 176.404 120.878L171.571 127.381L171.572 127.382Z" fill="#C97730"/>
<path d="M166.665 107.788L166.377 111.076L163.917 113.762L165.346 108.928L166.665 107.788Z" fill="#D5BCB1"/>
<path d="M167.722 111.109L166.432 113.953L166.377 111.076L166.665 107.788C166.665 107.788 166.915 107.573 167.035 106.721C167.079 106.413 167.107 106.023 167.098 105.529C167.056 103.186 167.078 104.941 167.05 104.605C166.823 101.946 171.406 103.772 171.406 103.772C171.406 103.772 171.022 105.833 171.406 107.317C171.791 108.801 167.722 111.108 167.722 111.108V111.109Z" fill="#EEA886"/>
<path d="M163.654 123.313C163.654 123.313 166.43 126.474 166.601 126.88C166.772 127.285 161.412 124.424 161.412 124.424L163.655 123.313H163.654Z" fill="#4D6EA3"/>
<path d="M166.432 113.953C166.374 114.039 165.005 115.898 165.743 119.621C166.352 122.689 166.567 128.684 166.658 131.243C166.677 131.778 166.692 132.164 166.702 132.348L166.947 132.333C166.937 132.152 166.922 131.767 166.904 131.234C166.812 128.669 166.596 122.66 165.985 119.572C165.269 115.963 166.414 113.979 166.432 113.952V113.953Z" fill="#BDAEA7"/>
<path d="M155.415 124.624C155.415 124.624 155.628 130.326 158.422 131.16C161.216 131.993 165.16 132.828 166.025 132.797C166.89 132.764 167.018 133.181 167.018 133.181C167.018 133.181 167.018 135.968 166.825 136.833C166.633 137.698 165.367 139.748 165.647 140.677C165.928 141.607 168.958 142.821 169.516 142.119C170.074 141.416 168.588 140.164 168.331 139.813C168.075 139.46 170.193 133.972 170.479 132.519C170.765 131.068 171.235 128.472 168.566 127.383C165.897 126.294 161.816 124.425 161.816 124.425L155.414 124.624H155.415Z" fill="#5B83C2"/>
<path d="M154.919 99.4458C154.919 99.4458 152.421 100.996 152.506 103.644C152.591 106.293 154.257 108.834 157.225 108.3C160.194 107.766 159.809 103.516 159.969 102.961C160.129 102.406 159.874 98.9768 154.918 99.4468L154.919 99.4458Z" fill="#EEA886"/>
<path d="M159.969 108.065C158.592 112.422 155.426 108.972 155.581 108.963C155.614 108.961 155.639 108.917 155.658 108.849C155.695 108.713 155.706 108.48 155.71 108.299C155.712 108.153 155.71 108.041 155.71 108.041C155.71 108.041 159.276 105.568 159.296 106.656C159.314 107.745 159.97 108.066 159.97 108.066L159.969 108.065Z" fill="#EEA886"/>
<path d="M159.574 105.922C159.574 105.922 159.089 104.229 158.422 103.887C157.754 103.544 157.504 104.369 157.119 103.687C156.734 103.004 154.985 101.282 152.656 102.41C152.656 102.41 152.399 99.3949 155.966 99.0528C159.532 98.7107 160.215 100.868 160.344 102.086C160.472 103.303 159.946 105.409 159.574 105.923V105.922Z" fill="#B08A63"/>
<path d="M172.305 103.161C172.305 103.161 173.07 100.676 172.516 99.843C171.962 99.0101 171.577 99.8773 170.424 99.0164C169.271 98.1555 165.274 98.5745 164.945 97.4463C164.615 96.3182 166.878 91.4283 171.662 93.1792C176.446 94.9302 175.062 100.349 172.305 103.161Z" fill="#3D3E52"/>
<path d="M171.433 98.8812C171.684 98.404 172.806 98.012 172.934 99.0736C173.062 100.135 172.004 101.081 171.343 100.953C170.681 100.826 171.252 99.2254 171.433 98.8823V98.8812Z" fill="#EEA886"/>
<path d="M157.866 103.161C157.93 102.918 158.656 102.442 158.955 103.161C159.255 103.879 158.546 104.947 158.014 104.477C157.482 104.007 157.867 103.161 157.867 103.161H157.866Z" fill="#EEA886"/>
<path d="M159.969 108.065C160.039 107.918 160.876 108.23 161.624 109.346C162.462 110.597 162.692 112.134 162.789 112.742C162.885 113.35 161.689 116.906 162.544 118.924C163.398 120.943 163.879 121.647 163.654 123.313C163.429 124.979 155.742 125.107 155.261 124.531C154.781 123.955 153.211 119.565 153.308 116.234C153.403 112.902 152.122 112.197 152.347 111.909C152.571 111.621 155.262 108.706 155.582 108.962C155.903 109.217 158.498 111.172 159.971 108.064L159.969 108.065Z" fill="#E55353"/>
<path d="M152.089 117.194C149.843 118.121 146.933 118.899 145.88 119.466C145.732 119.545 145.621 119.622 145.553 119.693C145.008 120.27 144.08 121.711 142.958 121.775C141.837 121.84 141.548 120.365 142.638 119.084C143.726 117.804 141.9 118.187 142.862 117.675C143.759 117.196 144.462 117.947 145.23 117.604C145.284 117.58 145.339 117.55 145.393 117.514C146.226 116.97 148.981 115.112 150.199 114.536C151.416 113.959 151.352 112.39 152.345 111.909C152.345 111.909 154.427 111.557 154.555 113.447C154.683 115.337 154.651 116.138 152.089 117.195V117.194Z" fill="#EDDCC5"/>
<path d="M145.881 119.467C145.733 119.546 145.622 119.623 145.554 119.694C145.009 120.271 144.081 121.712 142.959 121.776C141.838 121.841 141.549 120.367 142.638 119.086C143.727 117.805 141.859 118.168 142.863 117.676C143.777 117.229 144.463 117.948 145.231 117.605C145.252 117.633 145.921 118.534 145.881 119.467Z" fill="#EEA886"/>
<path d="M166.811 131.655C166.811 131.655 166.516 132.027 165.854 131.92C165.192 131.813 164.166 130.66 163.548 130.617C162.928 130.575 163.996 131.343 164.018 131.663C164.04 131.984 164.253 132.219 163.74 132.219C163.228 132.219 160.537 131.001 159.981 131.086C159.426 131.172 159.789 131.417 159.789 131.417C159.789 131.417 159.149 131.236 159.106 131.663C159.063 132.091 161.626 133.649 161.904 133.714C162.182 133.778 164.36 134.333 165.962 133.906C167.564 133.479 168.568 133.223 168.568 133.223L166.812 131.655H166.811Z" fill="#EEA886"/>
<path d="M166.665 131.45C166.665 131.45 168.31 133.863 168.63 133.799C168.95 133.735 175.827 128.539 175.827 128.539L171.572 127.382L171.108 127.649L166.666 131.45H166.665Z" fill="#FFA455"/>
<path d="M170.914 104.593C170.914 104.593 169.904 106.252 167.035 106.721C167.079 106.413 167.105 106.003 167.098 105.511C167.098 105.511 169.079 105.648 170.915 104.593H170.914Z" fill="#A77860"/>
<path d="M158.929 107.257C158.929 107.257 158.649 109.12 155.656 108.848C155.694 108.712 155.705 108.479 155.708 108.298C155.708 108.298 157.842 108.758 158.929 107.257Z" fill="#A77860"/>
<path d="M153.676 119.794C153.676 119.794 152.844 121.031 153.319 122.501C153.796 123.971 155.31 124.757 155.298 124.544C155.287 124.331 153.949 121.083 153.676 119.793V119.794Z" fill="#EEA886"/>
<path d="M171.406 107.318L167.723 111.109L169.901 114.12L172.943 108.412L171.406 107.318Z" fill="#D5BCB1"/>
</g>
<defs>
<linearGradient id="paint0_linear_997_9545" x1="22.3214" y1="2.46132" x2="139.072" y2="152.232" gradientUnits="userSpaceOnUse">
<stop offset="0.16" stop-color="#90C2E8"/>
<stop offset="0.58" stop-color="#47AFFF"/>
<stop offset="1" stop-color="#6783F5"/>
</linearGradient>
<linearGradient id="paint1_linear_997_9545" x1="54.8804" y1="142.262" x2="54.8804" y2="60.1423" gradientUnits="userSpaceOnUse">
<stop stop-color="#F5F5F5"/>
<stop offset="1" stop-color="#F5F5F5"/>
</linearGradient>
<linearGradient id="paint2_linear_997_9545" x1="70.3516" y1="94.9022" x2="72.2824" y2="94.9022" gradientUnits="userSpaceOnUse">
<stop stop-color="#D5E4FF"/>
<stop offset="1" stop-color="#EDFFFE"/>
</linearGradient>
<linearGradient id="paint3_linear_997_9545" x1="75.4932" y1="0.124007" x2="77.4229" y2="0.124007" gradientUnits="userSpaceOnUse">
<stop stop-color="#D5E4FF"/>
<stop offset="1" stop-color="#EDFFFE"/>
</linearGradient>
<linearGradient id="paint4_linear_997_9545" x1="80.6338" y1="0.12401" x2="82.5646" y2="0.12401" gradientUnits="userSpaceOnUse">
<stop stop-color="#D5E4FF"/>
<stop offset="1" stop-color="#EDFFFE"/>
</linearGradient>
<linearGradient id="paint5_linear_997_9545" x1="85.7754" y1="0.124007" x2="87.7052" y2="0.124007" gradientUnits="userSpaceOnUse">
<stop stop-color="#D5E4FF"/>
<stop offset="1" stop-color="#EDFFFE"/>
</linearGradient>
<linearGradient id="paint6_linear_997_9545" x1="99.124" y1="100.953" x2="145.679" y2="100.953" gradientUnits="userSpaceOnUse">
<stop stop-color="#F5F5F5"/>
<stop offset="1" stop-color="#F5F5F5"/>
</linearGradient>
<linearGradient id="paint7_linear_997_9545" x1="42.3828" y1="49.3466" x2="161.805" y2="49.3466" gradientUnits="userSpaceOnUse">
<stop stop-color="#F5F5F5"/>
<stop offset="1" stop-color="#F5F5F5"/>
</linearGradient>
<linearGradient id="paint8_linear_997_9545" x1="64.499" y1="33.7462" x2="64.499" y2="69.6986" gradientUnits="userSpaceOnUse">
<stop stop-color="#40D5E6"/>
<stop offset="1" stop-color="#5577FF"/>
</linearGradient>
<linearGradient id="paint9_linear_997_9545" x1="64.4707" y1="33.7463" x2="64.4707" y2="69.6987" gradientUnits="userSpaceOnUse">
<stop stop-color="#40D5E6"/>
<stop offset="1" stop-color="#5577FF"/>
</linearGradient>
<linearGradient id="paint10_linear_997_9545" x1="64.4703" y1="36.0711" x2="64.4703" y2="67.5557" gradientUnits="userSpaceOnUse">
<stop stop-color="#D3DAE0"/>
<stop offset="1" stop-color="white"/>
</linearGradient>
<linearGradient id="paint11_linear_997_9545" x1="27.2696" y1="86.2046" x2="41.7897" y2="104.833" gradientUnits="userSpaceOnUse">
<stop stop-color="#40D5E6"/>
<stop offset="1" stop-color="#5577FF"/>
</linearGradient>
<clipPath id="clip0_997_9545">
<rect width="181.183" height="190.752" fill="white" transform="translate(0.817383 0.123962)"/>
</clipPath>
</defs>
</svg>
