<svg xmlns="http://www.w3.org/2000/svg" width="169" height="143" viewBox="0 0 169 143" fill="none">
  <g filter="url(#filter0_d_167_86)">
    <path d="M62.1111 58.8796L55.0189 57.3449C53.072 56.9265 51.2642 58.461 51.2642 60.4144V63.3442C51.2642 65.7159 53.072 66.274 55.297 66.274H63.0846C64.6141 66.274 66.1439 65.9951 66.1439 64.3208V63.9023C66.1439 61.391 64.4751 59.2982 62.1111 58.8796ZM53.9064 63.3442C53.9064 63.2047 53.9064 63.2047 53.9064 60.2749C53.9064 59.9958 54.1845 59.7168 54.4626 59.8563L61.5548 61.391C62.5281 61.67 63.2236 62.5072 63.3626 63.4837C58.4954 63.4837 54.3235 63.4837 53.9064 63.3442Z" fill="#25758A"/>
    <path d="M125.245 43.9517L115.233 39.2082C111.895 37.6735 108.28 37.1154 104.803 37.813L103.273 34.7436C102.161 31.9532 99.5187 30 96.4593 30H63.9187C60.8595 30 58.2172 31.8137 57.1047 34.6041L51.6812 45.905C50.4297 44.0913 48.3437 42.9751 46.1187 42.9751H43.7547C41.6687 42.9751 40 44.6493 40 46.7421V48.2768C40 50.3695 41.6687 52.0438 43.7547 52.0438H47.3703C45.8406 53.997 45.1453 56.5082 45.1453 59.0196V67.3907C45.1453 70.5996 46.2578 73.6689 48.4828 76.3198V82.598C48.4828 85.3884 50.7078 87.6207 53.4891 87.6207H58.6345C61.4155 87.6207 63.6405 85.3884 63.6405 82.598V80.0868H91.453C97.572 88.4579 107.167 92.0852 107.306 92.0852C107.584 92.2249 107.863 92.2249 108.28 92.0852C108.419 91.9457 129 84.4119 129 65.577V49.951C129 47.4397 127.47 45.0679 125.245 43.9517ZM59.6078 35.7202C60.303 33.9065 61.972 32.7903 63.9187 32.7903H96.4593C98.4062 32.7903 100.075 33.9065 100.909 35.8597L102.161 38.5106C101.605 38.6501 101.048 38.9291 100.492 39.2082L90.4797 43.9517C88.2547 45.0679 86.725 47.3002 86.725 49.8116H52.6547C53.2109 48.9744 52.6547 50.3695 59.6078 35.7202ZM42.7812 48.2768V46.7421C42.7812 46.184 43.1984 45.7655 43.7547 45.7655H46.1187C48.9 45.7655 49.8734 48.2768 50.1516 48.6954C50.0125 48.9744 49.8734 49.1138 49.5953 49.393H43.7547C43.1984 49.2533 42.7812 48.8349 42.7812 48.2768ZM60.8595 82.4586C60.8595 83.7142 59.886 84.6908 58.6345 84.6908H53.35C52.0984 84.8303 51.125 83.7142 51.125 82.4586V78.4126C52.7937 79.3891 54.7406 79.9473 56.6875 79.9473H60.8595V82.4586ZM56.5484 77.2965C51.5422 77.2965 47.6484 72.4133 47.6484 67.2512V58.8802C47.6484 56.5084 48.6219 54.2759 50.2906 52.4623H86.725V64.7398H71.428C70.7328 64.7398 70.0375 65.2979 70.0375 66.1351C70.0375 66.9721 70.5938 67.5301 71.428 67.5301H86.864C87.003 68.5068 87.003 69.3438 87.2812 70.181H71.428C70.7328 70.181 70.0375 70.7391 70.0375 71.5761C70.0375 72.4133 70.5938 72.9714 71.428 72.9714H87.8375C88.3937 74.5061 88.95 76.0407 89.7845 77.2965H56.5484ZM126.219 65.577C126.219 81.0635 110.644 88.1787 107.862 89.2949C97.85 85.2489 89.5062 76.5989 89.5062 65.577C89.5062 60.4147 89.5062 57.6245 89.5062 49.951C89.5062 48.4163 90.3405 47.1607 91.7312 46.4631L101.744 41.7195C105.777 39.7662 110.227 39.7662 114.259 41.7195L124.272 46.4631C125.523 47.1607 126.497 48.4163 126.497 49.951V65.577H126.219Z" fill="#25758A"/>
    <path d="M121.49 49.6719L112.312 45.3469C109.531 43.9517 106.055 43.9517 103.273 45.3469L94.2342 49.6719C93.8171 49.951 93.3999 50.3695 93.3999 50.9277V65.577C93.3999 76.5989 102.995 82.598 107.167 84.6908C107.584 84.8303 108.001 84.8303 108.419 84.6908C112.59 82.598 122.186 76.5989 122.186 65.577V50.9277C122.186 50.3695 121.908 49.951 121.49 49.6719ZM119.544 65.577C119.544 74.5061 111.756 79.8077 107.862 81.9005C103.273 79.3891 96.1812 74.3666 96.1812 65.577V51.7647L104.525 47.7187C106.611 46.7421 109.114 46.7421 111.2 47.7187L119.544 51.7647V65.577Z" fill="#25758A"/>
    <path d="M102.439 65.1578C101.883 64.7392 101.049 64.8787 100.493 65.4368C99.9364 65.9948 100.214 66.832 100.771 67.3901L106.055 71.4361C106.611 71.8547 107.446 71.715 108.002 71.1569L115.789 60.9722C116.207 60.4141 116.068 59.5771 115.511 59.019C114.955 58.6005 114.121 58.7399 113.564 59.298L106.611 68.3666L102.439 65.1578Z" fill="#25758A"/>
  </g>
  <defs>
    <filter id="filter0_d_167_86" x="0" y="0" width="169" height="142.19" filterUnits="userSpaceOnUse" color-interpolation-filters="sRGB">
      <feFlood flood-opacity="0" result="BackgroundImageFix"/>
      <feColorMatrix in="SourceAlpha" type="matrix" values="0 0 0 0 0 0 0 0 0 0 0 0 0 0 0 0 0 0 127 0" result="hardAlpha"/>
      <feOffset dy="10"/>
      <feGaussianBlur stdDeviation="20"/>
      <feComposite in2="hardAlpha" operator="out"/>
      <feColorMatrix type="matrix" values="0 0 0 0 0 0 0 0 0 0 0 0 0 0 0 0 0 0 0.1 0"/>
      <feBlend mode="normal" in2="BackgroundImageFix" result="effect1_dropShadow_167_86"/>
      <feBlend mode="normal" in="SourceGraphic" in2="effect1_dropShadow_167_86" result="shape"/>
    </filter>
  </defs>
</svg>