<?xml version="1.0" encoding="utf-8"?>
<!-- Generator: Adobe Illustrator 27.9.0, SVG Export Plug-In . SVG Version: 6.00 Build 0)  -->
<svg version="1.1" id="Layer_1" xmlns="http://www.w3.org/2000/svg" xmlns:xlink="http://www.w3.org/1999/xlink" x="0px" y="0px"
	 viewBox="0 0 36.8 36.8" style="enable-background:new 0 0 36.8 36.8;" xml:space="preserve">
<style type="text/css">
	.st0{fill:#5E1A88;}
	.st1{fill:#FFFFFF;}
</style>
<circle class="st0" cx="18.4" cy="18.4" r="15.6"/>
<path class="st0" d="M1.4,18.4c0-9.4,7.6-17,17-17c9.4,0,17,7.6,17,17s-7.6,17-17,17S1.4,27.8,1.4,18.4z M33.4,18.4
	c0-8.3-6.7-15-15-15s-15,6.7-15,15s6.7,15,15,15S33.4,26.7,33.4,18.4z"/>
<path class="st1" d="M26.4,21.8c-1.2,0-2.4-0.2-3.5-0.6c-0.2-0.1-0.4-0.1-0.5,0c-0.2,0-0.3,0.1-0.5,0.3l-1.6,2
	c-2.8-1.4-5.5-3.9-6.9-6.8l1.9-1.7c0.3-0.3,0.4-0.7,0.2-1c-0.4-1.1-0.6-2.3-0.6-3.5c0-0.5-0.5-1-1-1h-3.5c-0.5,0-1.2,0.2-1.2,1
	c0,9.3,7.7,17,17,17c0.7,0,1-0.6,1-1.2v-3.4C27.4,22.2,26.9,21.8,26.4,21.8z"/>
</svg>
