<?xml version="1.0" encoding="utf-8"?>
<!-- Generator: Adobe Illustrator 27.9.0, SVG Export Plug-In . SVG Version: 6.00 Build 0)  -->
<svg version="1.1" id="Layer_1" xmlns="http://www.w3.org/2000/svg" xmlns:xlink="http://www.w3.org/1999/xlink" x="0px" y="0px"
	 viewBox="0 0 35.9 35.9" style="enable-background:new 0 0 35.9 35.9;" xml:space="preserve">
<style type="text/css">
	.st0{fill:none;stroke:#5E1A88;}
	.st1{fill:#5E1A88;}
</style>
<path class="st0" d="M1,18C1,8.6,8.6,1,18,1s17,7.6,17,17s-7.6,17-17,17S1,27.4,1,18z"/>
<path class="st1" d="M26,21.3c-1.2,0-2.4-0.2-3.5-0.6c-0.2-0.1-0.4-0.1-0.5,0c-0.2,0-0.3,0.1-0.5,0.3l-1.6,2
	c-2.8-1.4-5.5-3.9-6.9-6.8l1.9-1.7c0.3-0.3,0.4-0.7,0.2-1c-0.4-1.1-0.6-2.3-0.6-3.5c0-0.5-0.5-1-1-1H10c-0.4,0-1,0.2-1,1
	c0,9.3,7.7,17,17,17c0.7,0,1-0.6,1-1.2v-3.4C27,21.8,26.5,21.3,26,21.3z"/>
</svg>
