<svg width="34" height="34" viewBox="0 0 34 34" fill="none" xmlns="http://www.w3.org/2000/svg">
<circle cx="17" cy="17" r="15" fill="white"/>
<circle cx="17" cy="17" r="15" stroke="#5E1A88"/>
<path d="M-7.43094e-07 17C-3.32207e-07 7.6 7.6 -1.15398e-06 17 -7.43094e-07C26.4 -3.32207e-07 34 7.6 34 17C34 26.4 26.4 34 17 34C7.6 34 -1.15398e-06 26.4 -7.43094e-07 17ZM32 17C32 8.7 25.3 2 17 2C8.7 2 2 8.7 2 17C2 25.3 8.7 32 17 32C25.3 32 32 25.3 32 17Z" fill="white"/>
<path d="M-7.43094e-07 17C-3.32207e-07 7.6 7.6 -1.15398e-06 17 -7.43094e-07C26.4 -3.32207e-07 34 7.6 34 17C34 26.4 26.4 34 17 34C7.6 34 -1.15398e-06 26.4 -7.43094e-07 17ZM32 17C32 8.7 25.3 2 17 2C8.7 2 2 8.7 2 17C2 25.3 8.7 32 17 32C25.3 32 32 25.3 32 17Z" stroke="#5E1A88"/>
<path d="M25.01 20.38C23.78 20.38 22.59 20.18 21.48 19.82C21.3061 19.7611 21.1191 19.7523 20.9405 19.7948C20.7618 19.8372 20.5988 19.9291 20.47 20.06L18.9 22.03C16.07 20.68 13.42 18.13 12.01 15.2L13.96 13.54C14.23 13.26 14.31 12.87 14.2 12.52C13.83 11.41 13.64 10.22 13.64 8.99C13.64 8.45 13.19 8 12.65 8H9.19C8.65 8 8 8.24 8 8.99C8 18.28 15.73 26 25.01 26C25.72 26 26 25.37 26 24.82V21.37C26 20.83 25.55 20.38 25.01 20.38Z" fill="#5E1A88"/>
<path d="M-7.43094e-07 17C-3.32207e-07 7.6 7.6 -1.15398e-06 17 -7.43094e-07C26.4 -3.32207e-07 34 7.6 34 17C34 26.4 26.4 34 17 34C7.6 34 -1.15398e-06 26.4 -7.43094e-07 17ZM32 17C32 8.7 25.3 2 17 2C8.7 2 2 8.7 2 17C2 25.3 8.7 32 17 32C25.3 32 32 25.3 32 17Z" fill="#5E1A88"/>
</svg>
