<svg width="32" height="32" viewBox="0 0 32 32" fill="none" xmlns="http://www.w3.org/2000/svg">
<path d="M23.4884 19.1474C22.3328 19.1474 21.2148 18.9595 20.172 18.6213C20.0087 18.5659 19.833 18.5577 19.6652 18.5976C19.4973 18.6374 19.3441 18.7238 19.2231 18.8467L17.7482 20.6975C15.0894 19.4292 12.5998 17.0335 11.2751 14.2809L13.1071 12.7213C13.3608 12.4583 13.4359 12.0919 13.3326 11.7631C12.985 10.7202 12.8065 9.60225 12.8065 8.44669C12.8065 7.93937 12.3837 7.5166 11.8764 7.5166H8.6258C8.11848 7.5166 7.50781 7.74208 7.50781 8.44669C7.50781 17.1745 14.77 24.4273 23.4884 24.4273C24.1554 24.4273 24.4185 23.8354 24.4185 23.3187V20.0775C24.4185 19.5701 23.9957 19.1474 23.4884 19.1474Z" fill="#5E1A89"/>
<path d="M0.000989216 15.9712C0.000989602 7.14006 7.14105 -1.08414e-06 15.9722 -6.98123e-07C24.8033 -3.12102e-07 31.9434 7.14006 31.9434 15.9712C31.9434 24.8023 24.8033 31.9424 15.9722 31.9424C7.14105 31.9424 0.00098883 24.8023 0.000989216 15.9712ZM30.0644 15.9712C30.0644 8.17349 23.7699 1.87896 15.9722 1.87896C8.17448 1.87896 1.87995 8.17349 1.87995 15.9712C1.87995 23.7689 8.17448 30.0634 15.9722 30.0634C23.7699 30.0634 30.0644 23.7689 30.0644 15.9712Z" fill="#5E1A89"/>
</svg>
