<svg width="30" height="29" viewBox="0 0 30 29" fill="none" xmlns="http://www.w3.org/2000/svg">
<path fill-rule="evenodd" clip-rule="evenodd" d="M27.5227 10.6842C27.5227 15.4804 23.6346 19.3684 18.8385 19.3684C14.0423 19.3684 10.1542 15.4804 10.1542 10.6842C10.1542 5.88805 14.0423 2 18.8385 2C23.6346 2 27.5227 5.88805 27.5227 10.6842ZM29.5227 10.6842C29.5227 16.5849 24.7392 21.3684 18.8385 21.3684C16.2768 21.3684 13.9257 20.4669 12.0851 18.9638L2.04898 29L0.634766 27.5858L10.6605 17.5601C9.09648 15.7019 8.15424 13.3031 8.15424 10.6842C8.15424 4.78348 12.9377 0 18.8385 0C24.7392 0 29.5227 4.78348 29.5227 10.6842Z" fill="#303030" fill-opacity="0.25"/>
</svg>
